/* XPM */
static char * gold_floor_xpm[] = {
"128 128 5 1",
" 	c #7E5231",
".	c #53331A",
"+	c #C08A44",
"@	c #C9B972",
"#	c #DADEA9",
"            ....    ++++@@@@@@@@@@@@++++    ............            ............@@@@@@@@@@@@++++++++++++++++    ....    @@@@    ",
"            ....    ++++@@@@@@@@@@@@++++    ............            ............@@@@@@@@@@@@++++++++++++++++    ....    @@@@    ",
"            ....    ++++@@@@@@@@@@@@++++    ............            ............@@@@@@@@@@@@++++++++++++++++    ....    @@@@    ",
"            ....    ++++@@@@@@@@@@@@++++    ............            ............@@@@@@@@@@@@++++++++++++++++    ....    @@@@    ",
"        ........        @@@@                ....................................++++@@@@########@@@@++++        ....    ++++    ",
"        ........        @@@@                ....................................++++@@@@########@@@@++++        ....    ++++    ",
"        ........        @@@@                ....................................++++@@@@########@@@@++++        ....    ++++    ",
"        ........        @@@@                ....................................++++@@@@########@@@@++++        ....    ++++    ",
"    ............        ++++                ................++++++++++++++++........    ++++@@@@                ....            ",
"    ............        ++++                ................++++++++++++++++........    ++++@@@@                ....            ",
"    ............        ++++                ................++++++++++++++++........    ++++@@@@                ....            ",
"    ............        ++++                ................++++++++++++++++........    ++++@@@@                ....            ",
"....................    ++++            ....................@@@@@@@@++++++++    ........    ++++                ........        ",
"....................    ++++            ....................@@@@@@@@++++++++    ........    ++++                ........        ",
"....................    ++++            ....................@@@@@@@@++++++++    ........    ++++                ........        ",
"....................    ++++            ....................@@@@@@@@++++++++    ........    ++++                ........        ",
"........................                ++++++++++++++++....++++@@@@####@@@@++++    ........                ....................",
"........................                ++++++++++++++++....++++@@@@####@@@@++++    ........                ....................",
"........................                ++++++++++++++++....++++@@@@####@@@@++++    ........                ....................",
"........................                ++++++++++++++++....++++@@@@####@@@@++++    ........                ....................",
"....++++++++++++++++    ............++++++++++++++++++++    ....    @@@@            ........................            ........",
"....++++++++++++++++    ............++++++++++++++++++++    ....    @@@@            ........................            ........",
"....++++++++++++++++    ............++++++++++++++++++++    ....    @@@@            ........................            ........",
"....++++++++++++++++    ............++++++++++++++++++++    ....    @@@@            ........................            ........",
"....++++++++++++++++++++........    @@@@++++++++++++++++++++....    ++++            ................@@@@++++++++++++++++++++    ",
"....++++++++++++++++++++........    @@@@++++++++++++++++++++....    ++++            ................@@@@++++++++++++++++++++    ",
"....++++++++++++++++++++........    @@@@++++++++++++++++++++....    ++++            ................@@@@++++++++++++++++++++    ",
"....++++++++++++++++++++........    @@@@++++++++++++++++++++....    ++++            ................@@@@++++++++++++++++++++    ",
"....@@@@++++++++++++        ....++++@@@@@@@@@@@@@@@@@@@@    ........            ................    @@@@@@@@++++++++++++        ",
"....@@@@++++++++++++        ....++++@@@@@@@@@@@@@@@@@@@@    ........            ................    @@@@@@@@++++++++++++        ",
"....@@@@++++++++++++        ....++++@@@@@@@@@@@@@@@@@@@@    ........            ................    @@@@@@@@++++++++++++        ",
"....@@@@++++++++++++        ....++++@@@@@@@@@@@@@@@@@@@@    ........            ................    @@@@@@@@++++++++++++        ",
"....@@@@########@@@@        ....++++############++++            ............    ++++++++    ....    ++++########@@@@++++        ",
"....@@@@########@@@@        ....++++############++++            ............    ++++++++    ....    ++++########@@@@++++        ",
"....@@@@########@@@@        ....++++############++++            ............    ++++++++    ....    ++++########@@@@++++        ",
"....@@@@########@@@@        ....++++############++++            ............    ++++++++    ....    ++++########@@@@++++        ",
"....++++@@@@@@@@++++        ....++++@@@@++++                    ....    @@@@++++++++++++++++........    @@@@++++                ",
"....++++@@@@@@@@++++        ....++++@@@@++++                    ....    @@@@++++++++++++++++........    @@@@++++                ",
"....++++@@@@@@@@++++        ....++++@@@@++++                    ....    @@@@++++++++++++++++........    @@@@++++                ",
"....++++@@@@@@@@++++        ....++++@@@@++++                    ....    @@@@++++++++++++++++........    @@@@++++                ",
"........    ++++            ....++++@@@@                        ....@@@@@@@@++++++++++++++++    ....    ++++++++                ",
"........    ++++            ....++++@@@@                        ....@@@@@@@@++++++++++++++++    ....    ++++++++                ",
"........    ++++            ....++++@@@@                        ....@@@@@@@@++++++++++++++++    ....    ++++++++                ",
"........    ++++            ....++++@@@@                        ....@@@@@@@@++++++++++++++++    ....    ++++++++                ",
"............            ........    ++++                    ........++++########@@@@++++        ........    ++++            ....",
"............            ........    ++++                    ........++++########@@@@++++        ........    ++++            ....",
"............            ........    ++++                    ........++++########@@@@++++        ........    ++++            ....",
"............            ........    ++++                    ........++++########@@@@++++        ........    ++++            ....",
"....................................                    ............++++++++@@@@++++            ............            ........",
"....................................                    ............++++++++@@@@++++            ............            ........",
"....................................                    ............++++++++@@@@++++            ............            ........",
"....................................                    ............++++++++@@@@++++            ............            ........",
"....    ++++++++++++++++    ............            ................    ++++@@@@                ................................",
"....    ++++++++++++++++    ............            ................    ++++@@@@                ................................",
"....    ++++++++++++++++    ............            ................    ++++@@@@                ................................",
"....    ++++++++++++++++    ............            ................    ++++@@@@                ................................",
"....@@@@@@@@@@@@++++++++++++    ................    ++++++++++++........    ++++            ....    ++++++++++++    ............",
"....@@@@@@@@@@@@++++++++++++    ................    ++++++++++++........    ++++            ....    ++++++++++++    ............",
"....@@@@@@@@@@@@++++++++++++    ................    ++++++++++++........    ++++            ....    ++++++++++++    ............",
"....@@@@@@@@@@@@++++++++++++    ................    ++++++++++++........    ++++            ....    ++++++++++++    ............",
"....++++@@@@############@@@@++++    ....    @@@@@@@@++++++++        ........                    @@@@++++++++++++++++............",
"....++++@@@@############@@@@++++    ....    @@@@@@@@++++++++        ........                    @@@@++++++++++++++++............",
"....++++@@@@############@@@@++++    ....    @@@@@@@@++++++++        ........                    @@@@++++++++++++++++............",
"....++++@@@@############@@@@++++    ....    @@@@@@@@++++++++        ........                    @@@@++++++++++++++++............",
"++++    ++++++++++++@@@@++++        ....++++@@@@########@@@@++++    ............        ....@@@@@@@@++++++++        ....    ++++",
"++++    ++++++++++++@@@@++++        ....++++@@@@########@@@@++++    ............        ....@@@@@@@@++++++++        ....    ++++",
"++++    ++++++++++++@@@@++++        ....++++@@@@########@@@@++++    ............        ....@@@@@@@@++++++++        ....    ++++",
"++++    ++++++++++++@@@@++++        ....++++@@@@########@@@@++++    ............        ....@@@@@@@@++++++++        ....    ++++",
"++++++++....        @@@@            ....    ++++++++@@@@++++    ........................    @@@@####@@@@++++    ....    ++++++++",
"++++++++....        @@@@            ....    ++++++++@@@@++++    ........................    @@@@####@@@@++++    ....    ++++++++",
"++++++++....        @@@@            ....    ++++++++@@@@++++    ........................    @@@@####@@@@++++    ....    ++++++++",
"++++++++....        @@@@            ....    ++++++++@@@@++++    ........................    @@@@####@@@@++++    ....    ++++++++",
"@@@@++++    ....    ++++            ........        ++++        ....++++++++++++........    ++++@@@@++++        ....@@@@@@@@@@@@",
"@@@@++++    ....    ++++            ........        ++++        ....++++++++++++........    ++++@@@@++++        ....@@@@@@@@@@@@",
"@@@@++++    ....    ++++            ........        ++++        ....++++++++++++........    ++++@@@@++++        ....@@@@@@@@@@@@",
"@@@@++++    ....    ++++            ........        ++++        ....++++++++++++........    ++++@@@@++++        ....@@@@@@@@@@@@",
"++++        ....                ....................        ....@@@@@@@@++++++++    ....    ++++@@@@        ........++++@@@@####",
"++++        ....                ....................        ....@@@@@@@@++++++++    ....    ++++@@@@        ........++++@@@@####",
"++++        ....                ....................        ....@@@@@@@@++++++++    ....    ++++@@@@        ........++++@@@@####",
"++++        ....                ....................        ....@@@@@@@@++++++++    ....    ++++@@@@        ........++++@@@@####",
"            ....................++++++++++++    ................++++####@@@@        ....        ++++        ........        ++++",
"            ....................++++++++++++    ................++++####@@@@        ....        ++++        ........        ++++",
"            ....................++++++++++++    ................++++####@@@@        ....        ++++        ........        ++++",
"            ....................++++++++++++    ................++++####@@@@        ....        ++++        ........        ++++",
"        ....................    @@@@++++++++++++    ............    @@@@++++        ........            ................        ",
"        ....................    @@@@++++++++++++    ............    @@@@++++        ........            ................        ",
"        ....................    @@@@++++++++++++    ............    @@@@++++        ........            ................        ",
"        ....................    @@@@++++++++++++    ............    @@@@++++        ........            ................        ",
"....    ++++++++++++    ....    @@@@@@@@++++++++    ............    ++++            ....................    ++++++++    ........",
"....    ++++++++++++    ....    @@@@@@@@++++++++    ............    ++++            ....................    ++++++++    ........",
"....    ++++++++++++    ....    @@@@@@@@++++++++    ............    ++++            ....................    ++++++++    ........",
"....    ++++++++++++    ....    @@@@@@@@++++++++    ............    ++++            ....................    ++++++++    ........",
"++++@@@@@@@@++++++++++++....    ########@@@@@@@@    ................            ....    ++++++++++++....++++@@@@@@@@++++    ....",
"++++@@@@@@@@++++++++++++....    ########@@@@@@@@    ................            ....    ++++++++++++....++++@@@@@@@@++++    ....",
"++++@@@@@@@@++++++++++++....    ########@@@@@@@@    ................            ....    ++++++++++++....++++@@@@@@@@++++    ....",
"++++@@@@@@@@++++++++++++....    ########@@@@@@@@    ................            ....    ++++++++++++....++++@@@@@@@@++++    ....",
"    @@@@########@@@@++++....    ++++@@@@            ............................    ++++++++++++++++....    ++++####@@@@    ....",
"    @@@@########@@@@++++....    ++++@@@@            ............................    ++++++++++++++++....    ++++####@@@@    ....",
"    @@@@########@@@@++++....    ++++@@@@            ............................    ++++++++++++++++....    ++++####@@@@    ....",
"    @@@@########@@@@++++....    ++++@@@@            ............................    ++++++++++++++++....    ++++####@@@@    ....",
"        ++++@@@@++++    ........    ++++        ....    ++++++++    ........    ++++++++++++@@@@    ....        @@@@        ....",
"        ++++@@@@++++    ........    ++++        ....    ++++++++    ........    ++++++++++++@@@@    ....        @@@@        ....",
"        ++++@@@@++++    ........    ++++        ....    ++++++++    ........    ++++++++++++@@@@    ....        @@@@        ....",
"        ++++@@@@++++    ........    ++++        ....    ++++++++    ........    ++++++++++++@@@@    ....        @@@@        ....",
"            ++++    ................        ....    ++++++++++++++++........@@@@++++@@@@@@@@        ....        ++++        ....",
"            ++++    ................        ....    ++++++++++++++++........@@@@++++@@@@@@@@        ....        ++++        ....",
"            ++++    ................        ....    ++++++++++++++++........@@@@++++@@@@@@@@        ....        ++++        ....",
"            ++++    ................        ....    ++++++++++++++++........@@@@++++@@@@@@@@        ....        ++++        ....",
"............        ............................++++@@@@++++++++++++    ....@@@@####@@@@            ........            ........",
"............        ............................++++@@@@++++++++++++    ....@@@@####@@@@            ........            ........",
"............        ............................++++@@@@++++++++++++    ....@@@@####@@@@            ........            ........",
"............        ............................++++@@@@++++++++++++    ....@@@@####@@@@            ........            ........",
"++++++++++++........++++++++++++    ............++++@@@@####@@@@        ....    @@@@++++        ....................    ++++++++",
"++++++++++++........++++++++++++    ............++++@@@@####@@@@        ....    @@@@++++        ....................    ++++++++",
"++++++++++++........++++++++++++    ............++++@@@@####@@@@        ....    @@@@++++        ....................    ++++++++",
"++++++++++++........++++++++++++    ............++++@@@@####@@@@        ....    @@@@++++        ....................    ++++++++",
"@@@@@@@@++++....    @@@@++++++++++++++++    ....        @@@@++++        ....    ++++        ........................++++@@@@@@@@",
"@@@@@@@@++++....    @@@@++++++++++++++++    ....        @@@@++++        ....    ++++        ........................++++@@@@@@@@",
"@@@@@@@@++++....    @@@@++++++++++++++++    ....        @@@@++++        ....    ++++        ........................++++@@@@@@@@",
"@@@@@@@@++++....    @@@@++++++++++++++++    ....        @@@@++++        ....    ++++        ........................++++@@@@@@@@",
"@@@@++++    ....    @@@@++++++++++++++++++++....        @@@@        ........................    ++++++++    ........@@@@########",
"@@@@++++    ....    @@@@++++++++++++++++++++....        @@@@        ........................    ++++++++    ........@@@@########",
"@@@@++++    ....    @@@@++++++++++++++++++++....        @@@@        ........................    ++++++++    ........@@@@########",
"@@@@++++    ....    @@@@++++++++++++++++++++....        @@@@        ........................    ++++++++    ........@@@@########",
"            ....    @@@@############@@@@++++........    ++++        ............@@@@++++++++++++++++++++++++    ....++++@@@@    ",
"            ....    @@@@############@@@@++++........    ++++        ............@@@@++++++++++++++++++++++++    ....++++@@@@    ",
"            ....    @@@@############@@@@++++........    ++++        ............@@@@++++++++++++++++++++++++    ....++++@@@@    ",
"            ....    @@@@############@@@@++++........    ++++        ............@@@@++++++++++++++++++++++++    ....++++@@@@    "};
