/* XPM */
static char * gray_floor_xpm[] = {
"128 128 6 1",
" 	c #525969",
".	c #618691",
"+	c #86AEAD",
"@	c #3A3250",
"#	c #27212E",
"$	c #B1D0C8",
"    ....                        ........++++++++++++........                    ....++++++++............                        ",
"    ....                        ........++++++++++++........                    ....++++++++............                        ",
"    ....                        ........++++++++++++........                    ....++++++++............                        ",
"    ....                        ........++++++++++++........                    ....++++++++............                        ",
"........                            ....................        ........    @@@@    ++++++++........                    ....++++",
"........                            ....................        ........    @@@@    ++++++++........                    ....++++",
"........                            ....................        ........    @@@@    ++++++++........                    ....++++",
"........                            ....................        ........    @@@@    ++++++++........                    ....++++",
"....        @@@@@@@@@@@@            @@@@    ........................    @@@@@@@@    ++++++++................++++++++++++++++....",
"....        @@@@@@@@@@@@            @@@@    ........................    @@@@@@@@    ++++++++................++++++++++++++++....",
"....        @@@@@@@@@@@@            @@@@    ........................    @@@@@@@@    ++++++++................++++++++++++++++....",
"....        @@@@@@@@@@@@            @@@@    ........................    @@@@@@@@    ++++++++................++++++++++++++++....",
"        @@@@@@@@@@@@        ........    @@@@@@@@    ............        @@@@@@@@    ++++++++............++++++++++++............",
"        @@@@@@@@@@@@        ........    @@@@@@@@    ............        @@@@@@@@    ++++++++............++++++++++++............",
"        @@@@@@@@@@@@        ........    @@@@@@@@    ............        @@@@@@@@    ++++++++............++++++++++++............",
"        @@@@@@@@@@@@        ........    @@@@@@@@    ............        @@@@@@@@    ++++++++............++++++++++++............",
"    @@@@####        ....++++++++++++++++    @@@@@@@@@@@@            @@@@####@@@@    ++++$$$$$$$$++++++++++++............        ",
"    @@@@####        ....++++++++++++++++    @@@@@@@@@@@@            @@@@####@@@@    ++++$$$$$$$$++++++++++++............        ",
"    @@@@####        ....++++++++++++++++    @@@@@@@@@@@@            @@@@####@@@@    ++++$$$$$$$$++++++++++++............        ",
"    @@@@####        ....++++++++++++++++    @@@@@@@@@@@@            @@@@####@@@@    ++++$$$$$$$$++++++++++++............        ",
"    ########        ++++$$$$$$$$............        @@@@@@@@    @@@@########        ++++++++$$$$$$$$$$$$........                ",
"    ########        ++++$$$$$$$$............        @@@@@@@@    @@@@########        ++++++++$$$$$$$$$$$$........                ",
"    ########        ++++$$$$$$$$............        @@@@@@@@    @@@@########        ++++++++$$$$$$$$$$$$........                ",
"    ########        ++++$$$$$$$$............        @@@@@@@@    @@@@########        ++++++++$$$$$$$$$$$$........                ",
"@@@@########@@@@....++++++++........            ....    @@@@############@@@@        ++++++++++++........                        ",
"@@@@########@@@@....++++++++........            ....    @@@@############@@@@        ++++++++++++........                        ",
"@@@@########@@@@....++++++++........            ....    @@@@############@@@@        ++++++++++++........                        ",
"@@@@########@@@@....++++++++........            ....    @@@@############@@@@        ++++++++++++........                        ",
"@@@@####@@@@####++++++++++++....            ........    ############@@@@@@@@@@@@    ....++++++++................            @@@@",
"@@@@####@@@@####++++++++++++....            ........    ############@@@@@@@@@@@@    ....++++++++................            @@@@",
"@@@@####@@@@####++++++++++++....            ........    ############@@@@@@@@@@@@    ....++++++++................            @@@@",
"@@@@####@@@@####++++++++++++....            ........    ############@@@@@@@@@@@@    ....++++++++................            @@@@",
"            @@@@++++$$$$++++........................@@@@@@@@@@@@@@@@        @@@@@@@@    ....++++................        @@@@@@@@",
"            @@@@++++$$$$++++........................@@@@@@@@@@@@@@@@        @@@@@@@@    ....++++................        @@@@@@@@",
"            @@@@++++$$$$++++........................@@@@@@@@@@@@@@@@        @@@@@@@@    ....++++................        @@@@@@@@",
"            @@@@++++$$$$++++........................@@@@@@@@@@@@@@@@        @@@@@@@@    ....++++................        @@@@@@@@",
"            @@@@....++++$$$$$$$$++++++++........    @@@@                    @@@@@@@@        ............        @@@@@@@@@@@@    ",
"            @@@@....++++$$$$$$$$++++++++........    @@@@                    @@@@@@@@        ............        @@@@@@@@@@@@    ",
"            @@@@....++++$$$$$$$$++++++++........    @@@@                    @@@@@@@@        ............        @@@@@@@@@@@@    ",
"            @@@@....++++$$$$$$$$++++++++........    @@@@                    @@@@@@@@        ............        @@@@@@@@@@@@    ",
"            @@@@............................    @@@@            ............    @@@@@@@@                    @@@@@@@@@@@@        ",
"            @@@@............................    @@@@            ............    @@@@@@@@                    @@@@@@@@@@@@        ",
"            @@@@............................    @@@@            ............    @@@@@@@@                    @@@@@@@@@@@@        ",
"            @@@@............................    @@@@            ............    @@@@@@@@                    @@@@@@@@@@@@        ",
"            @@@@@@@@....................    @@@@        ....++++++++++++++++....    @@@@####                                    ",
"            @@@@@@@@....................    @@@@        ....++++++++++++++++....    @@@@####                                    ",
"            @@@@@@@@....................    @@@@        ....++++++++++++++++....    @@@@####                                    ",
"            @@@@@@@@....................    @@@@        ....++++++++++++++++....    @@@@####                                    ",
"++++++++....@@@@@@@@@@@@    @@@@@@@@    @@@@            ++++$$$$++++................    @@@@####@@@@@@@@        ....++++++++++++",
"++++++++....@@@@@@@@@@@@    @@@@@@@@    @@@@            ++++$$$$++++................    @@@@####@@@@@@@@        ....++++++++++++",
"++++++++....@@@@@@@@@@@@    @@@@@@@@    @@@@            ++++$$$$++++................    @@@@####@@@@@@@@        ....++++++++++++",
"++++++++....@@@@@@@@@@@@    @@@@@@@@    @@@@            ++++$$$$++++................    @@@@####@@@@@@@@        ....++++++++++++",
"++++....    @@@@            @@@@@@@@@@@@@@@@        ....$$$$++++............        @@@@@@@@@@@@####@@@@....$$$$$$$$$$$$$$$$++++",
"++++....    @@@@            @@@@@@@@@@@@@@@@        ....$$$$++++............        @@@@@@@@@@@@####@@@@....$$$$$$$$$$$$$$$$++++",
"++++....    @@@@            @@@@@@@@@@@@@@@@        ....$$$$++++............        @@@@@@@@@@@@####@@@@....$$$$$$$$$$$$$$$$++++",
"++++....    @@@@            @@@@@@@@@@@@@@@@        ....$$$$++++............        @@@@@@@@@@@@####@@@@....$$$$$$$$$$$$$$$$++++",
"........        ........    @@@@####@@@@@@@@        ++++$$$$............        @@@@@@@@@@@@@@@@@@@@@@@@++++++++++++............",
"........        ........    @@@@####@@@@@@@@        ++++$$$$............        @@@@@@@@@@@@@@@@@@@@@@@@++++++++++++............",
"........        ........    @@@@####@@@@@@@@        ++++$$$$............        @@@@@@@@@@@@@@@@@@@@@@@@++++++++++++............",
"........        ........    @@@@####@@@@@@@@        ++++$$$$............        @@@@@@@@@@@@@@@@@@@@@@@@++++++++++++............",
"........................        ########        ....++++++++............                        @@@@    ++++++++................",
"........................        ########        ....++++++++............                        @@@@    ++++++++................",
"........................        ########        ....++++++++............                        @@@@    ++++++++................",
"........................        ########        ....++++++++............                        @@@@    ++++++++................",
"........................        ########@@@@    ....++++++++............++++++++........    @@@@    ++++++++................++++",
"........................        ########@@@@    ....++++++++............++++++++........    @@@@    ++++++++................++++",
"........................        ########@@@@    ....++++++++............++++++++........    @@@@    ++++++++................++++",
"........................        ########@@@@    ....++++++++............++++++++........    @@@@    ++++++++................++++",
"....++++++++................    @@@@####@@@@@@@@....++++++++++++....++++++++........    @@@@    ....++++............++++++++....",
"....++++++++................    @@@@####@@@@@@@@....++++++++++++....++++++++........    @@@@    ....++++............++++++++....",
"....++++++++................    @@@@####@@@@@@@@....++++++++++++....++++++++........    @@@@    ....++++............++++++++....",
"....++++++++................    @@@@####@@@@@@@@....++++++++++++....++++++++........    @@@@    ....++++............++++++++....",
"....++++$$$$$$$$............    @@@@@@@@        ....++++$$$$$$$$++++++++........        @@@@    ....++++++++++++++++++++........",
"....++++$$$$$$$$............    @@@@@@@@        ....++++$$$$$$$$++++++++........        @@@@    ....++++++++++++++++++++........",
"....++++$$$$$$$$............    @@@@@@@@        ....++++$$$$$$$$++++++++........        @@@@    ....++++++++++++++++++++........",
"....++++$$$$$$$$............    @@@@@@@@        ....++++$$$$$$$$++++++++........        @@@@    ....++++++++++++++++++++........",
"....    ....++++++++++++....@@@@@@@@@@@@            ....++++++++................    @@@@@@@@    ....++++$$$$$$$$++++............",
"....    ....++++++++++++....@@@@@@@@@@@@            ....++++++++................    @@@@@@@@    ....++++$$$$$$$$++++............",
"....    ....++++++++++++....@@@@@@@@@@@@            ....++++++++................    @@@@@@@@    ....++++$$$$$$$$++++............",
"....    ....++++++++++++....@@@@@@@@@@@@            ....++++++++................    @@@@@@@@    ....++++$$$$$$$$++++............",
"            ............    @@@@@@@@                        ................        @@@@        ........++++++++................",
"            ............    @@@@@@@@                        ................        @@@@        ........++++++++................",
"            ............    @@@@@@@@                        ................        @@@@        ........++++++++................",
"            ............    @@@@@@@@                        ................        @@@@        ........++++++++................",
"                                @@@@        ............                            @@@@            ........................    ",
"                                @@@@        ............                            @@@@            ........................    ",
"                                @@@@        ............                            @@@@            ........................    ",
"                                @@@@        ............                            @@@@            ........................    ",
"                                ....++++++++++++++++++++....    @@@@@@@@@@@@        ####                    ........            ",
"                                ....++++++++++++++++++++....    @@@@@@@@@@@@        ####                    ........            ",
"                                ....++++++++++++++++++++....    @@@@@@@@@@@@        ####                    ........            ",
"                                ....++++++++++++++++++++....    @@@@@@@@@@@@        ####                    ........            ",
"            @@@@@@@@        ....++++++++++++++++++++............    @@@@@@@@@@@@    ####@@@@                                    ",
"            @@@@@@@@        ....++++++++++++++++++++............    @@@@@@@@@@@@    ####@@@@                                    ",
"            @@@@@@@@        ....++++++++++++++++++++............    @@@@@@@@@@@@    ####@@@@                                    ",
"            @@@@@@@@        ....++++++++++++++++++++............    @@@@@@@@@@@@    ####@@@@                                    ",
"        @@@@@@@@            ++++++++$$$$$$$$++++............    @@@@@@@@@@@@@@@@@@@@########@@@@@@@@        @@@@@@@@@@@@@@@@@@@@",
"        @@@@@@@@            ++++++++$$$$$$$$++++............    @@@@@@@@@@@@@@@@@@@@########@@@@@@@@        @@@@@@@@@@@@@@@@@@@@",
"        @@@@@@@@            ++++++++$$$$$$$$++++............    @@@@@@@@@@@@@@@@@@@@########@@@@@@@@        @@@@@@@@@@@@@@@@@@@@",
"        @@@@@@@@            ++++++++$$$$$$$$++++............    @@@@@@@@@@@@@@@@@@@@########@@@@@@@@        @@@@@@@@@@@@@@@@@@@@",
"@@@@@@@@@@@@            ....$$$$$$$$$$$$++++............    @@@@@@@@@@@@        @@@@################@@@@@@@@@@@@@@@@@@@@@@@@@@@@",
"@@@@@@@@@@@@            ....$$$$$$$$$$$$++++............    @@@@@@@@@@@@        @@@@################@@@@@@@@@@@@@@@@@@@@@@@@@@@@",
"@@@@@@@@@@@@            ....$$$$$$$$$$$$++++............    @@@@@@@@@@@@        @@@@################@@@@@@@@@@@@@@@@@@@@@@@@@@@@",
"@@@@@@@@@@@@            ....$$$$$$$$$$$$++++............    @@@@@@@@@@@@        @@@@################@@@@@@@@@@@@@@@@@@@@@@@@@@@@",
"@@@@@@@@@@@@            ++++$$$$$$$$++++............                ........            @@@@####@@@@@@@@@@@@                @@@@",
"@@@@@@@@@@@@            ++++$$$$$$$$++++............                ........            @@@@####@@@@@@@@@@@@                @@@@",
"@@@@@@@@@@@@            ++++$$$$$$$$++++............                ........            @@@@####@@@@@@@@@@@@                @@@@",
"@@@@@@@@@@@@            ++++$$$$$$$$++++............                ........            @@@@####@@@@@@@@@@@@                @@@@",
"        @@@@@@@@    ....++++++++++++++++....                ....++++++++....                ....++++++++++++++++++++++++++++....",
"        @@@@@@@@    ....++++++++++++++++....                ....++++++++....                ....++++++++++++++++++++++++++++....",
"        @@@@@@@@    ....++++++++++++++++....                ....++++++++....                ....++++++++++++++++++++++++++++....",
"        @@@@@@@@    ....++++++++++++++++....                ....++++++++....                ....++++++++++++++++++++++++++++....",
"....        @@@@@@@@........++++++++....................++++++++++++........    @@@@....++++++++++++++++++++++++++++............",
"....        @@@@@@@@........++++++++....................++++++++++++........    @@@@....++++++++++++++++++++++++++++............",
"....        @@@@@@@@........++++++++....................++++++++++++........    @@@@....++++++++++++++++++++++++++++............",
"....        @@@@@@@@........++++++++....................++++++++++++........    @@@@....++++++++++++++++++++++++++++............",
"........@@@@@@@@@@@@    ....++++++++................++++++++++++........    @@@@....++++++++++++$$$$$$$$$$$$++++................",
"........@@@@@@@@@@@@    ....++++++++................++++++++++++........    @@@@....++++++++++++$$$$$$$$$$$$++++................",
"........@@@@@@@@@@@@    ....++++++++................++++++++++++........    @@@@....++++++++++++$$$$$$$$$$$$++++................",
"........@@@@@@@@@@@@    ....++++++++................++++++++++++........    @@@@....++++++++++++$$$$$$$$$$$$++++................",
"@@@@@@@@@@@@@@@@        ....++++$$$$++++....++++++++++++++++........    @@@@@@@@....++++$$$$$$$$$$$$....................        ",
"@@@@@@@@@@@@@@@@        ....++++$$$$++++....++++++++++++++++........    @@@@@@@@....++++$$$$$$$$$$$$....................        ",
"@@@@@@@@@@@@@@@@        ....++++$$$$++++....++++++++++++++++........    @@@@@@@@....++++$$$$$$$$$$$$....................        ",
"@@@@@@@@@@@@@@@@        ....++++$$$$++++....++++++++++++++++........    @@@@@@@@....++++$$$$$$$$$$$$....................        ",
"@@@@@@@@@@@@                ....++++$$$$$$$$++++++++++++........    @@@@@@@@@@@@....++++++++++++................        @@@@@@@@",
"@@@@@@@@@@@@                ....++++$$$$$$$$++++++++++++........    @@@@@@@@@@@@....++++++++++++................        @@@@@@@@",
"@@@@@@@@@@@@                ....++++$$$$$$$$++++++++++++........    @@@@@@@@@@@@....++++++++++++................        @@@@@@@@",
"@@@@@@@@@@@@                ....++++$$$$$$$$++++++++++++........    @@@@@@@@@@@@....++++++++++++................        @@@@@@@@"};
