/* XPM */
static char * irom_floor_xpm[] = {
"128 128 15 1",
" 	c #819796",
".	c #C09473",
"+	c #AD7757",
"@	c #577277",
"#	c #7A4841",
"$	c #394A50",
"%	c #090A14",
"&	c #4D2B32",
"*	c #241527",
"=	c #341C27",
"-	c #10141F",
";	c #202E37",
">	c #D7B594",
",	c #A8B5B2",
"'	c #E7D5B3",
"      ....    ++++  @@  @@##@@@@@@            @@          @@        @@@@    @@@@@@##@@@@          @@@@@@$$%%$$##@@@@@@@@++  @@  ",
"      ....    ++++  @@  @@##@@@@@@            @@          @@        @@@@    @@@@@@##@@@@          @@@@@@$$%%$$##@@@@@@@@++  @@  ",
"      @@++++++  @@@@@@@@@@@@      @@@@  ++++    @@              ++@@@@@@  ++  ++@@@@@@@@    @@@@      @@$$%%$$####@@++      @@@@",
"      @@++++++  @@@@@@@@@@@@      @@@@  ++++    @@              ++@@@@@@  ++  ++@@@@@@@@    @@@@      @@$$%%$$####@@++      @@@@",
"  ++@@++++++++  @@@@@@@@@@++++++@@++@@++++@@@@++@@  ++      @@@@@@##@@@@++    @@@@####++@@@@@@@@++@@  @@$$%%$$@@@@++++++++++++  ",
"  ++@@++++++++  @@@@@@@@@@++++++@@++@@++++@@@@++@@  ++      @@@@@@##@@@@++    @@@@####++@@@@@@@@++@@  @@$$%%$$@@@@++++++++++++  ",
"++++@@@@  ++    @@++++++++++@@##++++@@@@####@@@@@@##@@####@@@@@@@@@@++@@####@@@@@@@@####@@@@##@@@@++@@##$$%%&&++@@++@@++@@++++++",
"++++@@@@  ++    @@++++++++++@@##++++@@@@####@@@@@@##@@####@@@@@@@@@@++@@####@@@@@@@@####@@@@##@@@@++@@##$$%%&&++@@++@@++@@++++++",
"@@####@@++@@##@@@@++@@##@@##&&##@@@@@@##@@$$@@@@@@##&&@@######&&##$$##########################@@##@@@@##&&%%&&@@########@@####@@",
"@@####@@++@@##@@@@++@@##@@##&&##@@@@@@##@@$$@@@@@@##&&@@######&&##$$##########################@@##@@@@##&&%%&&@@########@@####@@",
"**%%%%%%==&&======&&&&&&****----**********====--%%%%%%%%%%%%--%%%%%%%%%%%%--**==**====**********==========%%************--%%**&&",
"**%%%%%%==&&======&&&&&&****----**********====--%%%%%%%%%%%%--%%%%%%%%%%%%--**==**====**********==========%%************--%%**&&",
"$$####$$$$&&--%%%%%%%%%%%%%%%%%%%%%%%%%%%%%%%%--&&####$$@@@@@@@@@@@@##$$%%--%%%%%%%%%%%%%%%%%%%%%%%%%%--%%%%%%%%%%%%%%%%%%**;;&&",
"$$####$$$$&&--%%%%%%%%%%%%%%%%%%%%%%%%%%%%%%%%--&&####$$@@@@@@@@@@@@##$$%%--%%%%%%%%%%%%%%%%%%%%%%%%%%--%%%%%%%%%%%%%%%%%%**;;&&",
"@@@@@@@@@@##&&====$$##$$$$$$$$##$$$$$$$$&&$$$$@@@@@@    ++    @@  @@@@$$--$$$$##$$$$$$$$####$$##$$$$$$@@$$$$$$$$&&$$$$$$$$$$####",
"@@@@@@@@@@##&&====$$##$$$$$$$$##$$$$$$$$&&$$$$@@@@@@    ++    @@  @@@@$$--$$$$##$$$$$$$$####$$##$$$$$$@@$$$$$$$$&&$$$$$$$$$$####",
"      @@  @@$$==$$@@@@++@@$$@@@@@@@@@@@@@@@@@@@@              ##  ++@@##--##@@++++@@@@@@@@@@  @@@@@@@@@@@@$$@@@@@@@@@@@@@@##@@++",
"      @@  @@$$==$$@@@@++@@$$@@@@@@@@@@@@@@@@@@@@              ##  ++@@##--##@@++++@@@@@@@@@@  @@@@@@@@@@@@$$@@@@@@@@@@@@@@##@@++",
"##  ++@@  @@##&&$$@@  ++@@          @@@@  @@@@                      @@@@$$$$@@      ++            @@    ++@@@@  @@@@@@  @@######",
"##  ++@@  @@##&&$$@@  ++@@          @@@@  @@@@                      @@@@$$$$@@      ++            @@    ++@@@@  @@@@@@  @@######",
"      ++  @@##$$##@@    ++@@            @@        @@              @@@@@@$$&&##                @@                  @@            ",
"      ++  @@##$$##@@    ++@@            @@        @@              @@@@@@$$&&##                @@                  @@            ",
"++##    ..@@##$$##@@  ..@@        @@                              @@  @@$$&&##  ..    ++      ++        @@@@@@  @@      ++      ",
"++##    ..@@##$$##@@  ..@@        @@                              @@  @@$$&&##  ..    ++      ++        @@@@@@  @@      ++      ",
"  @@..    $$$$&&@@++    ##@@        @@        @@              @@      @@$$$$                            @@@@        @@          ",
"  @@..    $$$$&&@@++    ##@@        @@        @@              @@      @@$$$$                            @@@@        @@          ",
"##++....    ##**@@      ++    ....  ++@@                              @@$$$$++            ..            ##                    ++",
"##++....    ##**@@      ++    ....  ++@@                              @@$$$$++            ..            ##                    ++",
"....++##..  @@==++++    @@      ....          @@        @@      @@  @@@@##$$  ++          ..              @@                    ",
"....++##..  @@==++++    @@      ....          @@        @@      @@  @@@@##$$  ++          ..              @@                    ",
"..++++....  @@&&++    ++@@        ......++            @@@@          @@@@$$&&++        ++            @@                          ",
"..++++....  @@&&++    ++@@        ......++            @@@@          @@@@$$&&++        ++            @@                          ",
"##  ..  ..  @@%%@@  ..  ++  ..  @@    ..  @@                      @@##@@##--##++..    ....      @@                              ",
"##  ..  ..  @@%%@@  ..  ++  ..  @@    ..  @@                      @@##@@##--##++..    ....      @@                              ",
"####++..  ++@@--@@@@++..    @@$$@@..      @@@@@@  ..    ++      ++@@##@@@@--@@  ++  ++  ++        ++@@                      @@@@",
"####++..  ++@@--@@@@++..    @@$$@@..      @@@@@@  ..    ++      ++@@##@@@@--@@  ++  ++  ++        ++@@                      @@@@",
"####++++##++$$--@@++&&##  ..        ..    ++                    ++  @@@@@@--++  ++  @@++++++    @@@@                      ++@@##",
"####++++##++$$--@@++&&##  ..        ..    ++                    ++  @@@@@@--++  ++  @@++++++    @@@@                      ++@@##",
"##@@++  ++@@$$%%++++    ..      ..                          @@  @@@@@@@@##==++++  ++@@  ++++++      ++                      ++##",
"##@@++  ++@@$$%%++++    ..      ..                          @@  @@@@@@@@##==++++  ++@@  ++++++      ++                      ++##",
"######@@@@@@$$--  ++##  ++++++                ++  ++++  ++  ++++++@@@@##$$$$++@@@@++++  ++        ++  ++  @@@@++    @@@@  @@####",
"######@@@@@@$$--  ++##  ++++++                ++  ++++  ++  ++++++@@@@##$$$$++@@@@++++  ++        ++  ++  @@@@++    @@@@  @@####",
"############&&&&&&&&&&&&########@@++++++@@########&&&&####&&&&&&&&&&&&$$$$####@@@@++@@@@++++++@@@@####@@++##@@@@@@####&&&&&&&&##",
"############&&&&&&&&&&&&########@@++++++@@########&&&&####&&&&&&&&&&&&$$$$####@@@@++@@@@++++++@@@@####@@++##@@@@@@####&&&&&&&&##",
"&&$$&&&&$$$$&&--&&==&&&&&&&&##########&&&&&&==&&&&&&&&==&&&&&&&&&&&&&&==**&&&&&&&&&&&&######&&&&&&$$$$&&######$$##@@##&&&&&&&&==",
"&&$$&&&&$$$$&&--&&==&&&&&&&&##########&&&&&&==&&&&&&&&==&&&&&&&&&&&&&&==**&&&&&&&&&&&&######&&&&&&$$$$&&######$$##@@##&&&&&&&&==",
"==&&&&&&&&&&==--==============&&&&==&&====&&&&&&======================**==&&&&&&====&&&&==&&&&&&&&&&&&&&&&&&&&&&&&&&============",
"==&&&&&&&&&&==--==============&&&&==&&====&&&&&&======================**==&&&&&&====&&&&==&&&&&&&&&&&&&&&&&&&&&&&&&&============",
"**----%%--**$$====**%%%%%%%%--%%************--;;&&;;;;;;====;;==&&==**%%%%--==&&&&&&$$&&==&&========**********==**==&&&&&&----**",
"**----%%--**$$====**%%%%%%%%--%%************--;;&&;;;;;;====;;==&&==**%%%%--==&&&&&&$$&&==&&========**********==**==&&&&&&----**",
"  @@@@$$@@@@              @@@@@@@@@@@@##$$$$$$@@++      @@@@@@@@@@##$$&&%%$$@@##@@##$$@@####@@@@@@@@@@@@@@@@@@######@@@@@@      ",
"  @@@@$$@@@@              @@@@@@@@@@@@##$$$$$$@@++      @@@@@@@@@@##$$&&%%$$@@##@@##$$@@####@@@@@@@@@@@@@@@@@@######@@@@@@      ",
"  @@##@@++                          @@##$$$$##    ++    @@      @@####$$%%##@@@@@@  ##    ++        @@@@          ++  @@@@      ",
"  @@##@@++                          @@##$$$$##    ++    @@      @@####$$%%##@@@@@@  ##    ++        @@@@          ++  @@@@      ",
"  @@@@@@@@                          $$##$$##@@++    ..    ++      @@@@$$%%##@@    @@@@  @@@@  @@@@      @@@@            ++      ",
"  @@@@@@@@                          $$##$$##@@++    ..    ++      @@@@$$%%##@@    @@@@  @@@@  @@@@      @@@@            ++      ",
"  ++        ++                      @@@@##@@@@    ....++          ++##$$--##@@@@@@@@  @@                                    @@@@",
"  ++        ++                      @@@@##@@@@    ....++          ++##$$--##@@@@@@@@  @@                                    @@@@",
"  ++    ++++++++            @@        @@@@@@@@++++    @@    @@    ++@@$$--##@@##++@@                    @@              @@@@@@@@",
"  ++    ++++++++            @@        @@@@@@@@++++    @@    @@    ++@@$$--##@@##++@@                    @@              @@@@@@@@",
"          ++++++    @@          ++++  @@##@@@@##@@++@@  ++@@        @@$$--##@@@@@@++                @@        @@        @@@@@@@@",
"          ++++++    @@          ++++  @@##@@@@##@@++@@  ++@@        @@$$--##@@@@@@++                @@        @@        @@@@@@@@",
"++      @@  ++@@++@@@@            ++  @@####@@##++      ++##++    @@@@$$**##@@@@++@@            @@++++        @@      ++@@@@@@@@",
"++      @@  ++@@++@@@@            ++  @@####@@##++      ++##++    @@@@$$**##@@@@++@@            @@++++        @@      ++@@@@@@@@",
"++  ##++##++@@++++++@@++++          @@@@####@@##@@++    @@@@++@@  @@@@$$--##@@++++++@@++        @@@@@@                  @@@@@@@@",
"++  ##++##++@@++++++@@++++          @@@@####@@##@@++    @@@@++@@  @@@@$$--##@@++++++@@++        @@@@@@                  @@@@@@@@",
"++++++++@@++@@++++++@@@@++@@@@    ++@@@@######@@##@@++@@@@@@++++++@@##&&%%$$@@++++++++++@@  ++++++++++++@@++++++@@++++@@@@++@@++",
"++++++++@@++@@++++++@@@@++@@@@    ++@@@@######@@##@@++@@@@@@++++++@@##&&%%$$@@++++++++++@@  ++++++++++++@@++++++@@++++@@@@++@@++",
"@@@@@@@@@@    @@@@++@@@@@@####@@##@@@@@@######@@++@@@@@@####@@++@@@@$$==%%&&@@++++@@++++++@@  ++++@@++++++++@@@@######@@@@@@@@@@",
"@@@@@@@@@@    @@@@++@@@@@@####@@##@@@@@@######@@++@@@@@@####@@++@@@@$$==%%&&@@++++@@++++++@@  ++++@@++++++++@@@@######@@@@@@@@@@",
"@@##$$##$$##++@@####&&&&&&$$########&&####&&&&&&##############@@##&&&&==--==####@@@@$$####@@@@@@##@@@@@@########&&$$##@@@@@@@@##",
"@@##$$##$$##++@@####&&&&&&$$########&&####&&&&&&##############@@##&&&&==--==####@@@@$$####@@@@@@##@@@@@@########&&$$##@@@@@@@@##",
"%%------**%%%%%%%%%%%%%%%%--**----%%%%--==&&&&==--%%%%%%%%--**--****====&&$$**&&==%%%%--****%%==&&&&--%%%%%%%%**$$**%%%%%%%%%%--",
"%%------**%%%%%%%%%%%%%%%%--**----%%%%--==&&&&==--%%%%%%%%--**--****====&&$$**&&==%%%%--****%%==&&&&--%%%%%%%%**$$**%%%%%%%%%%--",
"..++&&  ..>>>>,,@@&&  >>>>>>  >>,,@@$$====&&====$$,,>>  @@@@  @@@@@@@@@@  ....@@@@$$@@..,,  $$$$$$&&;;--  >>>>>>..>>>>>>>>>>>>..",
"..++&&  ..>>>>,,@@&&  >>>>>>  >>,,@@$$====&&====$$,,>>  @@@@  @@@@@@@@@@  ....@@@@$$@@..,,  $$$$$$&&;;--  >>>>>>..>>>>>>>>>>>>..",
"  ..  @@      ++$$%%##@@            @@@@            ....                            @@@@++    @@##@@$$==##@@++  ....,,,,        ",
"  ..  @@      ++$$%%##@@            @@@@            ....                            @@@@++    @@##@@$$==##@@++  ....,,,,        ",
"            ++@@$$%%@@@@        ++@@@@        ..  ++++      @@@@                            @@@@@@$$&&**##++++  ++....  @@      ",
"            ++@@$$%%@@@@        ++@@@@        ..  ++++      @@@@                            @@@@@@$$&&**##++++  ++....  @@      ",
"      ++      @@$$##++++          @@      @@      @@++                        ..          @@@@@@##@@$$--@@      ......          ",
"      ++      @@$$##++++          @@      @@      @@++                        ..          @@@@@@##@@$$--@@      ......          ",
"++        @@@@@@$$@@++++++++++        ..            ++                                      ++@@@@@@$$--@@++                    ",
"++        @@@@@@$$@@++++++++++        ..            ++                                      ++@@@@@@$$--@@++                    ",
"          @@  @@==++++++++        ....    ..        ++    @@++                              @@@@@@@@$$**@@                      ",
"          @@  @@==++++++++        ....    ..        ++    @@++                              @@@@@@@@$$**@@                      ",
"@@      ++@@  @@&&++++++++++            ..          @@@@@@++@@++@@                          ++##$$@@$$--@@@@                    ",
"@@      ++@@  @@&&++++++++++            ..          @@@@@@++@@++@@                          ++##$$@@$$--@@@@                    ",
"##      ++@@  @@$$@@++++++@@                ..    ++@@@@@@@@@@@@@@  ++  ++    ++    ++++@@      @@@@$$%%##@@    ++              ",
"##      ++@@  @@$$@@++++++@@                ..    ++@@@@@@@@@@@@@@  ++  ++    ++    ++++@@      @@@@$$%%##@@    ++              ",
"          @@####$$**    ++++++++++++              ++@@++@@++++    ++  @@@@@@@@@@    ++            @@$$%%##@@    ++      @@      ",
"          @@####$$**    ++++++++++++              ++@@++@@++++    ++  @@@@@@@@@@    ++            @@$$%%##@@    ++      @@      ",
"++      @@  @@##$$--++++++++....++++++@@++            @@++  ++++++++    ++++@@++@@              @@@@$$%%$$##@@  ++++++++        ",
"++      @@  @@##$$--++++++++....++++++@@++            @@++  ++++++++    ++++@@++@@              @@@@$$%%$$##@@  ++++++++        ",
"      ++  @@@@@@$$%%++++++++++++    ++  ++++++++      @@++++++@@@@++  ++@@++++@@@@@@++  ++  @@@@@@$$&&--$$@@++++++++++++        ",
"      ++  @@@@@@$$%%++++++++++++    ++  ++++++++      @@++++++@@@@++  ++@@++++@@@@@@++  ++  @@@@@@$$&&--$$@@++++++++++++        ",
"++      @@@@@@##$$$$++##++++++++++++@@    ++++++@@++++++@@##@@@@@@@@@@@@@@++@@@@@@@@@@@@@@@@@@@@@@$$;;%%&&##@@++  ++  ++++@@    ",
"++      @@@@@@##$$$$++##++++++++++++@@    ++++++@@++++++@@##@@@@@@@@@@@@@@++@@@@@@@@@@@@@@@@@@@@@@$$;;%%&&##@@++  ++  ++++@@    ",
"++  ++@@@@##$$$$&&$$##@@++@@  ++++++++@@@@@@####@@@@++@@@@##@@@@@@@@@@@@@@@@##@@@@##@@######@@##@@$$==%%&&&&####@@@@++@@++@@@@@@",
"++  ++@@@@##$$$$&&$$##@@++@@  ++++++++@@@@@@####@@@@++@@@@##@@@@@@@@@@@@@@@@##@@@@##@@######@@##@@$$==%%&&&&####@@@@++@@++@@@@@@",
"@@@@@@@@####&&&&==--&&##@@##++####&&########&&&&######@@@@####################################$$##$$==%%==$$########@@@@@@@@@@@@",
"@@@@@@@@####&&&&==--&&##@@##++####&&########&&&&######@@@@####################################$$##$$==%%==$$########@@@@@@@@@@@@",
"@@####&&$$&&$$&&==%%&&****==&&&&&&&&============&&&&&&$$$$$$&&$$&&##$$&&&&&&&&==$$&&$$$$&&&&$$&&&&&&**%%==&&$$==&&========######",
"@@####&&$$&&$$&&==%%&&****==&&&&&&&&============&&&&&&$$$$$$&&$$&&##$$&&&&&&&&==$$&&$$$$&&&&$$&&&&&&**%%==&&$$==&&========######",
"******----==%%**$$$$##..>>..##$$$$$$####@@$$$$$$&&&&&&$$&&&&$$&&======----==--**==--------%%%%**;;$$$$$$$$****==******----&&$$##",
"******----==%%**$$$$##..>>..##$$$$$$####@@$$$$$$&&&&&&$$&&&&$$&&======----==--**==--------%%%%**;;$$$$$$$$****==******----&&$$##",
"@@@@@@@@@@@@  >>>>''''>>>>''''''>>>>>>>>>>>>..............  ..      @@$$$$----@@@@@@@@  @@@@  ##@@                  ..  ++  ,,,,",
"@@@@@@@@@@@@  >>>>''''>>>>''''''>>>>>>>>>>>>..............  ..      @@$$$$----@@@@@@@@  @@@@  ##@@                  ..  ++  ,,,,",
"..  @@......>>,,..    ..    ++>>>>>>..      ........@@  ..        ..  @@$$--**++..                        @@  ..                ",
"..  @@......>>,,..    ..    ++>>>>>>..      ........@@  ..        ..  @@$$--**++..                        @@  ..                ",
"....      ..    ....  ..      ++                ++                ##@@$$$$====@@++        @@++    @@      ++@@    ..    ++      ",
"....      ..    ....  ..      ++                ++                ##@@$$$$====@@++        @@++    @@      ++@@    ..    ++      ",
"  ..        ++            ++          @@      @@  @@              @@##@@$$==&&@@++    @@@@++++++        ++@@  ++              ..",
"  ..        ++            ++          @@      @@  @@              @@##@@$$==&&@@++    @@@@++++++        ++@@  ++              ..",
"                ++++  ......    @@    ++    @@@@                @@@@##@@$$$$==++  ++++@@@@@@@@@@@@@@++@@@@++            ++      ",
"                ++++  ......    @@    ++    @@@@                @@@@##@@$$$$==++  ++++@@@@@@@@@@@@@@++@@@@++            ++      ",
"@@    @@  ++....++          ++@@  ++++      ++    @@              @@@@@@##$$--@@@@        @@@@@@@@++@@@@++@@@@      ++++      ++",
"@@    @@  ++....++          ++@@  ++++      ++    @@              @@@@@@##$$--@@@@        @@@@@@@@++@@@@++@@@@      ++++      ++",
"    ..    ++++++++++++++++++  ++  ++  ++@@++@@  @@@@            ++@@##@@##$$==##++      @@    @@++      @@          ++@@++@@  ##",
"    ..    ++++++++++++++++++  ++  ++  ++@@++@@  @@@@            ++@@##@@##$$==##++      @@    @@++      @@          ++@@++@@  ##",
"    ..  @@  ++++  ++      ++++    ++++@@@@@@      @@@@      ++@@++  @@@@$$$$**@@++##++  @@@@@@@@++          @@    @@@@@@@@++++  ",
"    ..  @@  ++++  ++      ++++    ++++@@@@@@      @@@@      ++@@++  @@@@$$$$**@@++##++  @@@@@@@@++          @@    @@@@@@@@++++  ",
"        ++++  @@@@                ++++++@@@@++    @@@@      ++  ++++@@@@@@$$--##@@++##    @@            ++@@@@++++@@++@@@@      ",
"        ++++  @@@@                ++++++@@@@++    @@@@      ++  ++++@@@@@@$$--##@@++##    @@            ++@@@@++++@@++@@@@      ",
"  ++@@++    @@@@@@++@@++++@@      @@++++  @@++++@@@@@@@@++  @@@@@@@@@@@@@@$$%%@@++##@@@@@@@@@@            ++@@++@@@@@@@@  ++    ",
"  ++@@++    @@@@@@++@@++++@@      @@++++  @@++++@@@@@@@@++  @@@@@@@@@@@@@@$$%%@@++##@@@@@@@@@@            ++@@++@@@@@@@@  ++    ",
"                    @@@@####@@@@    @@++@@##@@++@@@@@@@@@@    @@++@@@@@@$$&&%%########@@##@@    ++    @@@@  ++@@@@@@@@    ++  ..",
"                    @@@@####@@@@    @@++@@##@@++@@@@@@@@@@    @@++@@@@@@$$&&%%########@@##@@    ++    @@@@  ++@@@@@@@@    ++  .."};
