/* XPM */
static char * iron_door_xpm[] = {
"128 128 22 1",
" 	c #10141F",
".	c #4D2B32",
"+	c #341C27",
"@	c #241527",
"#	c #577277",
"$	c #394A50",
"%	c #819796",
"&	c #A8B5B2",
"*	c #E7D5B3",
"=	c #151D28",
"-	c #090A14",
";	c #202E37",
">	c #411D31",
",	c #7A4841",
"'	c #AD7757",
")	c #EBEDE9",
"!	c #602C2C",
"~	c #752438",
"{	c #884B2B",
"]	c #DA863E",
"^	c #CF573C",
"/	c #BE772C",
"  ..++..++@@++##++....##$$##$$##$$##$$$$$$%%##%%$$$$&&&&&&%%&&****&&%%&&&&&&$$$$%%##%%$$$$$$##$$##$$##$$##....++##++@@++..++..  ",
"  ..++..++@@++##++....##$$##$$##$$##$$$$$$%%##%%$$$$&&&&&&%%&&****&&%%&&&&&&$$$$%%##%%$$$$$$##$$##$$##$$##....++##++@@++..++..  ",
"  $$++######%%%%%%$$##%%&&%%%%%%##%%%%&&%%&&%%%%%%&&&&##%%&&%%&&&&%%&&%%##&&&&%%%%%%&&%%&&%%%%##%%%%%%&&%%##$$%%%%%%######++$$  ",
"  $$++######%%%%%%$$##%%&&%%%%%%##%%%%&&%%&&%%%%%%&&&&##%%&&%%&&&&%%&&%%##&&&&%%%%%%&&%%&&%%%%##%%%%%%&&%%##$$%%%%%%######++$$  ",
"==##..####%%%%%%$$          --    --              @@          @@@@          @@              --    --          $$%%%%%%####..##==",
"==##..####%%%%%%$$          --    --              @@          @@@@          @@              --    --          $$%%%%%%####..##==",
";;$$$$####%%%%..  @@      @@@@;;;;;;--------------------  ;;..$$$$..;;  --------------------;;;;;;@@@@      @@  ..%%%%####$$$$;;",
";;$$$$####%%%%..  @@      @@@@;;;;;;--------------------  ;;..$$$$..;;  --------------------;;;;;;@@@@      @@  ..%%%%####$$$$;;",
"@@$$..####%%$$  ##########%%%%%%%%&&##--------------@@$$##%%%%####%%%%##$$@@--------------##&&%%%%%%%%##########  $$%%####..$$@@",
"@@$$..####%%$$  ##########%%%%%%%%&&##--------------@@$$##%%%%####%%%%##$$@@--------------##&&%%%%%%%%##########  $$%%####..$$@@",
"--..;;$$$$>>@@%%&&%%##%%%%##%%%%&&%%++----------  --++$$%%%%%%&&&&%%%%%%$$++--  ----------++%%&&%%%%##%%%%##%%&&%%@@>>$$$$;;..--",
"--..;;$$$$>>@@%%&&%%##%%%%##%%%%&&%%++----------  --++$$%%%%%%&&&&%%%%%%$$++--  ----------++%%&&%%%%##%%%%##%%&&%%@@>>$$$$;;..--",
"  ##++,,$$..$$$$----  --  ------------  ++++  $$##++;;$$&&##%%&&&&%%##&&$$;;++##$$  ++++  ------------  --  ----$$$$..$$,,++##  ",
"  ##++,,$$..$$$$----  --  ------------  ++++  $$##++;;$$&&##%%&&&&%%##&&$$;;++##$$  ++++  ------------  --  ----$$$$..$$,,++##  ",
"@@$$$$##%%%%$$@@----------------------@@++@@  $$&&++;;$$%%##%%%%%%%%##%%$$;;++&&$$  @@++@@----------------------@@$$%%%%##$$$$@@",
"@@$$$$##%%%%$$@@----------------------@@++@@  $$&&++;;$$%%##%%%%%%%%##%%$$;;++&&$$  @@++@@----------------------@@$$%%%%##$$$$@@",
"++$$..%%##%%@@------------@@@@  ++++  ++;;..--;;;;@@;;$$####%%&&&&%%####$$;;@@;;;;--..;;++  ++++  @@@@------------@@%%##%%..$$++",
"++$$..%%##%%@@------------@@@@  ++++  ++;;..--;;;;@@;;$$####%%&&&&%%####$$;;@@;;;;--..;;++  ++++  @@@@------------@@%%##%%..$$++",
"@@##..%%##%%++------      ......$$$$++..$$$$  @@@@  ++$$$$..##$$$$##..$$$$++  @@@@  $$$$..++$$$$......      ------++%%##%%..##@@",
"@@##..%%##%%++------      ......$$$$++..$$$$  @@@@  ++$$$$..##$$$$##..$$$$++  @@@@  $$$$..++$$$$......      ------++%%##%%..##@@",
";;##++####%%..    @@@@  ++$$,,..,,,,++$$$$$$;;    --@@  ;;$$$$$$$$$$$$;;  @@--    ;;$$$$$$++,,,,..,,$$++  @@@@    ..%%####++##;;",
";;##++####%%..    @@@@  ++$$,,..,,,,++$$$$$$;;    --@@  ;;$$$$$$$$$$$$;;  @@--    ;;$$$$$$++,,,,..,,$$++  @@@@    ..%%####++##;;",
"@@##..####%%..@@@@;;;;  ++..,,$$,,##..$$$$##$$;;    --                    --    ;;$$##$$$$..##,,$$,,..++  ;;;;@@@@..%%####..##@@",
"@@##..####%%..@@@@;;;;  ++..,,$$,,##..$$$$##$$;;    --                    --    ;;$$##$$$$..##,,$$,,..++  ;;;;@@@@..%%####..##@@",
";;##..####%%..++;;@@;;==++..,,..,,,,..$$$$$$##$$$$$$;;--                --;;$$$$$$##$$$$$$..,,,,..,,..++==;;@@;;++..%%####..##;;",
";;##..####%%..++;;@@;;==++..,,..,,,,..$$$$$$##$$$$$$;;--                --;;$$$$$$##$$$$$$..,,,,..,,..++==;;@@;;++..%%####..##;;",
";;##..####&&..++++$$$$;;++..,,..,,++@@$$$$############;;  ++++++++++++  ;;############$$$$@@++,,..,,..++;;$$$$++++..&&####..##;;",
";;##..####&&..++++$$$$;;++..,,..,,++@@$$$$############;;  ++++++++++++  ;;############$$$$@@++,,..,,..++;;$$$$++++..&&####..##;;",
";;##..####%%..++++$$$$;;++....$$++--++,,$$$$####%%##########$$$$$$$$##########%%####$$$$,,++--++$$....++;;$$$$++++..%%####..##;;",
";;##..####%%..++++$$$$;;++....$$++--++,,$$$$####%%##########$$$$$$$$##########%%####$$$$,,++--++$$....++;;$$$$++++..%%####..##;;",
";;##..@@$$##..++@@##$$;;++..++++  --++$$..$$####%%##%%&&&&&&&&%%%%&&&&&&&&%%##%%####$$..$$++--  ++++..++;;$$##@@++..##$$@@..##;;",
";;##..@@$$##..++@@##$$;;++..++++  --++$$..$$####%%##%%&&&&&&&&%%%%&&&&&&&&%%##%%####$$..$$++--  ++++..++;;$$##@@++..##$$@@..##;;",
"@@##..$$++##..++++$$;;@@++......  ;;$$##$$##$$%%%%%%%%&&&&&&&&%%%%&&&&&&&&%%%%%%%%$$##$$##$$;;  ......++@@;;$$++++..##++$$..##@@",
"@@##..$$++##..++++$$;;@@++......  ;;$$##$$##$$%%%%%%%%&&&&&&&&%%%%&&&&&&&&%%%%%%%%$$##$$##$$;;  ......++@@;;$$++++..##++$$..##@@",
";;%%..==@@$$..++@@$$$$;;++$$....++$$$$%%$$$$##%%&&%%%%%%##'',,%%%%,,''##%%%%%%&&%%##$$$$%%$$$$++....$$++;;$$$$@@++..$$@@==..%%;;",
";;%%..==@@$$..++@@$$$$;;++$$....++$$$$%%$$$$##%%&&%%%%%%##'',,%%%%,,''##%%%%%%&&%%##$$$$%%$$$$++....$$++;;$$$$@@++..$$@@==..%%;;",
"@@##....++$$..++++##$$;;++..$$$$..$$,,##$$..;;%%&&##%%..++&&&&&&&&&&&&++..%%##&&%%;;..$$##,,$$..$$$$..++;;$$##++++..$$++....##@@",
"@@##....++$$..++++##$$;;++..$$$$..$$,,##$$..;;%%&&##%%..++&&&&&&&&&&&&++..%%##&&%%;;..$$##,,$$..$$$$..++;;$$##++++..$$++....##@@",
";;##++..$$....++++$$$$;;++....$$..######....;;%%######++..++;;;;;;;;++..++######%%;;....######..$$....++;;$$$$++++....$$..++##;;",
";;##++..$$....++++$$$$;;++....$$..######....;;%%######++..++;;;;;;;;++..++######%%;;....######..$$....++;;$$$$++++....$$..++##;;",
";;##%%%%&&%%,,++++$$$$;;++........######....@@%%))))%%;;++##&&))))&&##++;;%%))))%%@@....######........++;;$$$$++++,,%%&&%%%%##;;",
";;##%%%%&&%%,,++++$$$$;;++........######....@@%%))))%%;;++##&&))))&&##++;;%%))))%%@@....######........++;;$$$$++++,,%%&&%%%%##;;",
"++######%%%%,,++@@##$$@@@@......$$######....  @@++++++@@$$$$&&&&&&&&$$$$@@++++++@@  ....######$$......@@@@$$##@@++,,%%%%######++",
"++######%%%%,,++@@##$$@@@@......$$######....  @@++++++@@$$$$&&&&&&&&$$$$@@++++++@@  ....######$$......@@@@$$##@@++,,%%%%######++",
"  $$########,,++  ##$$==++..$$$$$$######;;$$$$;;$$$$$$++++$$$$$$$$$$$$++++$$$$$$;;$$$$;;######$$$$$$..++==$$##  ++,,########$$  ",
"  $$########,,++  ##$$==++..$$$$$$######;;$$$$;;$$$$$$++++$$$$$$$$$$$$++++$$$$$$;;$$$$;;######$$$$$$..++==$$##  ++,,########$$  ",
"--@@@@++@@@@@@@@==##$$==++......$$####$$;;@@##,,''++..++..++;;@@@@;;++..++..++'',,##@@;;$$####$$......++==$$##==@@@@@@@@++@@@@--",
"--@@@@++@@@@@@@@==##$$==++......$$####$$;;@@##,,''++..++..++;;@@@@;;++..++..++'',,##@@;;$$####$$......++==$$##==@@@@@@@@++@@@@--",
";;##++######..@@@@##$$@@++..$$$$..####$$$$++##!!~~!!;;++....$$$$$$$$....++;;!!~~!!##++$$$$####..$$$$..++@@$$##@@@@..######++##;;",
";;##++######..@@@@##$$@@++..$$$$..####$$$$++##!!~~!!;;++....$$$$$$$$....++;;!!~~!!##++$$$$####..$$$$..++@@$$##@@@@..######++##;;",
"..##++##%%##..++@@##$$==++....$$$$######$$;;..++++..@@++..@@........@@..++@@..++++..;;$$######$$$$....++==$$##@@++..##%%##++##..",
"..##++##%%##..++@@##$$==++....$$$$######$$;;..++++..@@++..@@........@@..++@@..++++..;;$$######$$$$....++==$$##@@++..##%%##++##..",
";;##..######,,++  $$$$==++....,,..######$$;;########$$++..++@@++++@@++..++$$########;;$$######..,,....++==$$$$  ++,,######..##;;",
";;##..######,,++  $$$$==++....,,..######$$;;########$$++..++@@++++@@++..++$$########;;$$######..,,....++==$$$$  ++,,######..##;;",
";;##..####%%##++@@$$$$;;++....,,..####$$$$;;########$$;;..$$%%%%%%%%$$..;;$$########;;$$$$####..,,....++;;$$$$@@++##%%####..##;;",
";;##..####%%##++@@$$$$;;++....,,..####$$$$;;########$$;;..$$%%%%%%%%$$..;;$$########;;$$$$####..,,....++;;$$$$@@++##%%####..##;;",
"++##$$$$##,,##@@@@$$$$;;++....$$..$$##$$$$$$########$$;;..$$))****))$$..;;$$########$$$$$$##$$..$$....++;;$$$$@@@@##,,##$$$$##++",
"++##$$$$##,,##@@@@$$$$;;++....$$..$$##$$$$$$########$$;;..$$))****))$$..;;$$########$$$$$$##$$..$$....++;;$$$$@@@@##,,##$$$$##++",
";;##$$########@@@@$$$$@@++..,,$$..$$####;;$$##########;;..$$%%%%%%%%$$..;;##########$$;;####$$..$$,,..++@@$$$$@@@@########$$##;;",
";;##$$########@@@@$$$$@@++..,,$$..$$####;;$$##########;;..$$%%%%%%%%$$..;;##########$$;;####$$..$$,,..++@@$$$$@@@@########$$##;;",
"++##$$++@@++##@@@@$$$$==++....$$..$$$$##;;$$##########++....##$$$$##....++##########$$;;##$$$$..$$....++==$$$$@@@@##++@@++$$##++",
"++##$$++@@++##@@@@$$$$==++....$$..$$$$##;;$$##########++....##$$$$##....++##########$$;;##$$$$..$$....++==$$$$@@@@##++@@++$$##++",
"@@$$..%%&&%%##@@@@$$$$==++....$$..$$####;;$$##$$..$$##++..++;;$$$$;;++..++##$$..$$##$$;;####$$..$$....++==$$$$@@@@##%%&&%%..$$@@",
"@@$$..%%&&%%##@@@@$$$$==++....$$..$$####;;$$##$$..$$##++..++;;$$$$;;++..++##$$..$$##$$;;####$$..$$....++==$$$$@@@@##%%&&%%..$$@@",
"@@##$$++..$$##@@;;$$$$==++........######;;;;##$$####$$....##&&))))&&##....$$####$$##;;;;######........++==$$$$;;@@##$$..++$$##@@",
"@@##$$++..$$##@@;;$$$$==++........######;;;;##$$####$$....##&&))))&&##....$$####$$##;;;;######........++==$$$$;;@@##$$..++$$##@@",
"++$$;;++$$..$$@@;;$$$$==......$$$$######;;$$##$$$$##$$....@@        @@....$$##$$$$##$$;;######$$$$......==$$$$;;@@$$..$$++;;$$++",
"++$$;;++$$..$$@@;;$$$$==......$$$$######;;$$##$$$$##$$....@@        @@....$$##$$$$##$$;;######$$$$......==$$$$;;@@$$..$$++;;$$++",
"@@..@@;;;;$$++  ;;..$$==......$$..##$$##;;$$##$$$$##$$....$$##%%%%##$$....$$##$$$$##$$;;##$$##..$$......==$$..;;  ++$$;;;;@@..@@",
"@@..@@;;;;$$++  ;;..$$==......$$..##$$##;;$$##$$$$##$$....$$##%%%%##$$....$$##$$$$##$$;;##$$##..$$......==$$..;;  ++$$;;;;@@..@@",
"@@$$----  --@@@@;;$$$$==++....$$..$$$$$$;;;;##$$$$$$$$++..$$%%%%%%%%$$..++$$$$$$$$##;;;;$$$$$$..$$....++==$$$$;;@@@@--  ----$$@@",
"@@$$----  --@@@@;;$$$$==++....$$..$$$$$$;;;;##$$$$$$$$++..$$%%%%%%%%$$..++$$$$$$$$##;;;;$$$$$$..$$....++==$$$$;;@@@@--  ----$$@@",
"==$$++##$$%%..++++$$$$==++....$$..$$$$$$;;$$##$$$$##$$;;....########....;;$$##$$$$##$$;;$$$$$$..$$....++==$$$$++++..%%$$##++$$==",
"==$$++##$$%%..++++$$$$==++....$$..$$$$$$;;$$##$$$$##$$;;....########....;;$$##$$$$##$$;;$$$$$$..$$....++==$$$$++++..%%$$##++$$==",
"@@$$++######..++++$$$$==++......++..$$$$++$$##$$$$##$$++....$$$$$$$$....++$$##$$$$##$$++$$$$..++......++==$$$$++++..######++$$@@",
"@@$$++######..++++$$$$==++......++..$$$$++$$##$$$$##$$++....$$$$$$$$....++$$##$$$$##$$++$$$$..++......++==$$$$++++..######++$$@@",
"++##..########++++$$$$==++......++$$$$$$++$$$$$$....$$@@    @@@@@@@@    @@$$....$$$$$$++$$$$$$++......++==$$$$++++########..##++",
"++##..########++++$$$$==++......++$$$$$$++$$$$$$....$$@@    @@@@@@@@    @@$$....$$$$$$++$$$$$$++......++==$$$$++++########..##++",
"++##..$$$$$$##@@;;$$$$==++........$$$$$$;;$$$$$$......$$..++++++++++++..$$......$$$$$$;;$$$$$$........++==$$$$;;@@##$$$$$$..##++",
"++##..$$$$$$##@@;;$$$$==++........$$$$$$;;$$$$$$......$$..++++++++++++..$$......$$$$$$;;$$$$$$........++==$$$$;;@@##$$$$$$..##++",
"@@##++$$$$$$@@@@  $$$$==++..........$$$$;;$$$$..@@@@--$$$$##++++++++##$$$$--@@@@..$$$$;;$$$$..........++==$$$$  @@@@$$$$$$++##@@",
"@@##++$$$$$$@@@@  $$$$==++..........$$$$;;$$$$..@@@@--$$$$##++++++++##$$$$--@@@@..$$$$;;$$$$..........++==$$$$  @@@@$$$$$$++##@@",
"@@##++##$$$$++++  $$$$==++......++$$$$;;......    $$  ####..!!,,,,!!..####  $$    ......;;$$$$++......++==$$$$  ++++$$$$##++##@@",
"@@##++##$$$$++++  $$$$==++......++$$$$;;......    $$  ####..!!,,,,!!..####  $$    ......;;$$$$++......++==$$$$  ++++$$$$##++##@@",
"@@##++####$$..@@==$$$$==++......++$$$$$$..@@$$@@##$$++####..$$$$$$$$..####++$$##@@$$@@..$$$$$$++......++==$$$$==@@..$$####++##@@",
"@@##++####$$..@@==$$$$==++......++$$$$$$..@@$$@@##$$++####..$$$$$$$$..####++$$##@@$$@@..$$$$$$++......++==$$$$==@@..$$####++##@@",
"@@##++##$$$$..++==;;$$  @@........$$$$;;;;@@....##$$@@####$$,,,,,,,,$$####@@$$##....@@;;;;$$$$........@@  $$;;==++..$$$$##++##@@",
"@@##++##$$$$..++==;;$$  @@........$$$$;;;;@@....##$$@@####$$,,,,,,,,$$####@@$$##....@@;;;;$$$$........@@  $$;;==++..$$$$##++##@@",
"@@##++$$$$$$..++  $$;;  ..++........$$$$..++;;;;##..++####....$$$$....####++..##;;;;++..$$$$........++..  ;;$$  ++..$$$$$$++##@@",
"@@##++$$$$$$..++  $$;;  ..++........$$$$..++;;;;##..++####....$$$$....####++..##;;;;++..$$$$........++..  ;;$$  ++..$$$$$$++##@@",
"@@$$++$$$$$$++++  $$;;  ..++++++....$$$$;;++..++$$@@  ####..$$$$$$$$..####  @@$$++..++;;$$$$....++++++..  ;;$$  ++++$$$$$$++$$@@",
"@@$$++$$$$$$++++  $$;;  ..++++++....$$$$;;++..++$$@@  ####..$$$$$$$$..####  @@$$++..++;;$$$$....++++++..  ;;$$  ++++$$$$$$++$$@@",
"  ..++$$$$$$++++  $$;;  ++++++++....  ;;;;;;$$$$....@@$$##;;++$$$$++;;##$$@@....$$$$;;;;;;  ....++++++++  ;;$$  ++++$$$$$$++..  ",
"  ..++$$$$$$++++  $$;;  ++++++++....  ;;;;;;$$$$....@@$$##;;++$$$$++;;##$$@@....$$$$;;;;;;  ....++++++++  ;;$$  ++++$$$$$$++..  ",
"@@$$++$$$$$$++@@  $$;;++  --..$$$$..--;;++;;$$$$$$$$..$$$$$$$$$$$$$$$$$$$$..$$$$$$$$;;++;;--..$$$$..--  ++;;$$  @@++$$$$$$++$$@@",
"@@$$++$$$$$$++@@  $$;;++  --..$$$$..--;;++;;$$$$$$$$..$$$$$$$$$$$$$$$$$$$$..$$$$$$$$;;++;;--..$$$$..--  ++;;$$  @@++$$$$$$++$$@@",
"@@$$@@..;;..++++  $$@@@@..........  --++++;;$$$$$$..$$$$##$$$$$$$$$$$$##$$$$..$$$$$$;;++++--  ..........@@@@$$  ++++..;;..@@$$@@",
"@@$$@@..;;..++++  $$@@@@..........  --++++;;$$$$$$..$$$$##$$$$$$$$$$$$##$$$$..$$$$$$;;++++--  ..........@@@@$$  ++++..;;..@@$$@@",
"@@$$  ....$$++++  ..@@++@@++++..++  --;;;;;;$$$$$$$$$$####$$$$,,,,$$$$####$$$$$$$$$$;;;;;;--  ++..++++@@++@@..  ++++$$....  $$@@",
"@@$$  ....$$++++  ..@@++@@++++..++  --;;;;;;$$$$$$$$$$####$$$$,,,,$$$$####$$$$$$$$$$;;;;;;--  ++..++++@@++@@..  ++++$$....  $$@@",
"@@$$  ..{{..++++@@..==++............++;;;;;;$$$$$$$$$$$$$$####$$$$####$$$$$$$$$$$$$$;;;;;;++............++==..@@++++..{{..  $$@@",
"@@$$  ..{{..++++@@..==++............++;;;;;;$$$$$$$$$$$$$$####$$$$####$$$$$$$$$$$$$$;;;;;;++............++==..@@++++..{{..  $$@@",
"@@$$@@++]]..++@@==..@@++......++....++$$;;;;$$$$$$$$..$$..$$$$$$$$$$$$..$$..$$$$$$$$;;;;$$++....++......++@@..==@@++..]]++@@$$@@",
"@@$$@@++]]..++@@==..@@++......++....++$$;;;;$$$$$$$$..$$..$$$$$$$$$$$$..$$..$$$$$$$$;;;;$$++....++......++@@..==@@++..]]++@@$$@@",
"@@$$@@..^^..++@@++;;==++......++++..++..@@@@$$$$$$$$$$$$$$$$$$$$$$$$$$$$$$$$$$$$$$$$@@@@..++..++++......++==;;++@@++..^^..@@$$@@",
"@@$$@@..^^..++@@++;;==++......++++..++..@@@@$$$$$$$$$$$$$$$$$$$$$$$$$$$$$$$$$$$$$$$$@@@@..++..++++......++==;;++@@++..^^..@@$$@@",
"++$$  ..//..++@@@@;;==++++..++++....++..@@==  ..$$$$$$$$$$$$$$$$$$$$$$$$$$$$$$$$..  ==@@..++....++++..++++==;;@@@@++..//..  $$++",
"++$$  ..//..++@@@@;;==++++..++++....++..@@==  ..$$$$$$$$$$$$$$$$$$$$$$$$$$$$$$$$..  ==@@..++....++++..++++==;;@@@@++..//..  $$++",
"@@$$@@@@''$$++@@==;;  ++............++..++++;;@@  $$$$$$..$$........$$..$$$$$$  @@;;++++..++............++  ;;==@@++$$''@@@@$$@@",
"@@$$@@@@''$$++@@==;;  ++............++..++++;;@@  $$$$$$..$$........$$..$$$$$$  @@;;++++..++............++  ;;==@@++$$''@@@@$$@@",
"  $$  ;;$$$$..++  ;;  ++......++++..++$$;;;;;;..++  ++++++;;++++++++;;++++++  ++..;;;;;;$$++..++++......++  ;;  ++..$$$$;;  $$  ",
"  $$  ;;$$$$..++  ;;  ++......++++..++$$;;;;;;..++  ++++++;;++++++++;;++++++  ++..;;;;;;$$++..++++......++  ;;  ++..$$$$;;  $$  ",
"  $$@@++$$$$##$$    --++++..++++....@@........$$$$$$..;;++;;;;;;;;;;;;++;;..$$$$$$........@@....++++..++++--    $$##$$$$++@@$$  ",
"  $$@@++$$$$##$$    --++++..++++....@@........$$$$$$..;;++;;;;;;;;;;;;++;;..$$$$$$........@@....++++..++++--    $$##$$$$++@@$$  ",
"@@$$@@++++..$$..$$---->>++..++++++++@@++......$$$$$$$$$$..$$........$$..$$$$$$$$$$......++@@++++++++..++>>----$$..$$..++++@@$$@@",
"@@$$@@++++..$$..$$---->>++..++++++++@@++......$$$$$$$$$$..$$........$$..$$$$$$$$$$......++@@++++++++..++>>----$$..$$..++++@@$$@@",
"@@$$..####++..$$$$$$--++++++++@@++++++@@++....$$......$$..@@@@====@@@@..$$......$$....++@@++++++@@++++++++--$$$$$$..++####..$$@@",
"@@$$..####++..$$$$$$--++++++++@@++++++@@++....$$......$$..@@@@====@@@@..$$......$$....++@@++++++@@++++++++--$$$$$$..++####..$$@@",
"@@$$++++..--  $$$$,,$$..$$$$$$$$$$$$..++++;;....;;;;......++++@@@@++++......;;;;....;;++++..$$$$$$$$$$$$..$$,,$$$$  --..++++$$@@",
"@@$$++++..--  $$$$,,$$..$$$$$$$$$$$$..++++;;....;;;;......++++@@@@++++......;;;;....;;++++..$$$$$$$$$$$$..$$,,$$$$  --..++++$$@@",
"@@$$@@++..!!$$  $$$$,,$$######$$$$$$++  ++;;++++++++++++++@@@@@@@@@@@@++++++++++++++;;++  ++$$$$$$######$$,,$$$$  $$!!..++@@$$@@",
"@@$$@@++..!!$$  $$$$,,$$######$$$$$$++  ++;;++++++++++++++@@@@@@@@@@@@++++++++++++++;;++  ++$$$$$$######$$,,$$$$  $$!!..++@@$$@@",
"  ++  ++..!!@@@@@@$$$$$$$$$$##$$$$$$$$####$$$$##$$$$##$$##;;$$$$$$$$;;##$$##$$$$##$$$$####$$$$$$$$##$$$$$$$$$$@@@@@@!!..++  ++  ",
"  ++  ++..!!@@@@@@$$$$$$$$$$##$$$$$$$$####$$$$##$$$$##$$##;;$$$$$$$$;;##$$##$$$$##$$$$####$$$$$$$$##$$$$$$$$$$@@@@@@!!..++  ++  ",
"  ..@@@@----  ++++++$$$$$$$$$$$$$$$$$$####$$$$$$$$$$##$$$$$$$$$$$$$$$$$$$$##$$$$$$$$$$####$$$$$$$$$$$$$$$$$$++++++  ----@@@@..  ",
"  ..@@@@----  ++++++$$$$$$$$$$$$$$$$$$####$$$$$$$$$$##$$$$$$$$$$$$$$$$$$$$##$$$$$$$$$$####$$$$$$$$$$$$$$$$$$++++++  ----@@@@..  ",
"  @@--------    @@@@@@    @@@@@@  @@    @@@@@@  @@@@  --  @@@@@@@@@@@@  --  @@@@  @@@@@@    @@  @@@@@@    @@@@@@    --------@@  ",
"  @@--------    @@@@@@    @@@@@@  @@    @@@@@@  @@@@  --  @@@@@@@@@@@@  --  @@@@  @@@@@@    @@  @@@@@@    @@@@@@    --------@@  "};
