/* XPM */
static char * iron_door2_xpm[] = {
"128 128 30 1",
" 	c #819796",
".	c #A8B5B2",
"+	c #394A50",
"@	c #577277",
"#	c #4D2B32",
"$	c #E7D5B3",
"%	c #EBEDE9",
"&	c #202E37",
"*	c #341C27",
"=	c #C09473",
"-	c #D7B594",
";	c #AD7757",
">	c #7A4841",
",	c #090A14",
"'	c #10141F",
")	c #DA863E",
"!	c #602C2C",
"~	c #884B2B",
"{	c #241527",
"]	c #151D28",
"^	c #19332D",
"/	c #73BED3",
"(	c #A4DDDB",
"_	c #4F8FBA",
":	c #3C5E8B",
"<	c #411D31",
"[	c #DE9E41",
"}	c #25562E",
"|	c #253A5E",
"1	c #402751",
"  ..++..  ..................                      @@..                                                        @@  @@@@@@##@@  @@",
"  ..++..  ..................                      @@..                                                        @@  @@@@@@##@@  @@",
"..    $$............  ....  ..                    @@@@                                              @@      @@@@@@@@@@@@++@@@@@@",
"..    $$............  ....  ..                    @@@@                                              @@      @@@@@@@@@@@@++@@@@@@",
"      ..        ..    ..                                                                        @@@@@@    @@@@@@@@@@@@@@++@@@@@@",
"      ..        ..    ..                                                                        @@@@@@    @@@@@@@@@@@@@@++@@@@@@",
"                                                                                                          @@@@@@@@@@@@@@@@@@@@@@",
"                                                                                                          @@@@@@@@@@@@@@@@@@@@@@",
"      ++    ....$$..........                                                          @@            @@@@@@@@  @@@@@@@@@@@@%%@@@@",
"      ++    ....$$..........                                                          @@            @@@@@@@@  @@@@@@@@@@@@%%@@@@",
"  ##++  @@    ..........    @@                    @@@@@@@@    ##@@@@@@  @@      @@  @@    @@@@@@@@++@@@@@@@@@@@@@@@@@@@@@@  @@@@",
"  ##++  @@    ..........    @@                    @@@@@@@@    ##@@@@@@  @@      @@  @@    @@@@@@@@++@@@@@@@@@@@@@@@@@@@@@@  @@@@",
"  ++##++@@++@@  @@@@@@@@    ++@@        ........    @@  @@@@@@++  @@@@@@      @@    @@    @@@@@@++##@@##++++++++++++++@@&&  **@@",
"  ++##++@@++@@  @@@@@@@@    ++@@        ........    @@  @@@@@@++  @@@@@@      @@    @@    @@@@@@++##@@##++++++++++++++@@&&  **@@",
"**@@**@@  ..  @@    ......==$$$$$$%%$$----$$$$--------$$$$$$$$;;----------$$$$------------==--========@@@@@@@@@@;;>>@@++,,@@''''",
"**@@**@@  ..  @@    ......==$$$$$$%%$$----$$$$--------$$$$$$$$;;----------$$$$------------==--========@@@@@@@@@@;;>>@@++,,@@''''",
"  @@**@@@@..%%$$$$$$$$$$$$========;;));;;;======));;;;;;==))==;;))))))))))==;;));;;;))==;;!!))));;;;~~;;;;;;;;;;;;@@++&&**  ****",
"  @@**@@@@..%%$$$$$$$$$$$$========;;));;;;======));;;;;;==))==;;))))))))))==;;));;;;))==;;!!))));;;;~~;;;;;;;;;;;;@@++&&**  ****",
"  ++{{@@  ==$$))========>>========;;====;;======))));;))))))==;;))))))));;;;))));;;;;;;;;;##;;;;;;;;;;;;;;;;;;;;;;>>++**++  ****",
"  ++{{@@  ==$$))========>>========;;====;;======))));;))))))==;;))))))));;;;))));;;;;;;;;;##;;;;;;;;;;;;;;;;;;;;;;>>++**++  ****",
"  >>##@@@@----))========$$                    ..  ............  ++@@          @@@@@@@@++++++@@@@++++++>>>>;;;;;;;;;;##{{**@@****",
"  >>##@@@@----))========$$                    ..  ............  ++@@          @@@@@@@@++++++@@@@++++++>>>>;;;;;;;;;;##{{**@@****",
"  ++**@@@@;;))));;;;;;  &&{{{{{{{{{{******&&******{{**##**&&********&&**''****{{**{{**&&&&****{{******++**!!;;~~~~;;{{**{{@@**&&",
"  ++**@@@@;;))));;;;;;  &&{{{{{{{{{{******&&******{{**##**&&********&&**''****{{**{{**&&&&****{{******++**!!;;~~~~;;{{**{{@@**&&",
"  ++++@@@@>>==;;;;>>  ##,,,,{{{{{{{{{{,,'''''''',,{{,,,,,,,,,,,,,,,,,,,,,,,,,,,,,,,,'',,,,,,,,,,,,,,,,,,####~~;;;;~~{{**''@@**&&",
"  ++++@@@@>>==;;;;>>  ##,,,,{{{{{{{{{{,,'''''''',,{{,,,,,,,,,,,,,,,,,,,,,,,,,,,,,,,,'',,,,,,,,,,,,,,,,,,####~~;;;;~~{{**''@@**&&",
"  ++++  @@>>======;;++,,,,####&&&&##++'''''''''',,++##++++++++&&##++{{&&++++++,,'''''',,++++@@@@@@@@&&,,,,@@;;;;~~;;******++{{##",
"  ++++  @@>>======;;++,,,,####&&&&##++'''''''''',,++##++++++++&&##++{{&&++++++,,'''''',,++++@@@@@@@@&&,,,,@@;;;;~~;;******++{{##",
"  ++@@  @@>>));;;;~~++''''++&&;;++++++{{''{{{{{{''++&&]]@@@@@@@@++@@@@@@@@&&++,,''&&{{{{&&++++++++@@##,,,,@@;;>>~~!!****{{++{{##",
"  ++@@  @@>>));;;;~~++''''++&&;;++++++{{''{{{{{{''++&&]]@@@@@@@@++@@@@@@@@&&++,,''&&{{{{&&++++++++@@##,,,,@@;;>>~~!!****{{++{{##",
"  @@  ..@@@@====  >>++{{''++++++++##++{{++++++++##++++^^//////((((____//++^^@@,,**++++##@@__((((((//  ,,,,@@==  ####****{{++**##",
"  @@  ..@@@@====  >>++{{''++++++++##++{{++++++++##++++^^//////((((____//++^^@@,,**++++##@@__((((((//  ,,,,@@==  ####****{{++**##",
"  ++..  @@@@))>>>>;;++]]''++&&;;>>**@@&&++++++++##++++^^//__////__::@@__&&**@@,,]]++####@@__((((((((@@,,,,@@;;;;####**&&''**{{##",
"  ++..  @@@@))>>>>;;++]]''++&&;;>>**@@&&++++++++##++++^^//__////__::@@__&&**@@,,]]++####@@__((((((((@@,,,,@@;;;;####**&&''**{{##",
"  @@@@++@@>>==;;@@;;++''''++++;;@@&&++##++++++++++++++^^@@@@@@::@@++++@@####@@''{{++++##++++@@++@@++++,,''  ;;####!!****]]@@**&&",
"  @@@@++@@>>==;;@@;;++''''++++;;@@&&++##++++++++++++++^^@@@@@@::@@++++@@####@@''{{++++##++++@@++@@++++,,''  ;;####!!****]]@@**&&",
"  ++++++@@>>==>>##;;>>''''**{{########''++++&&++++++@@++++##&&****&&**##&&&&##''**++++&&++++++########,,,,@@;;@@##!!**<<,,''**##",
"  ++++++@@>>==>>##;;>>''''**{{########''++++&&++++++@@++++##&&****&&**##&&&&##''**++++&&++++++########,,,,@@;;@@##!!**<<,,''**##",
"  @@''++@@>>;;;;@@>>++'']]++''''''''''{{++++++@@  ,,,,,,{{&&&&##'',,,,,,,,,,,,''{{++++&&,,''''''''{{,,,,]]@@;;  ++>>****''++**##",
"  @@''++@@>>;;;;@@>>++'']]++''''''''''{{++++++@@  ,,,,,,{{&&&&##'',,,,,,,,,,,,''{{++++&&,,''''''''{{,,,,]]@@;;  ++>>****''++**##",
"  @@''@@@@>>;;>>>>;;++'']]++  @@@@@@  ]]++++++@@%%%%%%%%%%%%%%$$$$$$....  ......  &&##&&++++++######&&{{**@@;;@@##>>****''++**##",
"  @@''@@@@>>;;>>>>;;++'']]++  @@@@@@  ]]++++++@@%%%%%%%%%%%%%%$$$$$$....  ......  &&##&&++++++######&&{{**@@;;@@##>>****''++**##",
"  @@]]@@++++;;>>++;;++'']]++##**{{**&&**++++++@@&&++++++++++++++++++++++++++++##@@{{++####++++##++++++&&##@@;;>>####****'''']]]]",
"  @@]]@@++++;;>>++;;++'']]++##**{{**&&**++++++@@&&++++++++++++++++++++++++++++##@@{{++####++++##++++++&&##@@;;>>####****'''']]]]",
"@@@@,,&&  ++;;;;;;;;++{{''++++++##++##{{++++++  ##]]]]]]]]]]'''''''''']]]]]]]]{{@@,,**####!!>>++++>>######@@;;>>####****]]##**##",
"@@@@,,&&  ++;;;;;;;;++{{''++++++##++##{{++++++  ##]]]]]]]]]]'''''''''']]]]]]]]{{@@,,**####!!>>++++>>######@@;;>>####****]]##**##",
"  @@,,@@@@++;;;;;;;;++]]&&++;;[[!![[;;{{++++++..&&,,''^^^^]]^^'''']]]]^^]]]],,&&  ,,**@@@@          >>##**@@;;**####{{**,,{{^^++",
"  @@,,@@@@++;;;;;;;;++]]&&++;;[[!![[;;{{++++++..&&,,''^^^^]]^^'''']]]]^^]]]],,&&  ,,**@@@@          >>##**@@;;**####{{**,,{{^^++",
"  @@,,@@@@++;;;;;;;;++''{{++####,,**##**++++++$$&&,,'''']]'''''']]]]^^^^}}]],,++  ,,''##++++++@@@@@@++>>**@@;;;;;;##****,,++&&##",
"  @@,,@@@@++;;;;;;;;++''{{++####,,**##**++++++$$&&,,'''']]'''''']]]]^^^^}}]],,++  ,,''##++++++@@@@@@++>>**@@;;;;;;##****,,++&&##",
"  @@,,&&@@++;;;;;;;;++''{{++{{##****''''++++##..&&'''']]]]]]]]]]]]^^^^^^]]]]''&&  ''{{{{**&&&&**&&####>>&&@@;;;;;;##****{{++&&++",
"  @@,,&&@@++;;;;;;;;++''{{++{{##****''''++++##..&&'''']]]]]]]]]]]]^^^^^^]]]]''&&  ''{{{{**&&&&**&&####>>&&@@;;;;;;##****{{++&&++",
"++++&&@@@@>>;;;;;;;;++''{{++++++++++++++++++&&..&&''^^^^^^^^^^^^^^^^^^^^^^^^''++>>,,****++########**##>>&&@@;;>>;;##****{{++&&++",
"++++&&@@@@>>;;;;;;;;++''{{++++++++++++++++++&&..&&''^^^^^^^^^^^^^^^^^^^^^^^^''++>>,,****++########**##>>&&@@;;>>;;##****{{++&&++",
"  @@]]++@@++;;;;;;;;##''{{  ++##&&&&&&##++++##@@&&''^^__////::::::::::^^}}]]^^++++,,{{**++++&&&&&&++##++**++;;>>~~##****'']]**##",
"  @@]]++@@++;;;;;;;;##''{{  ++##&&&&&&##++++##@@&&''^^__////::::::::::^^}}]]^^++++,,{{**++++&&&&&&++##++**++;;>>~~##****'']]**##",
"@@@@]]++@@++@@**@@++**''{{@@++++++++++##++@@++++&&''^^^^^^^^^^^^^^^^^^^^^^]]]]++>>''''''@@&&++########''&&@@;;;;~~##****{{++**##",
"@@@@]]++@@++@@**@@++**''{{@@++++++++++##++@@++++&&''^^^^^^^^^^^^^^^^^^^^^^]]]]++>>''''''@@&&++########''&&@@;;;;~~##****{{++**##",
"@@@@{{@@@@++@@@@__++{{{{{{@@++++++++++**++++++++&&]]}}||++::++}}::::::++^^^^^^++++,,''''@@{{!!**;;~~**,,{{@@;;;;>>##****''++{{##",
"@@@@{{@@@@++@@@@__++{{{{{{@@++++++++++**++++++++&&]]}}||++::++}}::::::++^^^^^^++++,,''''@@{{!!**;;~~**,,{{@@;;;;>>##****''++{{##",
"@@@@&&@@@@**{{{{{{,,{{{{{{@@++++++++++++++@@##++&&^^::::||////____:://::__@@::++++,,{{''@@**>>##>>>>&&,,**@@;;;;;;##**{{''++&&##",
"@@@@&&@@@@**{{{{{{,,{{{{{{@@++++++++++++++@@##++&&^^::::||////____:://::__@@::++++,,{{''@@**>>##>>>>&&,,**@@;;;;;;##**{{''++&&##",
"@@@@....@@##>>##**##**{{'''',,,,,,,,''{{##++{{++&&]]^^^^^^||||||||}}}}}}^^^^^^&&++,,'',,@@{{##''>>{{**''{{@@;;~~>>##****''++{{##",
"@@@@....@@##>>##**##**{{'''',,,,,,,,''{{##++{{++&&]]^^^^^^||||||||}}}}}}^^^^^^&&++,,'',,@@{{##''>>{{**''{{@@;;~~>>##****''++{{##",
"@@++@@  @@++;;;;;;!!**''''++''''''''''**++++{{++&&]]^^^^^^^^^^^^^^^^^^^^^^^^^^&&++,,{{,,++{{##>>>>##**''&&@@;;~~~~##******&&**++",
"@@++@@  @@++;;;;;;!!**''''++''''''''''**++++{{++&&]]^^^^^^^^^^^^^^^^^^^^^^^^^^&&++,,{{,,++{{##>>>>##**''&&@@;;~~~~##******&&**++",
"@@++**++@@##;;;;;;!!##''''++{{####**##''++++{{++&&'']]^^^^}}^^^^^^^^^^^^^^^^^^&&##''{{,,##********{{**''**..>>@@@@++++{{,,''**##",
"@@++**++@@##;;;;;;!!##''''++{{####**##''++++{{++&&'']]^^^^}}^^^^^^^^^^^^^^^^^^&&##''{{,,##********{{**''**..>>@@@@++++{{,,''**##",
"@@@@**++@@++;;>>;;;;##''''&&!!**11>>>>{{++++{{@@&&]]^^||::::++}}++++::::||^^^^##++''{{{{'''''''''',,,,{{{{@@##++++++**{{''{{{{##",
"@@@@**++@@++;;>>;;;;##''''&&!!**11>>>>{{++++{{@@&&]]^^||::::++}}++++::::||^^^^##++''{{{{'''''''''',,,,{{{{@@##++++++**{{''{{{{##",
"@@@@{{++@@++####!!##++,,''##++**{{&&@@]]++++&&  &&''^^||^^^^^^^^^^^^^^^^^^]]]]++++{{{{****{{{{{{{{**{{{{''@@++////++**{{**##{{##",
"@@@@{{++@@++####!!##++,,''##++**{{&&@@]]++++&&  &&''^^||^^^^^^^^^^^^^^^^^^]]]]++++{{{{****{{{{{{{{**{{{{''@@++////++**{{**##{{##",
"@@@@##++++++>>>>>>>>**'']]&&''####++@@]]++++##  ^^''^^^^^^^^]]^^]]^^^^^^^^^^]]++++{{{{''++&&&&&&++++&&**{{>>++((//@@****##++{{##",
"@@@@##++++++>>>>>>>>**'']]&&''####++@@]]++++##  ^^''^^^^^^^^]]^^]]^^^^^^^^^^]]++++{{{{''++&&&&&&++++&&**{{>>++((//@@****##++{{##",
"@@@@++@@++++>>~~~~>>##''''&&**##++##{{''&&++&&  ++'']]^^^^]]]]]]'']]''''^^^^]]++@@**{{{{++++++>>>>&&&&++++@@++%%//@@**{{''''{{++",
"@@@@++@@++++>>~~~~>>##''''&&**##++##{{''&&++&&  ++'']]^^^^]]]]]]'']]''''^^^^]]++@@**{{{{++++++>>>>&&&&++++@@++%%//@@**{{''''{{++",
"@@@@++++++++>>~~>>>>##{{{{##**{{&&&&&&&&&&++**  ++]]]]^^^^]]]]]]]]]]'''']]]]''++@@**{{{{++&&**&&&&**{{++##>>++////@@****{{{{**++",
"@@@@++++++++>>~~>>>>##{{{{##**{{&&&&&&&&&&++**  ++]]]]^^^^]]]]]]]]]]'''']]]]''++@@**{{{{++&&**&&&&**{{++##>>++////@@****{{{{**++",
"@@@@''++++++;;~~~~>>##{{''##++++++++++++++++++++&&'''''''']]''''''''''''''''''++  {{{{''&&{{{{****{{**++++@@++//__@@**{{**&&**++",
"@@@@''++++++;;~~~~>>##{{''##++++++++++++++++++++&&'''''''']]''''''''''''''''''++  {{{{''&&{{{{****{{**++++@@++//__@@**{{**&&**++",
"@@@@''&&++++>>>>~~>>##{{''&&++@@@@@@@@++]]++++++++&&&&&&{{]]^^]]&&]]&&&&&&&&&&++  {{**''##########**''++++++++//__@@&&'']]''**++",
"@@@@''&&++++>>>>~~>>##{{''&&++@@@@@@@@++]]++++++++&&&&&&{{]]^^]]&&]]&&&&&&&&&&++  {{**''##########**''++++++++//__@@&&'']]''**++",
"@@@@''++++>>>>>>>>>>##''{{&&++++++++++++]]++++##..%%$$$$$$$$....      ....  ....##{{{{{{##++##++##++]]++&&++++((__@@**{{''**{{##",
"@@@@''++++>>>>>>>>>>##''{{&&++++++++++++]]++++##..%%$$$$$$$$....      ....  ....##{{{{{{##++##++##++]]++&&++++((__@@**{{''**{{##",
"@@@@++@@++++>>****>>&&,,]]**++__////__++''++++''##{{{{**************{{]]&&**{{{{{{{{{{{{&&++@@##@@++&&++##++++::++@@**{{''&&**##",
"@@@@++@@++++>>****>>&&,,]]**++__////__++''++++''##{{{{**************{{]]&&**{{{{{{{{{{{{&&++@@##@@++&&++##++++::++@@**{{''&&**##",
"@@++++@@++++>>++++++##'',,**@@//((::((++''++++++>>%%$$..$$................====--{{''{{{{++**####++++{{++++++##++++@@**{{&&@@**++",
"@@++++@@++++>>++++++##'',,**@@//((::((++''++++++>>%%$$..$$................====--{{''{{{{++**####++++{{++++++##++++@@**{{&&@@**++",
"@@@@&&&&++>>>>>>>>>>**'',,''++__//:://++''++++++!!@@@@@@@@@@@@@@@@@@@@@@@@@@@@@@**''****++==!!>>!!>>]]++++@@####++##**{{{{##**##",
"@@@@&&&&++>>>>>>>>>>**'',,''++__//:://++''++++++!!@@@@@@@@@@@@@@@@@@@@@@@@@@@@@@**''****++==!!>>!!>>]]++++@@####++##**{{{{##**##",
"@@@@&&##++>>>>>>>>>>**''''{{++::::||::++''++++**!!@@||((////((//__::__((//((++@@**''{{{{++&&********++++##++!!>>>>##**{{{{++{{##",
"@@@@&&##++>>>>>>>>>>**''''{{++::::||::++''++++**!!@@||((////((//__::__((//((++@@**''{{{{++&&********++++##++!!>>>>##**{{{{++{{##",
"@@++''##&&++>>>>>>>>##,,''{{@@++++++++@@,,######!!@@||::||++++||++++++::::::&&@@,,''{{**++++++@@++++{{##&&++>>>>!!####{{{{++{{##",
"@@++''##&&++>>>>>>>>##,,''{{@@++++++++@@,,######!!@@||::||++++||++++++::::::&&@@,,''{{**++++++@@++++{{##&&++>>>>!!####{{{{++{{##",
"@@++,,++@@@@>>>>>>>>**,,{{**++++++@@++##''##++++>>++::::((//__::::::__//__//&&@@,,''{{**##++++++####**++&&++>>>>>>##**{{{{##{{++",
"@@++,,++@@@@>>>>>>>>**,,{{**++++++@@++##''##++++>>++::::((//__::::::__//__//&&@@,,''{{**##++++++####**++&&++>>>>>>##**{{{{##{{++",
"@@++##++++++>>>>>>>>**''''&&@@@@@@@@@@>>''++++++**++++++++++++++++++++++++++++@@,,{{{{''##++##''++++##++&&++>>>>~~##**''**++{{##",
"@@++##++++++>>>>>>>>**''''&&@@@@@@@@@@>>''++++++**++++++++++++++++++++++++++++@@,,{{{{''##++##''++++##++&&++>>>>~~##**''**++{{##",
"@@++++++++++>>>>>>>>##]]''&&++++::++++&&,,++++++{{++++++++++++++++++++++++++++++,,{{{{''&&++####++##**++&&++>>!!>>##**''**++**##",
"@@++++++++++>>>>>>>>##]]''&&++++::++++&&,,++++++{{++++++++++++++++++++++++++++++,,{{{{''&&++####++##**++&&++>>!!>>##**''**++**##",
"@@++++++++++>>>>>>>>####''{{++((//__((++,,####&&,,>>++&&&&++++++@@++++++++&&@@++,,{{{{''++++++++++****&&@@++>>>>>>##{{{{&&##{{##",
"@@++++++++++>>>>>>>>####''{{++((//__((++,,####&&,,>>++&&&&++++++@@++++++++&&@@++,,{{{{''++++++++++****&&@@++>>>>>>##{{{{&&##{{##",
"@@++&&++++++>>~~!!~~**##++,,++__//__//++,,{{&&**,,++^^##&&****&&**&&****&&**##++,,,,,,,,******{{{{&&**++##@@>>>>>>##**{{&&++**++",
"@@++&&++++++>>~~!!~~**##++,,++__//__//++,,{{&&**,,++^^##&&****&&**&&****&&**##++,,,,,,,,******{{{{&&**++##@@>>>>>>##**{{&&++**++",
"@@++&&++##++####>>>>>>##++&&]]^^******,,**++++++++{{,,,,,,,,,,,,,,,,,,,,,,,,,,,,,,''''**++++++&&####++++@@++!!++******{{##++**++",
"@@++&&++##++####>>>>>>##++&&]]^^******,,**++++++++{{,,,,,,,,,,,,,,,,,,,,,,,,,,,,,,''''**++++++&&####++++@@++!!++******{{##++**++",
"##++##++&&++****++++>>++##@@>>++++++++@@++++++##++##<<&&&&&&&&&&&&##&&****####&&**&&########@@++++@@@@++++########{{##{{**++{{&&",
"##++##++&&++****++++>>++##@@>>++++++++@@++++++##++##<<&&&&&&&&&&&&##&&****####&&**&&########@@++++@@@@++++########{{##{{**++{{&&",
"@@++##++&&++&&##**{{{{{{{{**{{{{{{{{{{****&&&&####****{{****************''''''************{{{{{{{{{{''''''{{''{{**&&**{{&&++**++",
"@@++##++&&++&&##**{{{{{{{{**{{{{{{{{{{****&&&&####****{{****************''''''************{{{{{{{{{{''''''{{''{{**&&**{{&&++**++",
"@@++++++&&&&####&&****&&****&&****&&****{{{{{{{{''''{{''''''''''''''{{''''''{{''{{'''''',,'',,,,,,**{{{{******&&&&****]]**++**++",
"@@++++++&&&&####&&****&&****&&****&&****{{{{{{{{''''{{''''''''''''''{{''''''{{''{{'''''',,'',,,,,,**{{{{******&&&&****]]**++**++",
"@@++++++++##''''{{**{{,,,,,,,,'''',,''{{'',,,,'',,,,'',,''''**{{{{{{{{{{{{,,,,,,,,,,,,'''''',,'''',,''''''''''**'',,,,''&&++**++",
"@@++++++++##''''{{**{{,,,,,,,,'''',,''{{'',,,,'',,,,'',,''''**{{{{{{{{{{{{,,,,,,,,,,,,'''''',,'''',,''''''''''**'',,,,''&&++**++",
"@@++**++&&{{&&##&&&&**&&&&&&******************&&************{{{{{{**************&&************{{**********&&****&&********##**++",
"@@++**++&&{{&&##&&&&**&&&&&&******************&&************{{{{{{**************&&************{{**********&&****&&********##**++",
"++++&&''{{{{{{''{{{{{{{{{{{{{{**{{{{****{{{{{{{{{{{{{{********************{{**********{{**{{**********************************++",
"++++&&''{{{{{{''{{{{{{{{{{{{{{**{{{{****{{{{{{{{{{{{{{********************{{**********{{**{{**********************************++",
"@@@@++**********************&&****************&&&&&&&&**********&&****&&&&&&&&****&&&&&&&&****&&&&&&&&&&&&&&&&**&&&&&&&&&&&&&&++",
"@@@@++**********************&&****************&&&&&&&&**********&&****&&&&&&&&****&&&&&&&&****&&&&&&&&&&&&&&&&**&&&&&&&&&&&&&&++",
"@@@@++++++##++++++############&&########&&&&####++######################&&##########&&##################################&&##&&++",
"@@@@++++++##++++++############&&########&&&&####++######################&&##########&&##################################&&##&&++",
"@@++++++++++++++++++++++++++++++++++++++++++++++++++++++++++++++++++++++++++++++++++++++++++++++++++++++++++++++++++++++++++++++",
"@@++++++++++++++++++++++++++++++++++++++++++++++++++++++++++++++++++++++++++++++++++++++++++++++++++++++++++++++++++++++++++++++",
"++++++++++++++++++++++++++++++++++++++++++&&++++++++++++++++++++++++++++++++++++++++++++++++++++++++++++++++++++++++++++++++++++",
"++++++++++++++++++++++++++++++++++++++++++&&++++++++++++++++++++++++++++++++++++++++++++++++++++++++++++++++++++++++++++++++++++",
"++++++++++++++++++++++++++++++++++++++++++++++++++++++++++++++++++++++++++++++++++++++++++++++++++++++++++++++++++++++++++++++++",
"++++++++++++++++++++++++++++++++++++++++++++++++++++++++++++++++++++++++++++++++++++++++++++++++++++++++++++++++++++++++++++++++"};
