/* XPM */
static char * meme3_xpm[] = {
"128 117 32 1",
" 	c #000000",
".	c #522315",
"+	c #3B2C23",
"@	c #2F3407",
"#	c #704232",
"$	c #5A4B3B",
"%	c #585E1C",
"&	c #A05642",
"*	c #6F665C",
"=	c #8D614C",
"-	c #80664F",
";	c #A7755C",
">	c #997A61",
",	c #BD7761",
"'	c #C97560",
")	c #8A8C46",
"!	c #8F867B",
"~	c #B9856B",
"{	c #AC8A70",
"]	c #CB967A",
"^	c #E8907B",
"/	c #DE957E",
"(	c #C6A183",
"_	c #B4A79A",
":	c #ABB261",
"<	c #DCA588",
"[	c #EDB498",
"}	c #E0BE9D",
"|	c #D3C9BD",
"1	c #DCE584",
"2	c #F0F2C4",
"3	c #FFFFFF",
"                                                                                                                                ",
"                                                                                                                                ",
"                                                                                                                                ",
"                                                                                                                                ",
"                                                                                                                                ",
"                                                                                                                                ",
"                                                                                                                                ",
"23                                                                         222                                                  ",
"1_|3                                                                      *:1:||                                                ",
")*_|2|_   ||||*||3| !_   !   33|! *|3|_                              |32|!*21:!||33_   |||33   _3||                             ",
")@:1112322:1122111222:2||2:221112321112*             3||(((((|      2211122:1)$!21112221:1112|321122                            ",
"))11:11:21111)11:11:11:_21:)11111:1111:!_       |__{{(<<<<<<<<]|3   211:11):1)%:11:11:211:111211111:|_                          ",
"@:1:%:1::11))%11):1):11):1)%1:))1):11)%*!_   |||_({((<<<<<<<<<]((   21:%11%:1)%11)%11::11%)11):1))1:_|                          ",
"@1:%+%11%11@@)11111:%:1%11@%11111%%1%@+$!|_((((<<<(<<<[<<[<<<<<]]{  2::111@:1))1:@+%1:)11@%11%111111$!                          ",
"@11@$:11%11@@:1:%%%@$%1:1)@%1%%%%@%1@@>(}<<<<<<<<<<<<[[[[[[<<<<<<(>|211%11@:1))1:@$:1:%11@)11%11%%%%+*3                         ",
"@11)%11:%11@$:1:@):%$-111%@%1%@%:@%1){}((<<<}<<<<<<<[[[[[[[[<<<<<]{{:1)@11@:1)%11@%11)%11@)11@:1@%:)+*|                         ",
"@)11111@@:1@$211111@*!:11@$!1111}}}}}}}}(((<<<<<<<<[[[[[<<<<<<[[[<]])11111@)1)@)1111)@%11@)11@%1111%$*3                         ",
"+_-%)%$+$)-+*|_%%%@+*_|%@+*|_}}}}}}}}}}}((<<<<<<<<[[[[[<<[[[[[[[[[<]])%@%%@%)$$*%%%%$+*)%+_|%+$%%%%+$!                          ",
"$__$@+++!_*+*||!@+$+!||*$+!!_}}}}}}}}}<}(}<<<<<<]<[[[[[<[[[[[[[[[<<]]($@@++**+$!!@@$++!!*+_|*+*!@@$+*!                          ",
"!|||!**!||_!! _|!**!|! |!*!!_||}}}}}(((<<}<[<<]]]<[[[[[[[[[[[[[[[<<<]]{****!_!!||!***!||!!||!!!|!***||                          ",
"3   _||*  *|_   !|||   *$**>{}}|}}}}(([<<<<<<<<<<<<<[<[[[[[[[<[<<<<<<]]_3   *3|   ||3   *3  !3!  ||3                            ",
"                      3$$*!-{(}|}}}[(}(<[[<<<<<<<<[[[[[[[[[<<<<<<<<<]]]{                                                        ",
"                      |$$*!-{(}|}}}}((<<<[<<<<<<<<[[[[[[[[<][<<<<<]]]]]{*                                                       ",
"                      $*$$!-{(}|}}}}((<(<<[[<]<<[[<</<[[<[[<]]]]<<<]]]]]}_                                                      ",
"                     |$$$*!-{((2}}(}((<<<<<<<[<<///[[[<<<[]==~~~~]]]]]~~~{                                                      ",
"                     !$$*$!->((2}}}}}((<<<[[[<</<<[[[[[<[;##&&,,~]]]]]]~]{                                                      ",
"                    _$****!-({_|}}}}}<<<<]]]]<[[[[[[[<[[.;~,,,,,,,]]<]<]~](                                                     ",
"                    *****!>>_{}|}}}}<(]<<[<<///],/<<[[<#;,,''''''//]<]<</]~|                                                    ",
"                    *!**!!_-__}|}}(<(<<<]]]////[<<[[[[~#~,'''''''///<////]]{|                                                   ",
"                   |!!!!!!->{(|}}}}<<]<<[<<[///[[[<[[[;;]'/',,&&&,'////////]~                                                   ",
"                   !!___!!{>{}}}}(}]<[[[[<<////[[[[[[[~]/'/&...##&,,////////]{                                                  ",
"                  *__|___-_>{}((}}}(}[;;;;,~////[[[[[[]///',.# +{#&,///^^^^//~|3                                                ",
"                  _||||___>{{(}(}}}};=;;&&&&&&&//[[[[[</,,&#-+!.=,&&'''^^^^^^/]]~{(||3                                          ",
"                 _|||||||__}(({((}}=]]~,,,,,&',',<[[[[/],&&,~=.;,,'^''''''^^^//<<<<](({__|                                      ",
"                 _|_|||||_|}({((}((>]<~,,&&&,&'&,/[[[[<~&',,]~;~,'^^^^''^^^^^//<<<<]]]{{{_3                                     ",
"                 _|||||||||}{{{(}({(<],~#..#&&'&##][[[<//,&&'////^^^'^^^^^/[[[[[[[[[}}}}}}__|                                   ",
"                |__|___|_|{>-{{({{{]<]=##!$.&&&&.#;[[[<<////''''''''^^^^^/[[[[[[[[[[[[[}}<((}|3                                 ",
"                _____|_||}{{-{(({{{~~~]#-$#.].&,.#~[[[<///^^'&'''''''''^^/[[[[[[[[[[[[[<<<((((|                                 ",
"                *|____|_({{{({{(>=;;;=.~~.#;,&&,.#<}[[<<////^^^^/^^^^^^^[[[[[[[[[[[[[[[[[}}}}((_                                ",
"              3|!-!>{{{(((((({{{>===;]/,,&&''''&&#]}}[[[[//^^/////^^^^^^''///[[[[[[<<[[[[}}}}}}(_                               ",
"              _!+$->{{{{((((({{{>==~<[,&&&^^'''&&&]}}[[[<]//^////////^^'',/[[[[[[[[[[<[[[}}}}}}}(3                              ",
"              $++$$>>>>{{(((({{>=(]]]/,/,/''''&,/]=}}=;~~.,///////,,//[[[[[<<[[[///<<[<}[}[[[[[}}_|                             ",
"              ++$+->->>{((}}((((]]~;,,''''&&&&'/<;#}{+#=<;&,[[[[[[[[[[[[<[<]//,,////<<[[[<[[<<<[}((|                            ",
"              +++ >>>>>>{(}}}}}}(]],,,'''&&',///;#{>#+#=];;[[[[[[[[[[[[[[[[]/,,,,///<<[<[<<[<[[<}}}{                            ",
"              +$++-{>>>>>(}}}}}}<<//,,'''^^^^//<..>#++$><[[[[[[[[[[[[<<[[</,,&,/////<<[<[}<<}}}<}}}(_|                          ",
"             |.-++${{>>->>((}}}}}<<//'^^^^^///;...++++-><<[[[[<[[[<[[[[~,,&&&'''////<<<<<<(}<}<[<[[}}{3                         ",
"             _+-++${{{>->>((}}}}<<<,,,^^^////#.....+++->(<([[[<<<<[[[]],&&&&''//////<<<<<[<<}}}[[<[}}(_                         ",
"             _-#+++{{{>>>>{{(}}}<]][[[////&#.#####;{{{{{{{(<<(<<<<[[,,&&..''''/////<<<<<<<(<}<}[[[<[}}{_                        ",
"             !=...#{{{{>>>>{((}(<[<<]///,,~~;;;~~~](((((({{~<<[[[<~;#...&&&^^^/////<<<<<]<((<[[[[[[[<}({{                       ",
"             !#.>=>{{{{>>>>{{((<[]]]<],;;,~]~~~~]]<(<((((((]<[[]]~=#...#&&^'^^/////<<<<]](((<[[[[[[[<}}{>|                      ",
"             *=;#=]{{{{>>>{{~((<]/<&;~]~]<<<<<<<<<(}}(((<<[[/]~=####.#&'^^^^^^////]]]<<](((<[<[[[[[[<<}({>3                     ",
"             _{>#{{{{(>{>>{{{((]/,&;;==;;~]]<[[[]<}[[[<]]~~;;;==~[/,&'''^^^^^////]<]]]](((<<[[[[<[[[<<}(({>|                    ",
"             |>.#=;{{({{{>{{{]]]<&~&##.&=;~]<]<<<<<<<];;;=;;~=;[[/&&''^^^^^^^///,/<]]<]({(<<[[[<[[[[<<<}({>!                    ",
"              |$==>{{({{{>{{(]]]]/]&&,&&&####==&=#&&=###==;~[[/'''''^^^^^^''////<]]]]]]({(<<<<<<[[[[[<<}}({>|                   ",
"              |$=>=>({{{{>{{{]]];]~&~[/,,,,,......#,~][[<///'''''^^^^^^^^^''///<]<]]~]](((<<]]<<[[[[<<<(<({>*                   ",
"              _-=>>{({{{{>(((]]<,]~&~/////,,,&&&&&&,,,,,,,,''^'''^^^^^^^^/,,/<]<]<]]~](((]]]]]<<<[[[<<<(((({-                   ",
"              --=>>>{{{{{>({((]]~~,=~~,/////,//,'/^'^^^^^'''^^^^^[^^^^^'^^,/]<<<]<]]({({]]]]]<<<[[[<[<<]((({>_                  ",
"              --->>->{{{{{{(((]<]~~=,~;,;,,,/,//^''^^^^^^^^^^^^[^^^^^''''/,]/]<]]]]~{{(]((]<]<<<[[[<<<(]~({{-!|                 ",
"              -->>>>>{{{({{((((<]~;;=~=;;;,,,,/,'^'^^^^^^^^^^^^^^'''''',,,/]<]<((~]{((]]{(]]]]<[[[<<<<(]]({{-*|                 ",
"              -->->>>{{{({(((((<]];;=;;;;;;;,,,,,/'^^^^^^^^^^^^^^'''&'',,,]]<<](]~~({(~~{~]]<]<<[[<<<<]]]({{--_                 ",
"             |-->-->>>{{{{(((<(]]]];=>;;;=;;=,,,,,,'''','''''''&&'&,,,,;;;~]<[]((](]({{~~]]]]<<<<<<<<]]~~(>{--!                 ",
"             _-->>->>{{{{{((((((]]<;=={>>======&&&&,,,,,,,,&,,,,,,,;;;~~;;~]]<]](]]]~~~~~]]]]<<[]<<<]]]~~{{>>--                 ",
"             !->>>>>>>>{{{((((((]~];=={=========&&&,,,,,,,,,,,,,~~~~;;~;;;]<]<]]]]]~~~{{~]]]]]<<<<<<<]~~~{{>>--                 ",
"             -->>-->>>>{{{(((((<((];;>=>>->--==#=====;;;;;;;;~~~~~~]];~~;;]]]<]]]]]~~~{{~~~<]<<<<<<<<]]~~>{>--$                 ",
"             -->>>>->>>{{(((((((]]]~;;=>>------#=====;==>;={~;~;;~~]]~~];~~]]<]]]~~;~~>{{~]]](<<<<<<]]~;~>{{-$!                 ",
"             -->>>>-->>{{{{((((~(]~~;==>>=----#-----=>>=>{>{{{{~~~~~]~{};~~]]<]]]~~~;~{>{;]]](<[<[<<]]~;;={>-$|                 ",
"            |-->>---->>>({{(((((((<]~=>=>>>--$$#$#---->=>{>{{>{~]]~<]]~~;;~]<]]~]~~;;;>>{~~]<<<[[<<<]]~;;{>>-_                  ",
"            !-->--->-->{{{(((((((((]]~=>=>>---###-$-----={~=;>(~~~~~]~]~;;<]]]]~];;;;{>{;~](]<]<<<<]~]~~;~{>$                   ",
"           3*->----->->{{{(((((}(((]]~=>=>>>--####-#----=>{>{;(~;~~~]~~~;]]]]]]~~;;~~>>{;~]]<<<<<<<]~]~~;;>>+                   ",
"           |*------->>>>>((((((((((]~;;>>>=>==-##-#-#-->=>{>{{~~~~~]]]~~~<;]]]~~~;;~;;>~;~]]]<]<<<]]]~~;];>;$                   ",
"           |*------>->>{{{(((((}((((]~;((>>=;==###-#==>>==={;;;~;~;~~]<]]~~(]]~~;;;;;;;~;]]~<<<<]]]]~~;;~~=#|                   ",
"           |$------>>>>>{({((((((((<]~~~=>;>=>=-##-#===>=;={;;~]~~~~]]<]~]](]~~~;;;;;;;~~]~]]]]<<]<]~~~~~;;#|                   ",
"           |$----->->>>{{{((((((((((]~~;~;;;=>>=##$#=#=>>;;;;;~~~;~]]~]<]]]]]~]];;;;;~~~~]]]<]]]<]~~];~~;;#+                    ",
"           |$---->-->>>>>(({((({((({~~;;;;;=====##$===={=;;~~;;]~~;~;]]]]]]]]]~~;;;~;~;]~]]]<]]<]]~~=;;>{;.!                    ",
"           |$-->---->>>>{{((((((({{{~~;;=;===>==#=-====~=~;~;~;]],~~~]]]((]]]]~~;~;;~;~(]]]]<]]<]]~,;;~>{;+|                    ",
"            *------->>{{{{((((((({{{{~;;=========--=====~~~~;~;;];~~~]~]]]<]~(]~~;~;;~~]]]]]]]]<~~~~~~;>(>_                     ",
"            |------->>{{>>{((({((({{{{;;;========--====;;;;~;;~;;~~]~~]]]]]<]]]]~~~~~~~~]]<]<]]~]~;~~;{(=#3                     ",
"             *------>>>{{>>{{({((({{{{{==========-=====;;;~~;;~;;,~,~~~]]]]<]]]]~]~~~~~~]]]]]]];~~;~;;;(=.                      ",
"             *-$----->>>{{{{((({(({{{{>;=======;======;=~;~~;~;~~~,~~~]]<<]]]]]]]]~~~~]~]]]<<]~~~;;~=;{==-                      ",
"             3--$----->>>>{{{{{(((({{{{>>=============;;;;~~~;;;;~;~,~~]]]<]]]]~]]]]]]]]]]]]]]~~;;~;=;{=-|                      ",
"              $-$----->>>>{{{{{(((({{{>{;=============;;;~;~~;~;;;~~;~~/]<]]]<<~]]]]]]]]<]]]]]]~;;;=;{>=$_                      ",
"               *----->>->>{{{>{(((({(({>{;============;;~~~~;;;;;~~~]~]<<<<<]<<]<]]]]]]]<]<]]]~~;===;=;$*                       ",
"                $------>>>>>{{{{{(((((({{;;;=========;;;;;;~;;;;;~;~;]~~<<<[[]<<<]<]]]]]]<]]]]~;=;;=>>=*                        ",
"                _------>>>{>{{{({(({{{{{{{;;=========;;;;;;]~;;;;]~];~]]]][<[]<<[]]<]<]]]]]]]]~~=;=>=>#_                        ",
"                 !$----->>{>{>{{((({(((({{{~;===;===;;~~~;;~~]]<<]]]<]~<~][[[[[[[<<<<<<<]<]]]~~;;==>{>$                         ",
"                  |*$---->>>>>{{{((((((({{{{;;;;;;;=;;~~~~]]<<]]]]]<]<<]~]<[[[[[[<[[[[<<<]]]]~;;=;;}>-|                         ",
"                   $-$-->->>>{{{{((({((({({{~;;;;;>;;;;~~]]]/]<]]<<<<]]]]][[[[[[[[[[[<<<<]<]];;;=>>{-$                          ",
"                    $*-$--->{>>{{(({{({{({{{~;~;;;;;;~]]]//<]<<<<<]]<<<]]][<[[[[[[[<[[<<<<]]~;;=>{{-$_                          ",
"                     |*----->>->{{{((((({({{{~;~;;;~~]]<[[[<<<[[<]<]]]]]<<[<<[[[[[[[[[<[<<]~~;==={>-|                           ",
"                      $--->->>->>{{{({((({({{>;;;;;~]]<[<<<<<[<<<<]]]]]]]<<<[[[[[[[[[[[[<<]~~;;=;{>$                            ",
"                       $-$---->>>>>{{{((({{{>>==;;~]<[[<<[[[[<<<[<<<<]]]<<<[<[[[[[[[[<[[[<]];;;;=>-|                            ",
"                       _!$$-->->>->>{{{({{{{>>>=;;~<[[[]<<<<//<<<<[<<]<]<<<<[[[[[[[[[[[[[<]];;==>-*                             ",
"                        3$$---->>>>>>{{{{{>{{>==;;][[[[<<<<]/<<<<<[<<]~]]]<<[<[[[[[[[[[[[<]];=;=>$|                             ",
"                         |$$----->>->>{{{{{{{>>>;;][<[<<<<<<</]<<[[<<]]~~~]<<<[[[[[[[[[<[<]~;;;=-3                              ",
"                           |$$------{>>{>{{{>>>>;;~<[}[[[[<]//[[<[[[<]]~~~]]<[[[[[[[[[[<[]~;===>!                               ",
"                            !$$$---->>{->>>{>-->=;~<<}[[<<<]]/[<[[<[<]];~]]<<[<[[[[[[[[<<<~;===-3                               ",
"                             |*$$--->->->>>{>-->>={{<}]<<<][~/][[[[[<<];;~]]]<<[[[<[[[<[<];;;#=!                                ",
"                               !*$$-------->>>---=={]<]]<]]<<<<<<<<<]]];;;;~]]]<<[[<[[<<<~;;==-                                 ",
"                                _$$$$----->->----$->~]<]]~]]//<]]]/]]~~;;;;~]]]<<<<<<<[<]~;;=>|                                 ",
"                                 $$$$$--$-->------$=>~]]]~~<]//]~]/]]~;==;;~~]]///<<<<<<];;;=!!                                 ",
"                                  3$$$$-$-------$$+#=;~~,~]~~~~]]~~~;;;===;;~~]]/<<]<<<]~===_                                   ",
"                                    !+$$$$$$----$$++=;;~;~~;,,]~~]]~~=====;~~~]]]]<]]<]~==--                                    ",
"                                     !$$$$$-----$$++$=;~;~~;~;~]]]]~~;=====;;~~]]]<]]<~;==-|                                    ",
"                                      3$++$+$$$$$$+++==;;;;;;~~;~~~~;;=====;;~~~]]]]~;;#=$                                      ",
"                                         *$$++++$++++#==;==;;;;~~~~~;==####===;;;;;;==#$*                                       ",
"                                          $++++++++++$======;;;~;;;;;==#####==;;;;;=###$|                                       ",
"                                            !+++++++++$-========;;;==##++++$$######.$$_                                         ",
"                                              _++++++++++$#-##======#++++++++++++++$_3                                          ",
"                                               |+++++++++++$########++++$$$+++++$*!|                                            ",
"                                                 _+  ++   +++++++++++++$*!_|3                                                   ",
"                                                     ||||||333_                                                                 ",
"                                                                                                                                ",
"                                                                                                                                ",
"                                                                                                                                ",
"                                                                                                                                ",
"                                                                                                                                ",
"                                                                                                                                "};
