/* XPM */
static char * meme4_xpm[] = {
"128 106 32 1",
" 	c #000000",
".	c #372C2F",
"+	c #412C21",
"@	c #563F32",
"#	c #704125",
"$	c #54484C",
"%	c #644D41",
"&	c #694E37",
"*	c #765D49",
"=	c #766458",
"-	c #886253",
";	c #716770",
">	c #846549",
",	c #856B56",
"'	c #A47663",
")	c #9D7962",
"!	c #9D7A58",
"~	c #947C64",
"{	c #948788",
"]	c #A48B74",
"^	c #B58673",
"/	c #AD8971",
"(	c #B18967",
"_	c #C19675",
":	c #BB9A81",
"<	c #C49882",
"[	c #B4A8A7",
"}	c #CFA68A",
"|	c #CEA996",
"1	c #DBBAA6",
"2	c #CEC5C3",
"3	c #FFFFFF",
"                                                                                                                                ",
"                                                                                                                                ",
"                                                                                                                                ",
"                                                                                                                                ",
"                                                                                                                                ",
"                                                                                                                                ",
"                                                                                                                                ",
"                                    32211|::]]:]]]]]]]::[11222233                                                               ",
"                               {21[:||:|:::|:::::::::::::::::::]]]]]]1222                                                       ",
"                             32[|::||}}}}}:::::::::::::::::::::::/:::]]][[223                                                   ",
"                        ;2[[|||||||:|:|<<:}}:}}::::::::::::::::::://::/:]]]]~~~~{[23                                            ",
"                      3||1||||||||||:|:<<<::|:::::::::::::::::::::::/:://////]~]~]~~==[                                         ",
"                     31|||||1|||||||:|<}}<<<::::}:::::::::::::::::::::::///////]~~~~~~={[[                                      ",
"                    ||||||||1||||||||||||<<<<:::}}:}}:::::::<::::::/:::::/]///]]]~~~~~~~~~=]3                                   ",
"                   |||||1||||||||:|::|||||<<|<<:::::::<<<<::::::::::/::::::////]]~~~~~~~~~~~==2                                 ",
"                  3:::|:||||111||||||||||||<<<<:<<<<<<<<<<:<::::::::::::::://////~~~]~]~~~~~,,*2                                ",
"                  2:::|||||||1||||||||||||||||||||||||||<<<<::::::::::::::://////~~~]~]~~~,,,,,=                                ",
"                  2::::::|||||1||||||||11111|111111111111|||<<:::<:::::::::/]//]]~~]~~]]~~~~,,,=2                               ",
"                 2[:::::::::||||||11|1111111||::]]]///:::||||||<<:::::::::~,,]::]::]]]~~~~~~,,,*=                               ",
"                 2[:::::::|||||||||1111111:::~~>>>>>>>>>/::||||<<<::::::]~&&&&****,~]]]]~~~~,,*,%                               ",
"                 3:/]]//:<|||:::||||:::/~>>>*&&&&&&&&&&&&&&>::|||<<<::::&@@@%@@@%@@@@@&,~]~~),>*%3                              ",
"                 3]////::|/:::::/::/)>>>&&>>*,)))>))/))),))>&>:||<<<:::)&&%%%=%%=%**%@@@@@*~]~,**{                              ",
"                 2]]///:::::::|://)>>>>))//////////////////)))/<<|<<:/:,&%%=****=*****%%%@@@,~~*&%3                             ",
"                 []]/)):://://))/:::|||||}}:::///////))//////)/<<<<<_:/,**==**==,,,,,*,,,=%%+&,,&@=                             ",
"                 ]]~/)/::/:////:||||||}:::::::////)~))))))//_<<<<<<<_//,*****-,,,,,,,,,,,,===@@,*%@                             ",
"                3]])])/://:/::::1|||||::]~,>~)////))))))))/:<<}<<<<<//),***--,,,,,,,,,,,,,===%@**@@                             ",
"                ]///)~//::::|||||:::=%..$...*@&,))))))))))/:}}}<<<<^//)*****>,,,,,,>***,,,,,==%@*%@[                            ",
"               3]]]/)~://:||||}||*=.;;.$.$$.$@&&*,**,)/////<}}}<<^///))&@@%**,==..@@@@@&**,***%@%%@@                            ",
"               []]]~),///:::|}}:]={$;;. .;;;.%@*&&>,,)/////<}:}<<^//))-%@@@@@.+....+%@@@@%****%@%%@+                            ",
"              ]]]//~,~/:/|}:://&{[{$;;;{{{;$;{{@&*&&-))///<}}}}|<^^))**@%=.$$;...;$${{=@@+@%==%%%%@+2                           ",
"            2~]]/))~~~::|1}}/>&]:{{{[[111|:]{{{{=%&&&)///:||}}1||<^))&@-{{;$$;{[{{{,**&%%@+@%%%%@@@@=;                          ",
"           [~]]]))),~]:|1}///)>)~-)||11111||:,=,~]),,//<<<:|}}}}|<//)&+@~{{=={{{]]{]]),,>*@+%%%%%%@@+2                          ",
"        32]]]]]]))))]:1:/:}<///:|<||||1|1||||<<<</)))<<|}}}}}}}1|<__)@@--))]/:::::]]]~)>,*%@+%%@@@@@@+                          ",
"       []]]//)~~))/:||/|}(<<}}}<<|||||:||||<<<<<:<<///}}}}}}}}}}||}}/@**->)))))]])/)))>*>&&%@++++@@@++[                         ",
"      2]]]/))~]]]:|::/}}_(}}}}}}<<<<|||}|<<<<<<<__<_/}}}}}}}}}}|||}</@&*->))))///)))--,,,,&&@@@@++++++.                         ",
"    3~]]]~~~]]::::}}:<<}}}}}:<}}:}}}<|::}:::<<<<<<<<_<}}}}}}}}||||}}_)&**,>))))))))))))))))))),,,,,==%.;                        ",
"   3~]]~~]]]::}}}}}}}}}}}<<}1:<_<<<:<_<_/_<<_}}__}<<_}}}}}}}}}|||1|}</)*))!))))))))))))))))))-->>>>,,,=%.                       ",
"  3{]~~]/::}}}}}|}}}}}}__}||<}}}}<<_____<<<<<_____<<<<}}}}}}}}}||1||<//#,>!)!)))'''))))))))))))>))---,,=%2                      ",
"  ]]]//:::}}}}|||||}}11}}||1|||}}<<<<<<|}<}}__(_____<}}}}}}}_<}<}}}}<</)#&>)))))))))))))))))))))))))))>,,%                      ",
" 2]]::::}<}||||||||1111|||||}<<<}}}<|}|}}}<<_(((____<}}}}}__<<<<}}<<<^^'')-&&-))(//))//////////)))))))))-,[                     ",
" ]///:<<<}|}:}}<:}:}}}|11111||||111111||}<^^)!/:::<_<}}<<<<<^<<<<<<<___^^^^))*&&)(/^//////////////)))))))-%[                    ",
" ]]::_<<}<|:}::::::::::||1111111111111}|<<^'!//:}}<_<<<<<<<<<<<<<<<<<<<<_(^/),@@~))/////////////////))))))*%                    ",
" ]/:/<_<|}}::::://),~~))))/:|||||||||}}</'')_:}}}}<__<<<<}<}}||111||}<<<<(^//)@@@,))))))))~,,,>)))///))))),%                    ",
" ]//<__<}<}::/://>>]]::]]::/)--->'-'--)))<<<}}}}}}___<<<||||1|||||||<<<<^<//)*@+++@%*,*&&&@@@&&*,))))))>>-,%2                   ",
";]//<__<<<:/:////>>]/:]]////<<<:)))))//<<:<<||}<}}___<<}||}<<<<<<<<}<<<<<_/),@+..++++++++@@%%&&&,))))))-,,*%3                   ",
" ~//<</<:<//////)>~:]]]]~~)))////::<<<<<<<<<<<<<}}___<}}<<<<<<_^^^<^^<<_//)%+....+++++@%%@%@+,~***,))),>>>*@                    ",
" ~//<:::<:://///))//]~~~,*>*-,)))//::|<|||<<<<<<}}}<<<<}<^'---->))'^^^^/))@++++++@@%%%%%%%%@+,~~*&*,>>****%@                    ",
" ~/:</:<:://////))/~~~~,,*&&&*,)))/::::<<|<<<||}||}}<^<<^'''^/))--))///),%+++++@@%%%%%%%%%%@+,~~,**,**%***@=                    ",
" ,/////<::///!!)))]~,,,=~%++++@%-)))]/::::||<|<<<}}}|<^^'^<<^<</))>-))-+@%%%@%%%%%%%%%%%%@+++*,,~,**%%%%%%@2                    ",
" ]//]////////!!))>]~~~]~~%++...++@@*,)///:::|||||||||}|||<<<<<^<<)))-,)------*&&%%%%%%%%%@+++%==*,**&%%%%%{                     ",
" [/]:////////!!))>~~~]]~~=+++....++@&-)]]::/<|<|||||||}||||<<<<<^//)))))--)-*******%%%%%%++++%%==**%&%@%%%2                     ",
" 3~]]]]]///)))!!)>>~//]]]==%@+....$$++@*,)//:<<||||||||||<|||<<<<^^)))))))--->-***&%%%@@+++++@%=%==%%%@@@+                      ",
"  {%~~~~~))))~>>!>>!((:]]]=~@+.$$$$;;;$%@%*,)/:|<||<<|||||<|<|<<<///^)')))))-->>*&&%%@++..+++@@%%%%%@%%@@2                      ",
"  ;{*~~~~~)))~>>!!>!!(:/]]~=%@.$;$$;;;;;=%%%-)]/<|<<|<|<||<<<<<^<////'')))))--**&%@@++....+++@@%%%%%@%@@+                       ",
"    [%&,,,~~>>>>>>!>!!(/:::]=%$$;;;{{{{{{$;=%@%-)))^^^^^^//<<////)'')-----*&&%@@+++.$$$;;$@@++@@%%%@@%%$2                       ",
"     22=*&***,>>>>>>!((::<::~,%$;;{;{{{{{{{{{;{=%%%%%*,,-,,,,,,,---*&&&#@@@@@@%;;{[{{{{;;;..+++@@%@@@%=                         ",
"       2%*****>>>>>>!!((_<<:]{=$;;{;{{{{{{{{{{;{===%%%%%%*%***%%%%%@@@@%=={{{[{{{{[[[[[;{;..+++@@@@@%=2                         ",
"         [==**&*>&*>>!(((_<<<)~+$;;${{{{{{{{{{{{{{{{{{[[{{{{{{{{[[[[[[[[[[[[[[[[[[[[[[[;{{$$@+@@@@@@@@                          ",
"           [%*%&*>&&!!!((_<<<^^,..$;;{{{{{={{{{{{{[[[[[[2[[222222222[2222222[222[[[[[[[;;{$$%+@@@%@@@+                          ",
"            [%%%&>>&>!!((_<<<<<)+....;{{{{={{{{{{{[[[[[[[[2222222222222222222222[[[[[[{;{{%$%@@@@%@@@+                          ",
"             @%%%*>>&>!!!(_<<<</~%@@+++++++@{{{{{[[[[[[[222222222222222222222222[[[[[[{$.%+@+@@%@%@@@+                          ",
"             [%*%*>>&&>!!((_<<<<^'-,,&+@+@@@+$@+++++@={[2[{22222222222[[[22[[[22[[[.$$++++++.@@@@%@@@+                          ",
"             3%*&&>>&&>!!((_:<<<|'-,**%@@@@@%++++++@@+++@@+[222222222{2[[[[[[{=[{;;+++++++...+@%@%@@@+                          ",
"              @**&*>>*&>!(((_<<<<<^-==;{{{{{=%%@%&&###########@&**%@+#+@%%@+++++++++++++++@$@+@%%%@@%@                          ",
"              2%*&*>>>&&>!((__<<:<|^-={{{{{{{{;=%%%-----#########################+++++++++%=%@@%%%@%%@3                         ",
"              [=**&*>>&&>>!((__<:}<<^-{{{{{[{{{{==%%%------#######-###############@++++++@==%@@%%%@%%@2                         ",
"               3=,**>>**&>)!(((__:<<|<'--{{{{[[[{[[[[={]{[[^))''>--^'--####------%-@%%%%%===%@@%%%%%%%2                         ",
"                =,,***>**&>>!(((___}<<<^'-~{{{{[{[[[[[{[[[[{[[[|||||[122|||^)-^]-==;{{={====%%@%*%@%%%2                         ",
"                [=,,**>>>&&&>!!((___<<^1|''-,={{{{[2[[{[[[[[[[[2[222222222222[22[[[{{{{[{=%=@%%@*%@%%%[                         ",
"                 {=~,*>>>*&&>>)((___:<<||^^'-*={{{[[[[{{[[[[[[[22222222222222[222[[[{[{{{=$=@%%%*%@%%%[                         ",
"                  3=,,,******>>!((__::<<<<<^^^^')]][[[[{[[[2[[222222222222222[222[[[{[{[[=$$%=%%%@@%%%[                         ",
"                   3,,~,,******>)((___<<<<<||<^<^||:]]]=][[[]][21|2222[222[22[222{[[{[{=[=@@%%%%*@%%%%{                         ",
"                    ~=,,,,*>****>)((___<<<<<<||<<<|<<)^/,[[[]][[1][[21:2[[[[[[[2[{{[={{==@@@%%%%=@@%%%;                         ",
"                     2,,,,,,>****>)/(_____<<<<^<|||<<|<^^)]|))):<''^|:)^|]~[[[=[[===%%%%%%%%%%%%%@@@%%$                         ",
"                      3==~,,,,***>>)((_____<<<<<^^<|||||^<^^^^^^^^^'---''^^~,-,====-%--%%--%--%%%@@%%%$                         ",
"                       [==~~,~>*,**>!((_______^<<^^^^||<^^<'^^^^^^^^''''''''')))-,,------------%@++@%%%                         ",
"                         2=,~~~~,,,>>>/((______^^^<^^^^<||||||<<<<<<<<^^^^'''^'^''^''')-------*%@%@+@%%                         ",
"                            [=~~~~~~>>>!((((__(_^^^^^^^^'^^^<<<<||||||1|<<^^<^^^^^'''''''-----*%%@@%%@@                         ",
"                             [=~~~~~~>>>!(((((_(__^^^^^^^^^^^^^^^^<<<<|1|||<<<<<<^^'''''----*&*%%=%%%%={2                       ",
"                               2~~~~~~~>>>!!!((((((((/^^'''^^^)///^/<^^^<<^<^<^^^''''--*****,~,~====%====                       ",
"                                 2[,~~))~>>>)!!!!(((((((/)//))')''////////^^''^''''>>>,*~**,,=,==~~~=====[                      ",
"                                   [~~~~~~>>>)))!!!(((((/'^^''')))))/)/////'^^'''!)>>>>,*,,&=***======,=={                      ",
"                                     2~~~)))>>>>~))/((((((((((^^^///)/////)))/)))!!!~,~>>****&**&@*~&&&%=                       ",
"                                       2],~))~,*>>))))!!(((___(_((!)///))/]//)//~]~~~~>>>>,,,**&**&&,~~[                        ",
"                                         ]*,,,,,*,>))))!!(_____(__((//_)//://)~/~/~]~~~>>>>>>***>>>>)~]2                        ",
"                                           2@*,,,**>>))!!!!(((__________//))/)/)/)/)>))~>~))>>>>>>->>)~2                        ",
"                                             3[%,,,*,,,)))))((((___________//)/))/////!//)/)))'''''''>*                         ",
"                                               2==,,,*,,))/))((((____________<_//:</_<_/_))))''''''''>*                         ",
"                                                  2{=*,*,,))))/////_<_<____<}___<}<<}<^<^^''^''''''''),                         ",
"                                                     [{=**,,)))))////_/<}}<<__}}}}}<}}<^<^^^''''''''')2                         ",
"                                                       3=%*,,,))))///_____<}}}}}}}}}}}<<<^^^^''^'))''-2                         ",
"                                                          3{%*~,))))///_<<<}}}}}}}}}|<<^<^^^^'')))))),                          ",
"                                                             2{=*,)))))//////::}}<<<<<<^<^^^^^))))/)~=                          ",
"                                                                3[==,)))))]/////:<<<<<<<<^^^)))))))~[                           ",
"                                                                  2{=,,~~~~]])]////<:::</^^//)))))~*;                           ",
"                                                                     2{%==~~~~~~]]/]///////)]])~~==3                            ",
"                                                                        22{{{===~~~~~~~~~),~~~{~=2                              ",
"                                                                           222[{====,,,,,~~~~{{{2                               ",
"                                                                                       {32222                                   ",
"                                                                                                                                ",
"                                                                                                                                ",
"                                                                                                                                ",
"                                                                                                                                ",
"                                                                                                                                ",
"                                                                                                                                ",
"                                                                                                                                "};
