/* XPM */
static char * meme2_xpm[] = {
"128 103 32 1",
" 	c #000000",
".	c #350909",
"+	c #29110D",
"@	c #41291F",
"#	c #4B2810",
"$	c #5C442D",
"%	c #6B3F40",
"&	c #564640",
"*	c #6C422F",
"=	c #7C5129",
"-	c #A34948",
";	c #C34343",
">	c #8C5A5B",
",	c #8C5D49",
"'	c #6E655F",
")	c #7F654D",
"!	c #C66F50",
"~	c #A37F64",
"{	c #B07E54",
"]	c #C87572",
"^	c #8E8981",
"/	c #B48987",
"(	c #C69F83",
"_	c #D59F6E",
":	c #AEA9A2",
"<	c #EFBF8E",
"[	c #F3BBB4",
"}	c #E0C7A5",
"|	c #CFCDC5",
"1	c #F7DDB8",
"2	c #FDE1E0",
"3	c #FFFFFF",
"                                                                                                                                ",
"                                                                                                                                ",
"                                                                                                                                ",
"                                                                                                                                ",
"                                                                                                                                ",
"                                                                                                                                ",
"                                                :|:||:                                                                          ",
"                3:^&++@@++++ ++  ++++ +@@++@@#${{{{{{{==##@+@&$3                                                                ",
"             |&&@&&@@&&@+&++@+@@+@@++++@@@@$${{___=={{{{==$#$$@@@                                                               ",
"             &@+@@@@@&@&&&@@@+@@+@@@++@@@@#$={____=={{==#==$@$+@+'                                                              ",
"           :+@@&@+++@@@@@&@&&@@@@+@@+++@+#$,{____{##=#++#==#$$@$@+&|                                                            ",
"          2+@&&&&@@&@@@@@@&@@@@+%@@@@++@@$,{____{=+@++@#====##$$@$$@^                                             ^'            ",
"          '&&@@@@@@@%%.@*#$@@@@@&@+@@++@@${{____=*@+++@#=====#$$$$$$                                            22[[[[          ",
"         :&++++++++@&@&@@$#$@@@@@@@@+@@$$={{___<=$++++##$=====#$$$)#@'3                            ':22':[]]--][;;;--/^:        ",
"        &&+++@@@&&@+++@&'@&&&@&&@@@@@@@*,{__<<_<$@++++++###====#$#$~$+'                 ^22:2[[]]2/;;--[[;;-->>-;;-%%&&'        ",
"       &++@++@&&&&&@@@+@@@&)&$$&@&&&@$$){__<<_<_$@++++@@@###===##$##$$@         ^[[[][[;;--]];;-]>-;--%%%;;-*>>>;;;;-[||        ",
"      ^@@@@&&&&&&&&&@@@@&@)))$$&&$$)$$~(__<<<<<_#@+++@@##$###==##$$$$$$:   22[[/2----][;;;]]];;-%%-;--%%>;;;->/[;;;;-/:|        ",
"     &&+&@@&&&&&&&&&&&&@&$))(~~~~)~),,(__<<<<<<~#++++$**,$=###=###$$$$)+   /;;]]];;->%-;;-%%-;;->//;;;-[[];;-->>;;-%%&&^        ",
"    &@@@&&@@&&&&''''&)&))~((}}}}}(}}(<<<<<<<<<_,@++@$*,,,,==*#=={###$$$&@| [;--%>;;-->/;;;-][;;;-/>;;-%&&-;-%&&%;;%&'::|        ",
"    @@@&&+@&&@&&)))))))~((}}}}}}1}}}}<<<<<<<<<_*.++#*,,,,,,===#===##$$$@ & 2;;;-];;;->[;;->>>;;-%%%;-%&&&];-&^^/-;%&^|^         ",
"  2'@@&@@&&%$))~~(((((((}}1}111111111<<<<<<<<<_*+++,,,,*****,**=====@@@@&+||[;->>-;-%&%-;%&&>--%'^/--%'|22->&|  /]%&^           ",
"  &@@&@@,*,~((<<<<<<<<<<<}1111111111<<<<<<<<<_{$++#,,,***$$#*,*=*====@@@@@  [-%&']->&':]-%':2>-%^  [/&'   2/&::  2''^           ",
" :@@@@@*,,{__<<<<<<<<<<<<<1111111111<<<<<<<<<_)$+.*,,***)$))**,**====#@@@@+ 2-%&:[]>&^2[>'': 2[&'   ^&':  2:':    ::|           ",
" &&@@~~~(__<<<<<<<<<<<<<<111111111111<<<<<<<<()#+.,,**))$$$@$$$$$$====$@@@@: ['&| 2:&^   '':  |^^   |:|     3                   ",
"|@@@,((__<<<<<<<{<<<<<<<<1<11111111<<<<<<<<<}~)##*~*,)$&&&&&@@+@@##*===#@@@ ^ ^'|  |::   ||3                                    ",
"^@@#~<<<_<<___<<,(}<<<<<<<1111111111<<<<<<<<}))#*,,))&''^^^'&&@+@#$#===$@@@   |:|   |:                       |: '22[[[2         ",
"+@$~(<<<<<{{~,{===$=)~<<<<<11111<<<1<<<<<<<}},*#,,,&'^::|||:''&&@+@$$===$#$               ^|2:2[[[[2]]]]]2]-;;--[];---//^       ",
"@@~(_<<<_<_{~~~~~~~~))##)(111<<<<<<<<<<<<<}}(*#*,,)^^:|||||^&&&@@@+@$*===$+@  []]][]---[2----[[;-]>/;;-->>-;;-*%%-;-*%%&|       ",
"@)~(_<<<<<_{{~~~~~~~)))#@$)(}11<<<<<<<<<<<}}~$#,,~&^::|||||^&&@@@@+@#$====+&@2-;--/];;-]/;;;]>-;-->%;;-*%%-;;-*%>-;-->/^3       ",
"@~__<<<<<<__((~~~~~~~~)))$&@@$$}11<<<<<<<}(~)##,))':::|||||:&@@+@@#@@#*===#+@';;-%%-;-%%%;;-->-;;->/-;;--/[;;;;>[];;;-/:        ",
")~<<<<<<<<_(((((~~~~~~(~~~&&&$$$)1<<<<<<<}(~*#*)^&^::|||||||&^$+ +#$###*===@+@[;;->];;-]/];;-]/;;-->];;-%%>;;-%%%-;-%&&&2       ",
")(<_<<<<<<_((~(((~~,~~~~~~~)@$$$)}<<<<<<<((~##,)^&^::|||||||'&$###$*###*===#++[-;>>];;%>>-;-%%%;-%%%-;-%&&>;;%&&%>;%%&^^:       ",
")(<<<<<<<<_~~(~~{{{{{{{((~~()@@)~}}<<<___(~~#,~)'&^::||||||||^$**=***###$==#++2]-&&%;-&'']--&^^]-&':[->&'|2[-&&|22->&^          ",
")(<<<<<<<__~~~~{{{{{{{{~~~(~~@+$~}<<<____{~**~~/&'^::|||||||||:)$,~,)###*$*=#@/[>&'2/>&^| //&| 2/&'' 2/&''  |&&|  :'&^          ",
")(<<<<<<<_(~~~{{{{{={{{{{{~((&+@~(<<_({__{,#,~~)&'^::::::|||||:|:/~~)###***=$+%2/&':22&^| 2/&|  |&'3  :&''  |''|  ^^':          ",
")(<<_<<<<_{,{{{{{{{==,=={{~(~~)+$~~((({__{,*,,,&&&^:|||||||||||||:/~)$#@**==*#.@2^^|  ::|  |:|  |||   |||    2|     ^           ",
")}_<_<<<__{{{{{{={{{,,,,,,*,~~,@$)~)~~~__!{=*,)%&&^:::||||||||||:|//~$@##**==###):                                              ",
")}__<<<<__{{{{{{{{{=*****,***~~$@$)))~~____{#,,&&&'^::|||||||||||/(/~$@##*===#=##2|'  ||| ':222 22222 22222 2[[[22              ",
"$(__<<<__{{{{{{{{,*,,,))))))))$)@&$$))~__<<<<=#)&&'^^:|||||||||||///)$@#*=======-;--[[--->[-;--/-;--][;;--//-;-->/:|            ",
"@)~__<<_{{_{{{{{=,~,$$&&&&&&&&&&@+@@*,{{_<<<<_{=**&''^::||||||||:://)$##========-;;-%%;--%%-;--%-;;-%%;;-*%%;;;-%%&|            ",
"))~~_<<_{{{{{{{=,~,$@@&&''&'&@@@@$$**,{{_<<_!!!!==*$&''^::|||||:::^~$##==={!!====;;->/;;->/];--/];;-]/;;;-//];;--/::            ",
")$)~(<<_{{_{{{==~,)&@&'^^^^^'&@@$***,,{__<__!!!!===*$&''^::::::::^))###={{{!!====;;->>;;->>];-->];;->>;;;->/];;->/^3            ",
"@$)~~<<_{{{{={=,)&&':|||||||:^'&@*,,{{!_____[!!!=====,$&&'''^^''''$$$=={__!!!!===!-.&']-%&'>-%&'>--&'']--&''];-&'''|            ",
"&@)~{<__{{{===,,&&'|||||||||||:^&**~,{{_<__[_!!!,*##***,)$$&&&$$$@$$=={___!!{{====-.'|2/''3 />&:^/]&:22]>&|:2->&:3              ",
"&@^~~___{{{{{=,,@'^||||||||||||:'*,~,{_<<__<_{!]*...##**,)$$$$$$$***=____!{{{======#&| |''|  '&: |:&:2 2/&|  2/&:               ",
"^@)~~____{{{{,,$&'^:||||||||||||:$*,,{_<<<____{,.#@%$*,,=={{,===={{____!!!{{========$) ^|:   |:|  3:|  :|^|   |^|               ",
"'$)~~____{{{{,*@&$$$^:||||||||||:)*,,__<_<__{{,**%$),,,,,,,={{________!!{{{==========)|                                         ",
"'$)~~____{{{{{*@&$$$$^||||||||||:),,,_<_<<__{,,*%%)~,,,,,,,==={{{{___{{{{{{===========^  [222222|   :::                         ",
"&&)~~<____{{{{$@+@#)@^|||||||||::),,!_<___*,,,,,,)~,],**..#,*,,**~(___(_{{{{{=========$ ^;;--[-;->/];--/2-22:>/2>/2 |/          ",
"@'))~<______{{#@&+))$^|||||||||/>>*!!_<__,,,~,,~~~~]-*...##.%***,**,,~~~{{{{{,====*$$##2 ;--%>---%%-;--%%--%/;;-;->:[;/^        ",
"&&^)~_<______{#@$@~#$:|:|||||::/>>*!!_<!!,,,~~,)~~(--#...##+..**,****,,,,,,{{{,==*=$=$$| ];--]];-->];;->>--%/;;-;-%/[;%&        ",
"&)^~~_<_<___{{*$$=$=)||||||||::/>**!_<__(]~(~~~,((-#.+..#**@+++.#****,*****,,{{{,*$##$#$|[]-%%-;-%>>;-%>/--%>;;--;%/[;%&|       ",
"'^^^~~_<<<__{{,*$$$$:||||||||::/>**{_<!((((((((]-*....#.#,))   +++@*****##$*,{{{,*$$$$$@^2>>&:[-%&^/-]%''>;--;;>-;->[;>&|       ",
"^^^^~~_<<<__{{,,)$)^|||||||||:/>>*,!<_!(((((((_-#....####)~^    ++++@@@**#$**~{{,*$$$$$#' [/'|2/>':2->&^|[---;;>----];>@3       ",
"^^^^~~~_<<<<_{{,~//:|||||||||:/>**{!<_(~(((((,-##*=*#*,~~))&        +++@%@***,~~,**$$$$$$  |^2  ^':  |&:3 2/->>&'[---]&&2       ",
"^^^^^~~_<<<<<_{{,///|||||::::^/%*,!_<{(((~,*#*###=~~~)((:&             ++%%***)~~,**###$*:      22    ||   ':^'^|:|''&''        ",
"^^^^:~~(<<<_<_{{,~//(||:::/://'%*{!_<{~((*..##..*{~((~(::               ++>**,,~~,,**-***/22                :|||   |:^^:        ",
"^^')^~~(<<<<_<{{{,,~/////:///***{{_<{~(,*.###***==(}}}:'                ++'/**~,~,,*--##--]-[[][-[22>[[[2 [[                    ",
"&^'^^^(~(<<<<__!!{,,,,)~~~)),*,{{{_<~~(#...##))(~~}||^                  ++&//*,)~,,**--.#-;->>]-;->/-]--]/]-/|3                 ",
"&^'^):(~(<<<<<_{{!!,,,~~~~,,*,,{{_<<~~~....#*~~(~~}|^                   ++&//%*,,~,**--.#---->]-;->/-----%];>^|                 ",
"|^$))::()(<<<<__{{{!={,{{,,,,{{{_<<{~~*..@##*~~~@+                      ++&///**~,~$##-#------]---->---;-%];>':                 ",
" '&&'^^(~(<<<<<__{{!!!!!!!{{_{{__<<~~~*.@+@@@@+                          +&>//>*,,),$###-.%%]--]%-----%--%];>&^                 ",
" |+&$^^(~{<<<<___{{{{!!!!!{{__{_<<<,~~%+++                   +           +&>///>*,),$##..+&&/>%/&,>--]%----;/&^                 ",
"  ^)$~~~~{<<<<<<<_______________<<<~~~#++                  +..+++        @&%>/>>*$*,$$@@@@^| |:''|2/%&&/2>>>'&^                 ",
"  1((~((~{<_<<<<<_____________<<<<<~~~#                  +.......%+ +   +&'&%>>>%@$,*$@@@@:         |||  2:^^:|                 ",
"  2({{((<{____<<<<<<<<______<<<<<<(~~~.                 +...%....@@++ +&'^''&%>%%@@$$$@@@@^ []22>2/[  2                         ",
"  2({{(_<<______<<<<<<<_____<<<<<<(~~~+               ++..%%%%@...+++@@)^^')'@>>%@@$$$@@@@^ 2]//-[]]|2>2/[  2                   ",
"   2~(_<________<<<_<<<<<<<<<<<<<({~~,+              +..%>%%%%@@++++@$)))~)$&@>%%@#$$$@@@@^ 2-]>----%>;]--//-[[-2|[/2           ",
"    }((<___{______<____<<<<<<<<<<{~~~,+          +++.@%%>%%%%%@@@+++$}}~)))$@@%%%@#$)$@@@@^  -]%;]--%>;]-;%%;]-->%[-]'3         ",
"    }((<<_{{{________<___<<<<<<<_{~,~,.         ++.%%>%>>%%%%@@@@+++)}}~)))&@%%%%@@$)$@@@@:  [--;]>---;]--%%;]-->%/;]&|         ",
"     [(___{{{{__________<<<<<<<<(~~~~*.         +@%>>]>>>..@%%+@@@$)(}}(~$,*#%%%*$$$)$$@@@:   2>>>&>---/>---;]>--%];-&:         ",
"     2[[_<_{<{{________<_<<<<<<<(~)~,*+        +@%>->>>>%..@%@@@$((~(}}}~***%**,*#$$$*$@@#|    2^^^||/%&&/>>>/%>--;-]&:'        ",
"     '2[<<_{_{{___!_{{____<<<<<<(~)(,%+        +%>-->>>%%..@@@+)~}}(~}}},**---*=*#$$**$@#*2 2   2|||||^''::>%&&>]--]/&:         ",
"       [(<<__<{{_!!________<<<<<{~~(*#      +++%%>>>>>>%@..%%@~()}}}~~~,-------,*##@*$#.#-//-[-[2/[22   :  ||::|^|'&&'|         ",
"       3((1(_<____!__________<<(~~~(#.      ++@%%%>>>>%%...%$~}}()(~,--]-----,,*#$$@$$@##->%-]-->-]]][2>[/[  2|    ||3          ",
"       '[(1<_<______________<<<_~~~~@+       +@%%%>>>>%%..@@~(}}(),--]]]]----,**#*#@$$@@@->%-]--%-;-->/-]]]22>[3                ",
"        2}<<_<<_____________<<<(~~~~.+       +@%%>%>%%%%..#~}}~((,------]--],,*#**#$@@@@@.---]---];--->;;-->>--'|               ",
"         2<<<_________<__<__<<<(~~(,.+       +@%>%>>>%%%.#(}}}*,---]------]-,,****#@@@@@@ 2/>'&/>-]>---;-%->%;;%:|              ",
"         ^[_<__________<_<__<<}((~(,++       +.%>>>%%%%@@)}}}},-----]]]]]]]*,,***###@@@@&& 2^'':/>>%>---]%--%;;%:|              ",
"          2(_<<<{{______<<<<<}}((((#++      ++.%>>>>>&~}1}}~}~-----]]]](,,,,,******$@@@@+:  22232:^^:|/>>&/]--]&^|              ",
"           2((<<<<_______<<<<}}(((~.++      +&%%>>%)~~1111},---]]-]]]],,,,,,**,*,**#@@@@ |  /[[/2/[2332|::22/'&&^|              ",
"            2(_<<1<_______<<<}}((()+++     +@%%%%>)(}}11111~--]--]]],,,,,,,,,*,,**,#@@+@ |  []/][->2[/222333|^^^|'              ",
"             2((<<1<_____<<<<}}((@++++   +@@'')^}}1111}}1}~--]]]][(,,,,*>~,,,,,,,**$@@++    2]>]]-->/-[-][/>2[2                 ",
"              2}(<<<<___(_<<<}}(,..++++++++&:}|:}}11111(,]]]]]][[(~,~,,>//~,~~,,,*#$@@+ '    /------]]]--%]-]-]//-2             ",
"               3((<<<<(_(<<<}}((,%%.++++++@&:||}}}1111({-]]]]][[~~,/~,)////(]~,,,**$$$+ :    2/-]>>--]]--%]--;->/-[|:           ",
"                |((<<<(__(<<}}<{,>%%@+++++@&^|}}}}}(~]]]]][[[[(~~~/~,///~~(((,,,,*,)$$@'      |^'&'/--/%--]-]--%]->'|           ",
"                  2((((~(((<<<<{,~~,%%%@.@&%>*,,,,-]]]][([[[((~(,(~~(//(((((~~,,*,,*)@+     >::22222:^''//-]>---]-/':           ",
"                   322(,~(((<<<_,,~/,%%%%%%%%*-,-]]]]]]][[(((~,(~(~~(((((~(((,,,,,*$$#+     >[[>22232|::|2>>&%>---/':           ",
"                        2~(((<__(~),~~~,,-**---!!!!!___((((~,~(((((([([(~~,~~~,,,*$$#@&     /]%-]-][>[/3332|:|2|>>&':           ",
"                         2~(({(__(((=*,,,{((____!______{{{{~(((~(([((((~((,,~,,,*&$$#@|     2]-;]--%-]-///[2/3332|||            ",
"                           |~~~~((((((~**,~~{__{{!__{___{(((((_(((((](((~,,,,,)$)@&##@      ^2/>/>------%]-]-///[2:             ",
"                            :~~~~(((~~(~)**,{{{{{{{{{{{{{{(~{(__(({((~{(~,,,,))&)&&##@       :|>>%>------];]->%]]/|             ",
"                             2:~~~~~~~(~~~~,==*==={{{{{{{{{((({({_({((,~,,*,*&&&)$$#&2         |::|:>'%>>--/->%]]>'             ",
"                               |~~)~~~)~~~~{~~~~{~{{~~(~({~~((~~(~((,,,,)))$&&&&@#@&                ||:2|'''%]--]/'^            ",
"                                :~~))~))~~~~~{~{~~~~~~~~(~~~(((((~~,~,,,@)$&%)@@$@@|                  '  |^'^[/>/''|            ",
"                                 2/~~~)))))))~~~~~~~~)))~~~~~~~~~~~))$&)$*****$$@'2                           |:''^             ",
"                                   |,~,~~~,,))))~)~))~~~)~~)))))~~))$),*******$@^                                               ",
"                                    ~,{{~~,~,)))))))))))))))))))))))))),**,~~,@&                                                ",
"                                      ~~~~~~~~~~)))))))))$)$)))$$)$))$$,~~~~~$|                                                 ",
"                                       ^//((((((:(((::((:::^:::^^^^^/((((((::                                                   ",
"                                           '                                                                                    ",
"                                                                                                                                ",
"                                                                                                                                "};
