/* XPM */
static char * meme1_xpm[] = {
"128 122 32 1",
" 	c #000000",
".	c #261812",
"+	c #392A22",
"@	c #5A2114",
"#	c #4A271A",
"$	c #422C1B",
"%	c #633926",
"&	c #5C4330",
"*	c #54453D",
"=	c #7D3B29",
"-	c #744731",
";	c #84563D",
">	c #AC4B3E",
",	c #99553A",
"'	c #73655E",
")	c #9A603C",
"!	c #95644B",
"~	c #B2704B",
"{	c #B2785C",
"]	c #A97D60",
"^	c #908784",
"/	c #C18059",
"(	c #CA9577",
"_	c #D7976F",
":	c #B3A9A6",
"<	c #DEA787",
"[	c #EBB08D",
"}	c #EEB79B",
"|	c #ECC3A9",
"1	c #D3CCCC",
"2	c #EDE2E1",
"3	c #FFFFFF",
"                                                                                                                                ",
"                                                                                                                                ",
"                                                                                                                                ",
"                                                                                                                                ",
"                                                                                                                                ",
"                                                                                                                                ",
"                                                                                                                                ",
"                                                                                                                                ",
"                                                                                                                                ",
"                                                        '   '''                                                                 ",
"                                             22222||||||||||||||||||22'                                                         ",
"                                        22|||||||||||||||||||}}}}}}}<((||22                                                     ",
"                                      22||||||||||||||||||||||}}}}}<<<<<<||2:                                                   ",
"                                   2||||||||||||||||||}}}}}|||||}}}}}<}<<<}|<:23                                                ",
"                                 2|||||||||||||||||||||}}}}|||||}}<<<}}}}}}}}}}<|2^                                             ",
"                                2||||||||||||||||||||||}}}}}}}}}}<<<<}}}}}}}}}}}}||2                                            ",
"                              2|||||||||||||||||||||||}}}[}}[[[}}<<<<<<<<<<[[<<<<<<(:2                                          ",
"                            ^||}||||||||||||||||}}}}}}}}}}[[<[[}}<<<<<<<<<[<<<[<<<<<((:                                         ",
"                            1|}}}}|||||||}|||||}}}}}}}}}}}}}}}<}}[<<[_<<<<[<(<__<<<<(((:2                                       ",
"                          2|<<<[[}||||}<}}}}}}}}}}}<<}}}}}}}}}}}}}<<[<_}}}[__<______((((]:                                      ",
"                         2<<<<<<<[}|}[<<[<<<[<<<<[}<<}}}}}}}}||}}<<[[[<<<}[[________///{{]^2                                    ",
"                        ^(<<<<<__<[[[<[___[[[}}<<<<<<<}}}}}}}|}}}<<_<[<[<<[[[____//_///{{{!'                                    ",
"                       |(((((_______________[[[<}}<}}}}}}}}}}}}}}}}[[<_[[[[<[_____/_//~~~~);'                                   ",
"                      1(((((//_____________<[}}}}<}}}}|||||||||}}}}}<<<<<[[________////~~),,-'2                                 ",
"                      (((((////___//_______[<}<}}<}}}}|||||||||}}}}}}[<[<[______/__///~~~),,=%'                                 ",
"                    2:({{{{{///////_______[[}}}}}<}}}|||||||||||||}}}<}}}}[[[____///////~~,,=-%1                                ",
"                   ']]]{{~~~~///////_____<[[}}}}}|||||||||||||||||||}}}}}}}[<[____/////~~~,,===#                                ",
"                   1]]{{{~~~~///////_____[[[}}|}||||||||||||||||||||}}}}}}}[[______////~/~)),==%1                               ",
"                  1]{{))~~~~~~~/////_____<[[<||||||||||||||||||||||||}}}}}[<[_______////~~)),,,=%                               ",
"                 2]{!))))~~~~~~////____[_[[[[}}}}}|}}|||||||||||||||}||}<}}[<_______///~~~~~),,=-'2                             ",
"                 ]]!,,,),~~~~~//////____[__<[[<}}}}}}||||}}}}}}||||}}}[[[[[[_______/_//~~~~~)),,=%'                             ",
"                 !!,,,,,~~~~~~//////________<[[}}}}}}||}}}}}}}}}}}}}}<[[[[[__________///~~~~)),,=-%                             ",
"                :!),,,,,~~~~~~~~~///_/____[_<[<}}}}}}}}}}}}}}}}}}}}}}}[<____________////~/~~)~,,==-^                            ",
"                -,,,,,,~~~~~~~~~~//__________[[}}}}}}}}}}}}}[[[[}}}}}}[[[[______/_/__///~~~~~~),,==%                            ",
"               2-;,,,,,~~~~~~~~~~//______<<__[[}}}}}}}}}}}}}[[[[}}}}[[[[<<<__________///~~~~~~),,==%2                           ",
"              2;=,,,,,)~~~~~~~~~~//_____<<<<_(<}||}}}}||}}}[[[[[}}<}[[<[<<<[_________/////~~~~),,,=%*2                          ",
"              %%==,,))~~~~~~~~~~~/_<(<<<<<<<<<<||||}}}}}<}[[[_[[<<}<}[[<<[[<<________////~~~~~~,,,=-$*                          ",
"              %==,,,)~~~~~~~~~~~~/__<<<<<<[[<<<||||}}}}}<}[[__[[<}}}}}[[<<[[<[[<<<____///~~~~)),,==-#+                          ",
"             ^%==,,,~~~/~~~~~~~~//__<<}<<}}<}}<}|||}}}}}}}[[[[_[}}}}}<<<}<}}}[[[[[[<<__//~~~,)),);=-%$'                         ",
"             #@=,,,,~~////~~~~~//_(<[}}||}}}}||<}|||}}}[[[[___[[[}<}}}[}<<|}|}}}}}}<<<<_//~~~)),);;=%#+^                        ",
"            2%%==,,,~~////~~~~~//__<<}}}}}}|||||||}}}<}[[[[_[__}}}<}}}}}}}|||||||||}<<<__//~~),,),;%%&+:                        ",
"           2&%-==,,,~~////~~~~///_(<<}||||||||||||}<}}}}[[[<[[[[[}}||}<<|||||||||||||}<<__/~~),,,,;-%%+*1                       ",
"           &%=%--,,,~~////~~~///_((<<<||||||||||||}||}<<}<[[[[[}}}|||}}|||||||||||||||<<<_//~),,=;;--%#+'                       ",
"           #%=-===,)~~////~~~///_((<<<|||||||||||||}||}<}}<[[[}}}}|||}<|||||||||||||||<<<(/~~),,=;;-%%&+*                       ",
"          1#%---=,=,~/////~~~//{/((<<<<||||||||||||||}}}<}}<[[}}}||||<<||||||||||||}<<(((]{{),,,;;---%%$+                       ",
"          '%%@==,,))~~////~~~/{)]]]]((](||||||<|||||<}<((<<}<}}<}}||}<(]|(<]]](<|||((((]]!{{{));-=%-%%%&$:                      ",
"          &@@@===,))~~////~~{);;!!]]((]](((((((||||||<<({]<}<<}<}}}}<((]|]((]!]]((](]!!!;!!]);;;-%%%%%%%&^                      ",
"          .@@%==,,)~///__/~~)-%#&&;&&&&&&&&&'''''';-;!]]{!((<<[[<}]!!!]!!;]!!&*''']!-;&#&#&--;;--%%%%%-%%&                      ",
"         2#@@@==,,~~{~//_/))%%%.#...++*&**+++**'$*&&&'--;!!](<<[<!;!-!!!-;&$***$*&$$&#&...#$&%%%%%%%%----&                      ",
"         1#@@===,,~~{////_{;###$+#..++*++***+++*+$**$&&&%&!]{]<<<{-%!!]-&&$++**$+$*$$$+....$&&&%--%%--;--#                      ",
"         '%%%%==,,,~~~/_//{]%%&##.++++...   .....+....$##%#!--[<(!;!-!!&+..  ...............$&&&%%%--;;-%#                      ",
"        1#@@%-;,,,,~///__{{!!-%%&&*+.   ..+++...     .+##&;!]]<<<!--%###.. .....++++++*++..+$&&&-;;;;!;--%2                     ",
"        ^#%%%-==,,)~~//__]]!!;--&&&*...++*******++.. .$$#;!]((<<_];-@%#.. ...+++*********+.+$&&;!!!!!!;--%1                     ",
"        *#@---,,,)))~~/__(!!;--%%&$.*'''^^^^^^^^^^^''..$-!](((<[<_{]-;&..+'^^^^::::::::^^'++&&;]]]]]!!!--%:                     ",
"        #%==--;,,)~{~~~///{{)-%##..'^:::112122221221:'.#%;!]((<[<[<_(-$+*':112111122232::^++&&!]]]]{{),-%%'                     ",
"        #%=--==;))~~~~~////{)==#...^:::11111223333221^.##-;]{(<[<[[__;$.*'1222222112231::^++&;;]]]]{~),%%%*:                    ",
"       1#@@%%==,,)~~///~///{);-#. +^:^::112222233321:'+##%-;{{/[[[__/;$.'^2233222222]&&'''*+&-;!]{{~)),-%#+1                    ",
"       '%@@@@===,,)~~~~~~~));-%#..*^$$&]:111222333321^+.#%-;))~__<_[/-$+^:2222222222&&&&&''*&-;!{~~~~,;%%&+^                    ",
"       &%%%@@==,,,~~/~~~~));;-%#..*'$$&]'111222222321^+.#%%-!){((_<_]&$+^:1222222221$$ $&''*&-;!{~~)),;%%#+'                    ",
"       ###%%%====,,~////~{{]!!;&#.**...$&112222222221^+.#%--;;!((<_(]%$*^:1222222211$& $$'**&;;!))),,,=%%#+'                    ",
"      2###%%%===,,~~//////{]]]!-$.*&&..$&112211122111'..#----;!(((__]-$+^::111222222&&$$*'*+$-;))),,,,=%##+'                    ",
"      :$##%%%===,,,~~/////{{]]!-$.*'&$$&'11221112111:'.+%----;]((___]-#+'^:111112211^&&&''*+$--;;,,,,,=%##+'                    ",
"      '$##%%%-===,,~//////_({]]-#.+^'&&':1111111111^^*+#%-----!{(_(({;%+'':1111111111::^'*+$$%-;,,,,,,=###+'                    ",
"     :+###%%%==,,,,~~~///___/{!-#..'^::::1111:::11:^'+$#%-;---!{(_<<({!#+'^::1111111::^''*###%-;),,,,,=###.'                    ",
"     ^+###%%%-==,,,~~~///////{!-#..'^:::::1111::1::'*.##-;;---!{((<<({{%++'^:111111:::^''*##%%-)),,~,,-###.'                    ",
"     ^$##%%%%-==,,)~/////___/{!-#..+'^::::::::::^^^*+$#%-;,;---{(<}}<((!##+*'^:::::^^^'**##%-))~~~~~,,-%##.'                    ",
"     '$#%%%--;;,,)~////______/{!%##$*'^^::::::^^^'*++%--;){)-%-{{<}}}<(];%$++*'''^'''*+##@-=,~~///~~),-%##.^                    ",
"     '$#%%-;;;;,),~/~/________/{=@##+*'^^^^^^^^''**++&-;!{{!-%-{{<}}}}}(!;#+++***'***+###%,)~/////~~),-%%#.^                    ",
"     '$%-;;!)!!{{///___________/,=@##$+*********..+$$%-!](({;%-!{<}}|||<(]&#$$#$######%-;)//_////~{{!)-%%#.:                    ",
"     ^&-;;!!{{{{/________________,=@##$+....+.+++$$##%!{(<({;%%!]<}||||}((!#&&&&&&---;!{{/______({(({{;%%%.^                    ",
"     '&-;;!{{{{/(___________[<[[_/~=@####$+$$$$$$$###%!{<((];%%;{(}|||||<(!%&&&&&--;!!!{{/_____<((<({{!%%%.^                    ",
"     '&-;!!{{{//_____<[[[[[[[}}}}}[/,=@%%####%%%%%%@@-!{{{;#..#%-]<<|||}}<]-%-;;;;;!!!{{(__<_<[[<<<(//{-=-+:                    ",
"     '&-;!!){///___<[<}}}[_(<}|||}}}({,=====-;,,,,---%-;!!!;###%%-](<}}}}<(--!]]]]](((<<<<}}}<}<<<<<_/~)=-*1                    ",
"     ^&-;;!){//(___[}}}}}}}}}}||||}}}</,,====,,,,,=-%%%%;!!-%&##%%!](((<<({-!!]]((((<<<<}<<}<}}}}<<_(_/),-*1                    ",
"     :&--;;){/___<(<}||||}|||||||||}<<__/{,,==--%%%######@#####&##%--;!]((-!!{!!!{{{((<<<<<(<}}}<}}[<_/{)-*2                    ",
"     2'-%-=){{((_<<}}||||}}}}}<}}<<___/~~,;-%%%%%%%%###########%--###%%%%%%-%;--!!!!!!!!{{{{(<<<}}}}[<({)-':                    ",
"     2'-%-=){{((<<}<<<}}}<}<<<<[<<<__/{{!;--@%%%%%%%%%#######%-----%#####%%%--;=;!!!!!!!!!!!{((<<}|}<<_~)-'                     ",
"      ^%%%-)){(((((((((((((({/{/{{{{{{;==-%%%-----==========,{{~,,==-%------==,=,,!!!!!!!]!!!!!](<(<<<(~)%'                     ",
"      1%%%=,)){{((]]]]((({{({{{{!;;;;-;;;;------=============>>>>~~~~~,,,,,,,==@@@@%@%%%%%--;--!!]]((((~)%:                     ",
"      2#%%=,))~{{]!!!!]]{({]!!!!;;;!!!!!!-%%#@@@@@@@@@@=@@@===@==>>>>,,,,,>==@@@@@@@########%-%;!]]](({~)%1                     ",
"       &%@==,,){{!!!!!!{!{!!;;;;;--%@@@@@######%=%=====@@@@@==>>>===@@@@@@@@@@===-=-@%%%%=@@%%%@%!!!!]{))&:                     ",
"       ^#@%@==)){);;--!!----;%@@@%%%%%%@@@@@####%%===>>>>>>>>>>>>>>>>>>>>>>>>>>>===@@@=========;;--;!]));#                      ",
"       :##@@%=))!)!;--%---;-@@%%%%%==@@%%@@@@###@%==>>>>>>>>>>>>>>>>>>>>>>{>>>>=>==========,,===,))!!!));&                      ",
"        $##@@%=,;)!-%%%&&%-!!;======;=,,,===@%#%%%%====>>>>>>>>=======>>===>>=========,,,,)~)~),,)))!],;-^                      ",
"        ^+###@%%;);;%%#%-!{),,,,,))~~{),,~,,;;-%%%%===,==,,===@@%======,,==,,,,,,,,,,,~~~~~~~/~//~)));;;%2                      ",
"        2*###@@%=;;;%%#--)~~),))~~~~{~~{~~~)),);%%--====,,====%-;;!,,==,,,,,,,,,,,,,,,~),~~/~//~/~){-;;;%                       ",
"         2######@-;;;---!!~~~~~~~~~~~~~~~~~)~~~{{{))),)))!{!]{{]]({{{/{/{{{{{{~,~~~~~/~~~~/~~////))-;),%&                       ",
"          ^#######%-;--;;{//~~//~///////~///~/~~/////////((((((((((({(__/_//(//~~///~~//~////~~/)-;;;,;&1                       ",
"          2$########----;{//~~~//~~{~/~~)/~~~~)~___/_({{{{((((((((<((/((_((/(///_///////~////~~~;-;;,=-^                        ",
"           ^$####.###%-;!!{{~~~{,~{{{~)~/~),)~///_//(({{!!!{(((((((((({<(({{(///~//~~~~/~~~/~~~!%----%#                         ",
"            1$########%%--;;,){~~,,~//)~~,{/)//////{{)!!!!!{{]]]!]]{{{{]]](]{{))~~~~{))){!))){;--%-%%$^                         ",
"             ^$##########%!;),,,,{{/~~~,,)))~/)~~~~{{{!;!-!;!]]!!!!!{{]!{{!]){{{{{)))!{!!!;!!#%##%%#$.                          ",
"             2$$##########--;);,){{~~))),))))/~)~~~{{)!!!!!;!;!!;!!;!!!!!!{),{{{{))){{!!;-;&-#&##%##.'                          ",
"              1*######.$$$&-%;;{;;){{{];;,)))~~~~~{,){{!!;-!!]!];!!!;!-!;;;!!;!!!!!!!!!;&'*$$+.####$^                           ",
"               ^$#####.+$$#$%%%!;!;];-!;;),),))));;))]]]{){{!]!!!!!!-;;;;;-;-&*&&&&&&&&&'++++..$$#$.                            ",
"                '###.....$##&%%;-!;)!;;!!!;;!!;;;=);)]]]{!!{]]!!!!!!-;;-;;%--***+&$&&&&**++.+.+#$$+'                            ",
"                 *+#....++##%#%%%--;!!!!!;---%-;!{;;!)]]])!{{]]!!!!!;!;-&;&'&*+*+**&&**+++..+++$+..                             ",
"                  :........###&#&%;-%;%;-;&-;!;;;;;)!{((!!]]]]]]]!!!!!;;-&*****+*+*&*****++++$*++'                              ",
"                   *$....#######&&&&&-&;--&&-%--;;;!!){(!;]]]]]]]{{!!;!-&&***+'*++**&*$*+++++$+. :                              ",
"                    '++..#####$#$$$&$#&#$$$$$&$&-;-;!{](]]]]]]]]!{]!];!;&&***+''++$*$$+++*+++.. 2                               ",
"                      *+++$$+..+.+++$*$++++++$$$&&%!]]!]]](]]]]]!]]]!!!&**+**+'**+++...+++.+.. 1                                ",
"                      1++.$$+......++$.+..+++++$&%-!!]]]!(((]]]]!(]]!;;'**+**+***.+.......+.+ *                                 ",
"                        :++.+..... ......+..++.$#%---]!!]]]]]]]]]]!!;&&****+.+*+++..  ..... +                                   ",
"                          '*+.+..  .....+....++$$$&&&;-;!!]]!]!]!];;&&**++++.+.....    .. ':                                    ",
"                           :+++... .. .+..+..++*++*&&&&;;!!]!]!!;!&&&***..++.+...  .   ..*'                                     ",
"                             '+..... .....++.++.++*$*&&&&&;;;;&-%&&**++....+..       . *:                                       ",
"                                ^. .......+.+...+++**+$*&&&&&&&&$$++++++.+..    .  . +1                                         ",
"                                 1^ .....++++++++++**++++*&$$$$$$+++++...+.    ..   '1                                          ",
"                                    1^..++**+**'&*'***.++++++++++.............   *^                                             ",
"                                       2:++++****&&&****$$$++++++....+.. ...  *^                                                ",
"                                         1'+++*********&&$$$+++++...... ... .^2                                                 ",
"                                            ^^'*+***+*+$*$$+$+++++.. . +'^2                                                     ",
"                                                   11^''*++++++*'^:12                                                           ",
"                                                        21:::12^                                                                ",
"                                                                                                                                ",
"                                                                                                                                ",
"                                                                                                                                ",
"                                                                                                                                ",
"                                                                                                                                ",
"                                                                                                                                ",
"                                                                                                                                ",
"                                                                                                                                "};
