/* XPM */
static char * old_iron1_xpm[] = {
"128 128 18 1",
" 	c #819796",
".	c #394A50",
"+	c #202E37",
"@	c #577277",
"#	c #4D2B32",
"$	c #341C27",
"%	c #7A4841",
"&	c #241527",
"*	c #AD7757",
"=	c #10141F",
"-	c #090A14",
";	c #A8B5B2",
">	c #C09473",
",	c #E7D5B3",
"'	c #602C2C",
")	c #151D28",
"!	c #411D31",
"~	c #75A743",
"    ..++..@@@@@@@@@@......######++  $$$$..%%$$%%%%....++##&&..&&....&&**######@@$$..==++@@@@  @@@@@@......##....##--@@..%%@@@@  ",
"    ..++..@@@@@@@@@@......######++  $$$$..%%$$%%%%....++##&&..&&....&&**######@@$$..==++@@@@  @@@@@@......##....##--@@..%%@@@@  ",
"    ##==$$$$&&##..@@%%....##..$$&&  $$$$$$##&&&&$$&&==--==--..$$%%..&&%%$$####@@$$..&&&&$$$$--....%%@@..##....##$$--  ..@@@@@@@@",
"    ##==$$$$&&##..@@%%....##..$$&&  $$$$$$##&&&&$$&&==--==--..$$%%..&&%%$$####@@$$..&&&&$$$$--....%%@@..##....##$$--  ..@@@@@@@@",
"    ####@@@@  @@@@@@@@@@  @@@@..##  ##%%@@  &&==&&........##$$&&%%..==**####%%%%$$..==....@@..@@@@@@@@@@@@@@%%..##--  @@@@      ",
"    ####@@@@  @@@@@@@@@@  @@@@..##  ##%%@@  &&==&&........##$$&&%%..==**####%%%%$$..==....@@..@@@@@@@@@@@@@@%%..##--  @@@@      ",
";;;;##==--------==--======$$&&----@@==**>>>>$$....@@@@@@..$$&&%%@@%%==%%##%%##%%$$..==------------==--&&--&&&&------##..@@      ",
";;;;##==--------==--======$$&&----@@==**>>>>$$....@@@@@@..$$&&%%@@%%==%%##%%##%%$$..==------------==--&&--&&&&------##..@@      ",
";;  $$--##..@@%%  @@@@@@..@@++====  $$**>>**$$%%  @@$$&&$$==##%%  ..==%%$$######$$..&&&&====$$@@  @@@@........&&&&--##==@@@@    ",
";;  $$--##..@@%%  @@@@@@..@@++====  $$**>>**$$%%  @@$$&&$$==##%%  ..==%%$$######$$..&&&&====$$@@  @@@@........&&&&--##==@@@@    ",
"**@@....@@  ;;,,%%@@@@@@@@  @@  ..  $$%%>>**--%%>>      **%%**%%%%##==%%--##$$##$$##==@@  %%..>>%%..##..@@  @@@@..--@@..%%@@  @@",
"**@@....@@  ;;,,%%@@@@@@@@  @@  ..  $$%%>>**--%%>>      **%%**%%%%##==%%--##$$##$$##==@@  %%..>>%%..##..@@  @@@@..--@@..%%@@  @@",
"@@%%..##@@  ;;        @@  @@@@@@@@  $$%%**@@$$%%%%      ****@@%%%%..==..--%%%%--####$$@@  **;;    @@@@@@@@@@  @@@@--....%%@@@@@@",
"@@%%..##@@  ;;        @@  @@@@@@@@  $$%%**@@$$%%%%      ****@@%%%%..==..--%%%%--####$$@@  **;;    @@@@@@@@@@  @@@@--....%%@@@@@@",
"@@%%....  ;;            @@  @@@@@@  $$%%**%%&&..@@******%%****%%....==%%########&&##++@@    ;;@@;;  @@  @@    @@@@==......%%@@@@",
"@@%%....  ;;            @@  @@@@@@  $$%%**%%&&..@@******%%****%%....==%%########&&##++@@    ;;@@;;  @@  @@    @@@@==......%%@@@@",
"@@%%....@@                    @@@@%%--%%**##$$==$$==**%%****''####%%####==----$$==++++@@                @@    @@@@--&&....%%@@@@",
"@@%%....@@                    @@@@%%--%%**##$$==$$==**%%****''####%%####==----$$==++++@@                @@    @@@@--&&....%%@@@@",
"%%%%##..@@          @@@@@@    ....@@--%%**..&&))++++%%@@@@@@%%........$$&&++..++....++@@                @@@@@@..@@--==##..%%%%%%",
"%%%%##..@@          @@@@@@    ....@@--%%**..&&))++++%%@@@@@@%%........$$&&++..++....++@@                @@@@@@..@@--==##..%%%%%%",
"@@%%....@@@@  @@    @@    @@@@....@@$$%%@@%%&&++))$$##########$$$$####$$....@@......++@@@@      @@  @@  @@  @@..##--..$$..%%%%%%",
"@@%%....@@@@  @@    @@    @@@@....@@$$%%@@%%&&++))$$##########$$$$####$$....@@......++@@@@      @@  @@  @@  @@..##--..$$..%%%%%%",
"%%%%##....@@@@@@@@@@@@@@@@@@%%....  $$%%**%%$$....@@......##..$$$$++++++  @@@@..++##++@@      @@@@  @@@@@@@@@@@@..--..$$..%%%%%%",
"%%%%##....@@@@@@@@@@@@@@@@@@%%....  $$%%**%%$$....@@......##..$$$$++++++  @@@@..++##++@@      @@@@  @@@@@@@@@@@@..--..$$..%%%%%%",
"%%@@++&&........##....##....##..##  $$%%@@%%$$......@@@@@@@@..@@@@..@@..@@@@@@@@....++@@..........########........--##&&..%%%%%%",
"%%@@++&&........##....##....##..##  $$%%@@%%$$......@@@@@@@@..@@@@..@@..@@@@@@@@....++@@..........########........--##&&..%%%%%%",
"%%@@$$##@@  @@@@@@@@@@@@@@@@@@@@##  $$..@@%%$$..@@##..@@@@....@@@@@@....@@@@..@@..++++..@@@@@@@@@@@@@@@@@@  @@@@##--####..%%%%  ",
"%%@@$$##@@  @@@@@@@@@@@@@@@@@@@@##  $$..@@%%$$..@@##..@@@@....@@@@@@....@@@@..@@..++++..@@@@@@@@@@@@@@@@@@  @@@@##--####..%%%%  ",
"@@@@##..  ;;;;        @@  ;;;;....  $$%%**%%$$..@@==  @@@@@@..@@......@@............++..@@  ;;;;  @@          ....&&..##..%%%%@@",
"@@@@##..  ;;;;        @@  ;;;;....  $$%%**%%$$..@@==  @@@@@@..@@......@@............++..@@  ;;;;  @@          ....&&..##..%%%%@@",
"%%@@..++@@        **  @@      ....  !!##%%%%$$..@@==@@@@@@@@..@@@@;;@@............##$$@@  ;;;;      **@@@@  @@....--@@++##%%%%%%",
"%%@@..++@@        **  @@      ....  !!##%%%%$$..@@==@@@@@@@@..@@@@;;@@............##$$@@  ;;;;      **@@@@  @@....--@@++##%%%%%%",
"....$$--==..@@....%%  @@@@..##..##@@--##@@%%&&..@@&&@@@@@@@@@@@@&&@@@@..@@$$##..$$..&&@@@@      @@%%@@  @@@@......----$$$$##..%%",
"....$$--==..@@....%%  @@@@..##..##@@--##@@%%&&..@@&&@@@@@@@@@@@@&&@@@@..@@$$##..$$..&&@@@@      @@%%@@  @@@@......----$$$$##..%%",
"@@%%&&&&!!..######$$$$........@@##@@$$%%%%%%==..==@@@@@@@@@@@@$$@@  %%..  @@@@@@@@..$$@@............####....%%@@..--..&&##%%@@**",
"@@%%&&&&!!..######$$$$........@@##@@$$%%%%%%==..==@@@@@@@@@@@@$$@@  %%..  @@@@@@@@..$$@@............####....%%@@..--..&&##%%@@**",
"@@##$$$$@@@@@@@@..@@@@@@@@@@@@@@..@@$$..@@%%$$==..@@@@@@@@@@..++##@@@@..@@@@@@..@@..++@@@@@@@@@@@@@@@@@@@@@@@@@@..--..$$##......",
"@@##$$$$@@@@@@@@..@@@@@@@@@@@@@@..@@$$..@@%%$$==..@@@@@@@@@@..++##@@@@..@@@@@@..@@..++@@@@@@@@@@@@@@@@@@@@@@@@@@..--..$$##......",
"%%%%$$++@@  @@@@@@......  @@@@@@..@@$$..@@%%$$$$@@....@@@@....&&%%%%%%..@@@@@@@@@@..&&..%%@@@@@@@@..%%##@@@@@@@@..))%%....##%%..",
"%%%%$$++@@  @@@@@@......  @@@@@@..@@$$..@@%%$$$$@@....@@@@....&&%%%%%%..@@@@@@@@@@..&&..%%@@@@@@@@..%%##@@@@@@@@..))%%....##%%..",
"%%%%$$....@@@@....====##..%%@@....@@$$..  @@$$$$........####$$==..%%..++        ....&&....@@@@..$$..$$......@@....--......%%%%%%",
"%%%%$$....@@@@....====##..%%@@....@@$$..  @@$$$$........####$$==..%%..++        ....&&....@@@@..$$..$$......@@....--......%%%%%%",
"@@%%$$##@@........&&&&######@@%%..  $$%%  %%&&..................##..##%%%%....%%##..&&....%%%%..$$..##..$$$$@@....==..##..@@%%@@",
"@@%%$$##@@........&&&&######@@%%..  $$%%  %%&&..................##..##%%%%....%%##..&&....%%%%..$$..##..$$$$@@....==..##..@@%%@@",
"##--$$##@@@@....####%%%%@@##@@%%..@@$$@@**%%&&..@@@@..  @@  ##....##@@  %%%%%%%%####&&....@@%%........%%%%$$..%%..==####@@%%..&&",
"##--$$##@@@@....####%%%%@@##@@%%..@@$$@@**%%&&..@@@@..  @@  ##....##@@  %%%%%%%%####&&....@@%%........%%%%$$..%%..==####@@%%..&&",
"%%%%++##..........##$$....$$##&&++%%&&%%%%%%$$##..$$  @@@@@@%%..@@$$$$%%##%%%%%%##..&&..$$@@%%####$$..####$$......--##@@@@@@@@@@",
"%%%%++##..........##$$....$$##&&++%%&&%%%%%%$$##..$$  @@@@@@%%..@@$$$$%%##%%%%%%##..&&..$$@@%%####$$..####$$......--##@@@@@@@@@@",
"%%..++$$......##..######..$$####++@@&&%%**%%$$--$$$$@@@@@@@@@@##..@@==%%@@%%%%%%####==..##....##$$######..$$######==##..%%%%%%%%",
"%%..++$$......##..######..$$####++@@&&%%**%%$$--$$$$@@@@@@@@@@##..@@==%%@@%%%%%%####==..##....##$$######..$$######==##..%%%%%%%%",
"....$$&&....####&&$$$$$$$$$$##..$$%%&&..**%%$$..==##@@--------&&--@@==%%------..$$##==......%%$$$$$$$$##$$$$######--##..%%@@%%%%",
"....$$&&....####&&$$$$$$$$$$##..$$%%&&..**%%$$..==##@@--------&&--@@==%%------..$$##==......%%$$$$$$$$##$$$$######--##..%%@@%%%%",
"%%..$$$$..##..........##..##..$$==..&&%%**%%$$..==##......@@@@..@@%%&&,,##@@==@@%%##====@@..%%....%%....##..##@@++--##....%%%%%%",
"%%..$$$$..##..........##..##..$$==..&&%%**%%$$..==##......@@@@..@@%%&&,,##@@==@@%%##====@@..%%....%%....##..##@@++--##....%%%%%%",
"%%##$$$$##==##%%..........$$##..##@@$$##%%%%$$..$$$$....@@@@@@..%%..&&%%$$%%##@@$$..&&..####%%..%%@@@@@@@@@@  ##$$==..++..%%..%%",
"%%##$$$$##==##%%..........$$##..##@@$$##%%%%$$..$$$$....@@@@@@..%%..&&%%$$%%##@@$$..&&..####%%..%%@@@@@@@@@@  ##$$==..++..%%..%%",
"....$$##....==##%%....@@$$##%%..##..&&##..##&&..$$$$$$@@@@@@@@....##--..$$%%##@@&&##&&..%%####%%%%@@@@@@..@@######--..##........",
"....$$##....==##%%....@@$$##%%..##..&&##..##&&..$$$$$$@@@@@@@@....##--..$$%%##@@&&##&&..%%####%%%%@@@@@@..@@######--..##........",
"....$$$$......##$$##$$$$$$......##..####..##==..$$##@@@@@@@@..@@..##--..!!%%##%%&&++&&....%%$$##......######%%..##--##$$......@@",
"....$$$$......##$$##$$$$$$......##..####..##==..$$##@@@@@@@@..@@..##--..!!%%##%%&&++&&....%%$$##......######%%..##--##$$......@@",
"@@@@$$##......%%..####&&%%......##..$$####$$$$..@@$$%%%%@@@@@@@@..%%==..$$%%..%%$$##&&##........##....##$$%%....##--##++........",
"@@@@$$##......%%..####&&%%......##..$$####$$$$..@@$$%%%%@@@@@@@@..%%==..$$%%..%%$$##&&##........##....##$$%%....##--##++........",
"..@@$$$$##....%%........@@....######&&##$$$$&&--$$--====&&++..@@####--##&&##$$..$$..&&............--##$$........##--##++......##",
"..@@$$$$##....%%........@@....######&&##$$$$&&--$$--====&&++..@@####--##&&##$$..$$..&&............--##$$........##--##++......##",
"%%..==++..@@@@@@%%@@  ;;  @@@@@@##$$==######$$##%%....@@%%@@----....&&##--&&==$$$$##&&##......@@......%%@@%%....##==##++##@@%%@@",
"%%..==++..@@@@@@%%@@  ;;  @@@@@@##$$==######$$##%%....@@%%@@----....&&##--&&==$$$$##&&##......@@......%%@@%%....##==##++##@@%%@@",
"++$$&&==....@@@@..$$$$&&..++&&        ;;;;  %%==..@@@@@@@@@@&&==....--##%%####$$$$$$&&++..@@..@@..@@..%%@@......$$--##++##$$++..",
"++$$&&==....@@@@..$$$$&&..++&&        ;;;;  %%==..@@@@@@@@@@&&==....--##%%####$$$$$$&&++..@@..@@..@@..%%@@......$$--##++##$$++..",
"**%%&&##@@@@  @@@@@@@@@@@@..$$$$--&&@@%%****##%%....@@@@....&&&&..##==##%%%%$$>>&&##==##..@@@@....@@@@@@  @@@@@@##--$$++....%%..",
"**%%&&##@@@@  @@@@@@@@@@@@..$$$$--&&@@%%****##%%....@@@@....&&&&..##==##%%%%$$>>&&##==##..@@@@....@@@@@@  @@@@@@##--$$++....%%..",
"@@%%&&##@@@@  @@@@....@@..@@&&##....  %%@@%%##$$##..@@..%%**  ==%%..$$####%%..%%==..==..@@..''**@@%%@@@@@@....$$&&--##$$$$$$####",
"@@%%&&##@@@@  @@@@....@@..@@&&##....  %%@@%%##$$##..@@..%%**  ==%%..$$####%%..%%==..==..@@..''**@@%%@@@@@@....$$&&--##$$$$$$####",
";;%%==$$....@@@@@@  @@@@....&&##$$$$####%%%%##$$..##@@@@$$$$==&&%%....&&--&&==&&$$..==++@@%%..  @@  @@@@@@@@@@..$$&&..++%%%%%%  ",
";;%%==$$....@@@@@@  @@@@....&&##$$$$####%%%%##$$..##@@@@$$$$==&&%%....&&--&&==&&$$..==++@@%%..  @@  @@@@@@@@@@..$$&&..++%%%%%%  ",
";;  $$$$....@@@@  @@@@@@##@@##&&====&&&&&&&&--&&....@@%%##~~##&&%%##..##@@@@........))##..@@@@  @@  @@@@@@    %%..--##&&$$@@%%@@",
";;  $$$$....@@@@  @@@@@@##@@##&&====&&&&&&&&--&&....@@%%##~~##&&%%##..##@@@@........))##..@@@@  @@  @@@@@@    %%..--##&&$$@@%%@@",
"  >>$$$$@@    %%==------..@@@@..++##==&&$$$$==++....@@..%%~~''&&..##....@@@@........&&..@@  @@  ------$$@@%%@@@@..==%%##%%@@@@>>",
"  >>$$$$@@    %%==------..@@@@..++##==&&$$$$==++....@@..%%~~''&&..##....@@@@........&&..@@  @@  ------$$@@%%@@@@..==%%##%%@@@@>>",
";;  &&..@@@@  %%@@@@@@@@  @@@@@@%%..==$$##..&&....@@@@..####&&&&%%%%##..........@@..))..    @@@@@@@@@@%%  @@  @@%%$$%%##%%      ",
";;  &&..@@@@  %%@@@@@@@@  @@@@@@%%..==$$##..&&....@@@@..####&&&&%%%%##..........@@..))..    @@@@@@@@@@%%  @@  @@%%$$%%##%%      ",
";;  ..##@@  @@@@%%@@..%%@@@@@@@@@@  $$##@@..==....@@....&&$$&&&&%%%%####......@@@@..&&..@@  @@@@@@%%@@@@@@    @@%%--..$$..@@@@  ",
";;  ..##@@  @@@@%%@@..%%@@@@@@@@@@  $$##@@..==....@@....&&$$&&&&%%%%####......@@@@..&&..@@  @@@@@@%%@@@@@@    @@%%--..$$..@@@@  ",
"  ;;......%%%%@@@@@@@@@@@@@@@@@@..  ..##**%%$$..........==$$&&$$%%%%..........##..##&&##%%@@..@@@@@@  @@@@@@@@@@..--@@##..@@@@  ",
"  ;;......%%%%@@@@@@@@@@@@@@@@@@..  ..##**%%$$..........==$$&&$$%%%%..........##..##&&##%%@@..@@@@@@  @@@@@@@@@@..--@@##..@@@@  ",
"    ......  @@@@@@@@@@@@@@@@@@@@%%  $$##%%%%$$....++##$$++++$$==$$&&$$$$$$$$++++++++&&##..@@@@@@@@@@@@@@@@@@@@@@@@--@@##..@@    ",
"    ......  @@@@@@@@@@@@@@@@@@@@%%  $$##%%%%$$....++##$$++++$$==$$&&$$$$$$$$++++++++&&##..@@@@@@@@@@@@@@@@@@@@@@@@--@@##..@@    ",
"@@  ##..@@@@@@..@@########@@@@@@..;;##%%**@@&&++##@@&&==&&==))======&&==&&++....++++--==..@@@@..%%%%$$####@@@@@@@@--  ..%%@@@@@@",
"@@  ##..@@@@@@..@@########@@@@@@..;;##%%**@@&&++##@@&&==&&==))======&&==&&++....++++--==..@@@@..%%%%$$####@@@@@@@@--  ..%%@@@@@@",
"    ....@@@@@@@@......%%@@@@@@@@..  ##%%****==$$..&&##................$$........##++$$..@@@@@@..............@@@@..--  ..%%@@    ",
"    ....@@@@@@@@......%%@@@@@@@@..  ##%%****==$$..&&##................$$........##++$$..@@@@@@..............@@@@..--  ..%%@@    ",
";;;;....@@@@@@$$++......@@..@@@@..;;##%%>>**==..$$++@@@@..............++@@@@........++..@@@@@@$$##..@@@@@@@@@@@@..--@@..@@@@    ",
";;;;....@@@@@@$$++......@@..@@@@..;;##%%>>**==..$$++@@@@..............++@@@@........++..@@@@@@$$##..@@@@@@@@@@@@..--@@..@@@@    ",
";;;;$$$$##%%..######..@@@@....%%....--**>>**$$&&..@@@@..@@@@    @@@@....@@  >>**##++$$..**##..##....%%@@....@@@@@@--$$..%%@@    ",
";;;;$$$$##%%..######..@@@@....%%....--**>>**$$&&..@@@@..@@@@    @@@@....@@  >>**##++$$..**##..##....%%@@....@@@@@@--$$..%%@@    ",
"    ..$$%%....####..%%....##......@@$$@@**%%$$&&##@@@@@@@@@@@@@@..@@%%##..@@####&&++&&..%%%%##..##........##..@@..--##..%%@@@@  ",
"    ..$$%%....####..%%....##......@@$$@@**%%$$&&##@@@@@@@@@@@@@@..@@%%##..@@####&&++&&..%%%%##..##........##..@@..--##..%%@@@@  ",
"@@@@..$$##......##......$$##%%....@@$$@@%%%%$$....@@@@@@@@......++..@@..==--====&&..$$..%%%%##..######..##$$..@@..==%%..%%@@@@@@",
"@@@@..$$##......##......$$##%%....@@$$@@%%%%$$....@@@@@@@@......++..@@..==--====&&..$$..%%%%##..######..##$$..@@..==%%..%%@@@@@@",
"@@%%..&&##..........##--$$$$....##  &&%%@@##$$@@@@  ;;;;    @@    @@@@..@@......++++&&##%%####......##--$$$$##....==..##..%%@@@@",
"@@%%..&&##..........##--$$$$....##  &&%%@@##$$@@@@  ;;;;    @@    @@@@..@@......++++&&##%%####......##--$$$$##....==..##..%%@@@@",
"@@%%..$$##%%..$$&&&&$$##--######..%%&&%%%%##&&--------------------..................&&##**##..$$======$$==########==..++..%%@@@@",
"@@%%..$$##%%..$$&&&&$$##--######..%%&&%%%%##&&--------------------..................&&##**##..$$======$$==########==..++..%%@@@@",
"@@%%##$$%%%%%%%%%%######%%%%%%..##..$$%%%%..$$..%%%%%%%%%%%%@@................##..++&&......%%%%..##....##..%%..##--##++..%%%%@@",
"@@%%##$$%%%%%%%%%%######%%%%%%..##..$$%%%%..$$..%%%%%%%%%%%%@@................##..++&&......%%%%..##....##..%%..##--##++..%%%%@@",
"@@%%..$$......%%########....%%..##----..%%%%$$..@@@@@@@@@@%%@@%%......@@@@@@....##++&&..........##$$####........##--..++........",
"@@%%..$$......%%########....%%..##----..%%%%$$..@@@@@@@@@@%%@@%%......@@@@@@....##++&&..........##$$####........##--..++........",
"%%%%##$$....%%....##$$##........##..&&%%**%%$$%%@@@@@@@@..%%@@@@......@@@@........++==##......%%..$$##..........##--====........",
"%%%%##$$....%%....##$$##........##..&&%%**%%$$%%@@@@@@@@..%%@@@@......@@@@........++==##......%%..$$##..........##--====........",
"@@@@##++##..%%....######%%..........&&..%%%%$$..@@@@....%%@@@@..........  ......####==++........@@..........##..##==........%%..",
"@@@@##++##..%%....######%%..........&&..%%%%$$..@@@@....%%@@@@..........  ......####==++........@@..........##..##==........%%..",
"%%@@..&&##..%%......%%..######..##..$$%%%%%%$$..@@......@@@@%%@@..............####..==$$....%%%%..%%%%%%..##..####==%%##..@@%%..",
"%%@@..&&##..%%......%%..######..##..$$%%%%%%$$..@@......@@@@%%@@..............####..==$$....%%%%..%%%%%%..##..####==%%##..@@%%..",
"%%%%$$&&..@@%%@@++$$##++..++++$$&&..&&%%@@%%$$..................$$$$$$$$&&$$$$&&$$++&&++..@@%%@@&&&&####..$$$$====--..$$..%%....",
"%%%%$$&&..@@%%@@++$$##++..++++$$&&..&&%%@@%%$$..................$$$$$$$$&&$$$$&&$$++&&++..@@%%@@&&&&####..$$$$====--..$$..%%....",
"%%%%$$--$$##$$--..%%%%####--------##&&##%%%%&&##......--==--..........$$++..........))$$....$$--..@@@@..##--&&------##$$..%%....",
"%%%%$$--$$##$$--..%%%%####--------##&&##%%%%&&##......--==--..........$$++..........))$$....$$--..@@@@..##--&&------##$$..%%....",
"%%%%$$$$..@@@@....##++==;;##%%##$$..$$######&&........##@@@@............++$$$$$$..++&&..@@@@@@@@..$$$$@@@@##..%%..--..&&..%%....",
"%%%%$$$$..@@@@....##++==;;##%%##$$..$$######&&........##@@@@............++$$$$$$..++&&..@@@@@@@@..$$$$@@@@##..%%..--..&&..%%....",
"@@..##++..@@@@@@..........%%....##..$$$$####==##........%%..$$........##--------##..&&##@@@@@@@@@@....##........##--##&&##..%%@@",
"@@..##++..@@@@@@..........%%....##..$$$$####==##........%%..$$........##--------##..&&##@@@@@@@@@@....##........##--##&&##..%%@@",
"..@@&&$$..@@@@..................####&&$$$$##&&..%%@@......##$$......##@@##$$######$$&&..@@@@@@@@@@..............##--##&&##%%%%%%",
"..@@&&$$..@@@@..................####&&$$$$##&&..%%@@......##$$......##@@##$$######$$&&..@@@@@@@@@@..............##--##&&##%%%%%%",
"%%@@##$$....@@    @@@@$$$$....####..&&$$$$$$&&##%%@@**....##$$$$%%..@@$$;;;;;;  $$..&&..@@..    @@@@@@##$$........--##$$..%%....",
"%%@@##$$....@@    @@@@$$$$....####..&&$$$$$$&&##%%@@**....##$$$$%%..@@$$;;;;;;  $$..&&..@@..    @@@@@@##$$........--##$$..%%....",
"%%@@++$$..@@@@@@@@@@@@@@%%....##++..==$$####$$$$%%%%@@##..##$$##%%$$%%..##$$&&##$$##&&..@@@@@@@@@@%%@@%%%%......##--$$++##%%%%@@",
"%%@@++$$..@@@@@@@@@@@@@@%%....##++..==$$####$$$$%%%%@@##..##$$##%%$$%%..##$$&&##$$##&&..@@@@@@@@@@%%@@%%%%......##--$$++##%%%%@@",
"..%%++$$..@@@@..%%%%@@%%%%..%%##$$@@$$$$$$$$$$..******##....$$..@@$$$$%%##########..&&##..@@%%..%%%%@@@@%%%%%%####--##$$####....",
"..%%++$$..@@@@..%%%%@@%%%%..%%##$$@@$$$$$$$$$$..******##....$$..@@$$$$%%##########..&&##..@@%%..%%%%@@@@%%%%%%####--##$$####...."};
