/* XPM */
static char * old_iron4_xpm[] = {
"128 128 18 1",
" 	c #394A50",
".	c #341C27",
"+	c #577277",
"@	c #4D2B32",
"#	c #10141F",
"$	c #A8B5B2",
"%	c #819796",
"&	c #202E37",
"*	c #241527",
"=	c #7A4841",
"-	c #090A14",
";	c #AD7757",
">	c #E7D5B3",
",	c #C09473",
"'	c #EBEDE9",
")	c #D7B594",
"!	c #602C2C",
"~	c #151D28",
"        ..++@@##  ++++++  $$%%++$$      ++      ..&&++....@@                **  ..  ==++  ++  %%++++      @@@@@@@@..  @@**&&@@  ",
"        ..++@@##  ++++++  $$%%++$$      ++      ..&&++....@@                **  ..  ==++  ++  %%++++      @@@@@@@@..  @@**&&@@  ",
"@@@@    &&  ....          @@      %%$$%%  @@@@++..............@@@@  @@      ....&&..==    ++++@@    @@  ..++++  @@..&&@@**..&&&&",
"@@@@    &&  ....          @@      %%$$%%  @@@@++..............@@@@  @@      ....&&..==    ++++@@    @@  ..++++  @@..&&@@**..&&&&",
"++      ++++  ++%%%%%%++%%++%%$$%%$$$$%%%%%%++%%++++++++++++++++++++        @@    ++++++%%++%%%%%%%%%%%%$$%%%%++++    ==  ++++++",
"++      ++++  ++%%%%%%++%%++%%$$%%$$$$%%%%%%++%%++++++++++++++++++++        @@    ++++++%%++%%%%%%%%%%%%$$%%%%++++    ==  ++++++",
"----##----####--##########..@@@@@@@@@@..**------------------##**..**######--##----##--##**##****&&&&@@@@&&**------------------##",
"----##----####--##########..@@@@@@@@@@..**------------------##**..**######--##----##--##**##****&&&&@@@@&&**------------------##",
"%%%%%%    ++++;;;;$$$$$$$$$$$$>>$$>>++%%$$,,,,,,====    ==++%%++$$$$$$$$%%  ++++++;;,,,,$$%%$$$$>>$$$$$$$$%%%%;;%%$$==    %%++%%",
"%%%%%%    ++++;;;;$$$$$$$$$$$$>>$$>>++%%$$,,,,,,====    ==++%%++$$$$$$$$%%  ++++++;;,,,,$$%%$$$$>>$$$$$$$$%%%%;;%%$$==    %%++%%",
"%%$$$$..............''''''''''>>>>>>>>$$$$**....  ****==++    ++%%$$$$$$$$..&&........@@''''))''''>>''''''''%%**......**%%++==++",
"%%$$$$..............''''''''''>>>>>>>>$$$$**....  ****==++    ++%%$$$$$$$$..&&........@@''''))''''>>''''''''%%**......**%%++==++",
"$$$$$$..@@--##  %%%%%%%%++++++  ++    ++  ++++    --  %%++    $$$$$$$$$$%%@@  ....++++%%++  ....@@..====++++        @@  $$  ++@@",
"$$$$$$..@@--##  %%%%%%%%++++++  ++    ++  ++++    --  %%++    $$$$$$$$$$%%@@  ....++++%%++  ....@@..====++++        @@  $$  ++@@",
"==%%%%==%%--++%%;;,,;;%%$$>>>>''>>$$>>$$,,,,;;++++&&%%++%%    %%%%$$$$%%%%  ++  ++++;;;;%%))$$>>$$$$$$,,,,%%==;;==++@@++&&$$====",
"==%%%%==%%--++%%;;,,;;%%$$>>>>''>>$$>>$$,,,,;;++++&&%%++%%    %%%%$$$$%%%%  ++  ++++;;;;%%))$$>>$$$$$$,,,,%%==;;==++@@++&&$$====",
"++%%$$==%%--@@++;;;;;;%%$$$$$$$$$$$$$$$$==;;;;@@++..++%%%%@@  %%;;$$$$$$%%  %%  ++==;;;;==$$))$$$$$$$$%%%%  ;;====++@@++  %%++  ",
"++%%$$==%%--@@++;;;;;;%%$$$$$$$$$$$$$$$$==;;;;@@++..++%%%%@@  %%;;$$$$$$%%  %%  ++==;;;;==$$))$$$$$$$$%%%%  ;;====++@@++  %%++  ",
"%%%%%%==++--**++;;@@..%%%%$$>>$$$$%%%%%%%%++,,++  **++++%%@@@@==;;%%$$%%%%  ++&&  %%$$==  %%%%%%$$>>$$%%  ++==!!%%++@@++  %%==  ",
"%%%%%%==++--**++;;@@..%%%%$$>>$$$$%%%%%%%%++,,++  **++++%%@@@@==;;%%$$%%%%  ++&&  %%$$==  %%%%%%$$>>$$%%  ++==!!%%++@@++  %%==  ",
"++;;++++++--@@++%%$$$$++======  ==  @@##++%%%%++@@..++%%%%**  ==;;%%$$%%%%  ++&&  ++%%%%%%**====  ====  **  %%%%++%%@@++%%%%  @@",
"++;;++++++--@@++%%$$$$++======  ==  @@##++%%%%++@@..++%%%%**  ==;;%%$$%%%%  ++&&  ++%%%%%%**====  ====  **  %%%%++%%@@++%%%%  @@",
"++++++@@++--@@  ++++@@================++@@++++++..**      @@  %%$$%%%%%%%%  %%@@    ++++  ==;;============@@++++++++        ....",
"++++++@@++--@@  ++++@@================++@@++++++..**      @@  %%$$%%%%%%%%  %%@@    ++++  ==;;============@@++++++++        ....",
"++++++    --  %%%%%%@@  ;;))>>>>))$$====  ++++++  ..  @@====@@++%%%%%%%%++      ++++%%%%  ==)),,$$%%++==%%  ==++++++      @@==..",
"++++++    --  %%%%%%@@  ;;))>>>>))$$====  ++++++  ..  @@====@@++%%%%%%%%++      ++++%%%%  ==)),,$$%%++==%%  ==++++++      @@==..",
"++++%%    --  ====++..  ====;;,,;;;;@@++  %%++    @@++@@====&&%%%%%%%%%%%%        ==++%%@@====,,======;;@@  ++++++++      @@==..",
"++++%%    --  ====++..  ====;;,,;;;;@@++  %%++    @@++@@====&&%%%%%%%%%%%%        ==++%%@@====,,======;;@@  ++++++++      @@==..",
"++  ++....--@@++==++..@@!!==========!!++  ++++  &&..++++  @@..++++++++++++&&@@  ++==++++@@..==============..  ++  ++  ++@@!!==**",
"++  ++....--@@++==++..@@!!==========!!++  ++++  &&..++++  @@..++++++++++++&&@@  ++==++++@@..==============..  ++  ++  ++@@!!==**",
"++++++&&&&--&&  ==++..@@@@==========@@    ++  ****++++  ==**..++++++++++++....--@@  ++++@@  !!!!!!========@@  ++..    ++++!!==..",
"++++++&&&&--&&  ==++..@@@@==========@@    ++  ****++++  ==**..++++++++++++....--@@  ++++@@  !!!!!!========@@  ++..    ++++!!==..",
"      ..&&--##....==....  @@!!@@!!!!..          @@  @@@@==##**  ++++++    ..@@    ....++....@@@@@@@@!!!!@@@@            &&    ##",
"      ..&&--##....==....  @@!!@@!!!!..          @@  @@@@==##**  ++++++    ..@@    ....++....@@@@@@@@!!!!@@@@            &&    ##",
"&&&&@@..@@----==    @@......@@@@........@@    **++++    @@##**            ..@@          @@**..****......****..@@@@    %%  @@@@##",
"&&&&@@..@@----==    @@......@@@@........@@    **++++    @@##**            ..@@          @@**..****......****..@@@@    %%  @@@@##",
"..****..  **..  ==  ................##**..    ..@@    ++..####  @@      @@**@@&&    ==@@................##..  @@@@@@@@  ++@@..--",
"..****..  **..  ==  ................##**..    ..@@    ++..####  @@      @@**@@&&    ==@@................##..  @@@@@@@@  ++@@..--",
"  ++  ##@@..  ==  ++++++      %%@@  ++++==++@@....  ##++  ++++      ==@@@@..@@@@  ==========    $$%%      @@    @@@@..&&++  ==++",
"  ++  ##@@..  ==  ++++++      %%@@  ++++==++@@....  ##++  ++++      ==@@@@..@@@@  ==========    $$%%      @@    @@@@..&&++  ==++",
"        @@@@--  @@++++++            ++==++      ..----&&..@@&&    @@        @@@@..    ====      @@@@++    ++  ==@@  **--****....",
"        @@@@--  @@++++++            ++==++      ..----&&..@@&&    @@        @@@@..    ====      @@@@++    ++  ==@@  **--****....",
"&&&&----------..&&@@@@....##--**..@@@@    @@..  @@----      @@..&&&&&&......------....@@@@@@....####@@....@@@@@@..@@@@      &&..",
"&&&&----------..&&@@@@....##--**..@@@@    @@..  @@----      @@..&&&&&&......------....@@@@@@....####@@....@@@@@@..@@@@      &&..",
"++%%  &&  **..  @@@@@@@@@@@@@@@@@@@@@@@@@@  ..@@&&--**  ++%%%%$$$$$$%%%%%%++&&  @@@@@@                        &&..  ..++  ++%%%%",
"++%%  &&  **..  @@@@@@@@@@@@@@@@@@@@@@@@@@  ..@@&&--**  ++%%%%$$$$$$%%%%%%++&&  @@@@@@                        &&..  ..++  ++%%%%",
"..@@&&..  --  ++**@@    @@@@@@..----..**--##  ##..----              ++    @@      ..**##%%%%$$$$>>>>$$$$%%%%##**....**++        ",
"..@@&&..  --  ++**@@    @@@@@@..----..**--##  ##..----              ++    @@      ..**##%%%%$$$$>>>>$$$$%%%%##**....**++        ",
"....**..  **&&          @@          @@  @@@@##    --##****######--##--####--&&  ..######&&    @@++==++==    ****##&&..  ..######",
"....**..  **&&          @@          @@  @@@@##    --##****######--##--####--&&  ..######&&    @@++==++==    ****##&&..  ..######",
"..&&    @@&&  @@@@++%%))>>>>''''''''>>$$%%  --**##----  @@@@  &&@@@@....&&@@**&&##    ##  @@@@@@@@@@@@@@@@  --....@@##@@@@@@  @@",
"..&&    @@&&  @@@@++%%))>>>>''''''''>>$$%%  --**##----  @@@@  &&@@@@....&&@@**&&##    ##  @@@@@@@@@@@@@@@@  --....@@##@@@@@@  @@",
"%%++++++    ++      ==++==  @@    ==++++++    ++  ----  @@@@@@@@@@@@........##  &&..  &&&&......    ==    @@@@      @@--&&@@@@@@",
"%%++++++    ++      ==++==  @@    ==++++++    ++  ----  @@@@@@@@@@@@........##  &&..  &&&&......    ==    @@@@      @@--&&@@@@@@",
"------------------##****..##**######**------    ##--..++++++++++++==@@@@@@@@@@@@  ..@@@@@@                @@@@@@....@@  ++++++++",
"------------------##****..##**######**------    ##--..++++++++++++==@@@@@@@@@@@@  ..@@@@@@                @@@@@@....@@  ++++++++",
"&&&&&&&&..**##**&&..........&&..**..&&    ..++++++++==++++%%%%++%%++++++++++==++      **==%%%%>>>>>>$$$$%%%%  ++==++++  ++++++++",
"&&&&&&&&..**##**&&..........&&..**..&&    ..++++++++==++++%%%%++%%++++++++++==++      **==%%%%>>>>>>$$$$%%%%  ++==++++  ++++++++",
"++++  ++  **..&&&&@@              @@@@    &&##########################--------------##--==++      ++      **####----------------",
"++++  ++  **..&&&&@@              @@@@    &&##########################--------------##--==++      ++      **####----------------",
"  ++++    ##**..            ++++++++  ..  @@@@  &&##                @@@@  &&&&&&##**~~----##--####****##**  ##----~~**          ",
"  ++++    ##**..            ++++++++  ..  @@@@  &&##                @@@@  &&&&&&##**~~----##--####****##**  ##----~~**          ",
"++  @@  &&**##..@@    ==                ++++    ..**  @@@@            &&&&..--&&--@@@@&&&&&&..&&&&&&&&@@&&&&..&&&&~~**  @@      ",
"++  @@  &&**##..@@    ==                ++++    ..**  @@@@            &&&&..--&&--@@@@&&&&&&..&&&&&&&&@@&&&&..&&&&~~**  @@      ",
"--------##--####                    @@  &&  @@  ..**        ++++++++++++++++++..--@@&&@@                  @@@@..&&~~**    ++++++",
"--------##--####                    @@  &&  @@  ..**        ++++++++++++++++++..--@@&&@@                  @@@@..&&~~**    ++++++",
"++==++  ####--##        @@..&&&&  ##++  ....**....##    @@  ++++++++++++    ++&&&&..@@            ++++  ++  @@&&&&..**    ++  ++",
"++==++  ####--##        @@..&&&&  ##++  ....**....##    @@  ++++++++++++    ++&&&&..@@            ++++  ++  @@&&&&..**    ++  ++",
"++      --**##**    @@  @@..      ##    @@@@@@  ..##@@@@..@@                --....##            ++++++        @@@@##****      ++",
"++      --**##**    @@  @@..      ##    @@@@@@  ..##@@@@..@@                --....##            ++++++        @@@@##****      ++",
"        ##**####        @@  &&  @@&&&&..@@&&&&  &&~~........                **..&&&&@@      &&&&@@  @@@@@@@@@@@@@@##**..**@@@@@@",
"        ##**####        @@  &&  @@&&&&..@@&&&&  &&~~........                **..&&&&@@      &&&&@@  @@@@@@@@@@@@@@##**..**@@@@@@",
"    @@@@~~@@@@##@@      ##&&&&&&&&&&&&@@......  ....**....&&&&&&@@          ..  ..          ..####~~&&..@@&&  ..@@~~..@@**&&..&&",
"    @@@@~~@@@@##@@      ##&&&&&&&&&&&&@@......  ....**....&&&&&&@@          ..  ..          ..####~~&&..@@&&  ..@@~~..@@**&&..&&",
"~~****&&**  ..--....&&  &&@@@@@@    @@  &&..**@@++....**########**~~******&&..++##&&@@&&&&  &&@@@@    &&&&&&@@..&&~~  ..**--####",
"~~****&&**  ..--....&&  &&@@@@@@    @@  &&..**@@++....**########**~~******&&..++##&&@@&&&&  &&@@@@    &&&&&&@@..&&~~  ..**--####",
"$$$$$$$$$$%%%%%%++++++      ++++++    ..++%%$$$$$$$$$$$$$$$$$$$$>>$$$$$$$$$$$$$$$$$$''++%%      ++++++  @@++%%%%$$$$$$$$$$$$$$$$",
"$$$$$$$$$$%%%%%%++++++      ++++++    ..++%%$$$$$$$$$$$$$$$$$$$$>>$$$$$$$$$$$$$$$$$$''++%%      ++++++  @@++%%%%$$$$$$$$$$$$$$$$",
"------------##..++%%%%%%%%$$''>>$$$$$$++++  ----------------##----##--------------##++++%%%%$$$$''''>>$$$$++%%++------------**&&",
"------------##..++%%%%%%%%$$''>>$$$$$$++++  ----------------##----##--------------##++++%%%%$$$$''''>>$$$$++%%++------------**&&",
"@@  @@@@      ====++%%%%%%%%%%++++++++++++%%;;++++++@@  ..@@@@  @@@@@@&&  @@  @@@@==;;%%$$,,++%%%%%%%%++++++++))==++++  %%++..&&",
"@@  @@@@      ====++%%%%%%%%%%++++++++++++%%;;++++++@@  ..@@@@  @@@@@@&&  @@  @@@@==;;%%$$,,++%%%%%%%%++++++++))==++++  %%++..&&",
"**--------------------------############------##--------------##--------------------####################--------####----------##",
"**--------------------------############------##--------------##--------------------####################--------####----------##",
">>>>>>$$%%%%++++%%%%    ++++++++++++++        ++##**%%%%>>''''>>$$>>>>$$>>  $$++@@++%%++++++++++++  ++++++        ++&&**++%%$$>>",
">>>>>>$$%%%%++++%%%%    ++++++++++++++        ++##**%%%%>>''''>>$$>>>>$$>>  $$++@@++%%++++++++++++  ++++++        ++&&**++%%$$>>",
"++++  ++%%  ++++@@!!@@++++++++++++++==  @@@@@@  ..++++++  ++++%%%%++$$%%++@@++  ++++!!==!!%%++++%%++%%++++  @@==@@  ..++&&++    ",
"++++  ++%%  ++++@@!!@@++++++++++++++==  @@@@@@  ..++++++  ++++%%%%++$$%%++@@++  ++++!!==!!%%++++%%++%%++++  @@==@@  ..++&&++    ",
"%%%%%%++++****++@@@@@@======++++  ==  ==@@@@@@  ..==++++&&$$%%%%%%%%%%%%%%  %%&&&&++@@@@@@@@==++++++++++====..@@@@  ..++  ++    ",
"%%%%%%++++****++@@@@@@======++++  ==  ==@@@@@@  ..==++++&&$$%%%%%%%%%%%%%%  %%&&&&++@@@@@@@@==++++++++++====..@@@@  ..++  ++    ",
"++%%%%    ..##  ==%%++  **------------..%%++++  ..  ++%%  %%++%%%%++%%%%++  ++@@@@++%%%%++  ..####--####**..++++++++..++++++    ",
"++%%%%    ..##  ==%%++  **------------..%%++++  ..  ++%%  %%++%%%%++%%%%++  ++@@@@++%%%%++  ..####--####**..++++++++..++++++    ",
"++==%%    ..&&          ==$$>>>>>>$$  ..@@      **  ++++++++++++%%==++%%++@@++@@    @@@@==  ==$$$$$$$$++++..  ++==  &&    ++    ",
"++==%%    ..&&          ==$$>>>>>>$$  ..@@      **  ++++++++++++%%==++%%++@@++@@    @@@@==  ==$$$$$$$$++++..  ++==  &&    ++    ",
"==++==    ..**    ==            ==    @@  ==++  **..++++  ++++++++==%%++%%@@  &&      ++@@  ==  ++++++++==..@@  ++  &&@@@@++    ",
"==++==    ..**    ==            ==    @@  ==++  **..++++  ++++++++==%%++%%@@  &&      ++@@  ==  ++++++++==..@@  ++  &&@@@@++    ",
"==@@@@    --##        @@@@;;;;;;%%@@..@@  ==++==**%%--**  ++++++++..++++++..  &&    ++++@@  ==%%==++%%==@@##      @@@@++----....",
"==@@@@    --##        @@@@;;;;;;%%@@..@@  ==++==**%%--**  ++++++++..++++++..  &&    ++++@@  ==%%==++%%==@@##      @@@@++----....",
"++    @@  ----@@@@==  ....==!!@@@@@@..@@&&      ..@@@@@@      ++++%%++++++..  **@@  ++++  @@==;;==!!@@@@@@..        &&  ..@@==  ",
"++    @@  ----@@@@==  ....==!!@@@@@@..@@&&      ..@@@@@@      ++++%%++++++..  **@@  ++++  @@==;;==!!@@@@@@..        &&  ..@@==  ",
"    ++&&  ----  @@==  ..@@@@@@..@@..@@@@&&    &&&&@@@@@@      ++++  ++++  ..  **@@++==++  @@@@!!@@..@@..@@..      ....@@..@@@@..",
"    ++&&  ----  @@==  ..@@@@@@..@@..@@@@&&    &&&&@@@@@@      ++++  ++++  ..  **@@++==++  @@@@!!@@..@@..@@..      ....@@..@@@@..",
"    ++@@@@--**@@@@  ..................&&@@@@@@..&&@@  @@      ++++++++++++....  @@      @@..................@@    @@&&    @@@@..",
"    ++@@@@--**@@@@  ..................&&@@@@@@..&&@@  @@      ++++++++++++....  @@      @@..................@@    @@&&    @@@@..",
"          --  ##**@@..**....**..**##**&&@@..&&**&&..@@..                  ..&&..@@****==  ..**..**..****......&&@@@@&&  @@@@@@..",
"          --  ##**@@..**....**..**##**&&@@..&&**&&..@@..                  ..&&..@@****==  ..**..**..****......&&@@@@&&  @@@@@@..",
"      @@..--  @@@@@@##......@@@@....****@@@@@@##&&........                ..  &&    @@@@--@@@@@@..@@@@....**..  ..&&&&@@@@@@@@..",
"      @@..--  @@@@@@##......@@@@....****@@@@@@##&&........                ..  &&    @@@@--@@@@@@..@@@@....**..  ..&&&&@@@@@@@@..",
"      ....--  ..&&&&@@..##----------##@@  @@&&##**......@@@@              ..&&..@@    @@@@..--------------==@@  @@..........@@..",
"      ....--  ..&&&&@@..##----------##@@  @@&&##**......@@@@              ..&&..@@    @@@@..--------------==@@  @@..........@@..",
"      ....--&&  @@  @@      @@@@..    @@@@@@  ....&&@@..**&&        @@@@  ..&&..&&        ==..  ....              @@**....@@@@..",
"      ....--&&  @@  @@      @@@@..    @@@@@@  ....&&@@..**&&        @@@@  ..&&..&&        ==..  ....              @@**....@@@@..",
"@@    &&..--##..@@@@@@@@@@@@&&....      @@@@**..@@@@..@@**..@@      @@@@@@@@**##**..@@@@  @@..  ....  ..      @@**&&@@..**..  ##",
"@@    &&..--##..@@@@@@@@@@@@&&....      @@@@**..@@@@..@@**..@@      @@@@@@@@**##**..@@@@  @@..  ....  ..      @@**&&@@..**..  ##",
"..&&..**@@--**....@@@@....&&........**....@@....&&..@@&&**&&    @@@@@@@@@@&&..--##&&@@@@@@..**&&&&&&  **&&....&&**......&&&&@@--",
"..&&..**@@--**....@@@@....&&........**....@@....&&..@@&&**&&    @@@@@@@@@@&&..--##&&@@@@@@..**&&&&&&  **&&....&&**......&&&&@@--",
"****##**&&--##..@@@@..@@@@..**..~~..........**##....  ****&&    @@@@@@@@&&&&&&**..&&..@@@@    ..&&..**&&..&&@@&&**##****  &&..--",
"****##**&&--##..@@@@..@@@@..**..~~..........**##....  ****&&    @@@@@@@@&&&&&&**..&&..@@@@    ..&&..**&&..&&@@&&**##****  &&..--",
"##------..##**  ++    ++++++++++%%==          ..##..@@++++++%%%%$$%%++%%++@@**....  ++@@++++++%%%%%%++    @@**++@@****    ++  ..",
"##------..##**  ++    ++++++++++%%==          ..##..@@++++++%%%%$$%%++%%++@@**....  ++@@++++++%%%%%%++    @@**++@@****    ++  ..",
"##..~~--~~########--......      &&  @@....##--..~~####----##--####**########--##--######@@  ..@@      @@@@@@######&&**##..****~~",
"##..~~--~~########--......      &&  @@....##--..~~####----##--####**########--##--######@@  ..@@      @@@@@@######&&**##..****~~",
"####~~##**----&&**##------##**##**##**####@@&&&&**&&&&**..##**######******~~------****--##--------######--**##&&&&&&....&&..##**",
"####~~##**----&&**##------##**##**##**####@@&&&&**&&&&**..##**######******~~------****--##--------######--**##&&&&&&....&&..##**",
"~~####--..----**..&&&&&&        ++@@..@@@@  @@**##..####~~####**..**~~####--**@@##&&&&&&          ++      ..&&&&&&  ##..~~~~~~##",
"~~####--..----**..&&&&&&        ++@@..@@@@  @@**##..####~~####**..**~~####--**@@##&&&&&&          ++      ..&&&&&&  ##..~~~~~~##",
"        @@##..&&..@@&&@@&&@@@@@@@@      @@@@@@##----&&@@      ++++++          &&##....&&&&@@@@  @@@@&&@@@@....&&&&&&##--        ",
"        @@##..&&..@@&&@@&&@@@@@@@@      @@@@@@##----&&@@      ++++++          &&##....&&&&@@@@  @@@@&&@@@@....&&&&&&##--        "};
