/* XPM */
static char * old_iron2_xpm[] = {
"128 128 27 1",
" 	c #394A50",
".	c #241527",
"+	c #577277",
"@	c #341C27",
"#	c #202E37",
"$	c #AD7757",
"%	c #4D2B32",
"&	c #10141F",
"*	c #819796",
"=	c #090A14",
"-	c #7A4841",
";	c #C09473",
">	c #A8B5B2",
",	c #884B2B",
"'	c #602C2C",
")	c #151D28",
"!	c #19332D",
"~	c #25562E",
"{	c #3C5E8B",
"]	c #253A5E",
"^	c #75A743",
"/	c #468232",
"(	c #4F8FBA",
"_	c #D7B594",
":	c #BE772C",
"<	c #E7D5B3",
"[	c #73BED3",
"      ..  ++..@@@@@@@@@@@@@@@@@@@@##@@@@@@@@..@@@@@@@@@@@@@@@@@@@@..@@....@@@@##@@@@..@@@@..@@@@@@@@..@@@@@@@@..@@++$$%%%%      ",
"      ..  ++..@@@@@@@@@@@@@@@@@@@@##@@@@@@@@..@@@@@@@@@@@@@@@@@@@@..@@....@@@@##@@@@..@@@@..@@@@@@@@..@@@@@@@@..@@++$$%%%%      ",
"  ++    @@&&........@@++****$$$$****$$****************************************$$$$**$$****$$$$**$$$$$$++**%%%%%%==@@&&@@  ++++++",
"  ++    @@&&........@@++****$$$$****$$****************************************$$$$**$$****$$$$**$$$$$$++**%%%%%%==@@&&@@  ++++++",
"@@@@@@@@@@....++----++****$$**$$$$;;;;;;**;;;;;;****;;;;****$$**;;;;;;**************;;;;**$$$$$$************++++..@@&&@@@@@@@@@@",
"@@@@@@@@@@....++----++****$$**$$$$;;;;;;**;;;;;;****;;;;****$$**;;;;;;**************;;;;**$$$$$$************++++..@@&&@@@@@@@@@@",
"************$$****$$++--%%%%%%%%%%%%%%--        ++--++++--++--++++++++--++++++++++++++++------------------++****$$$$$$$$$$$$****",
"************$$****$$++--%%%%%%%%%%%%%%--        ++--++++--++--++++++++--++++++++++++++++------------------++****$$$$$$$$$$$$****",
"$$$$$$$$$$$$$$$$$$++++--------------------    ------%%%%----  ----%%--  %%%%----------  --------%%%%--  ++++****$$$$**$$$$$$$$$$",
"$$$$$$$$$$$$$$$$$$++++--------------------    ------%%%%----  ----%%--  %%%%----------  --------%%%%--  ++++****$$$$**$$$$$$$$$$",
"----------%%%%%%%%%%@@@@@@@@@@@@@@@@@@@@@@..@@@@@@@@@@@@@@@@@@@@@@@@@@@@@@@@@@@@@@@@@@@@@@@@@@@@@@@@@@@@@@@@@@%%%%@@@@----------",
"----------%%%%%%%%%%@@@@@@@@@@@@@@@@@@@@@@..@@@@@@@@@@@@@@@@@@@@@@@@@@@@@@@@@@@@@@@@@@@@@@@@@@@@@@@@@@@@@@@@@@%%%%@@@@----------",
"**>>**++**%%....@@==....&&....&&..........@@@@@@....@@@@@@........@@........@@..@@@@@@@@@@........@@..........@@&&++******$$****",
"**>>**++**%%....@@==....&&....&&..........@@@@@@....@@@@@@........@@........@@..@@@@@@@@@@........@@..........@@&&++******$$****",
"%%&&@@@@++..@@%%@@@@@@@@@@@@####++++++++++++++++--++++----@@@@@@@@%%%%++++++++++++++++++--++--**--**$$>>++++----&&  --  **%%@@%%",
"%%&&@@@@++..@@%%@@@@@@@@@@@@####++++++++++++++++--++++----@@@@@@@@%%%%++++++++++++++++++--++--**--**$$>>++++----&&  --  **%%@@%%",
"$$**>>>>**--@@----  ++++++++++  ++++++--++++++++**++++++$$--$$**$$$$$$++++++++++++++++++  ----****$$--**++----++&&****$$--$$++++",
"$$**>>>>**--@@----  ++++++++++  ++++++--++++++++**++++++$$--$$**$$$$$$++++++++++++++++++  ----****$$--**++----++&&****$$--$$++++",
"********--$$@@------++++++++++  ++++++++++++++++++++++++++++++**++****++++++++++++++++++------**++++++++------++&&>>******$$**;;",
"********--$$@@------++++++++++  ++++++++++++++++++++++++++++++**++****++++++++++++++++++------**++++++++------++&&>>******$$**;;",
"******--$$$$%%------++++++++--%%@@@@@@..==================================================  --@@@@@@@@@@@@----++@@********$$****",
"******--$$$$%%------++++++++--%%@@@@@@..==================================================  --@@@@@@@@@@@@----++@@********$$****",
";;;;;;****$$%%--++@@++************####%%%%######  @@##%%%%                  @@  %%%%%%%%@@##++**********++----++@@**$$$$********",
";;;;;;****$$%%--++@@++************####%%%%######  @@##%%%%                  @@  %%%%%%%%@@##++**********++----++@@**$$$$********",
"**;;;;**$$$$%%----@@  --------++--@@%%**>>**********************************************  ##  ++++++----------++@@**$$$$********",
"**;;;;**$$$$%%----@@  --------++--@@%%**>>**********************************************  ##  ++++++----------++@@**$$$$********",
"******$$$$$$%%----    %%  %%%%--%%@@  **%%          %%%%%%%%    %%%%%%%%%%      %%%%%%++%%@@%%----        %%  ++@@**$$$$;;******",
"******$$$$$$%%----    %%  %%%%--%%@@  **%%          %%%%%%%%    %%%%%%%%%%      %%%%%%++%%@@%%----        %%  ++@@**$$$$;;******",
"****$$******%%------%%%%##@@@@@@%%%%%%%%,,..##############@@@@@@..@@..............&&''--@@@@++++++++++++++++  ++@@******$$******",
"****$$******%%------%%%%##@@@@@@%%%%%%%%,,..##############@@@@@@..@@..............&&''--@@@@++++++++++++++++  ++@@******$$******",
";;**********%%------++  @@--++++++%%@@@@@@                      %%          %%      @@  ####  --++  ++        ++@@********;;****",
";;**********%%------++  @@--++++++%%@@@@@@                      %%          %%      @@  ####  --++  ++        ++@@********;;****",
"**$$$$****$$%%--++  ++--------++++%%..%%%%  ))==============&&==&&==&&&&==&&&&&&==      ##@@++++,,    %%++%%  ++..**++++++******",
"**$$$$****$$%%--++  ++--------++++%%..%%%%  ))==============&&==&&==&&&&==&&&&&&==      ##@@++++,,    %%++%%  ++..**++++++******",
"++++$$$$$$$$%%--++  ++----++$$$$++%%@@%%%%    ++  ##!!&&))))))&&))))))))~~~~~~      %%  %%@@**++####  ##++%%  ++..**++++++++$$**",
"++++$$$$$$$$%%--++  ++----++$$$$++%%@@%%%%    ++  ##!!&&))))))&&))))))))~~~~~~      %%  %%@@**++####  ##++%%  ++..**++++++++$$**",
"----++++++--@@  ++%%++--%%++--  ++@@@@%%%%%%##++{{!!!!))!!{{{{{{]]]]{{))]]^^^^~~]]%%%%  %%@@**++++++    ++    ++..----$$**++++  ",
"----++++++--@@  ++%%++--%%++--  ++@@@@%%%%%%##++{{!!!!))!!{{{{{{]]]]{{))]]^^^^~~]]%%%%  %%@@**++++++    ++    ++..----$$**++++  ",
"      %%%%%%..++----++------      @@..  ##%%  !!))!!!!)){{  ]]{{{{{{{{&&~~++//!!]]%%%%  %%@@**++        ++    $$&&  %%  %%%%    ",
"      %%%%%%..++----++------      @@..  ##%%  !!))!!!!)){{  ]]{{{{{{{{&&~~++//!!]]%%%%  %%@@**++        ++    $$&&  %%  %%%%    ",
"&&==&&&&&&====$$----**........@@@@  @@  ..%%]]!!))!!))))    ]]((]]    !!!!!!!!!!]]%%%%--%%..%%@@....@@..@@%%%%++&&====&&&&&&&&==",
"&&==&&&&&&====$$----**........@@@@  @@  ..%%]]!!))!!))))    ]]((]]    !!!!!!!!!!]]%%%%--%%..%%@@....@@..@@%%%%++&&====&&&&&&&&==",
"--++--@@..  @@$$--    %%%%      %%++##  ..%%{{!!!!++))!!  ~~!!!!!!++((!!]]##!!~~]]%%    %%@@@@####%%%%%%%%@@  ++..--  ....++++++",
"--++--@@..  @@$$--    %%%%      %%++##  ..%%{{!!!!++))!!  ~~!!!!!!++((!!]]##!!~~]]%%    %%@@@@####%%%%%%%%@@  ++..--  ....++++++",
"  --%%##  ++@@$$--  --%%,,,,,,@@%%++@@    %%{{++  !!!!!!    !!!!!!++{{!!    ##!!  %%%%  %%@@    --++++++%%%%  $$..++++          ",
"  --%%##  ++@@$$--  --%%,,,,,,@@%%++@@    %%{{++  !!!!!!    !!!!!!++{{!!    ##!!  %%%%  %%@@    --++++++%%%%  $$..++++          ",
"        %%++@@$$++  ++''--''''##%%++@@  %%    ~~!!!!))))**(({{++++++++!!))!!!!##{{%%%%  %%@@%%++++++++++++++  --@@++++          ",
"        %%++@@$$++  ++''--''''##%%++@@  %%    ~~!!!!))))**(({{++++++++!!))!!!!##{{%%%%  %%@@%%++++++++++++++  --@@++++          ",
"%%%%  %%@@++##----&&++''''''''  %%++%%      {{{{{{{{))))++  ))!!!!  ++!!!!    ++{{%%%%  %%@@%%  ------++--    ++..++++%%@@@@....",
"%%%%  %%@@++##----&&++''''''''  %%++%%      {{{{{{{{))))++  ))!!!!  ++!!!!    ++{{%%%%  %%@@%%  ------++--    ++..++++%%@@@@....",
"  %%    @@++@@$$%%..++''''%%@@%%%%++@@  %%  {{{{++{{!!!!!!!!!!!!!!~~~~!!!!~~{{{{{{%%  %%%%@@--@@@@@@@@@@@@@@  ++..--++    ,,  ##",
"  %%    @@++@@$$%%..++''''%%@@%%%%++@@  %%  {{{{++{{!!!!!!!!!!!!!!~~~~!!!!~~{{{{{{%%  %%%%@@--@@@@@@@@@@@@@@  ++..--++    ,,  ##",
"  ((    %%++@@++  ..++%%''@@%%%%%%++@@      {{++      {{{{{{{{{{(((((({{  ~~++{{{{  %%  %%##************++++--++..++++@@  ((    ",
"  ((    %%++@@++  ..++%%''@@%%%%%%++@@      {{++      {{{{{{{{{{(((((({{  ~~++{{{{  %%  %%##************++++--++..++++@@  ((    ",
"    ##    ++@@$$  @@++%%%%@@%%@@%%++@@  %%%%  {{  ++  ~~^^,,~~++++++++~~  ++  {{{{  %%  ##@@++--------  @@++++++..++++@@  ##    ",
"    ##    ++@@$$  @@++%%%%@@%%@@%%++@@  %%%%  {{  ++  ~~^^,,~~++++++++~~  ++  {{{{  %%  ##@@++--------  @@++++++..++++@@  ##    ",
"####%%  @@++@@++  @@&&&&&&&&&&&&@@--@@        {{{{{{{{~~]]~~~~~~]]  ~~~~~~]]  ~~{{  %%  %%..++%%    --  @@++    ..++++##      ))",
"####%%  @@++@@++  @@&&&&&&&&&&&&@@--@@        {{{{{{{{~~]]~~~~~~]]  ~~~~~~]]  ~~{{  %%  %%..++%%    --  @@++    ..++++##      ))",
"        @@++@@++  @@    --        @@&&        ++++++++++**++++++++++          ++    %%  %%##++--%%    --@@++@@++@@++++        %%",
"        @@++@@++  @@    --        @@&&        ++++++++++**++++++++++          ++    %%  %%##++--%%    --@@++@@++@@++++        %%",
"        @@++@@++  @@  ..======&&%%--&&%%%%    %%%%%%%%%%%%      %%%%    %%%%%%%%%%%%@@--@@@@++--##  ++--%%++++++@@++++%%  %%    ",
"        @@++@@++  @@  ..======&&%%--&&%%%%    %%%%%%%%%%%%      %%%%    %%%%%%%%%%%%@@--@@@@++--##  ++--%%++++++@@++++%%  %%    ",
"&&&&..  @@$$@@++      &&&&@@@@..@@--@@@@&&&&&&&&&&&&&&&&&&&&&&&&&&&&&&&&&&&&&&&&....==@@==##++--@@  ++++%%++++++@@++++@@        ",
"&&&&..  @@$$@@++      &&&&@@@@..@@--@@@@&&&&&&&&&&&&&&&&&&&&&&&&&&&&&&&&&&&&&&&&....==@@==##++--@@  ++++%%++++++@@++++@@        ",
"======@@@@==@@++--%%..====&&==&&..%%##......@@@@@@@@..&&&&&&&&..&&..&&&&&&&&&&&&&&&&&&==####++--%%++    %%++++++..&&&&@@&&&&&&..",
"======@@@@==@@++--%%..====&&==&&..%%##......@@@@@@@@..&&&&&&&&..&&..&&&&&&&&&&&&&&&&&&==####++--%%++    %%++++++..&&&&@@&&&&&&..",
"++++++++++==@@++++--**++++++++++++@@@@**********>>>>**>>********>>>>>>>>>>>>>>>>**>>****@@%%**--  **))++%%++++++..&&==********++",
"++++++++++==@@++++--**++++++++++++@@@@**********>>>>**>>********>>>>>>>>>>>>>>>>**>>****@@%%**--  **))++%%++++++..&&==********++",
";;;;;;**$$********%%----------++++@@++++******--******++**++++**++##..))%%  @@++++  ++++  @@++++  @@  ++%%++**;;********$$******",
";;;;;;**$$********%%----------++++@@++++******--******++**++++**++##..))%%  @@++++  ++++  @@++++  @@  ++%%++**;;********$$******",
"$$****$$$$$$$$$$$$  ----------++**@@    **************************##@@..%%####++  ++++--%%@@--  %%%%@@@@%%----$$$$$$$$$$$$$$;;$$",
"$$****$$$$$$$$$$$$  ----------++**@@    **************************##@@..%%####++  ++++--%%@@--  %%%%@@@@%%----$$$$$$$$$$$$$$;;$$",
"++++++++++%%  ----%%--++++++++--++@@..    --++------++++++++--        %%%%%%%%%%%%%%%%  @@....@@@@@@@@@@@@%%--++--++  ++++++++++",
"++++++++++%%  ----%%--++++++++--++@@..    --++------++++++++--        %%%%%%%%%%%%%%%%  @@....@@@@@@@@@@@@%%--++--++  ++++++++++",
"**********--@@--++++++************%%%%@@@@..&&&&&&&&&&&&&&&&&&&&&&&&&&&&&&&&====&&&&&&&&&&@@****++********  --**@@--++******;;**",
"**********--@@--++++++************%%%%@@@@..&&&&&&&&&&&&&&&&&&&&&&&&&&&&&&&&====&&&&&&&&&&@@****++********  --**@@--++******;;**",
">>__--;;;;**@@  --------++------++..----++++--    %%%%%%%%  %%%%%%--%%%%  %%%%%%@@%%%%%%    %%%%%%%%%%%%    $$$$##$$--;;;;;;>>__",
">>__--;;;;**@@  --------++------++..----++++--    %%%%%%%%  %%%%%%--%%%%  %%%%%%@@%%%%%%    %%%%%%%%%%%%    $$$$##$$--;;;;;;>>__",
"****$$$$$$$$%%      --@@--  ----++..--------------------------++++++****$$++  ++++++++%%  **>>>>>>>>>>----%%++++@@********;;****",
"****$$$$$$$$%%      --@@--  ----++..--------------------------++++++****$$++  ++++++++%%  **>>>>>>>>>>----%%++++@@********;;****",
"******$$$$$$%%--    ++  --------++..    %%  --------  ++    --  ----****!!    --------%%--**;;::::--++----  $$++@@****$$$$****;;",
"******$$$$$$%%--    ++  --------++..    %%  --------  ++    --  ----****!!    --------%%--**;;::::--++----  $$++@@****$$$$****;;",
"******$$$$$$%%  %%--++  ----------@@  ----------++++--++++++--------**  --  %%++----%%@@  ++$$$$$$++++----  ++++@@****$$**$$**;;",
"******$$$$$$%%  %%--++  ----------@@  ----------++++--++++++--------**  --  %%++----%%@@  ++$$$$$$++++----  ++++@@****$$**$$**;;",
"****;;$$$$**%%    --++----------++@@%%++  --    ++++++++++++++++++++**%%  --%%++----++%%--++%%%%##%%    --%%++++..**********;;**",
"****;;$$$$**%%    --++----------++@@%%++  --    ++++++++++++++++++++**%%  --%%++----++%%--++%%%%##%%    --%%++++..**********;;**",
"**;;;;;;$$**%%    --$$----------++@@++--      %%  %%%%            ++**------%%++$$++--%%  ++++--++--------%%++++..******$$;;;;;;",
"**;;;;;;$$**%%    --$$----------++@@++--      %%  %%%%            ++**------%%++$$++--%%  ++++--++--------%%++++..******$$;;;;;;",
"**;;**;;$$**%%    --++--++++++**++@@@@----%%++    ----%%%%%%      --++++++++  ++----++%%  $$----------  ++  ----..****$$****;;;;",
"**;;**;;$$**%%    --++--++++++**++@@@@----%%++    ----%%%%%%      --++++++++  ++----++%%  $$----------  ++  ----..****$$****;;;;",
";;;;<<**$$**  ----  --            ##%%&&..@@@@&&&&&&..&&..........@@&&&&))......@@..@@..++--------------  %%%%@@..****$$****$$**",
";;;;<<**$$**  ----  --            ##%%&&..@@@@&&&&&&..&&..........@@&&&&))......@@..@@..++--------------  %%%%@@..****$$****$$**",
"**;;;;**$$**%%%%  %%%%%%%%@@%%%%%%  ++++  @@..@@......@@..@@..............&&&&&&....@@%%%%@@....@@@@....%%@@%%++&&**************",
"**;;;;**$$**%%%%  %%%%%%%%@@%%%%%%  ++++  @@..@@......@@..@@..............&&&&&&....@@%%%%@@....@@@@....%%@@%%++&&**************",
"**++++++++**%%++++    &&&&==@@..&&..    %%..****++******************************..++  %%....==  @@@@..@@%%@@%%++..**++----$$$$--",
"**++++++++**%%++++    &&&&==@@..&&..    %%..****++******************************..++  %%....==  @@@@..@@%%@@%%++..**++----$$$$--",
"--++++++$$++%%++$$    &&..&&&&====&&    %%##                                  %%@@  @@%%..&&&&..........@@%%%%++&&**--++++++$$++",
"--++++++$$++%%++$$    &&..&&&&====&&    %%##                                  %%@@  @@%%..&&&&..........@@%%%%++&&**--++++++$$++",
"          @@==**%%%%    %%%%%%%%%%%%  &&@@%%%%%%--            ------    ++  %%%%@@%%@@  >>**********>>**++++%%++@@%%  ----  --  ",
"          @@==**%%%%    %%%%%%%%%%%%  &&@@%%%%%%--            ------    ++  %%%%@@%%@@  >>**********>>**++++%%++@@%%  ----  --  ",
"@@@@@@@@..&&==$$--  --            @@  &&  %%    %%    %%%%    %%%%            %%@@%%..  ++--++++++++++++++++  ++@@==@@@@@@@@@@@@",
"@@@@@@@@..&&==$$--  --            @@  &&  %%    %%    %%%%    %%%%            %%@@%%..  ++--++++++++++++++++  ++@@==@@@@@@@@@@@@",
"%%%%..&&&&  ..$$$$  ****++****++$$@@%%@@    ++++++++++++++++++++++++++++++++++@@--@@..  ++  %%  %%%%%%@@  ++  ++..  ....@@%%%%%%",
"%%%%..&&&&  ..$$$$  ****++****++$$@@%%@@    ++++++++++++++++++++++++++++++++++@@--@@..  ++  %%  %%%%%%@@  ++  ++..  ....@@%%%%%%",
"))....%%  ++..$$$$  **++++++----$$%%%%@@    ++  ++++**####  ##                ##  %%&&  **++@@@@%%@@@@@@%%--  ++..--++  ++  @@..",
"))....%%  ++..$$$$  **++++++----$$%%%%@@    ++  ++++**####  ##                ##  %%&&  **++@@@@%%@@@@@@%%--  ++..--++  ++  @@..",
"    %%    ++@@$$----++++--------++%%%%@@      %%##  ############--##//  //////##  @@&&  **++&&====..@@@@@@**  ++@@--++++        ",
"    %%    ++@@$$----++++--------++%%%%@@      %%##  ############--##//  //////##  @@&&  **++&&====..@@@@@@**  ++@@--++++        ",
"        %%++@@%%--  ++++--++--++++%%  @@@@%%  %%####!!####  ########--  //~~  !!%%  @@%%**--        ++  %%++  --..--++%%        ",
"        %%++@@%%--  ++++--++--++++%%  @@@@%%  %%####!!####  ########--  //~~  !!%%  @@%%**--        ++  %%++  --..--++%%        ",
"  [[%%  %%++@@$$--  **--++----++--%%      @@==================================&&%%      **              %%----**..--++%%%%    ++",
"  [[%%  %%++@@$$--  **--++----++--%%      @@==================================&&%%      **              %%----**..--++%%%%    ++",
"    %%  %%++@@$$--  ++------------@@--%%%%@@&&&&&&&&&&&&==&&&&&&&&&&&&==&&&&&&@@%%  @@  %%%%%%        %%%%%%--++&&--++%%        ",
"    %%  %%++@@$$--  ++------------@@--%%%%@@&&&&&&&&&&&&==&&&&&&&&&&&&==&&&&&&@@%%  @@  %%%%%%        %%%%%%--++&&--++%%        ",
"####..%%%%++@@$$--  ****++++++++++@@--%%%%      %%  %%##@@@@@@##@@@@@@@@%%%%%%%%    @@  @@@@@@@@@@@@@@@@@@@@--++..++++@@@@@@    ",
"####..%%%%++@@$$--  ****++++++++++@@--%%%%      %%  %%##@@@@@@##@@@@@@@@%%%%%%%%    @@  @@@@@@@@@@@@@@@@@@@@--++..++++@@@@@@    ",
"        %%++@@$$++@@%%--  --  --  @@  ------  --  --  ------------------------++----------                %%--++..++++%%        ",
"        %%++@@$$++@@%%--  --  --  @@  ------  --  --  ------------------------++----------                %%--++..++++%%        ",
"      %%  ++@@++--@@%%&&&&&&&&....@@--@@@@@@@@@@..--%%%%%%%%@@@@@@%%%%@@%%%%%%%%@@@@@@--  --++------++------  ++..++++##        ",
"      %%  ++@@++--@@%%&&&&&&&&....@@--@@@@@@@@@@..--%%%%%%%%@@@@@@%%%%@@%%%%%%%%@@@@@@--  --++------++------  ++..++++##        ",
"    --%%..++@@++++%%++--------------  --------++--  --++----++++------++------------------------------  --++  ++@@++--%%        ",
"    --%%..++@@++++%%++--------------  --------++--  --++----++++------++------------------------------  --++  ++@@++--%%        ",
"++++++  ..  ..********************++--************************************++**--********************************  **  ..====....",
"++++++  ..  ..********************++--************************************++**--********************************  **  ..====....",
"&&&&&&%%@@&&..%%%%%%%%%%%%%%%%%%%%%%%%%%%%%%%%%%%%%%%%%%%%%%%%@@%%%%%%%%%%%%  ..%%%%%%%%%%%%%%%%%%%%%%%%%%%%%%%%@@..==@@&&&&==&&",
"&&&&&&%%@@&&..%%%%%%%%%%%%%%%%%%%%%%%%%%%%%%%%%%%%%%%%%%%%%%%%@@%%%%%%%%%%%%  ..%%%%%%%%%%%%%%%%%%%%%%%%%%%%%%%%@@..==@@&&&&==&&",
"))..))..............................................))................))................................................@@@@..@@",
"))..))..............................................))................))................................................@@@@..@@"};
