/* XPM */
static char * old_iron3_xpm[] = {
"128 128 17 1",
" 	c #577277",
".	c #241527",
"+	c #4D2B32",
"@	c #394A50",
"#	c #7A4841",
"$	c #341C27",
"%	c #819796",
"&	c #A8B5B2",
"*	c #AD7757",
"=	c #10141F",
"-	c #090A14",
";	c #202E37",
">	c #C09473",
",	c #151D28",
"'	c #602C2C",
")	c #884B2B",
"!	c #BE772C",
"  ..++@@@@@@@@    @@@@  @@      ####@@@@$$@@@@++####%%####        %%&&%%####    **####@@..@@    %%            @@@@      @@@@@@  ",
"  ..++@@@@@@@@    @@@@  @@      ####@@@@$$@@@@++####%%####        %%&&%%####    **####@@..@@    %%            @@@@      @@@@@@  ",
"..==--++@@@@@@                  ++##@@++..======........$$========================....++--@@  @@      @@@@@@++++;;$$++++..----$$",
"..==--++@@@@@@                  ++##@@++..======........$$========================....++--@@  @@      @@@@@@++++;;$$++++..----$$",
"  $$  %%      ++++$$++++;;$$$$$$        @@@@####          **%%%%>>&&&&%%  %%  %%  %%%%  ..      @@@@@@@@@@@@@@@@@@    **@@      ",
"  $$  %%      ++++$$++++;;$$$$$$        @@@@####          **%%%%>>&&&&%%  %%  %%  %%%%  ..      @@@@@@@@@@@@@@@@@@    **@@      ",
"$$$$++        @@@@@@@@@@@@@@@@++    ####..##              **    **  ******  %%**    ++  $$      ;;  @@@@@@@@$$++@@  ##**@@##%%%%",
"$$$$++        @@@@@@@@@@@@@@@@++    ####..##              **    **  ******  %%**    ++  $$      ;;  @@@@@@@@$$++@@  ##**@@##%%%%",
"@@$$@@        ========....==..@@##  ##  $$##%%  @@++++++++@@@@++++++++++++++++$$    ++  ..  @@  ;;++$$$$++@@@@@@@@      @@  %%  ",
"@@$$@@        ========....==..@@##  ##  $$##%%  @@++++++++@@@@++++++++++++++++$$    ++  ..  @@  ;;++$$$$++@@@@@@@@      @@  %%  ",
"  $$@@      $$++;;++++++++$$++$$@@  ##  $$##  ------------------------------------  ++  ++    @@..@@++......$$$$++@@    @@      ",
"  $$@@      $$++;;++++++++$$++$$@@  ##  $$##  ------------------------------------  ++  ++    @@..@@++......$$$$++@@    @@      ",
"----@@  %%  $$####  ****  ##++$$@@    ##++  ++  @@##++++$$####@@@@@@####++++$$$$..  ##  ++@@@@@@######++@@++++++##@@    @@@@----",
"----@@  %%  $$####  ****  ##++$$@@    ##++  ++  @@##++++$$####@@@@@@####++++$$$$..  ##  ++@@@@@@######++@@++++++##@@    @@@@----",
"  ..$$  ####..++++##$$$$++++++@@++      ++  ++####  $$$$$$####++++$$++++$$++##@@++  ++  ++  @@  @@            ++##@@##  @@$$    ",
"  ..$$  ####..++++##$$$$++++++@@++      ++  ++####  $$$$$$####++++$$++++$$++##@@++  ++  ++  @@  @@            ++##@@##  @@$$    ",
"  $$@@##  ##==####    ##      ++$$      ++    ####  $$$$$$$$++++++$$$$$$$$@@  ##@@  ++  ++  @@  ##              ##@@##@@@@@@    ",
"  $$@@##  ##==####    ##      ++$$      ++    ####  $$$$$$$$++++++$$$$$$$$@@  ##@@  ++  ++  @@  ##              ##@@##@@@@@@    ",
"##$$@@@@@@@@==@@$$@@@@@@++++++$$..  ##  ++          $$++++++++$$++++++++++@@########@@  $$  @@  @@++++####@@@@##@@++  ##@@@@%%  ",
"##$$@@@@@@@@==@@$$@@@@@@++++++$$..  ##  ++          $$++++++++$$++++++++++@@########@@  $$  @@  @@++++####@@@@##@@++  ##@@@@%%  ",
"  ==@@@@@@@@==--==....========..==  ##  $$      ####$$$$$$$$$$$$++++$$$$$$######++##@@  $$  ##==========..====..==++@@@@++@@    ",
"  ==@@@@@@@@==--==....========..==  ##  $$      ####$$$$$$$$$$$$++++$$$$$$######++##@@  $$  ##==========..====..==++@@@@++@@    ",
"  $$@@@@@@@@++@@##++++++++++++++@@  @@  $$####++####++++++$$$$$$$$$$$$..==++##++++##++  ++  ##  @@++$$++++++++##++@@@@++++  %%  ",
"  $$@@@@@@@@++@@##++++++++++++++@@  @@  $$####++####++++++$$$$$$$$$$$$..==++##++++##++  ++  ##  @@++$$++++++++##++@@@@++++  %%  ",
"$$$$##++  ++@@@@########@@++++++@@  @@  $$@@++  ##@@==......$$$$$$====----==$$..%%++@@  $$##  @@++++######@@++####@@$$  ++##    ",
"$$$$##++  ++@@@@########@@++++++@@  @@  $$@@++  ##@@==......$$$$$$====----==$$..%%++@@  $$##  @@++++######@@++####@@$$  ++##    ",
"  @@  @@++@@++######@@++++@@##@@++  @@##$$++######    ##  %%%%%%%%%%%%%%  @@@@    ##++##..@@##@@@@++++++########@@++@@;;;;      ",
"  @@  @@++@@++######@@++++@@##@@++  @@##$$++######    ##  %%%%%%%%%%%%%%  @@@@    ##++##..@@##@@@@++++++########@@++@@;;;;      ",
"  ++@@++@@++$$++@@@@@@@@@@++++++++  @@@@==..$$====$$++..$$$$$$$$$$..$$$$$$$$$$++$$....++..  ####++@@@@######@@++++++@@@@$$@@    ",
"  ++@@++@@++$$++@@@@@@@@@@++++++++  @@@@==..$$====$$++..$$$$$$$$$$..$$$$$$$$$$++$$....++..  ####++@@@@######@@++++++@@@@$$@@    ",
"  ++@@@@@@@@++########@@++..@@  ++@@++##++  ##@@++    ++++++++++++++++++++==++++@@++@@@@..  ##++++        ########$$@@@@++%%%%  ",
"  ++@@@@@@@@++########@@++..@@  ++@@++##++  ##@@++    ++++++++++++++++++++==++++@@++@@@@..  ##++++        ########$$@@@@++%%%%  ",
"  ++$$@@@@@@++##################++##++@@##++%%  @@%%  ##  %%%%%%    %%%%%%@@  ++####  @@$$      @@    ########  ++++@@@@++%%    ",
"  ++$$@@@@@@++##################++##++@@##++%%  @@%%  ##  %%%%%%    %%%%%%@@  ++####  @@$$      @@    ########  ++++@@@@++%%    ",
"  @@@@@@@@@@++####  ##########  ++$$@@++++++++@@++++++@@@@@@++@@@@@@####@@..++@@@@@@@@@@++##@@++++    ##      ##@@@@@@@@++%%    ",
"  @@@@@@@@@@++####  ##########  ++$$@@++++++++@@++++++@@@@@@++@@@@@@####@@..++@@@@@@@@@@++##@@++++    ##      ##@@@@@@@@++%%    ",
"  @@@@@@@@@@$$++####  ########++$$##@@$$----------------==----------------------------==..@@@@++$$##    ########++++@@@@++%%%%  ",
"  @@@@@@@@@@$$++####  ########++$$##@@$$----------------==----------------------------==..@@@@++$$##    ########++++@@@@++%%%%  ",
"  @@@@@@@@@@..==++++$$++++++++....  ++  @@  ##@@$$@@..$$................$$++@@@@    @@##$$@@@@$$..++++++++++$$$$$$@@@@@@@@      ",
"  @@@@@@@@@@..==++++$$++++++++....  ++  @@  ##@@$$@@..$$................$$++@@@@    @@##$$@@@@$$..++++++++++$$$$$$@@@@@@@@      ",
"  ++@@@@@@##@@++;;..$$;;$$....$$    @@  ++##  @@@@@@@@@@@@@@@@@@@@@@@@@@@@@@@@##    @@##$$@@  ##$$,,....$$$$$$==  @@@@@@++    @@",
"  ++@@@@@@##@@++;;..$$;;$$....$$    @@  ++##  @@@@@@@@@@@@@@@@@@@@@@@@@@@@@@@@##    @@##$$@@  ##$$,,....$$$$$$==  @@@@@@++    @@",
"  ++##@@@@@@@@++$$$$++$$$$$$$$  ##  @@##++  ##@@++@@====..==......$$....$$@@@@@@##  @@  @@##  ##++++;;;;$$$$;;@@  @@@@@@++    ##",
"  ++##@@@@@@@@++$$$$++$$$$$$$$  ##  @@##++  ##@@++@@====..==......$$....$$@@@@@@##  @@  @@##  ##++++;;;;$$$$;;@@  @@@@@@++    ##",
"@@;;@@@@@@@@@@########@@@@@@@@@@@@##@@@@..;;..@@==@@++;;$$$$$$;;;;;;++++++##@@..@@##@@@@@@@@##@@@@@@@@@@@@@@@@@@@@@@@@@@++    ##",
"@@;;@@@@@@@@@@########@@@@@@@@@@@@##@@@@..;;..@@==@@++;;$$$$$$;;;;;;++++++##@@..@@##@@@@@@@@##@@@@@@@@@@@@@@@@@@@@@@@@@@++    ##",
"**$$        @@  %%%%%%%%%%%%**  @@    @@@@          %%                %%  %%  %%%%%%%%%%..  ##  %%%%%%%%%%%%%%    $$  %%  %%%%%%",
"**$$        @@  %%%%%%%%%%%%**  @@    @@@@          %%                %%  %%  %%%%%%%%%%..  ##  %%%%%%%%%%%%%%    $$  %%  %%%%%%",
"  ++        $$@@++++++$$$$++++@@++      @@      ******%%    %%%%%%  ******%%        @@  ..  ##++@@++@@++++++++++++$$  ##@@      ",
"  ++        $$@@++++++$$$$++++@@++      @@      ******%%    %%%%%%  ******%%        @@  ..  ##++@@++@@++++++++++++$$  ##@@      ",
"@@..        ++################@@++      ..''))))))))!!))))))))##))!!##))))))))))))))))++..  @@++$$##          ##@@$$@@@@@@  ++@@",
"@@..        ++################@@++      ..''))))))))!!))))))))##))!!##))))))))))))))))++..  @@++$$##          ##@@$$@@@@@@  ++@@",
"@@==##  $$@@++####  ############$$@@@@##++####))))!!))####''))))))))))))))##))##))))))++$$######$$######      ##@@++++;;@@  ++@@",
"@@==##  $$@@++####  ############$$@@@@##++####))))!!))####''))))))))))))))##))##))))))++$$######$$######      ##@@++++;;@@  ++@@",
"++--==  @@$$++@@########@@##  @@++##@@++--$$$$$$$$''++$$--++$$++$$$$++''''$$''''++++$$..$$@@++@@$$@@############@@++@@@@@@==$$@@",
"++--==  @@$$++@@########@@##  @@++##@@++--$$$$$$$$''++$$--++$$++$$$$++''''$$''''++++$$..$$@@++@@$$@@############@@++@@@@@@==$$@@",
"  $$      ++$$==++++$$++++++++++++@@++++++@@@@@@@@##@@++++++++++++++@@@@@@++++@@++++++++++@@++++..++++$$$$$$++++++$$    @@      ",
"  $$      ++$$==++++$$++++++++++++@@++++++@@@@@@@@##@@++++++++++++++@@@@@@++++@@++++++++++@@++++..++++$$$$$$++++++$$    @@      ",
"  ++        ++------====....====$$++++....================,,..====..--------======--..====$$$$..----------------==$$    @@  %%  ",
"  ++        ++------====....====$$++++....================,,..====..--------======--..====$$$$..----------------==$$    @@  %%  ",
"  ;;@@  ####@@..$$==....$$$$..++++##@@@@$$@@@@@@####  ##    %%%%%%%%%%%%  ++    %%####@@$$@@@@@@@@@@$$$$$$;;..;;@@      @@@@    ",
"  ;;@@  ####@@..$$==....$$$$..++++##@@@@$$@@@@@@####  ##    %%%%%%%%%%%%  ++    %%####@@$$@@@@@@@@@@$$$$$$;;..;;@@      @@@@    ",
"  $$@@@@@@@@@@@@##@@            @@@@  @@$$$$$$$$$$++$$$$++$$$$$$$$$$$$$$$$..++$$$$$$++++$$@@++            ####@@@@@@@@@@++@@    ",
"  $$@@@@@@@@@@@@##@@            @@@@  @@$$$$$$$$$$++$$$$++$$$$$$$$$$$$$$$$..++$$$$$$++++$$@@++            ####@@@@@@@@@@++@@    ",
"%%--$$++$$++$$      @@@@@@++++++@@@@@@++$$--    ++@@@@$$;;;;;;;;$$$$$$$$;;++@@  ##@@  ##==            @@@@@@@@@@++@@@@@@$$$$++@@",
"%%--$$++$$++$$      @@@@@@++++++@@@@@@++$$--    ++@@@@$$;;;;;;;;$$$$$$$$;;++@@  ##@@  ##==            @@@@@@@@@@++@@@@@@$$$$++@@",
"@@==++######  ++++$$$$$$$$;;..@@    @@  ++##    ####@@@@@@@@@@@@@@@@@@@@@@@@##  %%@@##  ++    ##==@@++++++$$@@..@@    ##++++@@@@",
"@@==++######  ++++$$$$$$$$;;..@@    @@  ++##    ####@@@@@@@@@@@@@@@@@@@@@@@@##  %%@@##  ++    ##==@@++++++$$@@..@@    ##++++@@@@",
"  ==@@@@++    @@@@@@@@@@@@@@@@@@@@  @@##++      ##  $$........,,..======..$$  ..%%##++  $$    @@@@@@@@@@@@@@@@++@@##  ++$$++@@  ",
"  ==@@@@++    @@@@@@@@@@@@@@@@@@@@  @@##++      ##  $$........,,..======..$$  ..%%##++  $$    @@@@@@@@@@@@@@@@++@@##  ++$$++@@  ",
"%%==++@@@@##@@$$@@@@@@@@@@++@@$$@@##++  ++  %%  ####            %%%%%%      ##++%%##@@  $$  @@@@$$;;;;++;;@@@@@@$$@@##@@$$++    ",
"%%==++@@@@##@@$$@@@@@@@@@@++@@$$@@##++  ++  %%  ####            %%%%%%      ##++%%##@@  $$  @@@@$$;;;;++;;@@@@@@$$@@##@@$$++    ",
"@@==$$@@@@@@==++$$;;$$;;$$$$$$;;++@@++++$$    ##  ##@@======..========....####@@%%##++@@..++;;$$$$;;$$$$$$;;;;$$;;@@@@@@++..$$++",
"@@==$$@@@@@@==++$$;;$$;;$$$$$$;;++@@++++$$    ##  ##@@======..========....####@@%%##++@@..++;;$$$$;;$$$$$$;;;;$$;;@@@@@@++..$$++",
"  $$  @@##@@$$..$$$$$$$$..$$$$++++  @@##++    ######@@++++++++++++++++++$$####@@%%##@@++++    @@--====$$..++++++++##@@@@++@@    ",
"  $$  @@##@@$$..$$$$$$$$..$$$$++++  @@##++    ######@@++++++++++++++++++$$####@@%%##@@++++    @@--====$$..++++++++##@@@@++@@    ",
"  $$    ####@@++################@@  ####++    ####  @@++++++$$++++$$$$++$$@@####%%++@@@@$$    @@@@@@####@@########@@@@@@@@@@    ",
"  $$    ####@@++################@@  ####++    ####  @@++++++$$++++$$$$++$$@@####%%++@@@@$$    @@@@@@####@@########@@@@@@@@@@    ",
"  $$    ####++@@++########++@@@@$$######$$##  @@####++@@++++@@##@@++++@@++++##@@  ++++@@++    ++@@##@@@@@@@@  ##++@@@@@@@@  %%  ",
"  $$    ####++@@++########++@@@@$$######$$##  @@####++@@++++@@##@@++++@@++++##@@  ++++@@++    ++@@##@@@@@@@@  ##++@@@@@@@@  %%  ",
"  $$    ##@@..++++####    ##$$@@@@##@@++$$@@##++@@##########++$$$$############++  ++++@@++##@@##@@++########@@@@$$@@@@@@@@@@%%  ",
"  $$    ##@@..++++####    ##$$@@@@##@@++$$@@##++@@##########++$$$$############++  ++++@@++##@@##@@++########@@@@$$@@@@@@@@@@%%  ",
"  $$@@@@@@  @@########  ######++$$##@@##$$++##  $$##########################++++##++++##;;@@@@++$$++@@##@@@@##@@@@@@@@@@@@@@%%  ",
"  $$@@@@@@  @@########  ######++$$##@@##$$++##  $$##########################++++##++++##;;@@@@++$$++@@##@@@@##@@@@@@@@@@@@@@%%  ",
"  ..++######@@++++##  ####    @@@@##@@@@$$++++++##$$++++++++++@@##@@@@####++$$++##@@++##..++++@@##@@############@@  @@++@@@@%%  ",
"  ..++######@@++++##  ####    @@@@##@@@@$$++++++##$$++++++++++@@##@@@@####++$$++##@@++##..++++@@##@@############@@  @@++@@@@%%  ",
"  ++##  ####@@######@@##########@@  @@@@==..$$++$$@@++@@@@@@@@@@####++++++++++++++$$$$@@==##@@@@##      %%%%  ##  ##@@##@@  %%  ",
"  ++##  ####@@######@@##########@@  @@@@==..$$++$$@@++@@@@@@@@@@####++++++++++++++$$$$@@==##@@@@##      %%%%  ##  ##@@##@@  %%  ",
"  @@@@      @@  ****%%**    %%##++  ++%%@@@@##@@++@@  @@@@############@@@@####@@++@@@@%%--%%    ++########      %%      @@##    ",
"  @@@@      @@  ****%%**    %%##++  ++%%@@@@##@@++@@  @@@@############@@@@####@@++@@@@%%--%%    ++########      %%      @@##    ",
"  @@@@      ++%%  ########  ##  @@  @@####**  ##  ######    %%%%%%%%%%%%  ####++  **  ##@@      ++      **  **  %%      @@      ",
"  @@@@      ++%%  ########  ##  @@  @@####**  ##  ######    %%%%%%%%%%%%  ####++  **  ##@@      ++      **  **  %%      @@      ",
"@@@@  ##    ++        ####  ####$$##++..$$$$++++$$$$$$..$$$$$$$$$$$$..$$$$....$$......==++    @@++    ##########++    @@@@  @@@@",
"@@@@  ##    ++        ####  ####$$##++..$$$$++++$$$$$$..$$$$$$$$$$$$..$$$$....$$......==++    @@++    ##########++    @@@@  @@@@",
"@@++  @@##  $$++++@@@@++++++++++..++@@##          %%%%  %%        %%%%%%%%%%        %%  %%    ##++++++++++++++++$$@@@@@@++  @@@@",
"@@++  @@##  $$++++@@@@++++++++++..++@@##          %%%%  %%        %%%%%%%%%%        %%  %%    ##++++++++++++++++$$@@@@@@++  @@@@",
"++----$$$$$$----==----========--==++$$@@++++++++++++++''##++######  @@++++++++++++++''@@..@@@@$$======----------==$$$$$$..--..@@",
"++----$$$$$$----==----========--==++$$@@++++++++++++++''##++######  @@++++++++++++++''@@..@@@@$$======----------==$$$$$$..--..@@",
"  $$@@##    $$@@@@      @@@@@@@@      ++++$$++$$''''''$$''++))''$$''''++''$$$$$$$$++$$++$$##@@##@@@@      @@@@@@@@##  @@@@      ",
"  $$@@##    $$@@@@      @@@@@@@@      ++++$$++$$''''''$$''++))''$$''''++''$$$$$$$$++$$++$$##@@##@@@@      @@@@@@@@##  @@@@      ",
"  $$@@####  ++$$$$++;;;;@@$$$$@@      ..  @@@@    %%      @@  %%  %%%%          %%  ++@@..  ##  $$;;$$$$$$..;;$$@@      @@##    ",
"  $$@@####  ++$$$$++;;;;@@$$$$@@      ..  @@@@    %%      @@  %%  %%%%          %%  ++@@..  ##  $$;;$$$$$$..;;$$@@      @@##    ",
"  ==@@      ++@@@@@@@@@@@@@@@@@@      ++@@    %%  **  **%%%%%%%%%%****%%%%%%%%******##@@$$      @@@@@@@@@@@@@@@@@@  ####@@@@%%  ",
"  ==@@      ++@@@@@@@@@@@@@@@@@@      ++@@    %%  **  **%%%%%%%%%%****%%%%%%%%******##@@$$      @@@@@@@@@@@@@@@@@@  ####@@@@%%  ",
"  ==..      ;;........,,..==--++    ##@@++@@      %%%%%%%%%%%%%%%%%%%%%%%%>>%%**  %%##@@..##  ++++======..,,..==++@@@@@@++..    ",
"  ==..      ;;........,,..==--++    ##@@++@@      %%%%%%%%%%%%%%%%%%%%%%%%>>%%**  %%##@@..##  ++++======..,,..==++@@@@@@++..    ",
"  ====--++$$$$$$++@@@@@@@@@@@@==@@######..$$$$))!!!!))))))))!!))!!!!!!!!!!))))))))))''$$..@@++$$++@@@@@@@@@@@@@@++==..$$--==$$  ",
"  ====--++$$$$$$++@@@@@@@@@@@@==@@######..$$$$))!!!!))))))))!!))!!!!!!!!!!))))))))))''$$..@@++$$++@@@@@@@@@@@@@@++==..$$--==$$  ",
"  ++  @@@@@@@@$$..$$$$$$$$$$$$##;;++$$@@$$$$))))))))))))))))!!))))!!))))))''))))''$$++..==@@@@##++..$$$$$$$$$$$$++$$##  ++  %%  ",
"  ++  @@@@@@@@$$..$$$$$$$$$$$$##;;++$$@@$$$$))))))))))))))))!!))))!!))))))''))))''$$++..==@@@@##++..$$$$$$$$$$$$++$$##  ++  %%  ",
"  $$        @@@@@@;;++++@@@@$$##@@  @@$$--;;------------------------------------------..==  ####++@@##  ####@@++##$$    @@  %%  ",
"  $$        @@@@@@;;++++@@@@$$##@@  @@$$--;;------------------------------------------..==  ####++@@##  ####@@++##$$    @@  %%  ",
"%%$$  @@@@  ++@@......$$$$$$++@@##  @@##..++++++$$$$$$==..$$$$..======----============@@++##  @@@@$$$$$$$$$$$$$$@@++    @@      ",
"%%$$  @@@@  ++@@......$$$$$$++@@##  @@##..++++++$$$$$$==..$$$$..======----============@@++##  @@@@$$$$$$$$$$$$$$@@++    @@      ",
"  ++  @@@@  @@@@$$$$$$++$$$$$$@@##  @@##++@@  @@$$....$$$$$$$$$$$$$$$$$$$$$$++$$--      $$##  @@@@####$$$$$$++$$@@++    @@  %%  ",
"  ++  @@@@  @@@@$$$$$$++$$$$$$@@##  @@##++@@  @@$$....$$$$$$$$$$$$$$$$$$$$$$++$$--      $$##  @@@@####$$$$$$++$$@@++    @@  %%  ",
"%%@@  @@@@  @@++@@@@##############    @@++%%  $$##@@$$$$++++++++##++++$$$$@@####++==%%  ++@@  ##@@++########@@####@@##  @@  %%  ",
"%%@@  @@@@  @@++@@@@##############    @@++%%  $$##@@$$$$++++++++##++++$$$$@@####++==%%  ++@@  ##@@++########@@####@@##  @@  %%  ",
"  ++  @@@@  ++    ##        ##@@++      ++  @@$$++##++++++++++++##$$$$$$++@@######==@@##..@@  @@++@@############@@++@@  @@  %%  ",
"  ++  @@@@  ++    ##        ##@@++      ++  @@$$++##++++++++++++##$$$$$$++@@######==@@##..@@  @@++@@############@@++@@  @@  %%  ",
"  ++  @@##  ++################@@++      @@  @@$$@@##$$$$$$$$++$$@@++++++$$++##  ##==####..@@@@@@@@##          ##@@$$    @@@@%%  ",
"  ++  @@##  ++################@@++      @@  @@$$@@##$$$$$$$$++$$@@++++++$$++##  ##==####..@@@@@@@@##          ##@@$$    @@@@%%  ",
"  ;;  @@@@  $$########  ########$$    @@@@  @@$$@@##$$$$$$$$$$$$$$$$$$$$$$++####++$$####..@@@@++@@################$$    @@  %%  ",
"  ;;  @@@@  $$########  ########$$    @@@@  @@$$@@##$$$$$$$$$$$$$$$$$$$$$$++####++$$####..@@@@++@@################$$    @@  %%  ",
"  $$@@@@@@##$$################++..  @@@@@@  @@##++@@++@@@@##@@@@@@++##@@++++##@@++$$@@##$$@@@@++++##############++$$####@@  %%  ",
"  $$@@@@@@##$$################++..  @@@@@@  @@##++@@++@@@@##@@@@@@++##@@++++##@@++$$@@##$$@@@@++++##############++$$####@@  %%  ",
"  $$##@@####$$$$++++++++$$$$++$$++@@@@@@@@@@$$@@##**        ##    %%          ##  ##++++==@@@@++$$$$$$$$$$$$$$$$$$++@@@@++%%%%  ",
"  $$##@@####$$$$++++++++$$$$++$$++@@@@@@@@@@$$@@##**        ##    %%          ##  ##++++==@@@@++$$$$$$$$$$$$$$$$$$++@@@@++%%%%  "};
