/* XPM */
static char * path_floor_xpm[] = {
"128 128 6 1",
" 	c #8DA6B9",
".	c #577644",
"+	c #5C3750",
"@	c #BED4D5",
"#	c #2D2546",
"$	c #090025",
"            ................    ............++++++++++++@@@@@@@@@@@@            ....++++++++................++++############....",
"            ................    ............++++++++++++@@@@@@@@@@@@            ....++++++++................++++############....",
"            ................    ............++++++++++++@@@@@@@@@@@@            ....++++++++................++++############....",
"            ................    ............++++++++++++@@@@@@@@@@@@            ....++++++++................++++############....",
"            ....................++++++++++++++++++++++++        ....................++++++++++++........++++####$$$$$$$$$$$$####",
"            ....................++++++++++++++++++++++++        ....................++++++++++++........++++####$$$$$$$$$$$$####",
"            ....................++++++++++++++++++++++++        ....................++++++++++++........++++####$$$$$$$$$$$$####",
"            ....................++++++++++++++++++++++++        ....................++++++++++++........++++####$$$$$$$$$$$$####",
"....    ................############++++++++++++++++####        ................++++++++++++####                ........++++####",
"....    ................############++++++++++++++++####        ................++++++++++++####                ........++++####",
"....    ................############++++++++++++++++####        ................++++++++++++####                ........++++####",
"....    ................############++++++++++++++++####        ................++++++++++++####                ........++++####",
"####............####....                ....++++++++####....    ........++++++++++++++++####....@@@@                ........####",
"####............####....                ....++++++++####....    ........++++++++++++++++####....@@@@                ........####",
"####............####....                ....++++++++####....    ........++++++++++++++++####....@@@@                ........####",
"####............####....                ....++++++++####....    ........++++++++++++++++####....@@@@                ........####",
"####$$$$$$$$$$$$####                        ........$$$$$$$$$$$$########++++++++++++####$$$$....    @@@@@@@@    ....++++++++++++",
"####$$$$$$$$$$$$####                        ........$$$$$$$$$$$$########++++++++++++####$$$$....    @@@@@@@@    ....++++++++++++",
"####$$$$$$$$$$$$####                        ........$$$$$$$$$$$$########++++++++++++####$$$$....    @@@@@@@@    ....++++++++++++",
"####$$$$$$$$$$$$####                        ........$$$$$$$$$$$$########++++++++++++####$$$$....    @@@@@@@@    ....++++++++++++",
"........++++++++####@@@@                    ........####$$$$####                ....####$$$$....        ........++++++++++++....",
"........++++++++####@@@@                    ........####$$$$####                ....####$$$$....        ........++++++++++++....",
"........++++++++####@@@@                    ........####$$$$####                ....####$$$$....        ........++++++++++++....",
"........++++++++####@@@@                    ........####$$$$####                ....####$$$$....        ........++++++++++++....",
"................####    @@@@@@@@@@@@    ++++++++++++....####                        ++++++++++++    ............++++++++........",
"................####    @@@@@@@@@@@@    ++++++++++++....####                        ++++++++++++    ............++++++++........",
"................####    @@@@@@@@@@@@    ++++++++++++....####                        ++++++++++++    ............++++++++........",
"................####    @@@@@@@@@@@@    ++++++++++++....####                        ++++++++++++    ............++++++++........",
"            ....++++        ............++++++++++++........@@@@                    ++++++++####++++........++++####....        ",
"            ....++++        ............++++++++++++........@@@@                    ++++++++####++++........++++####....        ",
"            ....++++        ............++++++++++++........@@@@                    ++++++++####++++........++++####....        ",
"            ....++++        ............++++++++++++........@@@@                    ++++++++####++++........++++####....        ",
"            ............    ............++++++++####........    @@@@@@@@        ++++++++++++++++####$$$$$$$$####....            ",
"            ............    ............++++++++####........    @@@@@@@@        ++++++++++++++++####$$$$$$$$####....            ",
"            ............    ............++++++++####........    @@@@@@@@        ++++++++++++++++####$$$$$$$$####....            ",
"            ............    ............++++++++####........    @@@@@@@@        ++++++++++++++++####$$$$$$$$####....            ",
"            ........++++............++++++++########........        ............++++++++++++++++++++####$$$$....@@@@            ",
"            ........++++............++++++++########........        ............++++++++++++++++++++####$$$$....@@@@            ",
"            ........++++............++++++++########........        ............++++++++++++++++++++####$$$$....@@@@            ",
"            ........++++............++++++++########........        ............++++++++++++++++++++####$$$$....@@@@            ",
"            ....++++####$$$$$$$$$$$$$$$$$$$$$$$$####++++....        ........++++++++....            ....++++....    @@@@@@@@    ",
"            ....++++####$$$$$$$$$$$$$$$$$$$$$$$$####++++....        ........++++++++....            ....++++....    @@@@@@@@    ",
"            ....++++####$$$$$$$$$$$$$$$$$$$$$$$$####++++....        ........++++++++....            ....++++....    @@@@@@@@    ",
"            ....++++####$$$$$$$$$$$$$$$$$$$$$$$$####++++....        ........++++++++....            ....++++....    @@@@@@@@    ",
"    ........++++++++########++++                ....++++++++....    ........++++....                    ++++####....            ",
"    ........++++++++########++++                ....++++++++....    ........++++....                    ++++####....            ",
"    ........++++++++########++++                ....++++++++....    ........++++....                    ++++####....            ",
"    ........++++++++########++++                ....++++++++....    ........++++....                    ++++####....            ",
"++++++++####$$$$$$$$++++....                        ++++++++####$$$$########++++@@@@                    ....####....        ....",
"++++++++####$$$$$$$$++++....                        ++++++++####$$$$########++++@@@@                    ....####....        ....",
"++++++++####$$$$$$$$++++....                        ++++++++####$$$$########++++@@@@                    ....####....        ....",
"++++++++####$$$$$$$$++++....                        ++++++++####$$$$########++++@@@@                    ....####....        ....",
"####$$$$$$$$$$$$........@@@@                        ++++####$$$$$$$$$$$$########    @@@@@@@@        ........++++####++++++++++++",
"####$$$$$$$$$$$$........@@@@                        ++++####$$$$$$$$$$$$########    @@@@@@@@        ........++++####++++++++++++",
"####$$$$$$$$$$$$........@@@@                        ++++####$$$$$$$$$$$$########    @@@@@@@@        ........++++####++++++++++++",
"####$$$$$$$$$$$$........@@@@                        ++++####$$$$$$$$$$$$########    @@@@@@@@        ........++++####++++++++++++",
"                ........    @@@@@@@@@@@@    ........++++$$$$####                ....        ........++++++++++++########++++    ",
"                ........    @@@@@@@@@@@@    ........++++$$$$####                ....        ........++++++++++++########++++    ",
"                ........    @@@@@@@@@@@@    ........++++$$$$####                ....        ........++++++++++++########++++    ",
"                ........    @@@@@@@@@@@@    ........++++$$$$####                ....        ........++++++++++++########++++    ",
"                ........            ........++++++++++++####@@@@                ++++............++++++++++++++++####++++@@@@    ",
"                ........            ........++++++++++++####@@@@                ++++............++++++++++++++++####++++@@@@    ",
"                ........            ........++++++++++++####@@@@                ++++............++++++++++++++++####++++@@@@    ",
"                ........            ........++++++++++++####@@@@                ++++............++++++++++++++++####++++@@@@    ",
"@@@@        ........++++....        ........++++++++++++####    @@@@@@@@    ....++++####....++++++++++++++++++++++++....    @@@@",
"@@@@        ........++++....        ........++++++++++++####    @@@@@@@@    ....++++####....++++++++++++++++++++++++....    @@@@",
"@@@@        ........++++....        ........++++++++++++####    @@@@@@@@    ....++++####....++++++++++++++++++++++++....    @@@@",
"@@@@        ........++++....        ........++++++++++++####    @@@@@@@@    ....++++####....++++++++++++++++++++++++....    @@@@",
"        ........++++++++....    ........++++++++++++########....        ....++++++++############++++++++++++++++........        ",
"        ........++++++++....    ........++++++++++++########....        ....++++++++############++++++++++++++++........        ",
"        ........++++++++....    ........++++++++++++########....        ....++++++++############++++++++++++++++........        ",
"        ........++++++++....    ........++++++++++++########....        ....++++++++############++++++++++++++++........        ",
"    ........++++++++####++++............++++++++++++########....    ........++++############....                    ....        ",
"    ........++++++++####++++............++++++++++++########....    ........++++############....                    ....        ",
"    ........++++++++####++++............++++++++++++########....    ........++++############....                    ....        ",
"    ........++++++++####++++............++++++++++++########....    ........++++############....                    ....        ",
"    ++++++++++++++++########$$$$....            ....++++########........++++####$$$$$$$$@@@@                        ........    ",
"    ++++++++++++++++########$$$$....            ....++++########........++++####$$$$$$$$@@@@                        ........    ",
"    ++++++++++++++++########$$$$....            ....++++########........++++####$$$$$$$$@@@@                        ........    ",
"    ++++++++++++++++########$$$$....            ....++++########........++++####$$$$$$$$@@@@                        ........    ",
"####++++++++++++########$$$$$$$$                    ....++++####$$$$$$$$$$$$$$$$$$$$####    @@@@@@@@@@@@@@@@    ....++++++++++++",
"####++++++++++++########$$$$$$$$                    ....++++####$$$$$$$$$$$$$$$$$$$$####    @@@@@@@@@@@@@@@@    ....++++++++++++",
"####++++++++++++########$$$$$$$$                    ....++++####$$$$$$$$$$$$$$$$$$$$####    @@@@@@@@@@@@@@@@    ....++++++++++++",
"####++++++++++++########$$$$$$$$                    ....++++####$$$$$$$$$$$$$$$$$$$$####    @@@@@@@@@@@@@@@@    ....++++++++++++",
"########                    ....    @@@@            ........++++############............                ............++++++++++++",
"########                    ....    @@@@            ........++++############............                ............++++++++++++",
"########                    ....    @@@@            ........++++############............                ............++++++++++++",
"########                    ....    @@@@            ........++++############............                ............++++++++++++",
"$$$$                        ........    @@@@@@@@    ++++                    ............        ............++++++++++++++++++++",
"$$$$                        ........    @@@@@@@@    ++++                    ............        ............++++++++++++++++++++",
"$$$$                        ........    @@@@@@@@    ++++                    ............        ............++++++++++++++++++++",
"$$$$                        ........    @@@@@@@@    ++++                    ............        ............++++++++++++++++++++",
"$$$$@@@@                    ....++++        ........                        ........++++....    ............++++++++++++++++####",
"$$$$@@@@                    ....++++        ........                        ........++++....    ............++++++++++++++++####",
"$$$$@@@@                    ....++++        ........                        ........++++....    ............++++++++++++++++####",
"$$$$@@@@                    ....++++        ........                        ........++++....    ............++++++++++++++++####",
"$$$$    @@@@@@@@@@@@........++++++++............++++@@@@                    ....++++++++++++++++........########$$$$$$$$$$$$$$$$",
"$$$$    @@@@@@@@@@@@........++++++++............++++@@@@                    ....++++++++++++++++........########$$$$$$$$$$$$$$$$",
"$$$$    @@@@@@@@@@@@........++++++++............++++@@@@                    ....++++++++++++++++........########$$$$$$$$$$$$$$$$",
"$$$$    @@@@@@@@@@@@........++++++++............++++@@@@                    ....++++++++++++++++........########$$$$$$$$$$$$$$$$",
"$$$$        ............++++++++++++....++++########    @@@@@@@@        ....++++++++++++++++....                    ........####",
"$$$$        ............++++++++++++....++++########    @@@@@@@@        ....++++++++++++++++....                    ........####",
"$$$$        ............++++++++++++....++++########    @@@@@@@@        ....++++++++++++++++....                    ........####",
"$$$$        ............++++++++++++....++++########    @@@@@@@@        ....++++++++++++++++....                    ........####",
"$$$$....    ............++++++++++++++++####$$$$$$$$            ............++++++++++++++++                            ........",
"$$$$....    ............++++++++++++++++####$$$$$$$$            ............++++++++++++++++                            ........",
"$$$$....    ............++++++++++++++++####$$$$$$$$            ............++++++++++++++++                            ........",
"$$$$....    ............++++++++++++++++####$$$$$$$$            ............++++++++++++++++                            ........",
"$$$$####................++++++++++++####$$$$$$$$$$$$....        ............++++++++####....@@@@                    ....++++++++",
"$$$$####................++++++++++++####$$$$$$$$$$$$....        ............++++++++####....@@@@                    ....++++++++",
"$$$$####................++++++++++++####$$$$$$$$$$$$....        ............++++++++####....@@@@                    ....++++++++",
"$$$$####................++++++++++++####$$$$$$$$$$$$....        ............++++++++####....@@@@                    ....++++++++",
"####++++++++++++++++########....                ....####....    ............++++########....    @@@@@@@@        ....++++++++++++",
"####++++++++++++++++########....                ....####....    ............++++########....    @@@@@@@@        ....++++++++++++",
"####++++++++++++++++########....                ....####....    ............++++########....    @@@@@@@@        ....++++++++++++",
"####++++++++++++++++########....                ....####....    ............++++########....    @@@@@@@@        ....++++++++++++",
"....                ....####@@@@                ....############++++++++++++####$$$$$$$$....            ............++++++++++++",
"....                ....####@@@@                ....############++++++++++++####$$$$$$$$....            ............++++++++++++",
"....                ....####@@@@                ....############++++++++++++####$$$$$$$$....            ............++++++++++++",
"....                ....####@@@@                ....############++++++++++++####$$$$$$$$....            ............++++++++++++",
"                    ........    @@@@@@@@    ............####....                    ........        ........++++++++++++++++....",
"                    ........    @@@@@@@@    ............####....                    ........        ........++++++++++++++++....",
"                    ........    @@@@@@@@    ............####....                    ........        ........++++++++++++++++....",
"                    ........    @@@@@@@@    ............####....                    ........        ........++++++++++++++++....",
"@@@@@@@@@@@@    ............        ........++++++++++++....                        ++++........    ........++++++++++++++++    ",
"@@@@@@@@@@@@    ............        ........++++++++++++....                        ++++........    ........++++++++++++++++    ",
"@@@@@@@@@@@@    ............        ........++++++++++++....                        ++++........    ........++++++++++++++++    ",
"@@@@@@@@@@@@    ............        ........++++++++++++....                        ++++........    ........++++++++++++++++    "};
