/* XPM */
static char *a0346f786a8740e99dda4d8a7d82f4dajhTbGdr4r14rgzRp[] = {
/* columns rows colors chars-per-pixel */
"51 51 96 2 ",
"   c #000001",
".  c #0B0F19",
"X  c #141E2D",
"o  c #1B2738",
"O  c #1E2C3F",
"+  c #23344B",
"@  c #2A3D5C",
"#  c #2E4264",
"$  c #334770",
"%  c #3B5180",
"&  c #3E578A",
"*  c #435B94",
"=  c #46619C",
"-  c #4D6AA9",
";  c #5270B0",
":  c #5978B8",
">  c #5580C0",
",  c #5C87C8",
"<  c #5792D2",
"1  c #5C96D8",
"2  c #649CDE",
"3  c #64A2E5",
"4  c #6BA7EB",
"5  c #6AADF0",
"6  c #74B4F5",
"7  c #72B8F8",
"8  c #79BFFD",
"9  c #7BC4FF",
"0  c #7FC9FF",
"q  c #78CCFF",
"w  c #82D1FF",
"e  c #8AD6FF",
"r  c #8BD9FF",
"t  c #8CDEFF",
"y  c #96E3FF",
"u  c #9EE8FF",
"i  c #95EBFF",
"p  c #9BEEFF",
"a  c #A1F0FF",
"s  c #A5F3FF",
"d  c #B5F6FF",
"f  c #BDF9FF",
"g  c #A2FCFF",
"h  c #ACFFFF",
"j  c #A4FFFF",
"k  c #B5FFFF",
"l  c #BAFFFF",
"z  c #B4FFFF",
"x  c #B6FFFF",
"c  c #BDFFFF",
"v  c #ACF8FF",
"b  c #A3F4FF",
"n  c #ABF0FF",
"m  c #B4ECFF",
"M  c #94E0FF",
"N  c #93DEFF",
"B  c #90DAFF",
"V  c #9BD4FF",
"C  c #A3D0FF",
"Z  c #A9CCFF",
"A  c #BAC7FF",
"S  c #A1C0FF",
"D  c #A7BBFF",
"F  c #C4B4FF",
"G  c #C1AFFF",
"H  c #91A8FF",
"J  c #9CB2FF",
"K  c #88A4FF",
"L  c #5A7DA8",
"P  c #4A6B94",
"I  c #3B5E85",
"U  c #1E4A7D",
"Y  c #1C4780",
"T  c #20518A",
"R  c #1B5B96",
"E  c #1864A0",
"W  c #2F6DAF",
"Q  c #30639E",
"!  c #1B6FB8",
"~  c #2376C2",
"^  c #2D7BCC",
"/  c #3384D6",
"(  c #3D8BE0",
")  c #4191E5",
"_  c #4A9AEB",
"`  c #51A2F0",
"'  c #2C7DC7",
"]  c #3484CF",
"[  c #3C8BD7",
"{  c #428FE0",
"}  c #0099FF",
"|  c #0BA0FF",
" . c #07C1FF",
".. c #3BE5FF",
"X. c #4FC2E5",
"o. c #FFC0CB",


/* pixels */
"o.o.o.o.o.o.o.o.o.o.o.o.o.o.o.o.o.o.o.o.o.o.o.o.o.o.o.o.o.o.o.o.o.o.o.o.o.o.o.o.o.o.o.o.o.o.o.o.o.o.o.",
"o.o.o.o.o.o.o.o.o.o.o.o.o.o.o.o.o.o.o.o.o.o.o.o.o.o.o.o.o.o.o.o.o.o.o.o.o.o.o.o.o.o.o.o.o.o.o.o.o.o.o.",
"o.o.o.o.o.o.o.o.o.o.o.o.o.o.o.o.o.o.o.o.o.o.o.o.o.o.o.o.o.o.o.o.o.o.o.o.o.o.o.o.o.o.o.o.o.o.o.o.o.o.o.",
"o.o.o.o.o.o.o.o.o.o.o.o.o.o.o.o.o.o.o.o.o.o.o.B M N M B o.o.o.o.o.o.o.o.o.o.o.o.o.o.o.o.o.o.o.o.o.o.o.",
"o.o.o.o.o.o.o.o.o.o.o.o.o.o.o.o.o.o.o.o.q b F f d d d f F b q o.o.o.o.o.o.o.o.o.o.o.o.o.o.o.o.o.o.o.o.",
"o.o.o.o.o.o.o.o.o.o.o.o.o.o.o.o.o.} o.S F f r 1 1 > 1 1 r f F S o.} o.o.o.o.o.o.o.o.o.o.o.o.o.o.o.o.o.",
"o.o.o.o.o.o.o.o.o.o.o.o.o.o.o.o.o.} A F r < ; @ $ + $ @ ; < r F A } o.o.o.o.o.o.o.o.o.o.o.o.o.o.o.o.o.",
"o.o.o.o.o.o.o.o.o.o.o.o.o.o.o.} o.A F w ; $ # O       O # $ ; w F A o.o. .o.o.o.o.o.o.o.o.o.o.o.o.o.o.",
"o.o.o.o.o.o.o.o.o.o.o.o.o.o.o.o._ F w & X .               . X & w F _ o.o.} o.o.o.o.o.o.o.o.o.o.o.o.o.",
"o.o.o.o.o.o.o.o.o.o.o.o.o.o.} o.F e * .                       . * e F o.} o.o.o.o.o.o.o.o.o.o.o.o.o.o.",
"o.o.o.o.o.o.o.o.o.o.o.o.o.o.o.F u > @ X                       X @ > u F o.o.o.} o.o.o.o.o.o.o.o.o.o.o.",
"o.o.o.o.o.o.o.o.o.o.o.z o.o.n d 5 * o                           o * 5 d n o.o.} o.o.o.o.o.o.o.o.o.o.o.",
"o.o.o.o.o.o.o.o.o.o.o.o.o.} f y ; + .                           . + ; y f } } o.o.o.o.o.o.o.o.o.o.o.o.",
"o.o.o.o.o.o.o.o.o.o. .o.o.} G 6 +                                   + 6 G } o.o.o.o.o.o.o.o.o.o.o.o.o.",
"o.o.o.o.o.o.o.o.o.o.o.o.z v s - X                                   X - s v z o.o.o.o.o.o.o.o.o.o.o.o.",
"o.o.o.o.o.o.o.o.o.o. .o.o.c r * .                                   . * r c o.o. .o.o.o.o.o.o.o.o.o.o.",
"o.o.o.o.o.o.o.o.o.o.o.o.J l 5 +                                       + 5 l J o.o.o.o.o.o.o.o.o.o.o.o.",
"o.o.o.o.o.o.o.o.o.o.} o.m a , X                                       X , a m o.o.o.o.o.o.o.o.o.o.o.o.",
"o.o.o.o.o.o.o.o.o.o. .o.x r , @                                       @ , r x o. .o.o.o.o.o.o.o.o.o.o.",
"o.o.o.o.o.o.o.o.o.} }  .l w : @                                       @ : w l  .} o.o.o.o.o.o.o.o.o.o.",
"o.o.o.o.o.o.o.o.o.o.o.K l 8 * .                                       . * 8 l K o.o.o.o.o.o.o.o.o.o.o.",
"o.o.o.o.o.o.o.o.o.} o.H k 6 @                                           @ 6 k H o.} o.o.o.o.o.o.o.o.o.",
"o.o.o.o.o.o.o.o.o.} o.V z 3 o                                           o 3 z V o.} o.o.o.o.o.o.o.o.o.",
"o.o.o.o.o.o.o.o.o.} o.D h =                                               = h D o.o.} o.o.o.o.o.o.o.o.",
"o.o.o.o.o.o.o.o.o.} } Z s -                                               - s Z o.} o.o.o.o.o.o.o.o.o.",
"o.o.o.o.o.o.o.o.o.o.} D p =                                             X = p D  .o.o.o.o.o.o.o.o.o.o.",
"o.o.o.o.o.o.o.o.o.o.o.C g >                                               > g C o.o.o.o.o.o.o.o.o.o.o.",
"o.o.o.o.o.o.o.o.o.o.} } h 6 $                                           $ 6 h } } o.o.o.o.o.o.o.o.o.o.",
"o.o.o.o.o.o.o.o.o.o.o.z z 3 #                                           # 3 z z o.o.o.o.o.o.o.o.o.o.o.",
"o.o.o.o.o.o.o.o.o.o.o.o.z 3 @                                           @ 3 z o.o.} o.o.o.o.o.o.o.o.o.",
"o.o.o.o.o.o.o.o.o.o...o.I 3 +                                           + 3 I o...o.o.o.o.o.o.o.o.o.o.",
"o.o.o.o.o.o.o.o.o.o.} o.' 9 #                                           # 9 ' } o.o.o.o.o.o.o.o.o.o.o.",
"o.o.o.o.o.o.o.o.o.o.o.} T t - .                                       . - t T } o.o.o.o.o.o.o.o.o.o.o.",
"o.o.o.o.o.o.o.o.o.o.o.o.) g 3 $                                       $ 3 g ) o.o.o.o.o.o.o.o.o.o.o.o.",
"o.o.o.o.o.o.o.o.o.o.o...o.P 3 & o                                   o & 3 P o.} o.o.o.o.o.o.o.o.o.o.o.",
"o.o.o.o.o.o.o.o.o.o.o...o.{ r ; $ .                               . $ ; r { o...o.o.o.o.o.o.o.o.o.o.o.",
"o.o.o.o.o.o.o.o.o.o.o...o./ g 3 ; +                               + ; 3 g /  ...o.o.o.o.o.o.o.o.o.o.o.",
"o.o.o.o.o.o.o.o.o.o.o...o.o.P 6 * +                               + * 6 P o...o.o.o.o.o.o.o.o.o.o.o.o.",
"o.o.o.o.o.o.o.o.o.o.o.o.o.z { p , $ +                           + $ , p { z ..o.o.o.o.o.o.o.o.o.o.o.o.",
"o.o.o.o.o.o.o.o.o.o.o...} o...] r 2 &                           & 2 r ] .... .o.o.o.o.o.o.o.o.o.o.o.o.",
"o.o.o.o.o.o.o.o.o.o.o.o.o...o.~ j 4 * O                       O * 4 j ~ o.o.o.o.o.o.o.o.o.o.o.o.o.o.o.",
"o.o.o.o.o.o.o.o.o.o.o.o.o.o...o.T i > * O                   O * > i T o...o.o.o.o.o.o.o.o.o.o.o.o.o.o.",
"o.o.o.o.o.o.o.o.o.o.o.o.o.o.z o...[ 0 * $ $ X           X $ $ * 0 [ ..o. .o.o.o.o.o.o.o.o.o.o.o.o.o.o.",
"o.o.o.o.o.o.o.o.o.o.o.o.o.o.o.z ..` U 9 ; * & @       @ & * ; 9 U ` .. .o.o.o.o.o.o.o.o.o.o.o.o.o.o.o.",
"o.o.o.o.o.o.o.o.o.o.o.o.o.o.o.o.o.o.( | t 4 , * & % & * , 4 t | ( o.o.o.o.o.o.o.o.o.o.o.o.o.o.o.o.o.o.",
"o.o.o.o.o.o.o.o.o.o.o.o.o.o.o.o.o.} o...R L i 7 1 = 1 7 i L R ..o.} o.o.o.o.o.o.o.o.o.o.o.o.o.o.o.o.o.",
"o.o.o.o.o.o.o.o.o.o.o.o.o.o.o.o.o.o.o...X.Q E Y Y Y Y Y E Q X...o.o.o.o.o.o.o.o.o.o.o.o.o.o.o.o.o.o.o.",
"o.o.o.o.o.o.o.o.o.o.o.o.o.o.o.o.o.o.o.o.o.o.B W ! ^ ! W B o.o.o.o.o.o.o.o.o.o.o.o.o.o.o.o.o.o.o.o.o.o.",
"o.o.o.o.o.o.o.o.o.o.o.o.o.o.o.o.o.o.o.o.o.o.o.o.o.o.o.o.o.o.o.o.o.o.o.o.o.o.o.o.o.o.o.o.o.o.o.o.o.o.o.",
"o.o.o.o.o.o.o.o.o.o.o.o.o.o.o.o.o.o.o.o.o.o.o.o.o.o.o.o.o.o.o.o.o.o.o.o.o.o.o.o.o.o.o.o.o.o.o.o.o.o.o.",
"o.o.o.o.o.o.o.o.o.o.o.o.o.o.o.o.o.o.o.o.o.o.o.o.o.o.o.o.o.o.o.o.o.o.o.o.o.o.o.o.o.o.o.o.o.o.o.o.o.o.o."
};
