/* XPM */
static char * pistol_arrow_xpm[] = {
"135 96 33 1",
" 	c FFC0CB",
".	c #000000",
"+	c #030006",
"@	c #000206",
"#	c #000509",
"$	c #01070A",
"%	c #080E11",
"&	c #14181C",
"*	c #25292C",
"=	c #333940",
"-	c #383937",
";	c #413F45",
">	c #44403F",
",	c #494544",
"'	c #484947",
")	c #524D4C",
"!	c #50524F",
"~	c #585A57",
"{	c #626461",
"]	c #646764",
"^	c #6A6665",
"/	c #676966",
"(	c #696C6A",
"_	c #6B6E6B",
":	c #7B7E7E",
"<	c #848683",
"[	c #888A87",
"}	c #8C8E8B",
"|	c #A0A29F",
"1	c #B9BBB8",
"2	c #E2E5E1",
"3	c #F8FCFF",
"4	c #FFFFFF",
"                                                                                                                                       ",
"           =$$$$$$$$$$$$$                                                                                                   $$$$$$$#   ",
"           =$$$$$$$$$$$$$                                                                                                   $$$$$$$#   ",
"           =$$(//////////.++                                                                                             ++_/////$$#   ",
"           =$$/]]]]]]]]]]+$$                                                                                             $$_]]]]]$$#   ",
"           =$$/]]]]]]]]]]+$$                                                                                             $$_]]]]]$$+   ",
"           =$$$$$$$$$$$$$$$$$############################################################################################$$$$$$$$$$#+# ",
"           =$$$$$$$$$$$$$$$$$$$$$$$$$$$$$$$$$$$$$$$$$$$$$$$$$$$$$$$$$$$$$$$$$$$$$$$$$$$$$$$$$$$$$$$$$$$$$$$$$$$$$$$$$$$$$$$$$$$$$$$$$$ ",
"           ;$$$$$$$$$$$$$$$$$$$$$$$$$$$$$$$$$$$$$$$$$$$$$$$$$$$$$$$$$$$$$$$$$$$$$$$$$$$$$$$$$$$$$$$$$$$$$$$$$$$$$$$$$$$$$$$$$$$$$$$$$$ ",
"        4$$][[[[[[[[[[[[[[[[[[[[[[[[[[[[[[[[[[[[[[[[[[[[11111111111111111111111[[[[[[[[[[[[[^,,}[[,,,[[[,,,[[,,,[[[,,>[[[[[[[[[[[[[[$$ ",
"        4$$][[[[[[[[[[[[[[[[[[[[[[[[[[[[[[[[[[[[[[[[[[[[11111111111111111111111[[[[[[[[[[[[[^,,}[[,,,[[[,,,[[,,,[[[,,>[[[[[[[[[[[[[[$$ ",
"        4$$][[}}}[[[}}}[[}}}[[[}}}[[[}}[[[<<<<<<<<<[[[[[11111111111111111111111[[[[[[[[[[[}}^>>}}}>>>}}}>>>}},>>}}}>>>[[[[[[[[[[[[[[$$ ",
"        4$$][[>,,[[[,,,[[>,,[[[,,,[[},,_[[111111111[[[[[11111111111111111111111[[[[[[[[[[},,^[[>,,[[[,,,[[[,,<[[,,,[[[[[[[[[[[[[[[[[$$ ",
"        4$$][[>,,[[[,,,[[>,,[[[,,,[[},,_[[111111111[[[[[11111111111111111111111[[[[[[[[[[},,^[[>,,[[[,,,[[[,,<[[,,,[[[[[[[[[[[[[[[[[$$ ",
"      ((:''^^^^^^^^^^^^^^^^^^^^^^^^^^^^:[[|||||||||[[[[[|||11111111111111111|||[[[[[[[[[[},,^[[>,,[[[,,,[[[,,<[[,,,[[[[[[[[[[[[[[[[[$$ ",
"      $$+[[~,,[[[,,,[[[,,}[[,,,[[[,,>[[[[[[[[[[[[[[[[[[[[[[11111111111111111[[[[[[[[[[[[[},,^[[>,,[[[,,,[[[,,<[[,,,[[[[[[[[[[[[[[[[[$$ ",
"      $$+[[~,,[[[,,,[[[,,}[[,,,[[[,,>[[[[[[[[[[[[[[[[[[[[[[11111111111111111[[[[[[[[[[[[[},,^[[>,,[[[,,,[[[,,<[[,,,[[[[[[[[[[[[[[[[[$$ ",
"      $$+[[~,,[[[,,,[[[,,}[[,,,[[[,,>[[[[[[[[[[[[[[[[[[[[[[<<<<<<<<<<<<<<<<<[[[[[[[[[[[[[[}}[[[}}}[[[}}}[[[}}[[[}}}[[[[[[[[[[[[[[[[[$$ ",
"      $$+[[~,,[[[,,,[[[,,}[[,,,[[[,,>[[[[[[[[[[[[[[[[[[[[[[[[[[[[[[[[[[[[[[[[[[[[[[[[[[[[[[[[[[[[[[[[[[[[[[[[[[[[[[[[[[[[[[[[[[[[[[[$$ ",
"      $$+[[~,,[[[,,,[[[,,}[[,,,[[[,,>[[[[[[[[[[[[[[[[[[[[[[[[[[[[[[[[[[[[[[[[[[[[[[[[[[[[[[[[[[[[[[[[[[[[[[[[[[[[[[[[[[[[[[[[[[[[[[[## ",
"      $$$$$$$$$$$$$$$$$$$$$$$$$$$$$$$$$$$$$$$$$$$$$$$$$$$$$$$$$$$$$$$$$$$$$$$$$$$$$$$$$$$$$$$$$$$$$$$$$$$$$$$$$$$$$$$$$$$$$$$$$$$$$#   ",
"      $$$$$$$$$$$$$$$$$$$$$$$$$$$$$$$$$$$$$$$$$$$$$$$$$$$$$$$$$$$$$$$$$$$$$$$$$$$$$$$$$$$$$$$$$$$$$$$$$$$$$$$$$$$$$$$$$$$$$$$$$$$$$#   ",
"      $$$$$$$$$$$$$$$$$$$$$$$$$$$$$$$$$$$$$$$$$$$$$$$$$$$$$$$$$$$$$$$$$$$$$$$$$$$$$$$$$$$$$$$$$$$$$$$$$$$$$$$$$$$$$$$$$$$$$$$$$$$$$#   ",
"   ###]]]]]]]]]]]]]]]]]]]]]]]]]]]]]]]]]]]]]]]]]]]]]]]]]]]]]]]]]]]]]]]]]]]]]]]]]]]]]]]]]]]]]]]]]]]]]]]]]]]]]]]]]]]]]]]]]]]]]]]]]]]$$#   ",
"   $$$]]]]]]]]]]]]]]]]]]]]]]]]]]]]]]]]]]]]]]]]]]]]]]]]]]]]]]]]]]]]]]]]]]]]]]]]]]]]]]]]]]]]]]]]]]]]]]]]]]]]]]]]]]]]]]]]]]]]]]]]]]]$$#   ",
"   $$$]]]]]]]]]]]]]]]]]]]]]]]]]]]]]]]]]]]]]]]]]]]]]]]]]]]]]]]]]]]]]]]]]]]]]]]]]]]]]]]]]]]]]]]]]]]]]]]]]]]]]]]]]]]]]]]]]]]]]]]]]]]$$#   ",
"   $$$]]]]]]]]]]]]]]]]]]]]]]]]]]]]]]]]]]]]]]]]]]]]]]]]]]]]]]]]]]]]]]]]]]]]]]]]]]]]]]]]]]]/,,~]]>,,]]],,,]]],,{]]]]]]]]]]]]]]]]]]]$$#   ",
"   $$$]]]]]]]]]]]]]]]]]]]]]]]]]]]]]]]]]]]]]]]]]]]]]]]]]]]]]]]]]]]]]]]]]]]]]]]]]]]]]]]]]]]/,,~]]>,,]]],,,]]],,{]]]]]]]]]]]]]]]]]]]$$#   ",
" &&~~~]]]]]]]]]]]]]]]]]]]]]]]]]]]]]]]]]]]]]]]]]]]]]]]]]]]]]]]]]]]]]]]]]]]]]]]]]]]%%%%%%%%%%%%%%%%%%%%%%%%%%%%+%%%%%%%%%%%%%%%%%%%2     ",
"@$$]]]]]]]]]]]]]]]]]]]]]]]]]]]]]]]]]]]]]]]]]]]]]]]]]]]]]]]]]]]]]]]]]]]]]]]]]]]]]]$$$$$$$$$$$$$$$$$$$$$$$$$$$$$$$$$$$$$$$$$$$$$$$#      ",
"@$$]]]]]]]]]]]]]]]]]]]]]]]]]]]]]]]]]]]]]]]]]]]]]]]]]]]]]]]]]]]]]]]]]]]]]]]]]]]]]]$$$$$$$$$$$$$$$$$$$$$$$$$$$$$$$$$$$$$$$$$$$$$$$#      ",
"@$$###########/]]]]]]]]]]]]]]]]]]]]]]]]]]]]]]]]]#################################4                                                     ",
"@$$$$$$$$$$$$$/]]]]]]]]]]]]]]]]]]]]]]]]]]]]]]]]^$$$$$$$$$$$$$$$$$$$$$$$$$$$$$$$$$3                                                     ",
"@#############/]]]]]]]]]]]]]]]]]]]]]]]]]]]]]]]]]##$$$$$$$$$$############$$$$$$$$$3                                                     ",
"              +$$]]]]]]]]]]]]]]]]]]]]]]]]]]]]$$@   $$',,$$$              $$#]]{$$3                                                     ",
"              +$$]]]]]]]]]]]]]]]]]]]]]]]]]]]]$$@   $$',,$$$              $$#]]{$$3                                                     ",
"              +##]]]]]]]]]]]]]]]]]]]]]]]]]]]]$$@   $$',,$$$              $$#]]{$$3                                                     ",
"                 #$$]]]]]]]]]]]]]]]]]]]]]]]]]$$@   $$',,$$$              $$#]]{$$3                                                     ",
"                 #$$]]]]]]]]]]]]]]]]]]]]]]]]]$$@   $$',,$$$              $$#]]{$$3                                                     ",
"                 #$$]]]]]]]]]]]]]]]]]]]]]]]]]$$@   ++'''@@@4             +++//]@@4                                                     ",
"                 #$$]]],,,,,,,,,,,,,,,,,,,]]]$$@     +$$,,,$$#              $$$]]$$$                                                   ",
"                 #$$]]],,,,,,,,,,,,,,,,,,,]]]$$@     +$$,,,$$#              $$$]]$$$                                                   ",
"                 &&&]]],,,,,,,,,,,,,,,,,,,]]]$$@      **---$$#              $$$]]$$$                                                   ",
"              +$$]]]]]],,,,,,,,,,,,,,,,,,,]]]$$@        +$$$$#              $$$]]$$$                                                   ",
"              +$$]]]]]],,,,,,,,,,,,,,,,,,,]]]$$@        +$$$$#              $$$]]$$$                                                   ",
"              +$$]]],,>,,,,,,,,,,,,,,,,,,,]]]$$#@@                          $$$]]$$$                                                   ",
"              +$$]]],,,,,,,,,,,,,,,,,,,,,,]]]$$$$$&                         $$$]]$$$                                                   ",
"              +$$]]],,,,,,,,,,,,,,,,,,,,,,]]]$$$$$&                         $$$]]$$$                                                   ",
"            ##/]]]]],,,,,,,,,,,,,,,,,,,~]]]]]$$#]]~#########################$$$]]$$$                                                   ",
"           =$$/]]]]],,,,,,,,,,,,,,,,,,,~]]]]]$$#]]{$$$$$$$$$$$$$$$$$$$$$$$$$$$$]]$$$                                                   ",
"           =$$/]]]]],,,,,,,,,,,,,,,,,,,~]]]]]$##]]{$$$$$$$$$$$$$$$$$$$$$$$$$$$$]]###                                                   ",
"           =$$/]],,,,,,,,,,,,,,,,,,,,,,~]]+$$   $$%]]]]]]]]]]]]]]]]]]]]]]]]]]]{$$3                                                     ",
"           =$$/]],,,,,,,,,,,,,,,,,,,,,,~]]+$$   $$%]]]]]]]]]]]]]]]]]]]]]]]]]]]{$$3                                                     ",
"           ;++^]],,,,,,,,,,,,,,,,,,,,>>~]]+$$   ..+___________________________/..                                                      ",
"        4$$']]]]],,,,,,,,,,,,,,,,,,,>]]]]]+$$      $$$$$$$$$$$$$$$$$$$$$$$$$$$$                                                        ",
"        4$$']]]]],,,,,,,,,,,,,,,,,,,>]]]]]+$$      $$$$$$$$$$$$$$$$$$$$$$$$$$$$                                                        ",
"        4$$']]!!!,,,,,,,,,,,,,,,,,,,>]]>**|                                                                                            ",
"        4$$']],,,,,,,,,,,,,,,,,,,,,,>]]*$$                                                                                             ",
"        4$$']],,,,,,,,,,,,,,,,,,,,,,>]]*$$                                                                                             ",
"      ++.//]]],,,,,,,,,,,,,,,,,,,,,,>]]*$$                                                                                             ",
"      $$+]]]]],,,,,,,,,,,,,,,,,,,,,,>]]*$$                                                                                             ",
"      $$+]]]]],,,,,,,,,,,,,,,,,,,,,,>]]*$$                                                                                             ",
"      $$+]]),,,,,,,,,,,,,,,,,,,,,,]]]]]*$$                                                                                             ",
"      $$+]]),,,,,,,,,,,,,,,,,,,,,,]]]]]*$$                                                                                             ",
"      $$+]]),,,,,,,,,,,,,,,,,,,,,,]]]]]*##                                                                                             ",
"      $$+]]),,,,,,,,,,,,,,,,,,,,,,]]_$$                                                                                                ",
"      $$+]]),,,,,,,,,,,,,,,,,,,,,,]]_$$                                                                                                ",
"      ##+]]),,,,,,,,,,,,,,,,,,,,,,]]_$$                                                                                                ",
"   $$$]]]]]),,,,,,,,,,,,,,,,,,,,,,]]_$$                                                                                                ",
"   $$$]]]]]),,,,,,,,,,,,,,,,,,,,,,]]_$$                                                                                                ",
"   $$$]]]]]),,,,,,,,,,,,,,,,,,,,,,]]_$$                                                                                                ",
"   $$$]]/,,,,,,,,,,,,,,,,,,,,,,]]]]]_$$                                                                                                ",
"   $$$]]/,,,,,,,,,,,,,,,,,,,,,,]]]]]_$$                                                                                                ",
"   $$$]]/,,,,,,,,,,,,,,,,,,,,,,]]]##.                                                                                                  ",
"   $$$]]/,,,,,,,,,,,,,,,,,,,,,,]]]$$.                                                                                                  ",
"   $$$]]/,,,,,,,,,,,,,,,,,,,,,,]]]$$.                                                                                                  ",
"@##]]]]]/,,,,,,,,,,,,,,,,,,,,,,]]]$$.                                                                                                  ",
"@$$]]]]]/,,,,,,,,,,,,,,,,,,,,,,]]]$$.                                                                                                  ",
"@$$]]]]]/,,,,,,,,,,,,,,,,,,,,,,]]]$$.                                                                                                  ",
"@$$]]],,,,,,,,,,,,,,,,,,,,,,]]]]]]$$.                                                                                                  ",
"@$$]]],,,,,,,,,,,,,,,,,,,,,,]]]]]]$$.                                                                                                  ",
"@$$]]],,,,,,,,,,,,,,,,,,,,,,]]]///++                                                                                                   ",
"@$$]]],,,,,,,,,,,,,,,,,,,,,,]]]$$+                                                                                                     ",
"@$$]]],,,,,,,,,,,,,,,,,,,,,,]]]$$+                                                                                                     ",
"@$$]]]!!!!!!!!!!!!!!!!!!!!!!]]]$$+                                                                                                     ",
"@$$]]]]]]]]]]]]]]]]]]]]]]]]]]]]$$+                                                                                                     ",
"@$$]]]]]]]]]]]]]]]]]]]]]]]]]]]]$$+                                                                                                     ",
"@$$++++++++++++++++++++++++++++$$+                                                                                                     ",
"@$$$$$$$$$$$$$$$$$$$$$$$$$$$$$$$$+                                                                                                     ",
"@$$$$$$$$$$$$$$$$$$$$$$$$$$$$$$$$+                                                                                                     ",
"@$$,,,,,,,,,,,,,,,,,,,,,,,,,,,,,,,++.                                                                                                  ",
"@$$,,,,,,,,,,,,,,,,,,,,,,,,,,,,,,,$$.                                                                                                  ",
".##,,,,,,,,,,,,,,,,,,,,,,,,,,,,,,,$$.                                                                                                  ",
"   $$$$$$$$$$$$$$$$$$$$$$$$$$$$$$$$$.                                                                                                  ",
"   $$$$$$$$$$$$$$$$$$$$$$$$$$$$$$$$$.                                                                                                  ",
"   .................................                                                                                                   "};
