/* XPM */
static char * small_iron_floor_xpm[] = {
"128 128 15 1",
" 	c #577277",
".	c #819796",
"+	c #341C27",
"@	c #394A50",
"#	c #A8B5B2",
"$	c #EBEDE9",
"%	c #4D2B32",
"&	c #7A4841",
"*	c #241527",
"=	c #090A14",
"-	c #10141F",
";	c #202E37",
">	c #E7D5B3",
",	c #411D31",
"'	c #151D28",
"  ....  ++@@@@..####..@@..######......######  ........##@@..####$$##@@......####  @@  ####..%%@@  ............####....@@      @@",
"  ....  ++@@@@..####..@@..######......######  ........##@@..####$$##@@......####  @@  ####..%%@@  ............####....@@      @@",
"@@..  ..@@%%    ....@@    ..##..@@    ......    ..  ....@@@@....  ..&&..........@@@@........@@  ........&&  ....##&&        @@%%",
"@@..  ..@@%%    ....@@    ..##..@@    ......    ..  ....@@@@....  ..&&..........@@@@........@@  ........&&  ....##&&        @@%%",
"@@......%%++  ......@@        ..%%@@  @@        ..  @@  %%@@  ..  ..@@    ..    %%%%  ......@@  ........%%@@  ....@@++  ....  %%",
"@@......%%++  ......@@        ..%%@@  @@        ..  @@  %%@@  ..  ..@@    ..    %%%%  ......@@  ........%%@@  ....@@++  ....  %%",
"@@......@@%%    ....    ..  ....@@  ..##....    @@....@@@@  ......    ..  ..    @@      ....  ..  ......@@    ..@@@@++  ......%%",
"@@......@@%%    ....    ..  ....@@  ..##....    @@....@@@@  ......    ..  ..    @@      ....  ..  ......@@    ..@@@@++  ......%%",
"@@..&&  %%**%%....##@@**%%..  ##&&==@@..  &&%%**..      ==  ......  --@@....    ++;;@@      ++%%..  ..@@@@@@    @@%%--@@..    %%",
"@@..&&  %%**%%....##@@**%%..  ##&&==@@..  &&%%**..      ==  ......  --@@....    ++;;@@      ++%%..  ..@@@@@@    @@%%--@@..    %%",
"++**;;%%  ##****++++%%  ****%%++%%..--**--%%##@@------**    --;;@@--    ******@@  ;;******--..@@++++@@  ..@@**%%@@@@  ;;++**--##",
"++**;;%%  ##****++++%%  ****%%++%%..--**--%%##@@------**    --;;@@--    ******@@  ;;******--..@@++++@@  ..@@**%%@@@@  ;;++**--##",
"@@  >>..>>@@    @@  ##@@  ##....##..@@>>$$$$    ......>>    ..$$..>>..  ..>>>>>>..@@  $$....@@  ..$$$$##@@@@........  @@$$##>>@@",
"@@  >>..>>@@    @@  ##@@  ##....##..@@>>$$$$    ......>>    ..$$..>>..  ..>>>>>>..@@  $$....@@  ..$$$$##@@@@........  @@$$##>>@@",
"%%  ..  @@..  ..##..@@..  ##..@@++..  ##..      ....@@##..    ..@@@@..  ....  ..##..@@    ..    ....    ++**  ....@@**######@@;;",
"%%  ..  @@..  ..##..@@..  ##..@@++..  ##..      ....@@##..    ..@@@@..  ....  ..##..@@    ..    ....    ++**  ....@@**######@@;;",
"@@......%%    ....##@@@@..######    ..####  ..  ......@@@@  ..................  @@        ..@@  ..  ....@@  ......@@@@  ....  @@",
"@@......%%    ....##@@@@..######    ..####  ..  ......@@@@  ..................  @@        ..@@  ..  ....@@  ......@@@@  ....  @@",
"%%......@@@@  ....##%%@@  ..####  @@........  &&..      %%@@    ....@@        ..%%%%@@  ....@@@@....  ..%%@@..  ..@@++  ......%%",
"%%......@@@@  ....##%%@@  ..####  @@........  &&..      %%@@    ....@@        ..%%%%@@  ....@@@@....  ..%%@@..  ..@@++  ......%%",
"  ....  @@%%@@  ..##;;@@      ..@@@@@@##....&&  ........%%      ....%%@@  @@    %%++@@    ..%%@@  ......%%  ......@@++  ..  ..;;",
"  ....  @@%%@@  ..##;;@@      ..@@@@@@##....&&  ........%%      ....%%@@  @@    %%++@@    ..%%@@  ......%%  ......@@++  ..  ..;;",
"..  ....  ++  ;;@@..%%@@  @@..    &&......##@@  @@......@@@@..    &&@@  ++  @@@@%%@@..  @@@@%%    ......@@@@@@      @@  ..  %%++",
"..  ....  ++  ;;@@..%%@@  @@..    &&......##@@  @@......@@@@..    &&@@  ++  @@@@%%@@..  @@@@%%    ......@@@@@@      @@  ..  %%++",
"%%@@..@@++++**      %%==++..  &&**==@@..    ==;;..  @@  ==--  ..@@**  ++@@@@@@@@++%%    @@%%++**  ..    ++++  &&..%%@@%%..  &&==",
"%%@@..@@++++**      %%==++..  &&**==@@..    ==;;..  @@  ==--  ..@@**  ++@@@@@@@@++%%    @@%%++**  ..    ++++  &&..%%@@%%..  &&==",
"  ;;++==@@  @@**--**++  @@------..  ++++++**  @@----==++    ----==      **++++%%@@@@++****@@##@@**====%%@@  ------@@%%  ++@@%%..",
"  ;;++==@@  @@**--**++  @@------..  ++++++**  @@----==++    ----==      **++++%%@@@@++****@@##@@**====%%@@  ------@@%%  ++@@%%..",
"@@..  @@@@        ....%%@@..++@@  @@  ..  ..;;##........  @@....@@              @@  ..  @@..%%    ##@@;;@@@@##..  ..++@@....##  ",
"@@..  @@@@        ....%%@@..++@@  @@  ..  ..;;##........  @@....@@              @@  ..  @@..%%    ##@@;;@@@@##..  ..++@@....##  ",
"%%....        ........@@    ........  ....@@  @@....      @@  @@        ......  ;;    @@@@    @@......%%@@;;  ..      ....  ..@@",
"%%....        ........@@    ........  ....@@  @@....      @@  @@        ......  ;;    @@@@    @@......%%@@;;  ..      ....  ..@@",
"@@......    ........  @@  ......  ..  ......    ..  @@    @@....  ..%%@@....  ..@@          @@    ......  @@    @@%%..  ......%%",
"@@......    ........  @@  ......  ..  ......    ..  @@    @@....  ..%%@@....  ..@@          @@    ......  @@    @@%%..  ......%%",
"%%........%%  ....  @@%%  ......@@@@      ..@@&&..    @@%%@@        ++@@        @@@@    ....@@@@@@      %%@@....  %%@@  ......%%",
"%%........%%  ....  @@%%  ......@@@@      ..@@&&..    @@%%@@        ++@@        @@@@    ....@@@@@@      %%@@....  %%@@  ......%%",
"@@..####..@@........  @@  ......@@@@  ..    @@  ..      %%@@        ++@@@@      %%@@..    ..%%@@        %%  @@....@@@@&&......@@",
"@@..####..@@........  @@  ......@@@@  ..    @@  ..      %%@@        ++@@@@      %%@@..    ..%%@@        %%  @@....@@@@&&......@@",
"@@..  ..  @@@@..  ..@@%%@@@@....@@  ......@@++      ..  %%@@  ..  @@++@@  @@    @@@@@@..    @@@@  @@    @@@@@@  ..%%@@    ..@@++",
"@@..  ..  @@@@..  ..@@%%@@@@....@@  ......@@++      ..  %%@@  ..  @@++@@  @@    @@@@@@..    @@@@  @@    @@@@@@  ..%%@@    ..@@++",
";;  @@@@    **  ....    ++  ..  --..@@@@  @@  --      @@@@%%@@@@@@++  ++@@@@@@@@;;**@@@@@@@@**%%%%@@@@@@@@++%%@@%%@@%%%%@@&&++  ",
";;  @@@@    **  ....    ++  ..  --..@@@@  @@  --      @@@@%%@@@@@@++  ++@@@@@@@@;;**@@@@@@@@**%%%%@@@@@@@@++%%@@%%@@%%%%@@&&++  ",
"  ..      ;;    ..##..  @@  ....##@@@@......@@  ..      @@@@  @@        @@@@@@@@@@  @@@@@@##@@  @@      @@        ..@@@@  ....  ",
"  ..      ;;    ..##..  @@  ....##@@@@......@@  ..      @@@@  @@        @@@@@@@@@@  @@@@@@##@@  @@      @@        ..@@@@  ....  ",
"++..  ++    @@    @@**  @@  ....;;  ......  @@@@..  %%%%..**    **@@  @@  @@@@....@@##..@@..        @@@@@@==    @@  ..@@  @@..**",
"++..  ++    @@    @@**  @@  ....;;  ......  @@@@..  %%%%..**    **@@  @@  @@@@....@@##..@@..        @@@@@@==    @@  ..@@  @@..**",
"%%    ..@@  ..  ..  @@@@  ....##      ......&&..  ..  &&**@@@@@@              @@@@++  ....  @@          @@@@      %%%%@@..    %%",
"%%    ..@@  ..  ..  @@@@  ....##      ......&&..  ..  &&**@@@@@@              @@@@++  ....  @@          @@@@      %%%%@@..    %%",
"@@......++  ..      ..&&  ......      ......@@@@    @@  ++@@    @@  @@@@  @@    %%++  ......@@    ..    @@%%@@@@  %%%%@@....  %%",
"@@......++  ..      ..&&  ......      ......@@@@    @@  ++@@    @@  @@@@  @@    %%++  ......@@    ..    @@%%@@@@  %%%%@@....  %%",
"@@......++%%  ..      %%  ......  @@@@  ....%%@@..    ..++%%  @@@@  %%%%  @@@@  %%++@@  ....%%%%  ..    %%@@@@%%@@@@@@@@  ....%%",
"@@......++%%  ..      %%  ......  @@@@  ....%%@@..    ..++%%  @@@@  %%%%  @@@@  %%++@@  ....%%%%  ..    %%@@@@%%@@@@@@@@  ....%%",
"  ......@@%%  @@....@@@@..@@....@@@@  ....  @@  @@......%%....  @@  @@@@@@  @@%%,,@@@@  ....&&@@    ..  @@@@    @@@@@@  @@..  @@",
"  ......@@%%  @@....@@@@..@@....@@@@  ....  @@  @@......%%....  @@  @@@@@@  @@%%,,@@@@  ....&&@@    ..  @@@@    @@@@@@  @@..  @@",
"@@      @@++@@  ..  @@--@@....  ++++  ....@@%%%%        ==++....  %%**++@@@@;;;;==++@@  @@&&++**@@..  @@@@**@@  @@@@--@@@@&&%%==",
"@@      @@++@@  ..  @@--@@....  ++++  ....@@%%%%        ==++....  %%**++@@@@;;;;==++@@  @@&&++**@@..  @@@@**@@  @@@@--@@@@&&%%==",
"++----==@@  ..;;++++@@@@@@--++**..@@++++++--    **----++..  --**++    %%**--'';;@@@@----**  ..@@**==--@@  @@--==**@@@@@@**--  %%",
"++----==@@  ..;;++++@@@@@@--++**..@@++++++--    **----++..  --**++    %%**--'';;@@@@----**  ..@@**==--@@  @@--==**@@@@@@**--  %%",
"@@..@@@@@@      ..@@..    ..    @@  @@..**  ..            @@@@@@@@..    @@....    @@....    @@@@..  ..  @@  ####            ;;  ",
"@@..@@@@@@      ..@@..    ..    @@  @@..**  ..            @@@@@@@@..    @@....    @@....    @@@@..  ..  @@  ####            ;;  ",
"%%  ..  ..;;  @@  @@..++..  ....@@@@@@....@@@@@@        @@      ..@@..@@      ..  @@  @@  @@@@    @@  @@..      ..          @@**",
"%%  ..  ..;;  @@  @@..++..  ....@@@@@@....@@@@@@        @@      ..@@..@@      ..  @@  @@  @@@@    @@  @@..      ..          @@**",
"%%  ..  @@      @@  ++@@  ......@@@@  ....  &&  ......  @@          %%    ..    @@  @@@@@@  @@@@@@  ....@@&&..  ..%%@@@@@@@@@@++",
"%%  ..  @@      @@  ++@@  ......@@@@  ....  &&  ......  @@          %%    ..    @@  @@@@@@  @@@@@@  ....@@&&..  ..%%@@@@@@@@@@++",
"@@  ..  ++%%@@      %%;;&&    @@%%@@&&      @@@@      ..%%@@        ++%%        %%%%&&@@  @@++@@@@      %%@@  @@  %%**@@;;;;@@++",
"@@  ..  ++%%@@      %%;;&&    @@%%@@&&      @@@@      ..%%@@        ++%%        %%%%&&@@  @@++@@@@      %%@@  @@  %%**@@;;;;@@++",
"&&....  %%++      ..@@@@  ..  @@%%  ..##    @@@@  ..    %%    @@    ++@@@@      ;;@@@@  @@@@@@@@@@      @@@@  @@@@%%++@@  @@@@@@",
"&&....  %%++      ..@@@@  ..  @@%%  ..##    @@@@  ..    %%    @@    ++@@@@      ;;@@@@  @@@@@@@@@@      @@@@  @@@@%%++@@  @@@@@@",
"  @@....@@--@@  ..@@  @@@@@@..    ++  @@##..%%@@  ....  %%@@@@      **@@@@      %%@@    @@@@@@@@    ..  %%@@@@    &&++  @@  @@;;",
"  @@....@@--@@  ..@@  @@@@@@..    ++  @@##..%%@@  ....  %%@@@@      **@@@@      %%@@    @@@@@@@@    ..  %%@@@@    &&++  @@  @@;;",
"@@    &&--@@**@@  @@++@@**@@@@  ==..++@@    --@@      %%--++@@@@%%++  ++@@@@;;%%@@**++@@@@@@++**%%@@@@%%++++@@  @@++@@++@@  @@  ",
"@@    &&--@@**@@  @@++@@**@@@@  ==..++@@    --@@      %%--++@@@@%%++  ++@@@@;;%%@@**++@@@@@@++**%%@@@@%%++++@@  @@++@@++@@  @@  ",
"@@%%@@  ....@@%%    >>  ..  @@@@    @@**++--    @@@@%%..  @@      @@%%  @@++++    ..@@@@@@@@    ''--@@    @@--**++##..@@..      ",
"@@%%@@  ....@@%%    >>  ..  @@@@    @@**++--    @@@@%%..  @@      @@%%  @@++++    ..@@@@@@@@    ''--@@    @@--**++##..@@..      ",
"%%    ++    @@  @@  ..  @@##>>  ....@@..        ......;;..@@    @@++@@++          @@@@        %%@@        ++      @@..;;@@@@    ",
"%%    ++    @@  @@  ..  @@##>>  ....@@..        ......;;..@@    @@++@@++          @@@@        %%@@        ++      @@..;;@@@@    ",
"@@..    @@@@@@  ....      ..####%%      @@..      ..  ++          @@@@@@  @@    @@  @@        ;;@@      %%%%@@@@  ++++@@        ",
"@@..    @@@@@@  ....      ..####%%      @@..      ..  ++          @@@@@@  @@    @@  @@        ;;@@      %%%%@@@@  ++++@@        ",
"@@    ....@@@@......      ......@@  ....    @@@@  ....  @@&&      @@++@@        %%@@@@      @@@@@@  @@@@%%@@@@@@  @@@@@@@@@@  ;;",
"@@    ....@@@@......      ......@@  ....    @@@@  ....  @@&&      @@++@@        %%@@@@      @@@@@@  @@@@%%@@@@@@  @@@@@@@@@@  ;;",
"@@....    %%    ..  @@@@@@@@....@@@@@@      %%@@@@      %%%%  @@    %%;;@@    @@%%@@@@@@    %%@@@@@@@@%%++@@@@@@@@@@;;@@@@@@@@%%",
"@@....    %%    ..  @@@@@@@@....@@@@@@      %%@@@@      %%%%  @@    %%;;@@    @@%%@@@@@@    %%@@@@@@@@%%++@@@@@@@@@@;;@@@@@@@@%%",
"  @@..    @@  @@....%%@@@@    ..@@@@  @@@@  @@++@@  @@  %%      @@%%@@@@  @@@@@@@@@@;;  @@  @@  @@  @@@@@@@@@@    @@%%@@@@@@  @@",
"  @@..    @@  @@....%%@@@@    ..@@@@  @@@@  @@++@@  @@  %%      @@%%@@@@  @@@@@@@@@@;;  @@  @@  @@  @@@@@@@@@@    @@%%@@@@@@  @@",
"@@&&  ..  ==@@..&&    ==@@  ..  @@@@    @@%%++@@@@@@    **@@      %%  @@@@  @@@@++%%@@@@@@@@++++  @@  @@++**@@%%@@@@++@@  @@@@%%",
"@@&&  ..  ==@@..&&    ==@@  ..  @@@@    @@%%++@@@@@@    **@@      %%  @@@@  @@@@++%%@@@@@@@@++++  @@  @@++**@@%%@@@@++@@  @@@@%%",
"**--++;;--..**%%@@%%    **++;;%%    %%%%%%**@@%%++;;%%++@@****++%%  %%%%++@@@@--@@%%--**++++    --++++  ..@@++%%;;@@@@@@--++++@@",
"**--++;;--..**%%@@%%    **++;;%%    %%%%%%**@@%%++;;%%++@@****++%%  %%%%++@@@@--@@%%--**++++    --++++  ..@@++%%;;@@@@@@--++++@@",
"@@  ....##@@        ..@@++..      @@@@      %%      @@  @@        @@@@@@@@      @@    @@    @@@@        **  @@  @@@@  @@      @@",
"@@  ....##@@        ..@@++..      @@@@      %%      @@  @@        @@@@@@@@      @@    @@    @@@@        **  @@  @@@@  @@      @@",
"++    @@....@@..........  ....  @@..      @@++@@  ....  ..;;  @@@@@@  @@@@    @@  @@@@  @@@@@@@@    @@;;  @@@@@@@@@@  @@@@    **",
"++    @@....@@..........  ....  @@..      @@++@@  ....  ..;;  @@@@@@  @@@@    @@  @@@@  @@@@@@@@    @@;;  @@@@@@@@@@  @@@@    **",
"%%..    @@    ......@@@@  ......    ....  @@..        &&;;@@@@@@      @@@@      @@  @@  @@@@++@@@@@@@@  @@@@@@@@    @@@@    @@@@",
"%%..    @@    ......@@@@  ......    ....  @@..        &&;;@@@@@@      @@@@      @@  @@  @@@@++@@@@@@@@  @@@@@@@@    @@@@    @@@@",
"%%      @@%%&&......;;@@  ......  @@......  %%@@@@      ++%%@@@@  @@@@          %%@@@@  @@%%++@@@@@@@@  %%@@@@@@  @@%%@@@@@@  %%",
"%%      @@%%&&......;;@@  ......  @@......  %%@@@@      ++%%@@@@  @@@@          %%@@@@  @@%%++@@@@@@@@  %%@@@@@@  @@%%@@@@@@  %%",
"@@  ..  @@++@@....  %%@@  ..    @@%%@@    ..%%@@    @@&&++%%@@      %%@@        ++++@@@@@@@@++%%@@@@@@  @@@@@@@@  @@++        %%",
"@@  ..  @@++@@....  %%@@  ..    @@%%@@    ..%%@@    @@&&++%%@@      %%@@        ++++@@@@@@@@++%%@@@@@@  @@@@@@@@  @@++        %%",
"..%%....  @@    ..  %%%%  ++..  &&&&..  ..  @@    ..    %%        @@@@  %%..  @@%%%%@@  @@  %%@@@@    @@@@@@    @@@@%%      @@%%",
"..%%....  @@    ..  %%%%  ++..  &&&&..  ..  @@    ..    %%        @@@@  %%..  @@%%%%@@  @@  %%@@@@    @@@@@@    @@@@%%      @@%%",
"%%  ..  %%++++  @@@@%%==++  ..@@--++@@....@@++++  ..  %%==**....  @@  ++  %%@@@@++**@@@@  @@%%++@@@@  ;;**;;@@@@%%@@%%@@    @@--",
"%%  ..  %%++++  @@@@%%==++  ..@@--++@@....@@++++  ..  %%==**....  @@  ++  %%@@@@++**@@@@  @@%%++@@@@  ;;**;;@@@@%%@@%%@@    @@--",
"  **++--@@  ;;====--..  @@==--**..;;--------@@@@%%****++    **++@@    @@**--**  ++@@++++%%  @@@@----==++    --****%%@@%%++**    ",
"  **++--@@  ;;====--..  @@==--**..;;--------@@@@%%****++    **++@@    @@**--**  ++@@++++%%  @@@@----==++    --****%%@@%%++**    ",
"  @@  @@......  ..$$  ....    ..    @@..  @@  ..>>##@@      $$  ..@@..**    ..@@    ++@@@@++  @@@@        @@  @@  ..##..@@@@  @@",
"  @@  @@......  ..$$  ....    ..    @@..  @@  ..>>##@@      $$  ..@@..**    ..@@    ++@@@@++  @@@@        @@  @@  ..##..@@@@  @@",
"%%  ......##........@@  @@........%%  ....++@@++....  ..    ......@@@@      @@%%++        @@    @@@@    @@%%@@  @@@@  @@..  @@**",
"%%  ......##........@@  @@........%%  ....++@@++....  ..    ......@@@@      @@%%++        @@    @@@@    @@%%@@  @@@@  @@..  @@**",
"@@    ..      ......@@    ......      ..  ..    ......  %%      ....@@          %%@@        @@          @@@@@@    @@        @@@@",
"@@    ..      ......@@    ......      ..  ..    ......  %%      ....@@          %%@@        @@          @@@@@@    @@        @@@@",
"&&@@      %%@@  ....  @@        @@%%@@..  @@@@    @@    ++@@@@@@    ++++%%%%@@  ++++        ++@@@@      %%@@@@@@@@%%++%%@@  %%++",
"&&@@      %%@@  ....  @@        @@%%@@..  @@@@    @@    ++@@@@@@    ++++%%%%@@  ++++        ++@@@@      %%@@@@@@@@%%++%%@@  %%++",
"@@  ..@@@@;;@@  ....@@@@        @@++  ....  %%@@%%@@  @@@@          ++  @@@@;;@@%%%%@@@@    ;;@@@@  @@@@++%%  @@  @@++@@@@@@@@%%",
"@@  ..@@@@;;@@  ....@@@@        @@++  ....  %%@@%%@@  @@@@          ++  @@@@;;@@%%%%@@@@    ;;@@@@  @@@@++%%  @@  @@++@@@@@@@@%%",
"@@..  ..  %%@@    ..  ;;@@      @@--@@  ....++        @@%%@@      @@%%@@@@@@%%++;;@@@@@@    **%%@@@@    ++@@@@%%  %%--@@@@&&  --",
"@@..  ..  %%@@    ..  ;;@@      @@--@@  ....++        @@%%@@      @@%%@@@@@@%%++;;@@@@@@    **%%@@@@    ++@@@@%%  %%--@@@@&&  --",
"**@@@@  %%****%%%%%%--  --@@  @@==@@**@@%%%%@@  %%;;%%**@@@@**  @@--  **@@@@%%++@@++@@@@%%%%  @@;;@@@@++@@**%%%%++@@@@**@@++**++",
"**@@@@  %%****%%%%%%--  --@@  @@==@@**@@%%%%@@  %%;;%%**@@@@**  @@--  **@@@@%%++@@++@@@@%%%%  @@;;@@@@++@@**%%%%++@@@@**@@++**++",
"@@    ....@@    ####$$##        ..%%@@    ..@@@@            @@@@%%          @@  ;;@@  @@    @@    ....  @@;;@@@@      @@        ",
"@@    ....@@    ####$$##        ..%%@@    ..@@@@            @@@@%%          @@  ;;@@  @@    @@    ....  @@;;@@@@      @@        ",
"%%......%%  @@    %%  ..  ..@@..%%  @@..  @@%%@@    @@@@  %%      ;;  @@    @@;;@@@@@@  @@    %%      ++@@@@      **..;;  %%  **",
"%%......%%  @@    %%  ..  ..@@..%%  @@..  @@%%@@    @@@@  %%      ;;  @@    @@;;@@@@@@  @@    %%      ++@@@@      **..;;  %%  **",
"    ..@@++@@  ......  @@  ....  @@@@        @@            @@        @@@@@@@@@@@@@@@@@@    @@;;++@@      @@@@@@    %%@@@@  @@@@@@",
"    ..@@++@@  ......  @@  ....  @@@@        @@            @@        @@@@@@@@@@@@@@@@@@    @@;;++@@      @@@@@@    %%@@@@  @@@@@@",
"@@  ..  ++%%  ....##%%@@  ..  ..@@@@@@    ..%%@@        %%@@        %%@@@@  @@  %%%%@@@@@@  %%;;@@      ;;%%@@    @@++@@      %%",
"@@  ..  ++%%  ....##%%@@  ..  ..@@@@@@    ..%%@@        %%@@        %%@@@@  @@  %%%%@@@@@@  %%;;@@      ;;%%@@    @@++@@      %%",
"@@  ....++@@      ..@@@@  ..  ..@@%%@@@@  ..@@@@    @@@@++@@@@@@    ++%%@@  @@@@%%%%@@@@@@@@%%%%@@@@    @@%%%%@@  @@%%@@  @@  ++",
"@@  ....++@@      ..@@@@  ..  ..@@%%@@@@  ..@@@@    @@@@++@@@@@@    ++%%@@  @@@@%%%%@@@@@@@@%%%%@@@@    @@%%%%@@  @@%%@@  @@  ++"};
