/* XPM */
static char * stone_floor_xpm[] = {
"128 128 6 1",
" 	c #374744",
".	c #546963",
"+	c #7A9C83",
"@	c #11041F",
"#	c #0E1534",
"$	c #20374B",
"    ........++++++++++++++++++++....        ................@@@@@@@@@@@@@@@@@@@@############$$$$$$$$                $$$$####$$$$",
"    ........++++++++++++++++++++....        ................@@@@@@@@@@@@@@@@@@@@############$$$$$$$$                $$$$####$$$$",
"    ........++++++++++++++++++++....        ................@@@@@@@@@@@@@@@@@@@@############$$$$$$$$                $$$$####$$$$",
"    ........++++++++++++++++++++....        ................@@@@@@@@@@@@@@@@@@@@############$$$$$$$$                $$$$####$$$$",
"####$$$$        ....++++++++++++++++++++++++++++........    @@@@@@@@####$$$$                                $$$$$$$$        $$$$",
"####$$$$        ....++++++++++++++++++++++++++++........    @@@@@@@@####$$$$                                $$$$$$$$        $$$$",
"####$$$$        ....++++++++++++++++++++++++++++........    @@@@@@@@####$$$$                                $$$$$$$$        $$$$",
"####$$$$        ....++++++++++++++++++++++++++++........    @@@@@@@@####$$$$                                $$$$$$$$        $$$$",
"################$$$$        ........++++++++........    ####@@@@@@@@$$$$$$$$                                                    ",
"################$$$$        ........++++++++........    ####@@@@@@@@$$$$$$$$                                                    ",
"################$$$$        ........++++++++........    ####@@@@@@@@$$$$$$$$                                                    ",
"################$$$$        ........++++++++........    ####@@@@@@@@$$$$$$$$                                                    ",
"####@@@@@@@@@@@@@@@@@@@@########$$$$$$$$$$$$$$$$################@@@@    $$$$$$$$$$$$                                            ",
"####@@@@@@@@@@@@@@@@@@@@########$$$$$$$$$$$$$$$$################@@@@    $$$$$$$$$$$$                                            ",
"####@@@@@@@@@@@@@@@@@@@@########$$$$$$$$$$$$$$$$################@@@@    $$$$$$$$$$$$                                            ",
"####@@@@@@@@@@@@@@@@@@@@########$$$$$$$$$$$$$$$$################@@@@    $$$$$$$$$$$$                                            ",
"########@@@@@@@@@@@@@@@@@@@@@@@@@@@@################$$$$############....                                                        ",
"########@@@@@@@@@@@@@@@@@@@@@@@@@@@@################$$$$############....                                                        ",
"########@@@@@@@@@@@@@@@@@@@@@@@@@@@@################$$$$############....                                                        ",
"########@@@@@@@@@@@@@@@@@@@@@@@@@@@@################$$$$############....                                                        ",
"############$$$$                            $$$$####$$$$$$$$########....++++++++....                ........................    ",
"############$$$$                            $$$$####$$$$$$$$########....++++++++....                ........................    ",
"############$$$$                            $$$$####$$$$$$$$########....++++++++....                ........................    ",
"############$$$$                            $$$$####$$$$$$$$########....++++++++....                ........................    ",
"$$$$                                            $$$$$$$$$$$$########$$$$....++++++++++++++++++++++++++++++++........    $$$$####",
"$$$$                                            $$$$$$$$$$$$########$$$$....++++++++++++++++++++++++++++++++........    $$$$####",
"$$$$                                            $$$$$$$$$$$$########$$$$....++++++++++++++++++++++++++++++++........    $$$$####",
"$$$$                                            $$$$$$$$$$$$########$$$$....++++++++++++++++++++++++++++++++........    $$$$####",
"$$$$                                                $$$$$$$$$$$$########    ....++++++++++++................    $$$$####$$$$$$$$",
"$$$$                                                $$$$$$$$$$$$########    ....++++++++++++................    $$$$####$$$$$$$$",
"$$$$                                                $$$$$$$$$$$$########    ....++++++++++++................    $$$$####$$$$$$$$",
"$$$$                                                $$$$$$$$$$$$########    ....++++++++++++................    $$$$####$$$$$$$$",
"$$$$$$$$                                            ####$$$$$$$$$$$$########    ................        $$$$####                ",
"$$$$$$$$                                            ####$$$$$$$$$$$$########    ................        $$$$####                ",
"$$$$$$$$                                            ####$$$$$$$$$$$$########    ................        $$$$####                ",
"$$$$$$$$                                            ####$$$$$$$$$$$$########    ................        $$$$####                ",
"                                                    ########$$$$$$$$############$$$$            $$$$########$$$$                ",
"                                                    ########$$$$$$$$############$$$$            $$$$########$$$$                ",
"                                                    ########$$$$$$$$############$$$$            $$$$########$$$$                ",
"                                                    ########$$$$$$$$############$$$$            $$$$########$$$$                ",
"                                    ............    ################################@@@@@@@@@@@@@@@@####$$$$                    ",
"                                    ............    ################################@@@@@@@@@@@@@@@@####$$$$                    ",
"                                    ............    ################################@@@@@@@@@@@@@@@@####$$$$                    ",
"                                    ............    ################################@@@@@@@@@@@@@@@@####$$$$                    ",
"                        ....................    $$$$$$$$####$$$$                    $$$$####@@@@@@@@@@@@    ............        ",
"                        ....................    $$$$$$$$####$$$$                    $$$$####@@@@@@@@@@@@    ............        ",
"                        ....................    $$$$$$$$####$$$$                    $$$$####@@@@@@@@@@@@    ............        ",
"                        ....................    $$$$$$$$####$$$$                    $$$$####@@@@@@@@@@@@    ............        ",
"....................................    $$$$####$$$$                        $$$$$$$$        $$$$@@@@@@@@    ....++++++++++++....",
"....................................    $$$$####$$$$                        $$$$$$$$        $$$$@@@@@@@@    ....++++++++++++....",
"....................................    $$$$####$$$$                        $$$$$$$$        $$$$@@@@@@@@    ....++++++++++++....",
"....................................    $$$$####$$$$                        $$$$$$$$        $$$$@@@@@@@@    ....++++++++++++....",
"++++++++++++++++................    ########$$$$                                                ####@@@@####    ....++++++++++++",
"++++++++++++++++................    ########$$$$                                                ####@@@@####    ....++++++++++++",
"++++++++++++++++................    ########$$$$                                                ####@@@@####    ....++++++++++++",
"++++++++++++++++................    ########$$$$                                                ####@@@@####    ....++++++++++++",
"                        $$$$############$$$$                                                    ####@@@@@@@@####$$$$$$$$        ",
"                        $$$$############$$$$                                                    ####@@@@@@@@####$$$$$$$$        ",
"                        $$$$############$$$$                                                    ####@@@@@@@@####$$$$$$$$        ",
"                        $$$$############$$$$                                                    ####@@@@@@@@####$$$$$$$$        ",
"############@@@@@@@@####@@@@@@@@####$$$$    ....                                                ####@@@@@@@@@@@@@@@@############",
"############@@@@@@@@####@@@@@@@@####$$$$    ....                                                ####@@@@@@@@@@@@@@@@############",
"############@@@@@@@@####@@@@@@@@####$$$$    ....                                                ####@@@@@@@@@@@@@@@@############",
"############@@@@@@@@####@@@@@@@@####$$$$    ....                                                ####@@@@@@@@@@@@@@@@############",
"$$$$############@@@@@@@@@@@@@@@@    ........                                        ........$$$$####@@@@@@@@@@@@$$$$$$$$$$$$$$$$",
"$$$$############@@@@@@@@@@@@@@@@    ........                                        ........$$$$####@@@@@@@@@@@@$$$$$$$$$$$$$$$$",
"$$$$############@@@@@@@@@@@@@@@@    ........                                        ........$$$$####@@@@@@@@@@@@$$$$$$$$$$$$$$$$",
"$$$$############@@@@@@@@@@@@@@@@    ........                                        ........$$$$####@@@@@@@@@@@@$$$$$$$$$$$$$$$$",
"            $$$$####@@@@@@@@@@@@............                    ........................    ########$$$$                        ",
"            $$$$####@@@@@@@@@@@@............                    ........................    ########$$$$                        ",
"            $$$$####@@@@@@@@@@@@............                    ........................    ########$$$$                        ",
"            $$$$####@@@@@@@@@@@@............                    ........................    ########$$$$                        ",
"                    $$$$@@@@@@@@....++++++++........................................    ########$$$$                            ",
"                    $$$$@@@@@@@@....++++++++........................................    ########$$$$                            ",
"                    $$$$@@@@@@@@....++++++++........................................    ########$$$$                            ",
"                    $$$$@@@@@@@@....++++++++........................................    ########$$$$                            ",
"                        $$$$####    ....++++++++++++++++++++++++++++........    $$$$####@@@@@@@@                                ",
"                        $$$$####    ....++++++++++++++++++++++++++++........    $$$$####@@@@@@@@                                ",
"                        $$$$####    ....++++++++++++++++++++++++++++........    $$$$####@@@@@@@@                                ",
"                        $$$$####    ....++++++++++++++++++++++++++++........    $$$$####@@@@@@@@                                ",
"                ............########        ................        $$$$####@@@@@@@@@@@@@@@@####    ........                    ",
"                ............########        ................        $$$$####@@@@@@@@@@@@@@@@####    ........                    ",
"                ............########        ................        $$$$####@@@@@@@@@@@@@@@@####    ........                    ",
"                ............########        ................        $$$$####@@@@@@@@@@@@@@@@####    ........                    ",
"            ............    ############################################@@@@@@@@@@@@@@@@############    ................        ",
"            ............    ############################################@@@@@@@@@@@@@@@@############    ................        ",
"            ............    ############################################@@@@@@@@@@@@@@@@############    ................        ",
"            ............    ############################################@@@@@@@@@@@@@@@@############    ................        ",
"++++............        ####$$$$$$$$$$$$####################$$$$                            $$$$########    ++++++++++++++++++++",
"++++............        ####$$$$$$$$$$$$####################$$$$                            $$$$########    ++++++++++++++++++++",
"++++............        ####$$$$$$$$$$$$####################$$$$                            $$$$########    ++++++++++++++++++++",
"++++............        ####$$$$$$$$$$$$####################$$$$                            $$$$########    ++++++++++++++++++++",
"........$$$$$$$$################$$$$$$$$$$$$$$$$$$$$####$$$$                                $$$$$$$$$$$$####    ....++++++++++++",
"........$$$$$$$$################$$$$$$$$$$$$$$$$$$$$####$$$$                                $$$$$$$$$$$$####    ....++++++++++++",
"........$$$$$$$$################$$$$$$$$$$$$$$$$$$$$####$$$$                                $$$$$$$$$$$$####    ....++++++++++++",
"........$$$$$$$$################$$$$$$$$$$$$$$$$$$$$####$$$$                                $$$$$$$$$$$$####    ....++++++++++++",
"$$$$$$$$$$$$                $$$$########################                                $$$$$$$$            $$$$$$$$$$$$$$$$$$$$",
"$$$$$$$$$$$$                $$$$########################                                $$$$$$$$            $$$$$$$$$$$$$$$$$$$$",
"$$$$$$$$$$$$                $$$$########################                                $$$$$$$$            $$$$$$$$$$$$$$$$$$$$",
"$$$$$$$$$$$$                $$$$########################                                $$$$$$$$            $$$$$$$$$$$$$$$$$$$$",
"        $$$$$$$$$$$$                    $$$$############                                                        ####@@@@$$$$    ",
"        $$$$$$$$$$$$                    $$$$############                                                        ####@@@@$$$$    ",
"        $$$$$$$$$$$$                    $$$$############                                                        ####@@@@$$$$    ",
"        $$$$$$$$$$$$                    $$$$############                                                        ####@@@@$$$$    ",
"                    $$$$                        $$$$####$$$$                                                    @@@@@@@@        ",
"                    $$$$                        $$$$####$$$$                                                    @@@@@@@@        ",
"                    $$$$                        $$$$####$$$$                                                    @@@@@@@@        ",
"                    $$$$                        $$$$####$$$$                                                    @@@@@@@@        ",
"                                                    $$$$####    ....                                            @@@@@@@@        ",
"                                                    $$$$####    ....                                            @@@@@@@@        ",
"                                                    $$$$####    ....                                            @@@@@@@@        ",
"                                                    $$$$####    ....                                            @@@@@@@@        ",
"                                                        ####$$$$........                                ........@@@@@@@@        ",
"                                                        ####$$$$........                                ........@@@@@@@@        ",
"                                                        ####$$$$........                                ........@@@@@@@@        ",
"                                                        ####$$$$........                                ........@@@@@@@@        ",
"                                                        $$$$####    ....++++....                ............    @@@@@@@@        ",
"                                                        $$$$####    ....++++....                ............    @@@@@@@@        ",
"                                                        $$$$####    ....++++....                ............    @@@@@@@@        ",
"                                                        $$$$####    ....++++....                ............    @@@@@@@@        ",
"........                                            ....    @@@@####    ....++++++++++++++++............    ####@@@@@@@@$$$$....",
"........                                            ....    @@@@####    ....++++++++++++++++............    ####@@@@@@@@$$$$....",
"........                                            ....    @@@@####    ....++++++++++++++++............    ####@@@@@@@@$$$$....",
"........                                            ....    @@@@####    ....++++++++++++++++............    ####@@@@@@@@$$$$....",
"....................                                ........@@@@@@@@@@@@$$$$    ................    $$$$####################    ",
"....................                                ........@@@@@@@@@@@@$$$$    ................    $$$$####################    ",
"....................                                ........@@@@@@@@@@@@$$$$    ................    $$$$####################    ",
"....................                                ........@@@@@@@@@@@@$$$$    ................    $$$$####################    "};
