/* XPM */
static char * tech2_xpm[] = {
"128 128 11 1",
" 	c #ADBBBC",
".	c #809EA5",
"+	c #6D8084",
"@	c #5B6567",
"#	c #495254",
"$	c #49383D",
"%	c #2F231E",
"&	c #BD971B",
"*	c #3D241E",
"=	c #000000",
"-	c #242423",
"      ............++........++..++..++..++..++++++++++++..++..++..++..............................................++........++..",
"      ............++........++..++..++..++..++++++++++++..++..++..++..............................................++........++..",
"..@@@@@@@@@@@@@@@@@@@@@@@@@@@@@@@@@@@@@@@@@@@@@@@@@@@@@@@@@@@@@@@@@@@@@@@@@@@@@@@@@@@@@@@@@@@@@@@@@@@@@@@@@@@@@@@@@@@@@@@@@@@@@@",
"..@@@@@@@@@@@@@@@@@@@@@@@@@@@@@@@@@@@@@@@@@@@@@@@@@@@@@@@@@@@@@@@@@@@@@@@@@@@@@@@@@@@@@@@@@@@@@@@@@@@@@@@@@@@@@@@@@@@@@@@@@@@@@@",
"..@@@@@@@@@@@@@@@@@@@@@@@@@@@@@@@@@@@@@@@@@@@@@@@@@@@@@@@@@@@@@@@@@@@@@@@@@@@@@@@@@@@@@@@@@@@@@@@@@@@@@@@@@@@@@@@@@@@@@@@@@@@@##",
"..@@@@@@@@@@@@@@@@@@@@@@@@@@@@@@@@@@@@@@@@@@@@@@@@@@@@@@@@@@@@@@@@@@@@@@@@@@@@@@@@@@@@@@@@@@@@@@@@@@@@@@@@@@@@@@@@@@@@@@@@@@@@##",
"++@@$$..##@@@@@@@@@@@@@@@@@@@@@@@@@@@@@@@@@@@@@@@@@@@@@@@@@@@@@@@@@@@@@@@@@@@@@@@@@@@@@@@@@@@@@@@@@@@@@@@@@@@@@@@@@@$$..##@@@@@@",
"++@@$$..##@@@@@@@@@@@@@@@@@@@@@@@@@@@@@@@@@@@@@@@@@@@@@@@@@@@@@@@@@@@@@@@@@@@@@@@@@@@@@@@@@@@@@@@@@@@@@@@@@@@@@@@@@@$$..##@@@@@@",
"..@@$$####@@@@@@@@@@@@@@@@@@@@@@@@@@@@@@@@@@@@@@@@@@@@@@@@@@@@@@@@@@@@@@@@@@@@@@@@@@@@@@@@@@@@@@@@@@@@@@@@@@@@@@@@@@$$####@@@@##",
"..@@$$####@@@@@@@@@@@@@@@@@@@@@@@@@@@@@@@@@@@@@@@@@@@@@@@@@@@@@@@@@@@@@@@@@@@@@@@@@@@@@@@@@@@@@@@@@@@@@@@@@@@@@@@@@@$$####@@@@##",
"++@@$$$$@@@@@@@@@@@@@@@@@@@@@@@@@@@@@@@@@@@@@@@@@@@@@@@@@@@@@@@@@@@@@@@@@@@@@@@@@@@@@@@@@@@@@@@@@@@@@@@@@@@@@@@@@@@@$$$$@@@@@@@@",
"++@@$$$$@@@@@@@@@@@@@@@@@@@@@@@@@@@@@@@@@@@@@@@@@@@@@@@@@@@@@@@@@@@@@@@@@@@@@@@@@@@@@@@@@@@@@@@@@@@@@@@@@@@@@@@@@@@@$$$$@@@@@@@@",
"++@@@@@@@@@@@@@@@@@@@@@@@@@@@@@@@@@@@@@@@@@@@@@@@@@@@@@@@@@@@@@@@@@@@@@@@@@@@@@@@@@@@@@@@@@@@@@@@@@@@@@@@@@@@@@@@@@@@@@@@@@@@@##",
"++@@@@@@@@@@@@@@@@@@@@@@@@@@@@@@@@@@@@@@@@@@@@@@@@@@@@@@@@@@@@@@@@@@@@@@@@@@@@@@@@@@@@@@@@@@@@@@@@@@@@@@@@@@@@@@@@@@@@@@@@@@@@##",
"++@@@@@@@@@@@@@@@@@@@@@@@@@@@@@@@@@@@@@@@@@@@@@@@@@@@@@@@@@@@@@@@@@@@@@@@@@@@@@@@@@@@@@@@@@@@@@@@@@@@@@@@@@@@@@@@@@@@@@@@@@@@@##",
"++@@@@@@@@@@@@@@@@@@@@@@@@@@@@@@@@@@@@@@@@@@@@@@@@@@@@@@@@@@@@@@@@@@@@@@@@@@@@@@@@@@@@@@@@@@@@@@@@@@@@@@@@@@@@@@@@@@@@@@@@@@@@##",
"@@@@@@@@@@@@@@@@%%%%$$$$$$$$$$$$$$##$$##$$$$$$$$$$$$$$$$$$$$$$$$$$$$$$$$$$$$$$$$$$$$$$$$$$$$$$$$$$##$$##$$######@@@@@@@@@@@@@@##",
"@@@@@@@@@@@@@@@@%%%%$$$$$$$$$$$$$$##$$##$$$$$$$$$$$$$$$$$$$$$$$$$$$$$$$$$$$$$$$$$$$$$$$$$$$$$$$$$$##$$##$$######@@@@@@@@@@@@@@##",
"++@@@@@@@@@@@@@@$$##@@@@@@@@@@@@@@@@@@@@@@@@@@@@@@@@@@@@@@@@@@@@@@@@@@@@@@@@@@@@@@@@@@@@@@@@@@@@@@@@@@@@@@@@@@@@@@@@@@@@@@@@@@##",
"++@@@@@@@@@@@@@@$$##@@@@@@@@@@@@@@@@@@@@@@@@@@@@@@@@@@@@@@@@@@@@@@@@@@@@@@@@@@@@@@@@@@@@@@@@@@@@@@@@@@@@@@@@@@@@@@@@@@@@@@@@@@##",
"@@@@@@@@@@@@@@@@##@@########################################################################################@@++@@@@@@@@@@@@@@##",
"@@@@@@@@@@@@@@@@##@@########################################################################################@@++@@@@@@@@@@@@@@##",
"++@@@@@@@@@@@@@@$$@@########################################################################################@@@@@@@@@@@@@@@@@@##",
"++@@@@@@@@@@@@@@$$@@########################################################################################@@@@@@@@@@@@@@@@@@##",
"++@@@@@@@@@@@@@@##@@@@@@@@@@@@@@@@@@@@@@@@@@@@@@@@@@@@@@@@@@@@@@@@@@@@@@@@@@@@@@@@@@@@@@@@@@@@@@@@@@@@@@@@@@@@++@@@@@@@@@@@@@@$$",
"++@@@@@@@@@@@@@@##@@@@@@@@@@@@@@@@@@@@@@@@@@@@@@@@@@@@@@@@@@@@@@@@@@@@@@@@@@@@@@@@@@@@@@@@@@@@@@@@@@@@@@@@@@@@++@@@@@@@@@@@@@@$$",
"++@@@@@@@@@@@@@@$$@@########################################################################################@@++@@@@@@@@@@@@@@##",
"++@@@@@@@@@@@@@@$$@@########################################################################################@@++@@@@@@@@@@@@@@##",
"++@@@@@@@@@@@@@@##@@@@@@@@@@@@@@@@@@@@@@@@@@@@@@@@@@@@@@@@@@@@@@@@@@@@@@@@@@@@@@@@@@@@@@@@@@@@@@@@@@@@@@@@@@@@++@@@@@@@@@@@@@@$$",
"++@@@@@@@@@@@@@@##@@@@@@@@@@@@@@@@@@@@@@@@@@@@@@@@@@@@@@@@@@@@@@@@@@@@@@@@@@@@@@@@@@@@@@@@@@@@@@@@@@@@@@@@@@@@++@@@@@@@@@@@@@@$$",
"++@@@@@@@@@@@@@@##@@@@@@@@@@@@@@@@@@@@@@@@@@@@@@@@@@@@@@@@@@@@@@@@@@@@@@@@@@@@@@@@@@@@@@@@@@@@@@@@@@@@@@@@@@@@++@@@@@@@@@@@@@@$$",
"++@@@@@@@@@@@@@@##@@@@@@@@@@@@@@@@@@@@@@@@@@@@@@@@@@@@@@@@@@@@@@@@@@@@@@@@@@@@@@@@@@@@@@@@@@@@@@@@@@@@@@@@@@@@++@@@@@@@@@@@@@@$$",
"@@@@@@@@@@@@@@@@##@@@@@@@@@@@@@@@@@@@@@@@@@@@@@@@@@@@@@@@@@@@@@@@@@@@@@@@@@@@@@@@@@@@@@@@@@@@@@@@@@@@@@@@@@@@@++@@@@@@@@@@@@@@$$",
"@@@@@@@@@@@@@@@@##@@@@@@@@@@@@@@@@@@@@@@@@@@@@@@@@@@@@@@@@@@@@@@@@@@@@@@@@@@@@@@@@@@@@@@@@@@@@@@@@@@@@@@@@@@@@++@@@@@@@@@@@@@@$$",
"++@@@@@@@@@@@@@@##@@@@@@@@@@@@@@@@@@@@@@@@@@@@@@@@@@@@@@@@@@@@@@@@@@@@@@@@@@@@@@@@@@@@@@@@@@@@@@@@@@@@@@@@@@@@..@@@@@@@@@@@@@@$$",
"++@@@@@@@@@@@@@@##@@@@@@@@@@@@@@@@@@@@@@@@@@@@@@@@@@@@@@@@@@@@@@@@@@@@@@@@@@@@@@@@@@@@@@@@@@@@@@@@@@@@@@@@@@@@..@@@@@@@@@@@@@@$$",
"++@@@@@@@@@@@@@@##@@@@@@@@@@@@@@@@@@@@@@@@@@@@@@@@@@@@@@@@@@@@@@@@@@@@@@@@@@@@@@@@@@@@@@@@@@@@@@@@@@@@@@@@@@@@++@@@@@@@@@@@@@@$$",
"++@@@@@@@@@@@@@@##@@@@@@@@@@@@@@@@@@@@@@@@@@@@@@@@@@@@@@@@@@@@@@@@@@@@@@@@@@@@@@@@@@@@@@@@@@@@@@@@@@@@@@@@@@@@++@@@@@@@@@@@@@@$$",
"++@@@@@@@@@@@@@@##@@@@&&&&&&&&&&&&&&&&&&&&&&&&&&&&&&&&&&&&&&&&&&&&&&&&&&&&&&&&&&&&&&&&&&&&&&&&&&&&@@&&&&&&@@@@..@@@@@@@@@@@@@@$$",
"++@@@@@@@@@@@@@@##@@@@&&&&&&&&&&&&&&&&&&&&&&&&&&&&&&&&&&&&&&&&&&&&&&&&&&&&&&&&&&&&&&&&&&&&&&&&&&&&@@&&&&&&@@@@..@@@@@@@@@@@@@@$$",
"++@@@@@@@@@@@@@@##@@@@&&&&&&&&&&&&&&&&&&&&&&&&&&&&&&&&&&&&&&&&&&&&&&&&&&&&&&&&&&&&&&&&&&&&&&&&&&&&@@&&&&&&@@@@++@@@@@@@@@@@@@@**",
"++@@@@@@@@@@@@@@##@@@@&&&&&&&&&&&&&&&&&&&&&&&&&&&&&&&&&&&&&&&&&&&&&&&&&&&&&&&&&&&&&&&&&&&&&&&&&&&&@@&&&&&&@@@@++@@@@@@@@@@@@@@**",
"++@@@@@@@@@@@@@@##@@@@&&&&&&&&&&&&&&&&&&&&&&&&&&&&&&&&&&&&&&&&&&&&&&&&&&&&&&&&&&&&&&&&&&&&&&&&&&&&@@&&&&&&@@@@..@@@@@@@@@@@@@@$$",
"++@@@@@@@@@@@@@@##@@@@&&&&&&&&&&&&&&&&&&&&&&&&&&&&&&&&&&&&&&&&&&&&&&&&&&&&&&&&&&&&&&&&&&&&&&&&&&&&@@&&&&&&@@@@..@@@@@@@@@@@@@@$$",
"++@@@@@@@@@@@@@@##@@@@@@@@@@@@@@@@@@@@@@@@@@@@@@@@@@@@@@@@@@@@@@@@@@@@@@@@@@@@@@@@@@@@@@@@@@@@@@@@@@@@@@@@@@@@..@@@@@@@@@@@@@@**",
"++@@@@@@@@@@@@@@##@@@@@@@@@@@@@@@@@@@@@@@@@@@@@@@@@@@@@@@@@@@@@@@@@@@@@@@@@@@@@@@@@@@@@@@@@@@@@@@@@@@@@@@@@@@@..@@@@@@@@@@@@@@**",
"++@@@@@@@@@@@@@@##@@@@@@@@@@@@@@@@@@@@@@@@@@@@@@@@@@@@@@@@@@@@@@@@@@@@@@@@@@@@@@@@@@@@@@@@@@@@@@@@@@@@@@@@@@@@..@@@@@@@@@@@@@@**",
"++@@@@@@@@@@@@@@##@@@@@@@@@@@@@@@@@@@@@@@@@@@@@@@@@@@@@@@@@@@@@@@@@@@@@@@@@@@@@@@@@@@@@@@@@@@@@@@@@@@@@@@@@@@@..@@@@@@@@@@@@@@**",
"++@@@@@@@@@@@@@@@@++++++++........................++..++......................................++..++....        @@@@@@@@@@@@@@**",
"++@@@@@@@@@@@@@@@@++++++++........................++..++......................................++..++....        @@@@@@@@@@@@@@**",
"++@@@@@@@@@@@@@@@@@@@@@@@@@@@@@@@@@@@@@@@@@@@@@@@@@@@@@@@@@@@@@@@@@@@@@@@@@@@@@@@@@@@@@@@@@@@@@@@@@@@@@@@@@@@@@@@@@@@@@@@@@@@@**",
"++@@@@@@@@@@@@@@@@@@@@@@@@@@@@@@@@@@@@@@@@@@@@@@@@@@@@@@@@@@@@@@@@@@@@@@@@@@@@@@@@@@@@@@@@@@@@@@@@@@@@@@@@@@@@@@@@@@@@@@@@@@@@**",
"@@@@@@@@@@@@@@@@@@##$$####$$##$$##$$$$$$$$$$$$$$##@@@@@@@@@@@@@@@@@@@@@@@@@@@@##$$$$$$$$$$$$$$$$$$$$##$$##$$##@@@@@@@@@@@@@@@@**",
"@@@@@@@@@@@@@@@@@@##$$####$$##$$##$$$$$$$$$$$$$$##@@@@@@@@@@@@@@@@@@@@@@@@@@@@##$$$$$$$$$$$$$$$$$$$$##$$##$$##@@@@@@@@@@@@@@@@**",
"++@@$$..##@@@@@@##$$==================--==--==--$$##@@@@@@@@@@@@@@@@@@@@@@@@##$$==================--==--==--$$##@@@@$$..##@@@@**",
"++@@$$..##@@@@@@##$$==================--==--==--$$##@@@@@@@@@@@@@@@@@@@@@@@@##$$==================--==--==--$$##@@@@$$..##@@@@**",
"@@@@$$####@@@@@@$$==============--==--==--==--==--++@@@@@@@@@@@@@@@@@@@@@@@@$$==============--==--==--==--==--++@@@@$$####@@@@**",
"@@@@$$####@@@@@@$$==============--==--==--==--==--++@@@@@@@@@@@@@@@@@@@@@@@@$$==============--==--==--==--==--++@@@@$$####@@@@**",
"++@@$$$$@@@@@@@@++--==--==--==--==--==--==--------++@@@@@@@@@@@@@@@@@@@@@@@@++--==--==--==--==--==--==--------++@@@@$$$$@@@@@@**",
"++@@$$$$@@@@@@@@++--==--==--==--==--==--==--------++@@@@@@@@@@@@@@@@@@@@@@@@++--==--==--==--==--==--==--------++@@@@$$$$@@@@@@**",
"@@@@@@@@@@@@@@@@@@++..++++++++..++..++..........++@@@@@@@@@@@@@@@@@@@@@@@@@@@@++..++++++++..++..++..........++@@@@@@@@@@@@@@@@**",
"@@@@@@@@@@@@@@@@@@++..++++++++..++..++..........++@@@@@@@@@@@@@@@@@@@@@@@@@@@@++..++++++++..++..++..........++@@@@@@@@@@@@@@@@**",
"$$************$$**$$**$$$$$$$$$$$$$$**$$******$$**$$********$$**$$$$$$$$$$$$$$$$**$$**$$$$**$$**$$******************************",
"$$************$$**$$**$$$$$$$$$$$$$$**$$******$$**$$********$$**$$$$$$$$$$$$$$$$**$$**$$$$**$$**$$******************************",
"      ............++........++..++..++..++..++++++++++++..++..++..++..............................................++........++..",
"      ............++........++..++..++..++..++++++++++++..++..++..++..............................................++........++..",
"..@@@@@@@@@@@@@@@@@@@@@@@@@@@@@@@@@@@@@@@@@@@@@@@@@@@@@@@@@@@@@@@@@@@@@@@@@@@@@@@@@@@@@@@@@@@@@@@@@@@@@@@@@@@@@@@@@@@@@@@@@@@@@@",
"..@@@@@@@@@@@@@@@@@@@@@@@@@@@@@@@@@@@@@@@@@@@@@@@@@@@@@@@@@@@@@@@@@@@@@@@@@@@@@@@@@@@@@@@@@@@@@@@@@@@@@@@@@@@@@@@@@@@@@@@@@@@@@@",
"..@@@@@@@@@@@@@@@@@@@@@@@@@@@@@@@@@@@@@@@@@@@@@@@@@@@@@@@@@@@@@@@@@@@@@@@@@@@@@@@@@@@@@@@@@@@@@@@@@@@@@@@@@@@@@@@@@@@@@@@@@@@@##",
"..@@@@@@@@@@@@@@@@@@@@@@@@@@@@@@@@@@@@@@@@@@@@@@@@@@@@@@@@@@@@@@@@@@@@@@@@@@@@@@@@@@@@@@@@@@@@@@@@@@@@@@@@@@@@@@@@@@@@@@@@@@@@##",
"++@@$$..##@@@@@@@@@@@@@@@@@@@@@@@@@@@@@@@@@@@@@@@@@@@@@@@@@@@@@@@@@@@@@@@@@@@@@@@@@@@@@@@@@@@@@@@@@@@@@@@@@@@@@@@@@@$$..##@@@@@@",
"++@@$$..##@@@@@@@@@@@@@@@@@@@@@@@@@@@@@@@@@@@@@@@@@@@@@@@@@@@@@@@@@@@@@@@@@@@@@@@@@@@@@@@@@@@@@@@@@@@@@@@@@@@@@@@@@@$$..##@@@@@@",
"..@@$$####@@@@@@@@@@@@@@@@@@@@@@@@@@@@@@@@@@@@@@@@@@@@@@@@@@@@@@@@@@@@@@@@@@@@@@@@@@@@@@@@@@@@@@@@@@@@@@@@@@@@@@@@@@$$####@@@@##",
"..@@$$####@@@@@@@@@@@@@@@@@@@@@@@@@@@@@@@@@@@@@@@@@@@@@@@@@@@@@@@@@@@@@@@@@@@@@@@@@@@@@@@@@@@@@@@@@@@@@@@@@@@@@@@@@@$$####@@@@##",
"++@@$$$$@@@@@@@@@@@@@@@@@@@@@@@@@@@@@@@@@@@@@@@@@@@@@@@@@@@@@@@@@@@@@@@@@@@@@@@@@@@@@@@@@@@@@@@@@@@@@@@@@@@@@@@@@@@@$$$$@@@@@@@@",
"++@@$$$$@@@@@@@@@@@@@@@@@@@@@@@@@@@@@@@@@@@@@@@@@@@@@@@@@@@@@@@@@@@@@@@@@@@@@@@@@@@@@@@@@@@@@@@@@@@@@@@@@@@@@@@@@@@@$$$$@@@@@@@@",
"++@@@@@@@@@@@@@@@@@@@@@@@@@@@@@@@@@@@@@@@@@@@@@@@@@@@@@@@@@@@@@@@@@@@@@@@@@@@@@@@@@@@@@@@@@@@@@@@@@@@@@@@@@@@@@@@@@@@@@@@@@@@@##",
"++@@@@@@@@@@@@@@@@@@@@@@@@@@@@@@@@@@@@@@@@@@@@@@@@@@@@@@@@@@@@@@@@@@@@@@@@@@@@@@@@@@@@@@@@@@@@@@@@@@@@@@@@@@@@@@@@@@@@@@@@@@@@##",
"++@@@@@@@@@@@@@@@@@@@@@@@@@@@@@@@@@@@@@@@@@@@@@@@@@@@@@@@@@@@@@@@@@@@@@@@@@@@@@@@@@@@@@@@@@@@@@@@@@@@@@@@@@@@@@@@@@@@@@@@@@@@@##",
"++@@@@@@@@@@@@@@@@@@@@@@@@@@@@@@@@@@@@@@@@@@@@@@@@@@@@@@@@@@@@@@@@@@@@@@@@@@@@@@@@@@@@@@@@@@@@@@@@@@@@@@@@@@@@@@@@@@@@@@@@@@@@##",
"@@@@@@@@@@@@@@@@%%%%$$$$$$$$$$$$$$##$$##$$$$$$$$$$$$$$$$$$$$$$$$$$$$$$$$$$$$$$$$$$$$$$$$$$$$$$$$$$##$$##$$######@@@@@@@@@@@@@@##",
"@@@@@@@@@@@@@@@@%%%%$$$$$$$$$$$$$$##$$##$$$$$$$$$$$$$$$$$$$$$$$$$$$$$$$$$$$$$$$$$$$$$$$$$$$$$$$$$$##$$##$$######@@@@@@@@@@@@@@##",
"++@@@@@@@@@@@@@@$$##@@@@@@@@@@@@@@@@@@@@@@@@@@@@@@@@@@@@@@@@@@@@@@@@@@@@@@@@@@@@@@@@@@@@@@@@@@@@@@@@@@@@@@@@@@@@@@@@@@@@@@@@@@##",
"++@@@@@@@@@@@@@@$$##@@@@@@@@@@@@@@@@@@@@@@@@@@@@@@@@@@@@@@@@@@@@@@@@@@@@@@@@@@@@@@@@@@@@@@@@@@@@@@@@@@@@@@@@@@@@@@@@@@@@@@@@@@##",
"@@@@@@@@@@@@@@@@##@@##########################################################################@@##@@@@@@@@@@@@++@@@@@@@@@@@@@@##",
"@@@@@@@@@@@@@@@@##@@##########################################################################@@##@@@@@@@@@@@@++@@@@@@@@@@@@@@##",
"++@@@@@@@@@@@@@@$$@@############################################################################@@##@@##@@@@@@@@@@@@@@@@@@@@@@##",
"++@@@@@@@@@@@@@@$$@@############################################################################@@##@@##@@@@@@@@@@@@@@@@@@@@@@##",
"++@@@@@@@@@@@@@@##@@@@@@@@@@@@@@@@@@@@@@@@@@@@@@@@@@@@@@@@@@@@@@@@@@@@@@@@@@@@@@@@@@@@@@@@@@@@@@@@@@@@@@##@@@@++@@@@@@@@@@@@@@$$",
"++@@@@@@@@@@@@@@##@@@@@@@@@@@@@@@@@@@@@@@@@@@@@@@@@@@@@@@@@@@@@@@@@@@@@@@@@@@@@@@@@@@@@@@@@@@@@@@@@@@@@@##@@@@++@@@@@@@@@@@@@@$$",
"++@@@@@@@@@@@@@@$$@@##############################################################################@@##@@++####++@@@@@@@@@@@@@@##",
"++@@@@@@@@@@@@@@$$@@##############################################################################@@##@@++####++@@@@@@@@@@@@@@##",
"++@@@@@@@@@@@@@@##@@@@@@@@@@@@@@@@@@@@@@@@@@@@@@@@@@@@@@@@@@@@@@@@@@@@@@@@@@@@@@@@@@@@@@@@@@@@@@@@@@@@@@@@++##$$##@@@@@@@@@@@@$$",
"++@@@@@@@@@@@@@@##@@@@@@@@@@@@@@@@@@@@@@@@@@@@@@@@@@@@@@@@@@@@@@@@@@@@@@@@@@@@@@@@@@@@@@@@@@@@@@@@@@@@@@@@++##$$##@@@@@@@@@@@@$$",
"++@@@@@@@@@@@@@@##@@@@@@@@@@@@@@@@@@@@@@@@@@@@@@@@@@@@@@@@@@@@@@@@@@@@@@@@@@@@@@@@@@@@@@@@@@@@@@@@@@@@@@@@@@@@++##$$####@@@@@@**",
"++@@@@@@@@@@@@@@##@@@@@@@@@@@@@@@@@@@@@@@@@@@@@@@@@@@@@@@@@@@@@@@@@@@@@@@@@@@@@@@@@@@@@@@@@@@@@@@@@@@@@@@@@@@@++##$$####@@@@@@**",
"@@@@@@@@@@@@@@@@##@@@@@@@@@@@@@@@@@@@@@@@@@@@@@@@@@@@@@@@@@@@@@@@@@@@@@@@@@@@@@@@@@@@@@@@@@@@@@@@@@@@@@@@@@@@@++@@++..##$$####--",
"@@@@@@@@@@@@@@@@##@@@@@@@@@@@@@@@@@@@@@@@@@@@@@@@@@@@@@@@@@@@@@@@@@@@@@@@@@@@@@@@@@@@@@@@@@@@@@@@@@@@@@@@@@@@@++@@++..##$$####--",
"++@@@@@@@@@@@@@@##@@@@@@@@@@@@@@@@@@@@@@@@@@@@@@@@@@@@@@@@@@@@@@@@@@@@@@@@@@@@@@@@@@@@@@@@@@@@@@@@@@@@@@@@@@@@..@@@@@@@@++..##--",
"++@@@@@@@@@@@@@@##@@@@@@@@@@@@@@@@@@@@@@@@@@@@@@@@@@@@@@@@@@@@@@@@@@@@@@@@@@@@@@@@@@@@@@@@@@@@@@@@@@@@@@@@@@@@..@@@@@@@@++..##--",
"++@@@@@@@@@@@@@@##@@@@@@@@@@@@@@@@@@@@@@@@@@@@@@@@@@@@@@@@@@@@@@@@@@@@@@@@@@@@@@@@@@@@@@@@@@@@@@@@@@@@@@@@@@@@++@@@@@@@@@@@@@@**",
"++@@@@@@@@@@@@@@##@@@@@@@@@@@@@@@@@@@@@@@@@@@@@@@@@@@@@@@@@@@@@@@@@@@@@@@@@@@@@@@@@@@@@@@@@@@@@@@@@@@@@@@@@@@@++@@@@@@@@@@@@@@**",
"++@@@@@@@@@@@@@@##@@@@&&&&&&&&&&&&&&&&&&&&&&&&&&&&&&&&&&&&&&&&&&&&&&&&&&&&&&&&&&&&&&&&&&&&&&&&&&&&@@&&&&&&@@@@..@@@@@@@@@@@@@@$$",
"++@@@@@@@@@@@@@@##@@@@&&&&&&&&&&&&&&&&&&&&&&&&&&&&&&&&&&&&&&&&&&&&&&&&&&&&&&&&&&&&&&&&&&&&&&&&&&&&@@&&&&&&@@@@..@@@@@@@@@@@@@@$$",
"++@@@@@@@@@@@@@@##@@@@&&&&&&&&&&&&&&&&&&&&&&&&&&&&&&&&&&&&&&&&&&&&&&&&&&&&&&&&&&&&&&&&&&&&&&&&&&&&@@&&&&&&@@@@++@@@@@@@@@@@@@@**",
"++@@@@@@@@@@@@@@##@@@@&&&&&&&&&&&&&&&&&&&&&&&&&&&&&&&&&&&&&&&&&&&&&&&&&&&&&&&&&&&&&&&&&&&&&&&&&&&&@@&&&&&&@@@@++@@@@@@@@@@@@@@**",
"++@@@@@@@@@@@@@@##@@@@&&&&&&&&&&&&&&&&&&&&&&&&&&&&&&&&&&&&&&&&&&&&&&&&&&&&&&&&&&&&&&&&&&&&&&&&&&&&@@&&&&&&@@@@..@@@@@@@@@@@@@@$$",
"++@@@@@@@@@@@@@@##@@@@&&&&&&&&&&&&&&&&&&&&&&&&&&&&&&&&&&&&&&&&&&&&&&&&&&&&&&&&&&&&&&&&&&&&&&&&&&&&@@&&&&&&@@@@..@@@@@@@@@@@@@@$$",
"++@@@@@@@@@@@@@@##@@@@@@@@@@@@@@@@@@@@@@@@@@@@@@@@@@@@@@@@@@@@@@@@@@@@@@@@@@@@@@@@@@@@@@@@@@@@@@@@@@@@@@@@@@@@..@@@@@@@@@@@@@@**",
"++@@@@@@@@@@@@@@##@@@@@@@@@@@@@@@@@@@@@@@@@@@@@@@@@@@@@@@@@@@@@@@@@@@@@@@@@@@@@@@@@@@@@@@@@@@@@@@@@@@@@@@@@@@@..@@@@@@@@@@@@@@**",
"++@@@@@@@@@@@@@@##@@@@@@@@@@@@@@@@@@@@@@@@@@@@@@@@@@@@@@@@@@@@@@@@@@@@@@@@@@@@@@@@@@@@@@@@@@@@@@@@@@@@@@@@@@@@..@@@@@@@@@@@@@@**",
"++@@@@@@@@@@@@@@##@@@@@@@@@@@@@@@@@@@@@@@@@@@@@@@@@@@@@@@@@@@@@@@@@@@@@@@@@@@@@@@@@@@@@@@@@@@@@@@@@@@@@@@@@@@@..@@@@@@@@@@@@@@**",
"++@@@@@@@@@@@@@@@@++++++++........................++..++......................................++..++....        @@@@@@@@@@@@@@**",
"++@@@@@@@@@@@@@@@@++++++++........................++..++......................................++..++....        @@@@@@@@@@@@@@**",
"++@@@@@@@@@@@@@@@@@@@@@@@@@@@@@@@@@@@@@@@@@@@@@@@@@@@@@@@@@@@@@@@@@@@@@@@@@@@@@@@@@@@@@@@@@@@@@@@@@@@@@@@@@@@@@@@@@@@@@@@@@@@@**",
"++@@@@@@@@@@@@@@@@@@@@@@@@@@@@@@@@@@@@@@@@@@@@@@@@@@@@@@@@@@@@@@@@@@@@@@@@@@@@@@@@@@@@@@@@@@@@@@@@@@@@@@@@@@@@@@@@@@@@@@@@@@@@**",
"@@@@@@@@@@@@@@@@@@##$$####$$##$$##$$$$$$$$$$$$$$##@@@@@@@@@@@@@@@@@@@@@@@@@@@@##$$$$$$$$$$$$$$$$$$$$##$$##$$##@@@@@@@@@@@@@@@@**",
"@@@@@@@@@@@@@@@@@@##$$####$$##$$##$$$$$$$$$$$$$$##@@@@@@@@@@@@@@@@@@@@@@@@@@@@##$$$$$$$$$$$$$$$$$$$$##$$##$$##@@@@@@@@@@@@@@@@**",
"++@@$$..##@@@@@@##$$==================--==--==--$$##@@@@@@@@@@@@@@@@@@@@@@@@##$$==================--==--==--$$##@@@@$$..##@@@@**",
"++@@$$..##@@@@@@##$$==================--==--==--$$##@@@@@@@@@@@@@@@@@@@@@@@@##$$==================--==--==--$$##@@@@$$..##@@@@**",
"@@@@$$####@@@@@@$$==============--==--==--==--==--++@@@@@@@@@@@@@@@@@@@@@@@@$$==============--==--==--==--==--++@@@@$$####@@@@**",
"@@@@$$####@@@@@@$$==============--==--==--==--==--++@@@@@@@@@@@@@@@@@@@@@@@@$$==============--==--==--==--==--++@@@@$$####@@@@**",
"++@@$$$$@@@@@@@@++--==--==--==--==--==--==--------++@@@@@@@@@@@@@@@@@@@@@@@@++--==--==--==--==--==--==--------++@@@@$$$$@@@@@@**",
"++@@$$$$@@@@@@@@++--==--==--==--==--==--==--------++@@@@@@@@@@@@@@@@@@@@@@@@++--==--==--==--==--==--==--------++@@@@$$$$@@@@@@**",
"@@@@@@@@@@@@@@@@@@++..++++++++..++..++..........++@@@@@@@@@@@@@@@@@@@@@@@@@@@@++..++++++++..++..++..........++@@@@@@@@@@@@@@@@**",
"@@@@@@@@@@@@@@@@@@++..++++++++..++..++..........++@@@@@@@@@@@@@@@@@@@@@@@@@@@@++..++++++++..++..++..........++@@@@@@@@@@@@@@@@**",
"$$************$$**$$**$$$$$$$$$$$$$$**$$******$$**$$********$$**$$$$$$$$$$$$$$$$**$$**$$$$**$$**$$******************************",
"$$************$$**$$**$$$$$$$$$$$$$$**$$******$$**$$********$$**$$$$$$$$$$$$$$$$**$$**$$$$**$$**$$******************************"};
