/* XPM */
static char * wall_iron3_xpm[] = {
"64 64 13 1",
" 	c #EBEDE9",
".	c #A4DDDB",
"+	c #151D28",
"@	c #819796",
"#	c #A8B5B2",
"$	c #577277",
"%	c #202E37",
"&	c #394A50",
"*	c #090A14",
"=	c #10141F",
"-	c #241527",
";	c #341C27",
">	c #4D2B32",
"  . ..+@#. $$$$$@@$%##.         @%#$#$$$$$$@#@%$@&&&&&&$%$##    ",
"######+$#@@@@@@@@@$%@######.#..##%#@@@@@@@@@@@%$$@###@@$%$######",
"**==***%%%&&&&&&&%%==*************+%%&&%&&&&%%*%%&=&&&&&+===*===",
"$$$$$$@@$$$$$@@@@@&+$$$$$$$$$$$@@+@@$@#=#@###@$$@$@$$@@@+&&$$$$$",
"#####%##%&&$$$$%%%$%#+$@@@@@###.&%#%@$@=@@@$$@$&&&&$$$&+%$ $####",
"$@@$@&##$$$@@@@=@&$%#+@$$$$$$@$$&%#+@$@=@@@$$@&&$$@@@@$+%$ $@@@@",
"####@&##@@@@@@@@#@$&#%#@#@###@@@&%#%@$@=@@@$$@&%$@@@@@@+%& $@@@#",
"@@@@$&##@@@@$&@@@$$&#%@@@@@##@@@&%#%@$@=@$$@@@&%@@@&$&@+%$ $@@@@",
"&#@@@&##$@@@@@$@@$$&#&@@@##@@@@@$%#%@$@=@@@@@@&%@@@@@@@+%$ $@@#@",
"@@@@@&##@@%@@@@@@$$&#&@@@@$@@@@$&%#%@$@+@@@@@@&%@@&$@@@+%$ #@@@@",
"@&&&%&$##.##$$$&$&%&@       .###$&$@+&%=&&&%%$$%&&&@@$&&%$$#@##@",
"$&&&&&&&&&&&$$&&&&&%%&&&&&$&$&&&&%&&&&&&&&&&&&&&&&&&&&&&%&&&&&&&",
"%%%%%&@#%%%%%%%%%%&%@$%%%%%%%%%%%%#&%%%%%%%%%@#$&%&&&&%+=**%%%%%",
"$@@$$&@#$@@@@@@$$&&%@@$@$$$$$$$$$%#$$$$$$@@$&@.$$$@@@@$&%$.@@$@@",
"@@@$$&@#$$@@@@@@$&$%#@@@@@@@@@$@@&#$$@@$$@@@&@.$$$@@@@$&%$ @@@@@",
"@@$$$&@#$@@@@@@$$&$%#@@$$@@@@@$@@%@$$$@$$@@@&@#$@$@@@@@&&$ @@$@@",
"##@@@&##$$@@@@$@@$&%#@@$@@@@@@$@$%#@$@@@@@@$&@.$$$@@@@@&&@ @@@##",
"$$$@$&@@&$$&&&&&&&&&@@$$$$&$&&$$$%@@$$&$&&$$%@#$$&&&&&&%&@ @$$&$",
"@$$%&%&$$$$$@@$$$$&%%$$@@@@$@@$$$%&@@@@@@@@@$$$$$$$$@@@@&@..$$$$",
"**===%&$$$$$$$$$$&*=&&&$$$$$$@@$$+&&$$&-&;&$%$%$$$@@@@$$+&&&****",
"$$&&&$@@$$$@@@$$$$&%#%&$$$$$$$$$$&@$$$$$$$$$&@&&$$$$$$&%%$.$$$$$",
"..#@&$@@$$@$@@@@@$$&#%$@$@@@@@@$&&@&@@@@@@@@+$&%@@@@@@$&%& $@##.",
"@##@@$#@$$@$@@@@@@$&#%@@@@@@@@$@&&#%@@@@$@@@$$&&$@@@@@$+%$ $@@@@",
"@@@@@$#@@@@@#@@@@@$&@%@@@@@@@@@$&&#%@@@$$@@$@$&&@@@@@$$=%$ $@@@@",
"@@@@$$#@$$@@@@@$@@$&#%@$$$@@@$@@&&#%@@@@@$@@@$&&@@$$@$$=%$ $@@@@",
"@@@$@$@@$$$$$$$$$$&&#%$$$$$$$$$@&&#&@$$$@$$@$$&&$$$$$$$=%$ $$@@@",
"@@#@@$$@$@@@@@@@@@$&$@##@#####@@@&@########@@$%@@@@@@@$$%$$#####",
"*===+=+===*=====+=%+-+=****==+=%%+%%+++*==+++&%+==+=+++%+%+===**",
"@@@@@$=$@@@@@@@@@$&*+$@@@@@@@@@@$=%$$@@@@@@@@@+&$$@@$$&==%$$@@@@",
". ... +@###......@&&#...  ......$%$$##...###.@%$@###.##&%$.##.. ",
"##.##.+@@#########&&@#####@ ##...&$@@########@%&$######&%$######",
"++++++=+++-++++--++=+++++++++++++*+%%++%-+-%%+=%+-%+%%++=++-%-%-",
"%%%%%%+%%%%%%%%%+%&+%%%%%%%%%%%%&+&%&%&&&&&&&&=&&&&&&&&%+&%%%%%%",
"&&&&=$%$$$$$$$$$$$$%@@$&&&&&&$&$$%@$%$&$$$$&+&=$+$$$$$$+%&#&&&&&",
"@$$$&@%@$$$$$$$$$$$%#@$$$$$@@@$$$%@@@$$@@@@@&&+$&@@@@@$%%$.$$$$$",
"$$@$$@%@$$$$$$@$$&$&#@$$$@@@@@$@$&@@@@@@@@@@$%+$$@@@@@@%%$.@$$$@",
"@@@@$@%@$$@@$$$@@$$&@@$$$$$$@$$$$%@@$@@@@@@@$%%$$@@@@@@&%$.@$$@@",
"###@@@%@@@@$&$$&&$$&@#########.#$%@@ &@$$&&&@&%$ @$$$&$&%$# ....",
"#####$%$$$&@@@@@@$&&$#@@####@@@#&%$$$@@@@@$@$%+$$@@@@@@&+$######",
"++%%%%*=*=++%%%&%=*=-%%*=*********===&%&%%%%=**=+++%&&&+=+**====",
"@@@@@@@@@#@##@@@@@@&###$$&@&@@@@@&#@##.######@&%&$$$&%%$%#&&&&&&",
"%%%%-+$$+%$&&&&-+-&%$&$$$&$+@%++%+&%-&%%%%%%$@$+$$$@@@@@+&&++++%",
"&&&%&%@#&&$$$$$@$%$&@%@$@&$+@$@$&+@$&&$$@@@@$@&-$$$#@#@$-$#$$$&&",
"$$$@$%@@$@$@@@@$$&$&@&$$@&$+@@@$&+@$$$@@@@@@$$&+$$$@@@@$+$#$$@$$",
"$$@@@%@@$$$$$$$$$&$&@&$$@%$+@$$$&%@$$$$$$$$$$$&%$&$@@@@$+$#$$@$@",
"@@@@$>@@$$$$$$$$$&$&@%$$@%$+@@$@&+@$$$$$$$$$$$&+$$$@@@@$+$#$$@@@",
"$$$$$&@@$$$$$$$$$%$&@&$$@&$+@$$@&%@$$$$$$$$$$$&&&$$@@@$&+$#$$$$$",
"@@@@@@@#@$$$$$@@@$$$$@$$$@@&@@$@$&@@@@@@@@@@&$$$$&&$$@&@&$#@@@@@",
"*=*******==********==*=+=***==*=****=*+======*****==+%+*********",
"&&$$@&$@@$$&&&&&&&&&@@$$$$&&&&$@$&#@@$&&&&&&&@%$@$$$@$%&&$##@&&&",
"$$$&@&&@%&$$$$$$&%&%@$$$$$$$$$&&$%@@&$$@@$$&&@%&@$$$$$&%=&@$&$$$",
"$$$$@&&@$$$$$@$$$&&%@$$$@$$$$$&&$+@@@$$$$$$$&@%&@$@@$$$%=&@@$$$@",
"$$$$@&&@$$$$$$$$$&&%@$$$$$$$@$$&$=@@@$$$$$$&&$-&@$$$$$$%=&@@$$$$",
"$$$$@&&@&&$$$$$$$&&&@@$$$$$$$@$$$=$$#$$$$$$&&&%&@$$$$$$%+&@@$$$$",
"#@@$@&&@&$@@@@@$&&&%$@@@#@@##@$$$+$$@@@##@@$$&%&$&%%&$&%+&@$$@##",
"$$$$&&&$$$$$$$$$$$&%$$$&$$$$$$$$&+$&$$$$$$$$&&-$$$$$@@@&+&&$$&&$",
"+==+%==%-;+--+-++++%%=++++++++--+=&%%+++-+=++@%++----+-=*&%%++++",
"@#####=@@@@@@@@@@#%&$#@@@@@@@@##&+&@#@@@@@##@@%&$#@@@@@&-$@###@@",
"&&&&&%+%%%&&&&%&%&=%&&&&&&&&&&&&%+%&&%%&&&&&&%=%%&&&&&&%+&&&&&&%",
"%%%%%%=%%%%%%%%%&&%=%%+%%%%%%%%%%-%%%&&&&&&&&+=&%&&&&&&++-%%%%%%",
"&&&&&$%$&&$$$$$$$%&%$&&&&&$$$$$&$%$&$$$$$$$&$&+$$$$&@$$&%&$&&&&&",
"$&$&&$%$$$$$$$&&$&$%$$&&&&$$$$$$&%$$&$&$&$$$&%+$&$$$$$$%%&@&&&&&",
"$$$$$$%@$$$$$$$$$$$%@$$$$$@$@$$$$%@$$$$@@@$$$%%$&@@@@@$%%&@$$$$$",
"$@@$$$%@$@$$$$$$$$$%@@$$$@$$$$$$$%@$@$$$$$$$$%+$&$@@$@@%%$#$$$@@"};
