/* XPM */
static char * wall_iron4_xpm[] = {
"64 64 17 1",
" 	c #A8B5B2",
".	c #819796",
"+	c #341C27",
"@	c #577277",
"#	c #E7D5B3",
"$	c #D7B594",
"%	c #C09473",
"&	c #AD7757",
"*	c #4D2B32",
"=	c #090A14",
"-	c #394A50",
";	c #10141F",
">	c #EBEDE9",
",	c #7A4841",
"'	c #241527",
")	c #202E37",
"!	c #151D28",
" .+@##$$ $$    $  @ ..    .%   ..  %%.&     ...@                ",
"*+=   ##   .@.  .   %......... ........@+-*----;>        ....***",
";,;.......@@&@....,...........&...@@,@@-*+'=;;=%#...  ...&@@@+==",
"*@;..&@.&..&......@.............@.&..@@-*.-;+++%#........@@@@*;,",
"+,'.@@@@,@@@@@@@@@@@...@...@@@@@@@&.&@@--;;;;'+%#@@...@@@@@@,+;*",
"=,-**++++++++'+''++++++++++++++++++++,-*-;;;;'+ ,-+++++++++'+'=)",
";*-++'';;;;;;;;;;;;;;;;;;;;;;;;;;;;;;+,**;';;;+ -*;;;;;;=;;;;;;'",
"-**-**---,*--*--***----*+'=='+**--*;=,&*@,,;;+-%-,=+*-*,-------,",
"         .   ..       . .@***+-,@,,-',@-@@-*,@@.-@=$>     .    $",
"......&.....&@,,@.&......@*+*--,,,,,+,@****-@@,&-,;$#.......@,@.",
"...&@@@.......@,@.@......,*++++*;@@-*,@**-@,@@,@-,;$%......@,,,@",
"@@&@,@@@@@@.&..@&.@@&..@.,*'=;;'''+++@@,*-@@&@@@-,;$%.@@..@@,,,,",
"@@@@@,,@@@.@@@..@........-*'==;'+*--+,@%@@@@,@@@-,'  @@...@@@@@@",
"-,-----------*------*---***'=+*+,@@@+@,$+*,,@@,@*-',,***---*----",
"'++++'''''+++++'+'+++++++';;++****-,;.-+;;*+++'''-='+'+''''+''''",
"===============================;=;;;=.*-*+*;=-;+=,'=============",
"*******--*****+-******-**---*--**----++========+*-**************",
"..............  . ..  .*........  ...@@,,,,,,,,@,,,...........@.",
"@@,@.......@. . ..,,@@,,,,,,@@@@@@@@,,,*,,,,,,,,,,,,@@@@&&&@@@@@",
"++***+''''';'+'++**--,,,,*,---*,--*,,--*,,,-----**********+*+**+",
"@&..--,,$'+;++,.&....@@@&&.@@@@,,,,,,,@,,,,@@.......@@....&...@@",
"...#.@@-,**;==..  . ..........   . @........      .  . ... .....",
"..@.@@@*@*''==,@%@....@.@@@@@@@@@@@,@@@@@@@,#...@@...&@.....@@.&",
"@@@@,@@*@*+;==,,.@..@@@&,*;----*++--------)*$@@@,,.@@@......@@@@",
".@,@,,,*@++===,,%..@...@-+.;++++++'+'+++;;+,#&&&@@@@,@@@&@@@@,@@",
"'+;,***@,+'===+*;;';;;;;;;'**=;'+++=++++'**-*''+''''''''''''''''",
",@ -,***@+*===,+   ....@*''*&,,@&@@,,,,.-=*%......@.@.....@@..@@",
", ........-+@,,>$     .@-*@.@@&@@,,-,,,@@@,%#..  .......  .  ...",
",.......@-* . .........@**,@@..@@,,-,,,@@@@.$.......&...........",
",.&...@-***............@-+,@@...&@@*@,,@@@@.$.@.................",
",------@)-@,...........,-*,@@..&&&&-@,@@@,,% ..@@...@@......@..@",
"@,=.,@@@+,@*+*+*+++*++++)-,@,..&..&*.&@.@@-@++++++++***++++++)++",
"@,; ...@+*;=============-+,,@@.@...*.@..@@%+====================",
"==-.@@@@-*++++++++++++*+++@@,@&@.&.,&.@.@,*++'++++++++++++++++++",
"--@,*@@@-,---*------,,*---@-,-&@..&*@@,,,-@--*-*------,------**-",
",-,,*,@@,,,@,,,,@@@,,@,-,,@-,,@@@@@*@@@,,-.,,**-,@@@@@@@@@,,,,,,",
"-,,,+,,,,,,,,,,,,,,,,,,,,-,-@@*++*'++,@@*-.-**-,,,@@..&@@,,,,-**",
"**--*-,,,,-,,,,,,,@,,,,-*--+,,,,@@,*,@@@--@,,,,,,,@@@@@@@,,,,---",
",,@@*,,,@,@@,,,,@,,,@,@,@--*@@@@@.@,@@@@-*@,*,--,,@,,@-,,,@,@@,@",
"'''+++''++*+)*++++'+'+++)+*+**)++''''++)+-)+'''!'''''+'++'';';;'",
"++**)++''+)***------+**------*++''***++++*'++++;;;;;;;-*+++'*-**",
"..,.@.@,*-@.@...... ..... ...    .. ..@&.......@*-,,,-@$.... ...",
"@@..@@@,*+&@,@.@@....@@,@@&......@..@,,@@@@@@@@,;'++**@%.@.&.@@@",
"+++..@@,,***+'+++++++++++)+++++++'++++*++++++++-======@@++++++++",
"==;+.&@@@,@-==================;;======+;;;;====;======,-========",
"+++';';;++'+''+;+++'''''';*+++';''+''++--++'+++;''''++++++''+';'",
"-*,-,-,-*---,--;-+-------+,,-+---,-*,,@@------**-*----@-*---@--@",
",+..@@@@.@....@,@-,,,-@@----,*-,*@@+,-@@,......@@,**@,,@@,@.@@@@",
"*+.@,@,@@@@&&@,@.-*@@@@@@@@@@@@&@@@-@@@.@.%,@@,,,-,,,,---,,,,-,,",
"-+.,,........&.@@,@,@@@@.@@,,,@@@@@*@,@.@..-*-*..............@.@",
"*'&,,@@@@@...@.@&,@@@@..@@@,,@.@@.@+....@&@**,,@@@@@@@&@@@.@@,@@",
"++.,,@@@@&.@@@@@.,@@@&&.@,@@@.@@.@@-....@&-'*,,,,,,,,,,,,----,,,",
"++&,,,,@,@@@@@,,@,*@@@.&&@@@@@@@@&&-...@@.,*+,@,,,,,@,,,,-**,,,,",
"+)@,,,,,,,,,,,,,@,+@&@@@&,@@@@,@@@@@@@@@,&--*@@@@*+*+++'''*-,,,,",
"-,@,,,,,,,,,,@,,@,,@@@&&@,,@@,,,@@,,,,,,-&.,,@@.....&.@@@@@@@,,-",
"';'';;''';+'+'++;;';'';';='';;'+'+';''';;'';;''==';''=;;=;;;;;;'",
",-,,,,-**,,,,,,,,*%@.......&&@@@@@@@@&.@-@@*--=====,,@,,,,@&..@@",
",@,,---**-*+,,*,,*&......&........@@&...@*@**)@+'+'*-,,@@&.&&&.@",
",-+@'=------@@----..@,......@.......@...@@.,-+-====;@@@@.@@.@.@@",
"+**-)++***--,,,*,.****+*****+*****+****-**;.@@'-----**********+*",
"--**---*--*@@@@+.@,,--*------*------------=.@@@+.--------*------",
"@@--@@@.@-.&@@@-@@@@,....@..@@....@....@@@@=%@@@*.@.@@@@@@..@@@@",
".@...@,@%.>##.  ### ####  ##   . .    .    '### .,,..@@@.@@@....",
".. ...@@@@@,-*--*----------+*+*--*---------=.@@,@... .   *   ..."};
